<?xml version="1.0" standalone="no"?>
<!DOCTYPE svg PUBLIC "-//W3C//DTD SVG 1.1//EN" "http://www.w3.org/Graphics/SVG/1.1/DTD/svg11.dtd" >
<svg xmlns="http://www.w3.org/2000/svg" xmlns:xlink="http://www.w3.org/1999/xlink" version="1.1">
<metadata>
Created by FontForge 20201107 at Sun Jun 12 12:21:13 2022
 By Unknown
Copyright (c) 2020 by Zaharov A.E. All rights reserved.
</metadata>
<defs>
<font id="ZaharovAEPro-Bold" horiz-adv-x="600" >
  <font-face 
    font-family="ZaharovAE Pro"
    font-weight="700"
    font-stretch="normal"
    units-per-em="1000"
    panose-1="2 0 3 3 0 0 0 0 0 0"
    ascent="800"
    descent="-200"
    x-height="510"
    cap-height="686"
    bbox="-55 -211.078 1546 890"
    underline-thickness="50"
    underline-position="-100"
    unicode-range="U+0020-1F86E"
  />
<missing-glyph horiz-adv-x="233" 
 />
    <glyph glyph-name=".notdef" horiz-adv-x="233" 
 />
    <glyph glyph-name=".null" horiz-adv-x="0" 
 />
    <glyph glyph-name="nonmarkingreturn" horiz-adv-x="333" 
 />
    <glyph glyph-name="space" unicode=" " horiz-adv-x="260" 
 />
    <glyph glyph-name="A" unicode="A" horiz-adv-x="621" 
d="M7 0l218 686h171l218 -686h-167l-48 162h-180l-45 -162h-167zM308 524l-59 -246h120z" />
    <glyph glyph-name="B" unicode="B" horiz-adv-x="666" 
d="M70 0v686h304q116 0 174.5 -41.5t58.5 -130.5q0 -123 -107 -154q61 -13 93.5 -57.5t32.5 -111.5q0 -93 -60.5 -142t-168.5 -49h-327zM230 295v-175h125q55 0 81.5 20.5t26.5 67.5q0 46 -27 66.5t-81 20.5h-125zM230 411h114q57 0 81.5 18.5t23.5 62.5q-1 41 -25 57.5
t-80 16.5h-114v-155z" />
    <glyph glyph-name="C" unicode="C" horiz-adv-x="647" 
d="M457 229h169q-4 -55 -25 -97.5t-62 -76.5q-34 -30 -87 -47t-116 -17q-70 0 -126 23t-91 66q-41 48 -60 106t-19 137v42q0 49 8.5 90.5t27.5 83.5q35 71 105 115q31 19 72.5 30t84.5 11q61 0 113 -17t87 -47q41 -35 62.5 -78t26.5 -100h-169q-2 29 -11 55t-21 37
q-19 17 -38 23.5t-50 6.5q-32 0 -53 -11.5t-39 -38.5q-16 -22 -25 -61.5t-9 -91.5v-53q0 -53 8 -93.5t23 -62.5q19 -28 40.5 -40t52.5 -12t50.5 7t39.5 24q12 12 20.5 36t10.5 51z" />
    <glyph glyph-name="D" unicode="D" horiz-adv-x="684" 
d="M70 0v686h235q69 0 133.5 -17.5t116.5 -71.5q45 -46 69.5 -116.5t24.5 -136.5q0 -63 -23 -137t-81 -129q-48 -45 -103 -61.5t-120 -16.5h-252zM230 560v-434h72q94 0 137 68q38 61 38 156q0 104 -47 160q-27 31 -59.5 40.5t-71.5 9.5h-69z" />
    <glyph glyph-name="E" unicode="E" horiz-adv-x="597" 
d="M557 0h-487v686h487v-126h-327v-159h253v-116h-253v-159h327v-126z" />
    <glyph glyph-name="F" unicode="F" horiz-adv-x="597" 
d="M230 0h-160v686h487v-126h-327v-159h253v-116h-253v-285z" />
    <glyph glyph-name="G" unicode="G" horiz-adv-x="691" 
d="M641 0h-116v78q-27 -41 -76.5 -64.5t-115.5 -23.5q-57 0 -109 18t-96 67q-43 48 -67 118.5t-24 140.5q0 46 9 92q20 104 77 170q48 56 112 78t129 22q136 0 198 -69t77 -153h-169q-2 19 -7.5 32.5t-16.5 28.5q-13 17 -38 27.5t-61 10.5q-31 0 -61.5 -18.5t-49.5 -52.5
q-9 -18 -18 -49.5t-9 -71.5q0 -82 5 -112q6 -56 27 -91q38 -63 114 -68q32 -2 57 7.5t42 26.5q15 15 24.5 39.5t9.5 50.5v18h-136v116h289v-368z" />
    <glyph glyph-name="H" unicode="H" horiz-adv-x="695" 
d="M465 406v280h160v-686h-160v280h-235v-280h-160v686h160v-280h235z" />
    <glyph glyph-name="I" unicode="I" horiz-adv-x="300" 
d="M230 0h-160v686h160v-686z" />
    <glyph glyph-name="J" unicode="J" horiz-adv-x="409" 
d="M294 60q-31 -41 -73.5 -57.5t-108.5 -16.5q-24 0 -54 6t-47 17v136q39 -9 85 -9q22 0 37 7.5t24 18.5q22 27 22 98v426h160v-436q0 -72 -9.5 -114.5t-35.5 -75.5z" />
    <glyph glyph-name="K" unicode="K" horiz-adv-x="664" 
d="M70 0v686h160v-286h22q84 0 102 18q21 21 30 73q10 57 29 103q16 46 50.5 70.5t81.5 24.5q37 0 71 -6l1 -98h-15q-27 0 -34 -7q-9 -9 -14.5 -25t-13.5 -44q-16 -62 -24 -82q-15 -38 -34 -52t-55 -16v-3q29 0 59 -16t43 -40q17 -32 23 -61q22 -92 46 -113q12 -11 22 -11
h14v-104q-8 -7 -29 -12t-41 -5q-32 0 -59 13t-44 37q-16 23 -27 51t-28 89t-42 86q-16 14 -36 17t-60 3h-35l-3 -290h-160z" />
    <glyph glyph-name="L" unicode="L" horiz-adv-x="536" 
d="M230 686v-560h292v-126h-452v686h160z" />
    <glyph glyph-name="M" unicode="M" horiz-adv-x="894" 
d="M70 0v686h246l131 -430l131 430h246v-686h-154v534h-2l-168 -534h-104l-170 534h-2v-534h-154z" />
    <glyph glyph-name="N" unicode="N" horiz-adv-x="709" 
d="M639 0h-160l-227 397q-18 31 -27 62q5 -37 5 -89v-370h-160v686h160l227 -395q21 -38 27 -62q-5 55 -5 85v372h160v-686z" />
    <glyph glyph-name="O" unicode="O" horiz-adv-x="707" 
d="M667 359v-31q0 -99 -37 -179q-34 -74 -106 -119q-70 -41 -169 -41q-100 0 -168 41q-74 44 -108 118q-39 79 -39 176v34q0 100 38 179q34 73 108 119q65 41 168 41t168 -41q72 -44 108 -119q37 -81 37 -178zM495 325v34q0 53 -9.5 95t-27.5 67q-21 30 -45 43t-59 13
t-59.5 -13t-45.5 -42q-17 -27 -27 -69.5t-10 -90.5v-34q0 -50 9.5 -91.5t27.5 -68.5q20 -31 45 -45t61 -14q35 0 59 13.5t44 43.5q17 26 27 68t10 91z" />
    <glyph glyph-name="P" unicode="P" horiz-adv-x="642" 
d="M70 0v686h254q135 0 206.5 -52.5t71.5 -158.5t-68.5 -162.5t-188.5 -56.5h-115v-256h-160zM230 566v-190h98q62 0 88 25q28 25 28 71q0 42 -26 66q-14 13 -36.5 20.5t-50.5 7.5h-101z" />
    <glyph glyph-name="Q" unicode="Q" horiz-adv-x="707" 
d="M495 325v34q0 53 -9.5 95t-27.5 67q-21 30 -45 43t-59 13t-59.5 -13t-45.5 -42q-17 -27 -27 -69.5t-10 -90.5v-34q0 -50 9.5 -91.5t27.5 -68.5q20 -31 45 -45t61 -14q35 0 59 13.5t44 43.5q17 26 27 68t10 91zM40 324v34q0 98 38 179q34 72 108 119q65 41 168 41t168 -41
q72 -43 108 -119q37 -80 37 -178v-31q0 -101 -37 -179q-35 -75 -106 -119q-46 -25 -96 -35q1 -2 2.5 -4t2.5 -4q7 -7 15 -9.5t23 -2.5q34 0 121 22v-139q-49 -27 -120 -27q-84 -1 -140.5 45t-63.5 122q-44 10 -81 32q-73 43 -108 118q-39 80 -39 176z" />
    <glyph glyph-name="R" unicode="R" horiz-adv-x="697" 
d="M649 115l3 -102q-8 -7 -33.5 -13t-46.5 -7q-32 -1 -59 11.5t-45 35.5q-22 29 -34 54.5t-26 76.5q-15 52 -36.5 77.5t-57.5 25.5h-84v-274h-160v686h300q110 0 172 -44q78 -57 78 -164q0 -78 -33 -120.5t-105 -64.5q26 -6 44 -27q15 -16 25 -36.5t27 -65.5q12 -29 25 -39
q14 -11 23 -11zM460 480q0 47 -31 68q-25 18 -78 18h-121v-172h123q52 0 80 22q27 23 27 64z" />
    <glyph glyph-name="S" unicode="S" horiz-adv-x="637" 
d="M588 473h-165q-1 43 -9.5 65.5t-28.5 32t-59 9.5q-59 1 -82 -16t-23 -62q0 -32 20 -52t63 -30q109 -27 151.5 -40t71.5 -32q42 -27 61 -63t19 -82q1 -63 -33 -112t-97 -77t-145 -29q-148 -4 -227 61t-75 188h165q0 -53 11.5 -80.5t40.5 -39t84 -11.5q56 0 81.5 21
t25.5 66q0 34 -18 54.5t-57 30.5l-103 26q-104 26 -157 75.5t-53 120.5q0 60 35 106.5t98 71.5t144 24q82 -1 143.5 -30t92.5 -80t25 -116z" />
    <glyph glyph-name="T" unicode="T" horiz-adv-x="569" 
d="M207 560h-182v126h519v-126h-182v-560h-155v560z" />
    <glyph glyph-name="U" unicode="U" horiz-adv-x="669" 
d="M220 686v-436q0 -54 22 -97t96 -43q111 0 111 140v436h160v-438q0 -88 -51.5 -172.5t-227.5 -85.5q-104 -1 -164 42.5t-83 101.5t-23 107v445h160z" />
    <glyph glyph-name="V" unicode="V" horiz-adv-x="671" 
d="M264 0l-249 686h164l156 -464l157 464h164l-250 -686h-142z" />
    <glyph glyph-name="W" unicode="W" horiz-adv-x="949" 
d="M15 686h165l114 -460l115 460h127l123 -460l110 460h165l-181 -686h-170l-109 420l-104 -420h-170z" />
    <glyph glyph-name="X" unicode="X" horiz-adv-x="633" 
d="M188 686l127 -232l130 232h173l-201 -336l206 -350h-175l-136 232l-127 -232h-175l211 350l-206 336h173z" />
    <glyph glyph-name="Y" unicode="Y" horiz-adv-x="658" 
d="M329 388l149 298h170l-242 -449v-237h-154v237l-242 449h170z" />
    <glyph glyph-name="Z" unicode="Z" horiz-adv-x="578" 
d="M41 686h505v-103l-326 -457h337v-126h-536v107l330 453h-310v126z" />
    <glyph glyph-name="a" unicode="a" horiz-adv-x="576" 
d="M536 0h-144q-5 7 -8.5 25.5t-4.5 35.5q-29 -35 -71 -53t-91 -18q-48 0 -88 19q-42 19 -65.5 54.5t-23.5 78.5q0 79 64 125q39 28 112 38t163 1v34q0 36 -18 53t-66 18q-52 1 -78 -10t-26 -45h-136q0 45 28 82q30 43 79.5 62t132.5 19q50 0 94 -12.5t71 -35.5
q55 -46 55 -133v-221q0 -31 6 -62t15 -55zM374 223h-45q-68 0 -104 -21t-34 -57q1 -21 16 -36t58.5 -12.5t71.5 18.5q16 9 26.5 24t10.5 36v48z" />
    <glyph glyph-name="b" unicode="b" horiz-adv-x="589" 
d="M212 686v-227q49 61 132 61q68 0 114 -35.5t68.5 -95.5t22.5 -132q0 -70 -22.5 -131t-68 -98.5t-110.5 -37.5q-49 0 -88.5 23.5t-58.5 60.5v-74h-138v686h149zM212 316v-113q0 -51 24 -82t65 -31q53 0 72.5 48.5t19.5 124.5q0 157 -96 157q-41 0 -63 -30t-22 -74z" />
    <glyph glyph-name="c" unicode="c" horiz-adv-x="545" 
d="M286 94q38 0 62 21q23 21 24 61h128q-2 -53 -29 -95q-29 -44 -76 -67t-107 -23q-63 0 -108 17t-77 53q-63 68 -63 191v9q0 117 63 187q31 36 76 53.5t109 17.5q95 0 153 -55q57 -53 59 -145h-128q-1 48 -24 72q-24 25 -63 25q-46 0 -71 -34q-12 -17 -18.5 -49t-6.5 -71
v-14q0 -83 25 -119q24 -35 72 -35z" />
    <glyph glyph-name="d" unicode="d" horiz-adv-x="589" 
d="M377 459v227h149v-686h-138v74q-20 -38 -59 -61t-88 -23q-65 0 -110.5 37.5t-68 98.5t-22.5 131q0 73 22.5 133t69 95t113.5 35q83 0 132 -61zM377 203v113q0 46 -22.5 75t-62.5 29q-52 0 -74 -41.5t-22 -115.5q0 -77 19.5 -125t72.5 -48q42 0 65.5 31.5t23.5 81.5z" />
    <glyph glyph-name="e" unicode="e" horiz-adv-x="542" 
d="M285 -10q-55 0 -101 17.5t-79 52.5q-65 68 -65 185v12q0 80 28 140q28 59 82 93t120 34q107 0 169.5 -66t62.5 -183v-55h-323q2 -26 13 -49.5t27 -38.5q15 -15 36.5 -23t45.5 -8q79 0 119 63l62 -76q-25 -46 -77.5 -72t-119.5 -26zM278 422q-42 1 -69 -28.5t-29 -80.5
h191q0 56 -23.5 82t-69.5 27z" />
    <glyph glyph-name="f" unicode="f" horiz-adv-x="396" 
d="M318 593q-37 0 -54 -17q-11 -11 -13.5 -25t-2.5 -35v-13h113v-105h-113v-398h-149v398h-79v105h79v11q0 44 8.5 80.5t36.5 63.5q41 38 122 38q64 0 120 -12v-99q-41 8 -68 8z" />
    <glyph glyph-name="g" unicode="g" horiz-adv-x="586" 
d="M40 253q0 70 22.5 131t68 98.5t110.5 37.5q49 0 87 -22t60 -62v74h138v-476q0 -65 -31 -120.5t-87.5 -89.5t-129.5 -35q-149 -3 -235 109l79 77q39 -46 75 -63.5t79 -15.5q47 3 74 30.5t27 77.5v47q-49 -61 -132 -61q-68 0 -114 35.5t-68.5 95.5t-22.5 132zM377 250
q0 58 -6 93.5t-25.5 56t-57.5 20.5q-53 0 -72.5 -48.5t-19.5 -124.5q0 -157 96 -157q34 0 52.5 16.5t25.5 50.5t7 93z" />
    <glyph glyph-name="h" unicode="h" horiz-adv-x="585" 
d="M63 686h149v-238q23 37 62 54.5t89 17.5q34 0 66 -10.5t51 -30.5q25 -25 33.5 -61t8.5 -79v-339h-149v325q0 49 -15 73q-16 22 -50 22q-42 0 -72 -45q-11 -16 -17.5 -42.5t-6.5 -51.5v-281h-149v686z" />
    <glyph glyph-name="i" unicode="i" horiz-adv-x="291" 
d="M146 563q-34 0 -58 24t-24 58t24 58t58 24t58 -24t24 -58t-24 -58t-58 -24zM70 0v510h149v-510h-149z" />
    <glyph glyph-name="j" unicode="j" horiz-adv-x="290" 
d="M165 -155q-25 -20 -64.5 -24.5t-76.5 0.5q-33 4 -79 17v105l47 -10q21 -5 40 -0.5t30 21.5q8 13 9.5 38.5t1.5 60.5v457h149v-520q0 -48 -14.5 -85.5t-42.5 -59.5zM145 563q-34 0 -58 24t-24 58t24 58t58 24t58 -24t24 -58t-24 -58t-58 -24z" />
    <glyph glyph-name="k" unicode="k" horiz-adv-x="540" 
d="M62 686h149v-380h8q20 0 32.5 13.5t24.5 36.5q8 15 15 35l7.5 17.5t6.5 18.5q17 46 47.5 66t79.5 20q11 1 60 -1v-101h-13q-23 0 -33 -11q-7 -7 -22 -42l-21 -44q-28 -51 -56 -61v-6q26 -7 41 -22q12 -12 19 -22.5t22 -40.5l19 -38q8 -19 46 -16l16 1v-101
q-34 -10 -67 -11q-23 -1 -45 2.5t-32 9.5q-34 16 -49 51q-13 32 -19 53q-10 37 -12 43q-10 26 -19.5 37t-33.5 11h-22v-204h-149v686z" />
    <glyph glyph-name="l" unicode="l" horiz-adv-x="275" 
d="M63 0v686h149v-686h-149z" />
    <glyph glyph-name="m" unicode="m" horiz-adv-x="871" 
d="M212 276v-276h-149v510h141v-73h1q22 38 58.5 60.5t87.5 22.5q63 0 104 -37q13 -12 20.5 -22t13.5 -29q14 22 26 33.5t37 26.5q47 28 101 28q74 0 114.5 -42t40.5 -117v-361h-149v323q0 28 -2 44.5t-10 28.5q-15 24 -50 24q-19 0 -36.5 -13.5t-25.5 -27.5
q-16 -26 -20.5 -49.5t-4.5 -49.5v-280h-149v323q0 51 -15 73q-17 24 -50 24q-19 0 -37.5 -14t-29.5 -41q-17 -39 -17 -89z" />
    <glyph glyph-name="n" unicode="n" horiz-adv-x="585" 
d="M212 296v-296h-149v510h139v-80h2q25 45 65.5 67.5t90.5 22.5q33 0 64.5 -10t50.5 -28q47 -43 47 -127v-355h-149v325q0 24 -3.5 43.5t-14.5 32.5q-17 19 -51 19t-59 -25q-33 -32 -33 -99z" />
    <glyph glyph-name="o" unicode="o" horiz-adv-x="575" 
d="M40 259v15q0 66 30.5 123.5t86.5 89.5q56 33 130 33q104 0 172 -63q32 -30 51.5 -78t24.5 -105v-15q0 -62 -17 -113t-51 -86q-66 -71 -180 -71q-111 0 -179 71q-68 70 -68 199zM185 249q0 -82 27 -121q26 -39 75 -39q48 0 75 38q15 20 21.5 47.5t6.5 74.5q0 93 -28 131
q-27 39 -75 39q-49 0 -75 -39q-27 -39 -27 -131z" />
    <glyph glyph-name="ostroke" unicode="&#xf8;" horiz-adv-x="627" 
d="M65 259v15q0 67 30.5 124t86.5 89q56 33 130 33q105 0 172 -63q32 -30 51.5 -77.5t24.5 -105.5v-15q0 -61 -17.5 -112.5t-50.5 -86.5q-66 -71 -180 -71q-111 0 -179 71t-68 199zM210 249q0 -82 27 -121q26 -39 75 -39q48 0 75 38q15 21 21.5 48t6.5 74q0 94 -28 131
q-27 39 -75 39q-49 0 -75 -39q-27 -39 -27 -131zM20 -5l483 524h104l-483 -524h-104z" />
    <glyph glyph-name="p" unicode="p" horiz-adv-x="592" 
d="M214 44v-211h-149v677h145v-48q23 25 62 40.5t81 15.5q106 0 154.5 -76.5t44.5 -201.5q-3 -114 -53.5 -181t-144.5 -67q-40 0 -78.5 15t-61.5 37zM214 356q-9 -18 -13 -61t-0.5 -85.5t13.5 -58.5q27 -54 85 -54q52 0 77 37t27 114t-24 120.5t-80 43.5q-55 0 -85 -56z" />
    <glyph glyph-name="q" unicode="q" horiz-adv-x="590" 
d="M378 -167v211q-23 -22 -61.5 -37t-78.5 -15q-94 0 -144.5 67t-53.5 181q-4 125 44.5 201.5t154.5 76.5q42 0 81 -15.5t62 -40.5v48h145v-677h-149zM378 356q-30 56 -85 56q-54 0 -80 -43.5t-24 -120.5t27 -114t77 -37q58 0 85 54q10 16 13.5 58.5t-0.5 85.5t-13 61z" />
    <glyph glyph-name="r" unicode="r" horiz-adv-x="406" 
d="M63 0v510h145v-96h2q5 37 31 67q33 39 92 39q20 0 38 -2v-134h-35q-41 0 -68 -17q-34 -21 -45 -53.5t-11 -79.5v-234h-149z" />
    <glyph glyph-name="s" unicode="s" horiz-adv-x="521" 
d="M19 168h140q0 -80 92 -82q47 -1 75 10t29 42t-18 46.5t-51 20.5l-73 12q-82 14 -129.5 49t-48.5 93q-1 79 65 120.5t164 41.5q76 0 126 -23t73.5 -59t24.5 -76h-136q-2 32 -20 47t-57 16q-43 2 -67.5 -10.5t-25.5 -37.5q-1 -26 10.5 -37t44.5 -19l85 -18
q96 -19 136 -55.5t40 -87.5q0 -85 -64 -127.5t-178 -42.5q-116 0 -176.5 49.5t-60.5 127.5z" />
    <glyph glyph-name="t" unicode="t" horiz-adv-x="406" 
d="M244 510h106v-115h-106v-212q0 -19 2.5 -32.5t13.5 -24.5q15 -15 46 -15q15 0 55 5v-119q-25 -6 -55 -7.5t-55 0.5q-39 3 -68.5 11.5t-51.5 31.5q-25 26 -30.5 56.5t-5.5 82.5v223h-80v115h80v176h149v-176z" />
    <glyph glyph-name="u" unicode="u" horiz-adv-x="582" 
d="M370 510h149v-510h-138v83h-2q-20 -42 -61.5 -67.5t-96.5 -25.5q-63 0 -106 36q-34 29 -45.5 67t-11.5 86v331h149v-307q0 -23 3 -43t14 -34q17 -23 56 -23q42 0 66 39.5t24 91.5v276z" />
    <glyph glyph-name="v" unicode="v" horiz-adv-x="538" 
d="M275 164l103 346h150l-182 -510h-149l-187 510h150l113 -346h2z" />
    <glyph glyph-name="w" unicode="w" horiz-adv-x="768" 
d="M758 510l-162 -510h-131l-82 308h-2l-81 -308h-131l-159 510h150l82 -316h2l80 316h120l80 -316h2l82 316h150z" />
    <glyph glyph-name="x" unicode="x" horiz-adv-x="531" 
d="M180 510l85 -147l87 147h162l-160 -250l167 -260h-164l-92 155l-91 -155h-164l167 260l-160 250h163z" />
    <glyph glyph-name="y" unicode="y" horiz-adv-x="551" 
d="M289 200l101 310h146l-191 -528q-28 -77 -68.5 -119t-114.5 -42q-19 0 -40 3.5t-32 7.5v112l18 -1q41 -3 61 11q15 10 26.5 34.5t17.5 53.5l-183 468h150z" />
    <glyph glyph-name="z" unicode="z" horiz-adv-x="472" 
d="M28 388v122h416v-105l-253 -284h261v-121h-432v105l251 283h-243z" />
    <glyph glyph-name="uni0410" unicode="&#x410;" horiz-adv-x="621" 
d="M7 0l218 686h171l218 -686h-167l-48 162h-180l-45 -162h-167zM308 524l-59 -246h120z" />
    <glyph glyph-name="uni0411" unicode="&#x411;" horiz-adv-x="656" 
d="M571 566h-341v-143h147q98 0 156 -40q83 -57 83 -167q-2 -94 -59 -159q-50 -57 -144 -57h-343v686h501v-120zM230 307v-187h129q43 0 69 24q25 23 25 70q0 46 -27 70q-28 23 -71 23h-125z" />
    <glyph glyph-name="uni0412" unicode="&#x412;" horiz-adv-x="666" 
d="M70 0v686h304q116 0 174.5 -41.5t58.5 -130.5q0 -123 -107 -154q61 -13 93.5 -57.5t32.5 -111.5q0 -93 -60.5 -142t-168.5 -49h-327zM230 295v-175h125q55 0 81.5 20.5t26.5 67.5q0 46 -27 66.5t-81 20.5h-125zM230 411h114q57 0 81.5 18.5t23.5 62.5q-1 41 -25 57.5
t-80 16.5h-114v-155z" />
    <glyph glyph-name="uni0413" unicode="&#x413;" horiz-adv-x="523" 
d="M230 0h-160v686h453v-126h-293v-560z" />
    <glyph glyph-name="uni0414" unicode="&#x414;" horiz-adv-x="701" 
d="M172 686h440v-560h79v-286h-146v160h-389v-160h-146v286h59q36 59 64.5 182t33.5 227l4 113zM452 560h-140l-2 -48q-2 -51 -13 -123q-10 -67 -27.5 -137t-37.5 -126h220v434z" />
    <glyph glyph-name="uni0415" unicode="&#x415;" horiz-adv-x="597" 
d="M557 0h-487v686h487v-126h-327v-159h253v-116h-253v-159h327v-126z" />
    <glyph glyph-name="uni0401" unicode="&#x401;" horiz-adv-x="585" 
d="M196 746q-29 0 -50 21t-21 50t21 50t50 21t50 -21t21 -50t-21 -50t-50 -21zM428 746q-29 0 -50 21t-21 50t21 50t50 21t50 -21t21 -50t-21 -50t-50 -21zM557 0h-487v686h487v-126h-327v-159h253v-116h-253v-159h327v-126z" />
    <glyph glyph-name="uni0416" unicode="&#x416;" horiz-adv-x="956" 
d="M399 395v291h158v-291h15q27 0 41.5 4.5t25.5 15.5q15 14 28 73q12 56 29 99q17 45 53.5 70t85.5 25q31 0 69 -7v-99h-22q-14 0 -21.5 -3t-15.5 -11q-7 -7 -17 -41q-2 -10 -20 -61q-10 -23 -10 -28q-16 -40 -38 -60t-55 -23v-4q35 -4 65 -20.5t46 -41.5q11 -18 39 -97
l7 -19q24 -63 39 -63l30 -1v-90q-9 -6 -33.5 -11.5t-43.5 -5.5q-33 0 -62.5 13.5t-46.5 36.5q-23 34 -33.5 57.5t-22.5 75.5q-16 65 -40 88q-15 12 -26.5 16t-34.5 4h-28l-3 -287h-158v287h-17q-25 0 -40.5 -3.5t-27.5 -11.5q-14 -8 -26.5 -33.5t-19.5 -59.5
q-12 -52 -22.5 -75.5t-33.5 -57.5q-17 -23 -46.5 -36.5t-62.5 -13.5q-21 0 -44 6.5t-33 13.5v91l28 -1q17 -1 26 13.5t18 48.5q6 24 20.5 60.5t29.5 66.5q14 23 39.5 36.5t54.5 13.5v4q-31 8 -51 26t-32 49q-14 37 -21 63q-11 40 -16 56q-7 19 -16.5 27.5t-26.5 8.5h-26v98
l69 5q49 0 85.5 -25t53.5 -70q16 -40 30 -107q4 -23 10.5 -37t18.5 -26q14 -14 25 -18t39 -4h15z" />
    <glyph glyph-name="uni0417" unicode="&#x417;" horiz-adv-x="615" 
d="M398 498q0 15 -7.5 30t-22.5 26q-33 22 -81 22q-43 0 -76 -22q-14 -11 -22 -25t-8 -28h-141q0 56 31 100q32 45 90 69q56 25 126 25q67 0 114 -12.5t81 -38.5q68 -51 68 -144q0 -45 -31.5 -87.5t-84.5 -64.5v-3q67 -17 97 -52t30 -101q0 -92 -73 -148q-72 -54 -201 -54
q-77 0 -135 26q-60 26 -91 70t-31 104h142q0 -31 33 -56q31 -24 82 -24q57 0 89 25q33 26 33 59q0 96 -115 96h-97v111h100q101 0 101 97z" />
    <glyph glyph-name="uni0418" unicode="&#x418;" horiz-adv-x="709" 
d="M70 0v686h160v-372q0 -35 -5 -85q6 25 27 62l227 395h160v-686h-160v370q0 56 5 89q-9 -30 -27 -62l-227 -397h-160z" />
    <glyph glyph-name="uni0419" unicode="&#x419;" horiz-adv-x="709" 
d="M426 890h123q-5 -62 -52 -98q-47 -37 -139 -37t-139 37q-47 36 -52 98h123q0 -56 68 -56t68 56zM70 0v686h160v-372q0 -35 -5 -85q6 25 27 62l227 395h160v-686h-160v370q0 56 5 89q-9 -30 -27 -62l-227 -397h-160z" />
    <glyph glyph-name="uni041A" unicode="&#x41a;" horiz-adv-x="654" 
d="M70 0v686h160v-286h22q84 0 102 18q21 21 30 73q10 57 29 103q16 46 50.5 70.5t81.5 24.5q37 0 71 -6l1 -98h-15q-27 0 -34 -7q-9 -9 -14.5 -25t-13.5 -44q-16 -62 -24 -82q-15 -38 -34 -52t-55 -16v-3q29 0 59 -16t43 -40q17 -32 23 -61q22 -92 46 -113q12 -11 22 -11
h14v-104q-8 -7 -29 -12t-41 -5q-32 0 -59 13t-44 37q-16 23 -27 51t-28 89t-42 86q-16 14 -36 17t-60 3h-35l-3 -290h-160z" />
    <glyph glyph-name="uni041B" unicode="&#x41b;" horiz-adv-x="703" 
d="M162 638l1 48h470v-686h-160v560h-161l-1 -49q-7 -388 -102 -470q-25 -22 -63.5 -35t-75.5 -13q-28 0 -50 7v121l17 -2q60 0 88 84q18 50 28 166q5 65 9 269z" />
    <glyph glyph-name="uni041C" unicode="&#x41c;" horiz-adv-x="894" 
d="M70 0v686h246l131 -430l131 430h246v-686h-154v534h-2l-168 -534h-104l-170 534h-2v-534h-154z" />
    <glyph glyph-name="uni041D" unicode="&#x41d;" horiz-adv-x="695" 
d="M465 406v280h160v-686h-160v280h-235v-280h-160v686h160v-280h235z" />
    <glyph glyph-name="uni041E" unicode="&#x41e;" horiz-adv-x="707" 
d="M667 359v-31q0 -99 -37 -179q-34 -74 -106 -119q-70 -41 -169 -41q-100 0 -168 41q-74 44 -108 118q-39 79 -39 176v34q0 100 38 179q34 73 108 119q65 41 168 41t168 -41q72 -44 108 -119q37 -81 37 -178zM495 325v34q0 53 -9.5 95t-27.5 67q-21 30 -45 43t-59 13
t-59.5 -13t-45.5 -42q-17 -27 -27 -69.5t-10 -90.5v-34q0 -50 9.5 -91.5t27.5 -68.5q20 -31 45 -45t61 -14q35 0 59 13.5t44 43.5q17 26 27 68t10 91z" />
    <glyph glyph-name="uni041F" unicode="&#x41f;" horiz-adv-x="691" 
d="M230 0h-160v686h551v-686h-160v560h-231v-560z" />
    <glyph glyph-name="uni0420" unicode="&#x420;" horiz-adv-x="642" 
d="M70 0v686h254q135 0 206.5 -52.5t71.5 -158.5t-68.5 -162.5t-188.5 -56.5h-115v-256h-160zM230 566v-190h98q62 0 88 25q28 25 28 71q0 42 -26 66q-14 13 -36.5 20.5t-50.5 7.5h-101z" />
    <glyph glyph-name="uni0421" unicode="&#x421;" horiz-adv-x="647" 
d="M457 229h169q-4 -55 -25 -97.5t-62 -76.5q-34 -30 -87 -47t-116 -17q-70 0 -126 23t-91 66q-41 48 -60 106t-19 137v42q0 49 8.5 90.5t27.5 83.5q35 71 105 115q31 19 72.5 30t84.5 11q61 0 113 -17t87 -47q41 -35 62.5 -78t26.5 -100h-169q-2 29 -11 55t-21 37
q-19 17 -38 23.5t-50 6.5q-32 0 -53 -11.5t-39 -38.5q-16 -22 -25 -61.5t-9 -91.5v-53q0 -53 8 -93.5t23 -62.5q19 -28 40.5 -40t52.5 -12t50.5 7t39.5 24q12 12 20.5 36t10.5 51z" />
    <glyph glyph-name="uni0422" unicode="&#x422;" horiz-adv-x="569" 
d="M207 560h-182v126h519v-126h-182v-560h-155v560z" />
    <glyph glyph-name="uni0423" unicode="&#x423;" horiz-adv-x="622" 
d="M325 365l124 321h168l-235 -551q-18 -40 -22 -46q-58 -101 -162 -98q-63 1 -89 8l-1 124l32 -2q40 0 57.5 4t30.5 21q8 10 25 45l-238 495h159z" />
    <glyph glyph-name="uni0424" unicode="&#x424;" horiz-adv-x="842" 
d="M501 623h13q94 0 161 -35q71 -39 104 -99q38 -67 38 -145q0 -60 -19.5 -107t-61.5 -90q-33 -33 -91 -55q-52 -21 -132 -21h-12v-86h-160v86h-13q-96 0 -161 34q-75 41 -105 96q-20 35 -28.5 68.5t-8.5 73.5q0 79 37 144q33 60 104 99q64 37 158 37h17v87h160v-87z
M341 508h-3q-39 0 -62 -9.5t-45 -33.5q-16 -18 -25.5 -51t-9.5 -71q0 -36 9 -67.5t25 -48.5q22 -23 45.5 -32t63.5 -9h2v322zM501 508v-322h4q39 0 62 9t44 33q17 18 26.5 49t9.5 67q0 37 -9.5 69.5t-25.5 51.5q-22 24 -45.5 33.5t-63.5 9.5h-2z" />
    <glyph glyph-name="uni0425" unicode="&#x425;" horiz-adv-x="633" 
d="M188 686l127 -232l130 232h173l-201 -336l206 -350h-175l-136 232l-127 -232h-175l211 350l-206 336h173z" />
    <glyph glyph-name="uni0427" unicode="&#x427;" horiz-adv-x="635" 
d="M40 477v209h154v-199q0 -53 19 -75q13 -15 32 -19t63 -4q56 0 97 7v290h160v-686h-160v273q-78 -8 -134 -8q-62 0 -102 8.5t-71 32.5q-58 46 -58 171z" />
    <glyph glyph-name="uni0426" unicode="&#x426;" horiz-adv-x="709" 
d="M543 0h-473v686h160v-560h231v560h160v-560h68v-286h-146v160z" />
    <glyph glyph-name="uni0428" unicode="&#x428;" horiz-adv-x="945" 
d="M875 0h-805v686h155v-560h170v560h155v-560h170v560h155v-686z" />
    <glyph glyph-name="uni0429" unicode="&#x429;" horiz-adv-x="962" 
d="M796 0h-726v686h155v-560h170v560h155v-560h170v560h155v-560h67v-286h-146v160z" />
    <glyph glyph-name="uni042C" unicode="&#x42c;" horiz-adv-x="643" 
d="M70 0v686h160v-266h144q123 0 185 -65q49 -53 49 -140q0 -49 -14.5 -90t-42.5 -69q-31 -31 -71.5 -43.5t-97.5 -12.5h-312zM349 300h-119v-180h122q49 0 73 23q23 23 23 67q0 42 -23 65q-25 25 -76 25z" />
    <glyph glyph-name="uni042A" unicode="&#x42a;" horiz-adv-x="744" 
d="M10 560v126h321v-272h144q124 0 185 -65q49 -54 49 -138q0 -98 -57 -155q-31 -31 -71.5 -43.5t-97.5 -12.5h-312v560h-161zM331 120h119q52 0 76 23q23 23 23 63q0 41 -23 63q-25 25 -76 25h-119v-174z" />
    <glyph glyph-name="uni042B" unicode="&#x42b;" horiz-adv-x="902" 
d="M70 0v686h160v-266h144q123 0 185 -65q49 -53 49 -141q0 -101 -57 -158q-31 -31 -71.5 -43.5t-97.5 -12.5h-312zM349 300h-119v-180h119q52 0 76 23q23 23 23 66t-23 66q-25 25 -76 25zM832 0h-160v686h160v-686z" />
    <glyph glyph-name="uni042D" unicode="&#x42d;" horiz-adv-x="667" 
d="M209 453h-169q5 57 26.5 100t62.5 78q35 30 87 47t113 17q86 0 155.5 -41t106.5 -115q19 -42 27.5 -83.5t8.5 -90.5v-42q0 -73 -22.5 -137t-60.5 -106q-79 -89 -213 -89q-63 0 -116 17t-87 47q-41 34 -62 76.5t-25 97.5h169q2 -27 10.5 -51t20.5 -36q20 -17 39.5 -24
t50.5 -7t52.5 12t40.5 40q24 36 30 119h-225v118h225q-5 86 -33 125q-18 27 -39 38.5t-53 11.5q-33 0 -51.5 -6t-36.5 -24q-11 -11 -20.5 -37.5t-11.5 -54.5z" />
    <glyph glyph-name="uni042E" unicode="&#x42e;" horiz-adv-x="987" 
d="M947 358v-31q0 -99 -35 -177q-39 -78 -104 -117q-64 -42 -181 -42q-89 0 -151 34q-62 35 -100 99q-43 70 -50 159h-97v-283h-159v686h159v-284h97q2 42 11 73.5t30 71.5q40 74 101 109q65 40 158 40q115 0 181 -42q65 -39 104 -118q36 -78 36 -178zM775 325v33
q0 107 -39 162q-19 28 -44.5 42t-55.5 14q-29 0 -55 -14t-45 -41q-39 -55 -39 -161v-33q0 -102 39 -158q18 -28 44 -43t57 -15q28 0 54 14t45 41q37 55 39 159z" />
    <glyph glyph-name="uni042F" unicode="&#x42f;" horiz-adv-x="677" 
d="M25 13l3 102l23 -1q10 0 23 11q13 10 25 39q17 45 27 65.5t25 36.5q18 21 44 27q-25 9 -51 23t-37 25q-50 48 -50 137q0 107 78 164q61 44 172 44h300v-686h-160v274h-84q-18 0 -27.5 -3.5t-21.5 -13.5q-29 -27 -45 -86q-14 -51 -26 -76.5t-34 -54.5q-18 -23 -45 -35.5
t-59 -11.5q-22 1 -47 7t-33 13zM217 480q0 -41 27 -64q28 -22 80 -22h123v172h-121q-52 0 -78 -18q-31 -21 -31 -68z" />
    <glyph glyph-name="uni0430" unicode="&#x430;" horiz-adv-x="576" 
d="M536 0h-144q-5 7 -8.5 25.5t-4.5 35.5q-29 -35 -71 -53t-91 -18q-48 0 -88 19q-42 19 -65.5 54.5t-23.5 78.5q0 79 64 125q39 28 112 38t163 1v34q0 36 -18 53t-66 18q-52 1 -78 -10t-26 -45h-136q0 45 28 82q30 43 79.5 62t132.5 19q50 0 94 -12.5t71 -35.5
q55 -46 55 -133v-221q0 -31 6 -62t15 -55zM374 223h-45q-68 0 -104 -21t-34 -57q1 -21 16 -36t58.5 -12.5t71.5 18.5q16 9 26.5 24t10.5 36v48z" />
    <glyph glyph-name="uni0431" unicode="&#x431;" horiz-adv-x="575" 
d="M535 243q0 -62 -15 -107.5t-47 -78.5q-66 -66 -192 -66q-112 0 -175.5 73t-65.5 198q-2 103 9.5 163t42.5 111q27 47 87 81.5t122 39.5q34 3 54 6.5t31 10.5q6 4 8 9t5 20h109q0 -43 -10.5 -76t-30.5 -48q-18 -14 -44.5 -19.5t-85.5 -9.5q-72 -5 -118 -38t-57 -90h9
q34 33 68.5 48.5t76.5 15.5q51 0 94.5 -17t71.5 -49q28 -30 40.5 -73t12.5 -104zM396 246q0 63 -28 95q-14 17 -32 25t-45 8q-50 0 -77 -32q-28 -34 -28 -106q0 -64 27 -99q27 -36 79 -36q28 0 45.5 8.5t30.5 26.5q15 16 21.5 42t6.5 68z" />
    <glyph glyph-name="uni0432" unicode="&#x432;" horiz-adv-x="574" 
d="M60 0v510h280q76 0 114 -26q48 -33 48 -97q0 -46 -28 -76t-77 -40v-2q61 -5 99 -38.5t38 -86.5q0 -68 -58 -112q-44 -32 -119 -32h-297zM279 425h-70v-121h67q51 0 69.5 15.5t18.5 48.5q0 28 -19 42.5t-66 14.5zM303 219h-94v-134h94q41 0 61 19.5t20 47.5q0 29 -19 48
t-62 19z" />
    <glyph glyph-name="uni0433" unicode="&#x433;" horiz-adv-x="476" 
d="M212 0h-149v510h383v-105h-234v-405z" />
    <glyph glyph-name="uni0434" unicode="&#x434;" horiz-adv-x="608" 
d="M10 105h47q24 38 37.5 82t20.5 101q5 35 10 222h401v-405h57v-250h-135v145h-303v-145h-135v250zM208 105h169v300h-119l-6 -124q-5 -111 -44 -176z" />
    <glyph glyph-name="uni0435" unicode="&#x435;" horiz-adv-x="529" 
d="M285 -10q-55 0 -101 17.5t-79 52.5q-65 68 -65 185v12q0 80 28 140q28 59 82 93t120 34q107 0 169.5 -66t62.5 -183v-55h-323q2 -26 13 -49.5t27 -38.5q15 -15 36.5 -23t45.5 -8q79 0 119 63l62 -76q-25 -46 -77.5 -72t-119.5 -26zM278 422q-42 1 -69 -28.5t-29 -80.5
h191q0 56 -23.5 82t-69.5 27z" />
    <glyph glyph-name="uni0451" unicode="&#x451;" horiz-adv-x="529" 
d="M172 560q-28 0 -48 20t-20 48t20 47.5t48 19.5t47.5 -19.5t19.5 -47.5t-19.5 -48t-47.5 -20zM411 560q-29 0 -49 20t-20 48t20 47.5t49 19.5q27 0 47 -19.5t20 -47.5t-20 -48t-47 -20zM290 -10q-55 0 -101 17.5t-79 52.5q-65 68 -65 185v12q0 80 28 140q28 59 82 93
t120 34q106 0 165 -65.5t59 -183.5v-55h-315q2 -26 13 -49.5t27 -38.5q15 -15 36.5 -23t45.5 -8q79 0 119 63l62 -76q-25 -46 -77.5 -72t-119.5 -26zM283 422q-42 1 -69 -28.5t-29 -80.5h188q0 56 -22 82t-68 27z" />
    <glyph glyph-name="uni0436" unicode="&#x436;" horiz-adv-x="786" 
d="M321 306v204h146v-204h8q20 0 32.5 13.5t24.5 36.5q8 13 15 35l7.5 17.5t6.5 18.5q7 19 21 38.5t26 28.5q11 8 34.5 13.5t45.5 5.5h60v-102h-13q-9 0 -18.5 -2.5t-14.5 -8.5q-7 -7 -22 -42q-38 -94 -71 -105v-6q17 -5 31 -19q24 -24 45 -66l19 -38q5 -9 18 -13t28 -3
l16 1v-101q-31 -9 -67 -11q-22 -1 -45.5 3t-31.5 9q-34 17 -49 51q-6 14 -11.5 29.5t-7.5 23.5l-12 43q-10 26 -19.5 37t-33.5 11h-22v-204h-146v204h-24q-24 0 -33.5 -11t-19.5 -37l-12 -43l-19 -53q-14 -32 -49 -51q-11 -6 -32 -9.5t-45 -2.5q-36 2 -67 11v101l16 -1
q15 -1 28 3t18 13l19 38q14 27 24.5 41.5t22.5 24.5q14 14 31 19v6q-23 13 -40.5 40t-32.5 65q-15 35 -22 42q-5 6 -14.5 8.5t-18.5 2.5h-13v102h60q22 0 44 -5t36 -14t27 -27.5t20 -39.5q4 -9 7.5 -20t6.5 -16q7 -22 15 -35q12 -23 24.5 -36.5t32.5 -13.5h10z" />
    <glyph glyph-name="uni0437" unicode="&#x437;" horiz-adv-x="530" 
d="M348 361q0 30 -18 42q-9 7 -25.5 11t-34.5 4q-27 0 -38.5 -3t-24.5 -11q-9 -6 -15 -20.5t-6 -28.5h-137q0 37 15 69.5t43 53.5q29 22 69.5 33t96.5 11q97 0 156 -39q27 -19 39.5 -45.5t13.5 -65.5q1 -34 -18.5 -61t-56.5 -44v-3q49 -18 71.5 -45t21.5 -74q-1 -37 -17 -63
t-49 -50q-60 -42 -161 -42q-59 0 -100.5 10.5t-71.5 33.5q-29 21 -44.5 54.5t-15.5 72.5h137q0 -15 6 -29.5t17 -22.5q17 -10 29.5 -13.5t39.5 -3.5q18 0 36 5.5t29 13.5q22 16 22 44q0 27 -19 44q-16 14 -69 14h-82v89h87q34 1 54 16.5t20 42.5z" />
    <glyph glyph-name="uni0438" unicode="&#x438;" horiz-adv-x="601" 
d="M68 0v510h146v-248q0 -34 -4 -54l28 45l149 257h146v-510h-146v256q0 25 4 53l-29 -48l-148 -261h-146z" />
    <glyph glyph-name="uni0439" unicode="&#x439;" horiz-adv-x="601" 
d="M356 692h113q-1 -80 -84 -115t-165 -3.5t-83 118.5h113q0 -26 13.5 -42.5t39.5 -16.5t39.5 16.5t13.5 42.5zM68 0v510h146v-248q0 -34 -4 -54l28 45l149 257h146v-510h-146v256q0 25 4 53l-29 -48l-148 -261h-146z" />
    <glyph glyph-name="uni043A" unicode="&#x43a;" horiz-adv-x="533" 
d="M65 510h149v-204h8q20 0 32.5 13.5t24.5 36.5q8 15 15 35l7.5 17.5t6.5 18.5q17 46 47.5 66t79.5 20q11 1 60 -1v-101h-13q-23 0 -33 -11q-7 -7 -22 -42l-21 -44q-28 -51 -56 -61v-6q26 -7 41 -22q12 -12 19 -22.5t22 -40.5l19 -38q8 -19 46 -16l16 1v-101
q-34 -10 -67 -11q-23 -1 -45 2.5t-32 9.5q-34 16 -49 51q-13 32 -19 53q-10 37 -12 43q-10 26 -19.5 37t-33.5 11h-22v-204h-149v510z" />
    <glyph glyph-name="uni043B" unicode="&#x43b;" horiz-adv-x="593" 
d="M528 510v-510h-149v405h-105q-7 -184 -18 -240q-13 -66 -39 -102q-49 -67 -134 -67q-23 0 -58 4v107h12q44 0 67 42q21 37 29 185l4 176h391z" />
    <glyph glyph-name="uni043C" unicode="&#x43c;" horiz-adv-x="755" 
d="M201 0h-136v510h215l97 -314l98 314h215v-510h-136v337l4 62l-24 -61l-114 -338h-85l-121 356l-16 43l3 -60v-339z" />
    <glyph glyph-name="uni043D" unicode="&#x43d;" horiz-adv-x="599" 
d="M214 0h-149v510h149v-202h171v202h149v-510h-149v202h-171v-202z" />
    <glyph glyph-name="uni043E" unicode="&#x43e;" horiz-adv-x="565" 
d="M35 259v15q0 66 30.5 123.5t86.5 89.5q56 33 130 33q104 0 172 -63q32 -30 51.5 -78t24.5 -105v-15q0 -62 -17 -113t-51 -86q-66 -71 -180 -71q-111 0 -179 71q-68 70 -68 199zM180 249q0 -82 27 -121q26 -39 75 -39q48 0 75 38q15 20 21.5 47.5t6.5 74.5q0 93 -28 131
q-27 39 -75 39q-49 0 -75 -39q-27 -39 -27 -131z" />
    <glyph glyph-name="uni043F" unicode="&#x43f;" horiz-adv-x="599" 
d="M214 0h-149v510h469v-510h-149v405h-171v-405z" />
    <glyph glyph-name="uni0440" unicode="&#x440;" horiz-adv-x="587" 
d="M552 240q-3 -117 -53 -180q-24 -33 -62 -50.5t-83 -17.5q-39 0 -77 14t-61 38h-2v-211h-149v677h145v-48h2q22 26 61 41t80 15q46 0 84.5 -17t63.5 -49q25 -35 39 -90.5t12 -121.5zM403 248q2 78 -24 121t-80 43q-55 0 -85 -56q-9 -17 -13 -60.5t-0.5 -86t13.5 -58.5
q27 -54 85 -54q52 0 77 37t27 114z" />
    <glyph glyph-name="uni0441" unicode="&#x441;" horiz-adv-x="530" 
d="M281 94q38 0 62 21q23 21 24 61h128q-2 -53 -29 -95q-29 -44 -76 -67t-107 -23q-63 0 -108 17t-77 53q-63 68 -63 191v9q0 117 63 187q31 36 76 53.5t109 17.5q95 0 153 -55q57 -53 59 -145h-128q-1 48 -24 72q-24 25 -63 25q-46 0 -71 -34q-12 -17 -18.5 -49t-6.5 -71
v-14q0 -83 25 -119q24 -35 72 -35z" />
    <glyph glyph-name="uni0442" unicode="&#x442;" horiz-adv-x="481" 
d="M169 405h-159v105h461v-105h-159v-405h-143v405z" />
    <glyph glyph-name="uni0443" unicode="&#x443;" horiz-adv-x="551" 
d="M287 200l103 310h146l-191 -528q-28 -77 -68.5 -119t-114.5 -42q-19 0 -40 3.5t-32 7.5v112l18 -1q42 -3 61 11q15 11 26.5 35.5t17.5 52.5l-183 468h150z" />
    <glyph glyph-name="uni0444" unicode="&#x444;" horiz-adv-x="747" 
d="M717 256q0 -61 -17.5 -111.5t-53.5 -82.5q-71 -64 -198 -62v-174h-149v174q-127 -2 -198 62q-36 32 -53.5 82.5t-17.5 111.5q0 63 19 114t58 82q35 28 85 43t107 15v166h149v-166q57 0 107.5 -15.5t84.5 -42.5q39 -31 58 -82t19 -114zM443 410v-310q19 0 35 5.5t34 18.5
q53 39 53 132q0 90 -52 130q-16 13 -32 18.5t-38 5.5zM302 100v310q-18 0 -36.5 -7t-31.5 -17q-24 -18 -38 -52t-14 -78q0 -93 53 -132q18 -13 32.5 -18.5t34.5 -5.5z" />
    <glyph glyph-name="uni0445" unicode="&#x445;" horiz-adv-x="521" 
d="M175 510l85 -147l87 147h162l-160 -250l167 -260h-164l-92 155l-91 -155h-164l167 260l-160 250h163z" />
    <glyph glyph-name="uni0447" unicode="&#x447;" horiz-adv-x="547" 
d="M30 370v140h149v-141q0 -35 5.5 -53t21.5 -26t47 -8l80 6v222h149v-510h-149v191q-98 -9 -118 -9q-76 0 -115 18t-54.5 56.5t-15.5 113.5z" />
    <glyph glyph-name="uni0446" unicode="&#x446;" horiz-adv-x="627" 
d="M462 0h-397v510h149v-405h174v405h149v-405h60v-250h-135v145z" />
    <glyph glyph-name="uni0448" unicode="&#x448;" horiz-adv-x="843" 
d="M778 0h-713v510h149v-405h133v405h149v-405h133v405h149v-510z" />
    <glyph glyph-name="uni0449" unicode="&#x449;" horiz-adv-x="868" 
d="M703 0h-638v510h149v-405h133v405h149v-405h133v405h149v-405h60v-250h-135v145z" />
    <glyph glyph-name="uni044C" unicode="&#x44c;" horiz-adv-x="566" 
d="M65 510h149v-177h134q80 0 124 -40q49 -43 49 -125q0 -41 -14.5 -75t-42.5 -56q-47 -37 -110 -37h-289v510zM215 240v-148h78q39 0 59 17q12 9 18 25.5t6 36.5q0 37 -25 55q-20 14 -56 14h-80z" />
    <glyph glyph-name="uni044A" unicode="&#x44a;" horiz-adv-x="626" 
d="M0 510h289v-177h134q80 0 124 -40q49 -43 49 -125q0 -41 -14.5 -75t-42.5 -56q-47 -37 -110 -37h-289v405h-140v105zM290 90h80q37 0 57 17q12 9 18 25.5t6 36.5q0 37 -25 55q-20 14 -56 14h-80v-148z" />
    <glyph glyph-name="uni044B" unicode="&#x44b;" horiz-adv-x="790" 
d="M67 510h149v-177h134q80 0 124 -40q49 -43 49 -125q0 -41 -14.5 -75t-42.5 -56q-47 -37 -110 -37h-289v510zM217 240v-148h78q39 0 59 17q12 9 18 25.5t6 36.5q0 37 -25 55q-20 14 -56 14h-80zM725 0h-149v510h149v-510z" />
    <glyph glyph-name="uni044D" unicode="&#x44d;" horiz-adv-x="530" 
d="M36 176h128q1 -40 24 -61q24 -21 62 -21q24 0 43.5 9t30.5 26q13 20 20 72h-142v105h143q-4 50 -23 76q-25 34 -71 34q-39 0 -63 -25q-12 -13 -17.5 -28.5t-6.5 -40.5h-128q1 89 59 142q58 55 153 55q63 0 108 -17.5t76 -53.5q63 -70 63 -187v-9q0 -116 -65 -191
q-31 -36 -75 -53t-107 -17q-60 0 -107 23t-76 67q-27 42 -29 95z" />
    <glyph glyph-name="uni044E" unicode="&#x44e;" horiz-adv-x="801" 
d="M65 0v510h149v-201h60q14 97 79 156q31 27 73 41t91 14q105 0 174 -63q72 -72 74 -172l1 -35q1 -59 -15.5 -105t-51.5 -83q-65 -71 -181 -71q-50 0 -93 15t-75 43q-34 31 -51.5 66t-24.5 85h-60v-200h-149zM419 250q0 -36 7 -65t20 -46q14 -20 31 -29t41 -9
q25 0 41.5 8.5t29.5 28.5q13 17 20 49t7 73q0 35 -7 64t-20 46q-13 21 -30 30t-42 9t-41 -9t-30 -30q-13 -17 -20 -48.5t-7 -71.5z" />
    <glyph glyph-name="uni044F" unicode="&#x44f;" horiz-adv-x="567" 
d="M27 3v103l22 -2q33 -2 48 24q13 24 32 42.5t38 25.5q-58 16 -92 53q-18 18 -27 44t-9 56q0 62 35 105q47 56 155 56h273v-510h-149v182h-38q-26 0 -49 -34q-18 -28 -37 -71q-9 -20 -12 -24q-10 -18 -22 -29t-30 -20q-25 -13 -79 -11q-19 1 -59 10zM195 341q0 -30 21 -48
q19 -16 69 -16h68v133h-74q-40 0 -62 -17q-22 -16 -22 -52z" />
    <glyph glyph-name="pi" unicode="&#x3c0;" horiz-adv-x="691" 
d="M652 380v130h-610v-130h79v-380h165v380h128v-214q0 -78 36 -122t120 -44q26 0 55.5 4t50.5 12v131q-36 -15 -71 -13q-11 1 -18.5 8.5t-7.5 20.5v217h73z" />
    <glyph glyph-name="zero" unicode="0" horiz-adv-x="623" 
d="M311 -13q-122 0 -187 76q-79 86 -79 280q0 98 21 167q31 93 90.5 138.5t154.5 45.5q94 0 156.5 -47t88.5 -137q22 -67 22 -167q0 -196 -80 -280q-65 -76 -187 -76zM311 100q78 0 105 97q5 20 10 70.5t5 75.5q0 42 -5 94q-14 76 -38.5 109.5t-76.5 33.5q-98 0 -115 -143
q-3 -31 -3 -94q0 -30 4 -79.5t10 -66.5q15 -49 40.5 -73t63.5 -24z" />
    <glyph glyph-name="one" unicode="1" horiz-adv-x="538" 
d="M303 686h112v-686h-149v512q-93 -62 -166 -87v127q66 22 119 56t84 78z" />
    <glyph glyph-name="two" unicode="2" horiz-adv-x="610" 
d="M196 419h-138q-3 56 13 110q28 82 91 124t156 42q69 0 127 -33t88 -91q19 -38 19 -89q0 -89 -62 -154q-20 -22 -34 -33t-46 -32l-50 -34q-51 -34 -82 -59.5t-51 -51.5h319v-118h-497v114q24 34 63 73q43 43 152 118q27 18 37 24q46 29 63 42q26 20 37.5 44.5t11.5 56.5
q0 47 -28 77q-30 27 -74 27q-16 0 -31.5 -3.5t-25.5 -10.5q-32 -21 -45 -55.5t-13 -87.5z" />
    <glyph glyph-name="three" unicode="3" horiz-adv-x="610" 
d="M219 305v98h83q102 12 102 83q0 42 -29 68t-72 26q-55 0 -83 -31.5t-28 -87.5h-138q2 69 33 122q30 54 86 83.5t129 29.5q64 0 120 -24t88.5 -67.5t32.5 -97.5q0 -52 -26.5 -91.5t-74.5 -52.5v-2q61 -12 94 -50.5t33 -97.5q0 -68 -35 -118q-36 -51 -96.5 -78t-134.5 -27
q-122 0 -194 65q-75 67 -72 182h137q3 -66 38.5 -99.5t88.5 -33.5q51 0 83.5 29t32.5 77q0 45 -28 70t-82 25h-88z" />
    <glyph glyph-name="four" unicode="4" horiz-adv-x="610" 
d="M35 266l277 420h174v-415h83v-116h-83v-155h-147v155h-304v111zM339 537l-158 -266h158v266z" />
    <glyph glyph-name="five" unicode="5" horiz-adv-x="599" 
d="M521 560h-320l-14 -141h2q27 27 64 41q15 6 40.5 9t47.5 2q48 -1 87.5 -18.5t66.5 -49.5q26 -31 40 -73.5t14 -87.5q0 -51 -19.5 -95.5t-55.5 -78.5q-33 -33 -79.5 -51t-95.5 -16q-102 0 -173 52q-74 58 -77 160h136q6 -47 35 -73q29 -28 76 -28q25 0 47 10.5t38 29.5
q31 39 31 90q0 56 -30 89q-17 18 -42.5 27.5t-53.5 9.5q-16 0 -34 -6t-32 -15q-12 -8 -19.5 -16.5t-17.5 -26.5h-123l36 382h425v-126z" />
    <glyph glyph-name="six" unicode="6" horiz-adv-x="615" 
d="M562 508h-139q-8 33 -36 55.5t-61 22.5q-40 0 -66 -22q-71 -58 -71 -180h2q24 37 69 58q38 17 93 17q49 0 91 -19q42 -17 75 -50q27 -30 41.5 -70t14.5 -82q0 -49 -18 -98q-21 -47 -52 -78q-29 -32 -80 -53q-44 -19 -102 -19q-74 0 -130.5 28t-90.5 83q-29 43 -43 106
t-14 134q0 67 17 131t48 110q39 59 93 87t125 28q69 0 120 -28q49 -27 78.5 -69.5t35.5 -91.5zM201 229q0 -22 8 -46q11 -36 41 -58t68 -22q23 0 44 9.5t37 25.5q29 29 29 89q0 24 -6 48q-9 36 -37.5 58.5t-66.5 22.5q-31 0 -52 -10q-32 -16 -48.5 -47t-16.5 -70z" />
    <glyph glyph-name="seven" unicode="7" horiz-adv-x="527" 
d="M40 686h477v-98q-83 -104 -119.5 -163t-69.5 -146q-21 -54 -37 -135t-16 -144h-159q14 224 143 425q36 56 108 135h-327v126z" />
    <glyph glyph-name="eight" unicode="8" horiz-adv-x="611" 
d="M78 508q0 57 32 99q31 41 83.5 63.5t112.5 22.5q61 0 113 -23q53 -23 83.5 -65t30.5 -94t-26.5 -90t-72.5 -54q61 -14 94 -57.5t33 -107.5q0 -66 -35 -114q-35 -47 -92.5 -72.5t-126.5 -25.5q-74 0 -132 25q-60 25 -92.5 73.5t-32.5 112.5q0 65 33 108t95 58
q-49 16 -74.5 52t-25.5 89zM187 208q0 -50 34.5 -82.5t85.5 -32.5t83.5 31.5t32.5 82.5q0 47 -33.5 77.5t-82.5 30.5q-53 0 -86.5 -29t-33.5 -78zM203 496q0 -42 29 -65.5t74 -23.5q46 0 74 24t28 65q0 43 -27.5 68.5t-74.5 25.5q-44 0 -73.5 -26.5t-29.5 -67.5z" />
    <glyph glyph-name="nine" unicode="9" horiz-adv-x="615" 
d="M53 179h139q8 -33 36 -55.5t61 -22.5q41 0 66 22q71 59 71 180h-2q-24 -37 -69 -58q-39 -17 -93 -17q-50 0 -91 19q-41 16 -75 50q-27 30 -41.5 70t-14.5 82q0 49 18 98q21 47 52 78q29 32 80 53q42 19 102 19q75 0 131 -28t90 -83q29 -43 43 -105.5t14 -134.5
q0 -68 -16.5 -131.5t-48.5 -109.5q-39 -59 -93 -87t-125 -28q-70 0 -120 28q-49 27 -78.5 69.5t-35.5 91.5zM414 458q0 20 -8 46q-11 36 -41 58t-68 22q-23 0 -44 -9.5t-37 -25.5q-29 -29 -29 -89q0 -24 6 -48q9 -36 37.5 -58.5t66.5 -22.5q32 0 52 10q32 15 48.5 46
t16.5 71z" />
    <glyph glyph-name="uni00B2" unicode="&#xb2;" horiz-adv-x="279" 
d="M112 590l-74 -1q-1 16 -0.5 27.5t4.5 24.5q11 34 38.5 51t67.5 17q30 0 54.5 -14.5t38.5 -39.5q8 -21 8 -39q0 -39 -27 -66q-13 -14 -33 -28q-32 -20 -39 -26h96v-72h-211v62q16 21 57 52.5t64 47.5q8 5 11 11t3 16q0 15 -13 22t-25 1q-11 -6 -15.5 -15t-4.5 -31z" />
    <glyph glyph-name="uni00B3" unicode="&#xb3;" horiz-adv-x="295" 
d="M40 524h73q-2 -34 31 -34q22 0 31.5 5t9.5 19q0 13 -9 18t-30 5h-25v62h23q17 0 25 6.5t7 19.5q-1 11 -8.5 15t-23.5 4q-30 0 -30 -34h-68q1 47 27 74.5t73 28.5q41 1 69.5 -23t30.5 -59q2 -36 -21 -59q30 -16 30 -58q0 -40 -31 -66t-78 -26q-51 0 -80.5 27t-25.5 75z
" />
    <glyph glyph-name="onehalf" unicode="&#xbd;" horiz-adv-x="656" 
d="M116 701h57v-316h-73v216q-26 -20 -75 -45v70q28 12 49.5 29.5t41.5 45.5zM474 172l-74 -1q-1 15 1 26.5t6 24.5q12 37 41 57t73 20q32 0 59.5 -16t41.5 -43q9 -21 9 -42q0 -20 -7.5 -39t-21.5 -33q-19 -19 -37 -32q-26 -16 -50 -36h113v-73h-231v65q13 16 36 35l24 19
q44 36 61 46q15 12 14 11q10 7 14 14.5t4 18.5q0 14 -9 24q-7 8 -18 10t-22 -1q-30 -9 -27 -55zM519 686h96l-494 -706h-96z" />
    <glyph glyph-name="onequarter" unicode="&#xbc;" horiz-adv-x="649" 
d="M116 701h57v-316h-73v216q-26 -20 -75 -45v70q28 12 49.5 29.5t41.5 45.5zM519 686h95l-494 -706h-95zM365 103l133 199h88v-188h38v-62h-38v-72h-68v72h-153v51zM518 229l-73 -115h73v115z" />
    <glyph glyph-name="threequarters" unicode="&#xbe;" horiz-adv-x="653" 
d="M25 498h70q1 -20 10.5 -29t30.5 -9q27 0 39.5 7.5t12.5 24.5q0 32 -50 32h-38v58h36q22 0 33 9t8 27q-2 14 -11 20t-30 6q-23 0 -31 -8t-9 -30h-64q-3 45 17 66q13 17 37 27t52 10q44 0 74 -24.5t32 -61.5q1 -19 -7.5 -37t-22.5 -27q17 -8 28.5 -27.5t11.5 -39.5
q0 -18 -4 -27.5t-13 -23.5q-28 -45 -99 -45q-51 0 -79 23q-37 25 -34 79zM523 686h93l-494 -706h-93zM370 103l128 199h92v-188h38v-62h-38v-72h-68v72h-152v51zM522 229l-73 -115h73v115z" />
    <glyph glyph-name="period" unicode="." horiz-adv-x="279" 
d="M141 2q-32 0 -54.5 22.5t-22.5 54.5t22.5 54t54.5 22t54 -22t22 -54t-22 -54.5t-54 -22.5z" />
    <glyph glyph-name="comma" unicode="," horiz-adv-x="279" 
d="M47 79q0 32 24 54.5t60 22.5q42 0 68 -29.5t26 -78.5q0 -67 -25 -114q-25 -44 -62.5 -69.5t-79.5 -30.5v59q37 9 64 41.5t28 71.5q-10 -5 -25 -5q-34 0 -56 21.5t-22 56.5z" />
    <glyph glyph-name="colon" unicode=":" horiz-adv-x="279" 
d="M141 0q-32 0 -54.5 22.5t-22.5 54.5t22.5 54t54.5 22t54 -22t22 -54t-22 -54.5t-54 -22.5zM140 360q-32 0 -54.5 22.5t-22.5 54.5t22.5 54t54.5 22t54 -22t22 -54t-22 -54.5t-54 -22.5z" />
    <glyph glyph-name="semicolon" unicode=";" horiz-adv-x="279" 
d="M47 79q0 32 24 54.5t60 22.5q42 0 68 -29.5t26 -78.5q0 -67 -25 -114q-25 -44 -62.5 -69.5t-79.5 -30.5v59q37 9 64 41.5t28 71.5q-10 -5 -25 -5q-34 0 -56 21.5t-22 56.5zM141 355q-32 0 -54.5 22.5t-22.5 54.5t22.5 54t54.5 22t54 -22t22 -54t-22 -54.5t-54 -22.5z" />
    <glyph glyph-name="ellipsis" unicode="&#x2026;" horiz-adv-x="688" 
d="M348 2q-32 0 -54.5 22.5t-22.5 54.5t22.5 54t54.5 22t54 -22t22 -54t-22 -54.5t-54 -22.5zM348 2q-32 0 -54.5 22.5t-22.5 54.5t22.5 54t54.5 22t54 -22t22 -54t-22 -54.5t-54 -22.5zM348 2q-32 0 -54.5 22.5t-22.5 54.5t22.5 54t54.5 22t54 -22t22 -54t-22 -54.5
t-54 -22.5zM582 2q-32 0 -54.5 22.5t-22.5 54.5t22.5 54t54.5 22t54 -22t22 -54t-22 -54.5t-54 -22.5zM107 2q-32 0 -54.5 22.5t-22.5 54.5t22.5 54t54.5 22t54 -22t22 -54t-22 -54.5t-54 -22.5z" />
    <glyph glyph-name="exclam" unicode="!" horiz-adv-x="302" 
d="M155 0q-32 0 -54.5 22.5t-22.5 54.5t22.5 54t54.5 22t54 -22t22 -54t-22 -54.5t-54 -22.5zM104 207l-38 479h170l-38 -479h-94z" />
    <glyph glyph-name="question" unicode="?" 
d="M224 220h123l2 29q4 45 41 82q52 50 73.5 73.5t34.5 52t13 67.5q0 89 -56 139q-57 49 -157 49q-99 0 -159 -52q-57 -50 -59 -143h139q0 38 22 60q21 22 57 22q38 0 56 -21q18 -19 18 -60q0 -26 -14 -51q-16 -25 -58 -63q-42 -36 -59 -78q-17 -40 -17 -106zM295 0
q-32 0 -54.5 22.5t-22.5 54.5t22.5 54t54.5 22t54 -22t22 -54t-22 -54.5t-54 -22.5z" />
    <glyph glyph-name="bullet" unicode="&#x2022;" horiz-adv-x="432" 
d="M216 113q-40 0 -73.5 19.5t-53 53t-19.5 73.5t19.5 73.5t53 53t73.5 19.5t73.5 -19.5t53 -53t19.5 -73.5t-19.5 -73.5t-53 -53t-73.5 -19.5z" />
    <glyph glyph-name="asterisk" unicode="*" horiz-adv-x="544" 
d="M144 786l94 -67l-11 116h93l-11 -116l95 67l50 -80l-107 -49l104 -48l-41 -86l-101 72l11 -115h-93l11 116l-101 -71l-37 84l100 47l-110 50z" />
    <glyph glyph-name="uni2043" unicode="&#x2043;" horiz-adv-x="510" 
d="M100 213v80h310v-80h-310z" />
    <glyph glyph-name="numbersign" unicode="#" 
d="M305 -15l36 187h-104l-37 -187h-117l35 187h-103v116h125l21 106h-111v117h134l38 189h116l-36 -189h104l37 189h120l-38 -189h88v-117h-110l-21 -106h96v-116h-118l-34 -187h-121zM280 394l-21 -106h104l21 106h-104z" />
    <glyph glyph-name="slash" unicode="/" horiz-adv-x="521" 
d="M-18 0l409 686h106l-409 -686h-106z" />
    <glyph glyph-name="backslash" unicode="\" horiz-adv-x="563" 
d="M439 0l-411 686h106l411 -686h-106z" />
    <glyph glyph-name="uni2023" unicode="&#x2023;" horiz-adv-x="567" 
d="M145 -1l-2 521l324 -260z" />
    <glyph glyph-name="parenleft" unicode="(" horiz-adv-x="325" 
d="M178 683h111q-128 -194 -128 -423q0 -226 129 -428h-112q-68 90 -106.5 203t-38.5 221q0 122 36.5 231t108.5 196z" />
    <glyph glyph-name="parenright" unicode=")" horiz-adv-x="325" 
d="M30 683h111q72 -87 108.5 -196t36.5 -231q0 -108 -38.5 -221t-106.5 -203h-112q129 203 129 428q0 229 -128 423z" />
    <glyph glyph-name="braceleft" unicode="{" horiz-adv-x="509" 
d="M443 -101v100h-53q-8 0 -18.5 0.5t-19.5 4.5q-6 1 -12 4.5t-11 6.5q-5 5 -7.5 12t-5.5 15q-6 18 -6 47v73q0 36 -9 65q-3 12 -11 25t-16 24q-7 10 -21 15q-12 6 -18 11q-8 5 -30 11q-14 4 -20 7v15l23 10q23 9 28 12q4 3 19 9q5 2 10 5t9 8q8 11 16 24t11 25q9 29 9 65
v73q0 27 6 49l6 14t7 11q5 3 11 6.5t12 4.5q13 5 38 5h53v100h-68q-84 0 -131 -47q-50 -49 -50 -136v-62q0 -33 -5 -56q-3 -19 -17 -41q-11 -15 -33 -24t-52 -9h-21v-107h21q30 0 52 -9q17 -6 33 -24q10 -14 17 -42q5 -23 5 -55v-62q0 -87 50 -136q47 -47 131 -47h68z" />
    <glyph glyph-name="braceright" unicode="}" horiz-adv-x="509" 
d="M66 -101h68q84 0 131 47q50 49 50 136v62q0 32 5 55q7 28 17 42q16 18 33 24q22 9 52 9h21v107h-21q-30 0 -52 9t-33 24q-14 22 -17 41q-5 23 -5 56v62q0 87 -50 136q-47 47 -131 47h-68v-100h53q25 0 38 -5q6 -1 12 -4.5t11 -6.5q4 -4 7 -11l6 -14q6 -22 6 -49v-73
q0 -36 9 -65q3 -12 11 -25t16 -24q4 -5 9 -8t10 -5q15 -6 19 -9q5 -3 28 -12l23 -10v-15q-6 -3 -20 -7q-22 -6 -30 -11q-6 -5 -18 -11q-14 -5 -21 -15q-8 -11 -16 -24t-11 -25q-9 -29 -9 -65v-73q0 -29 -6 -47q-3 -8 -5.5 -15t-7.5 -12q-5 -3 -11 -6.5t-12 -4.5
q-9 -4 -19.5 -4.5t-18.5 -0.5h-53v-100z" />
    <glyph glyph-name="bracketleft" unicode="[" horiz-adv-x="276" 
d="M60 -99h210v92h-105v661h105v92h-210v-845z" />
    <glyph glyph-name="bracketright" unicode="]" horiz-adv-x="276" 
d="M6 -7v-92h210v845h-210v-92h105v-661h-105z" />
    <glyph glyph-name="angleleft" unicode="&#x2329;" horiz-adv-x="363" 
d="M202 763h103q-129 -191 -129 -423q0 -234 130 -428h-103q-69 89 -107.5 201t-38.5 223q0 121 36.5 231t108.5 196z" />
    <glyph glyph-name="angleright" unicode="&#x232a;" horiz-adv-x="360" 
d="M58 763h100q72 -86 108.5 -196t36.5 -231q0 -111 -38.5 -223t-107.5 -201h-100q127 196 127 428q0 230 -126 423z" />
    <glyph glyph-name="hyphen" unicode="-" horiz-adv-x="462" 
d="M60 236v120h342v-120h-342z" />
    <glyph glyph-name="endash" unicode="&#x2013;" horiz-adv-x="632" 
d="M40 236v120h552v-120h-552z" />
    <glyph glyph-name="emdash" unicode="&#x2014;" horiz-adv-x="782" 
d="M40 236v120h702v-120h-702z" />
    <glyph glyph-name="underscore" unicode="_" horiz-adv-x="642" 
d="M40 -134v120h562v-120h-562z" />
    <glyph glyph-name="quotedblleft" unicode="&#x201c;" horiz-adv-x="449" 
d="M196 491q0 -29 -22 -49t-54 -20q-38 0 -61.5 26.5t-23.5 71.5q0 60 24 102q22 40 56 63t71 27v-53q-34 -9 -58.5 -38.5t-25.5 -63.5q10 4 23 4q31 0 51 -19t20 -51zM402 491q0 -29 -22 -49t-54 -20q-38 0 -61 26.5t-23 71.5q0 60 24 102q22 40 55.5 63t70.5 27v-53
q-33 -8 -57.5 -37.5t-25.5 -64.5q8 4 23 4q31 0 50.5 -19t19.5 -51z" />
    <glyph glyph-name="quotedblright" unicode="&#x201d;" horiz-adv-x="449" 
d="M247 618q0 29 22 49t54 20q38 0 61.5 -26.5t23.5 -71.5q0 -60 -23 -102q-23 -40 -57 -63t-71 -27v53q34 9 58.5 38.5t25.5 63.5q-10 -4 -23 -4q-31 0 -51 19t-20 51zM41 618q0 29 22 49t54 20q38 0 61 -26.5t23 -71.5q0 -60 -23 -102q-23 -40 -56.5 -63t-70.5 -27v53
q33 8 57.5 37.5t25.5 64.5q-8 -4 -23 -4q-31 0 -50.5 19t-19.5 51z" />
    <glyph glyph-name="guillemotleft" unicode="&#xab;" horiz-adv-x="513" 
d="M131 462h111l-100 -206l100 -210h-111l-107 210zM359 462h109l-100 -206l100 -209h-109l-109 209z" />
    <glyph glyph-name="guillemotright" unicode="&#xbb;" horiz-adv-x="512" 
d="M145 256l-100 206h109l109 -206l-109 -209h-109zM371 256l-100 206h111l107 -206l-107 -210h-111z" />
    <glyph glyph-name="guilsinglleft" unicode="&#x2039;" horiz-adv-x="392" 
d="M191 458h111l-100 -200l100 -204h-111l-107 204z" />
    <glyph glyph-name="guilsinglright" unicode="&#x203a;" horiz-adv-x="392" 
d="M190 258l-100 200h111l107 -200l-107 -204h-111z" />
    <glyph glyph-name="quotedbl" unicode="&#x22;" horiz-adv-x="474" 
d="M197 495h-105l-12 191h131zM379 495h-104l-12 191h131z" />
    <glyph glyph-name="quotesingle" unicode="'" horiz-adv-x="331" 
d="M216 495h-104l-12 191h131z" />
    <glyph glyph-name="dollar" unicode="$" horiz-adv-x="645" 
d="M55 234h151q0 -51 10 -78t34 -40v190q-177 54 -177 191q0 74 48 126t129 69v100h65v-93h28v93h65v-102q92 -20 140 -77.5t41 -139.5h-152q-1 39 -7 60t-22 32v-173q39 -12 62 -21.5t41 -22.5q39 -27 56.5 -63t17.5 -82q1 -78 -46.5 -133.5t-130.5 -75.5v-111h-65v102h-28
v-102h-65v107q-97 16 -148 78.5t-47 165.5zM230 502q0 -34 20 -53v113q-20 -17 -20 -60zM408 251v-125q22 21 22 64q0 39 -22 61zM343 580h-28v-162l28 -8v170zM315 288v-185h28v177z" />
    <glyph glyph-name="Euro" unicode="&#x20ac;" horiz-adv-x="697" 
d="M10 238l50 76h53v42h-103l50 76h57q7 55 29 107q34 73 98 115q29 19 67 30t78 11q57 0 104.5 -17t80.5 -47q38 -35 58 -78t25 -100h-157q-2 30 -10.5 55.5t-19.5 36.5q-17 17 -34.5 23.5t-46.5 6.5q-30 0 -49 -11.5t-36 -38.5q-21 -31 -29 -93h212l-44 -76h-171v-42h215
l-44 -76h-166q8 -50 24 -75q17 -28 37 -40t49 -12q28 0 46 7t37 24q11 12 19 36t10 51h157q-4 -55 -23.5 -98t-57.5 -76q-32 -30 -81 -47t-107 -17q-64 0 -116 23t-85 66q-54 68 -67 158h-109z" />
    <glyph glyph-name="franc" unicode="&#x20a3;" horiz-adv-x="619" 
d="M103 87h-98v123h98v476h486v-124h-328v-161h253v-115h-253v-76h107v-123h-107v-87h-158v87z" />
    <glyph glyph-name="uniFF04" unicode="&#xff04;" horiz-adv-x="640" 
d="M55 234h151q0 -64 16.5 -92.5t60.5 -35.5v190l-17 5q-96 26 -144.5 75.5t-48.5 120.5q0 81 57.5 135.5t152.5 64.5v63h88v-64q105 -13 162 -73t50 -150h-152q-2 53 -13 75.5t-47 28.5v-175q57 -15 87.5 -27t52.5 -27q39 -27 56.5 -63t17.5 -82q1 -87 -57 -145t-157 -70
v-102h-88v100q-113 8 -172.5 72.5t-55.5 175.5zM230 502q0 -53 53 -74v149q-29 -6 -41 -23.5t-12 -51.5zM371 272v-165q30 7 44.5 27.5t14.5 55.5q0 32 -14 52t-45 30z" />
    <glyph glyph-name="lira" unicode="&#x20a4;" horiz-adv-x="579" 
d="M37 328v92h54l-3 59q-2 43 17 83t54 71q31 28 74 40.5t99 12.5q96 0 152 -52q58 -46 54 -160h-128q3 33 -7.5 49.5t-30.5 21.5t-55 5q-44 0 -67.5 -18t-23.5 -53v-59h166v-92h-162l2 -34h163v-92h-163q-1 -15 -6 -33.5t-13 -33.5h326v-135h-495v135h37q11 20 14.5 30
t3.5 37h-61v92h55l-2 34h-54z" />
    <glyph glyph-name="uni20BA" unicode="&#x20ba;" horiz-adv-x="610" 
d="M574 348l3 -26q10 -88 -15.5 -160t-76.5 -112q-37 -29 -85 -39.5t-130 -10.5h-140v260l-115 -58v107l115 56v66l-115 -58v113l115 56v144h157v-67l117 58v-112l-117 -60v-63l117 57v-105l-117 -59v-181q66 4 94.5 31.5t33.5 62t5 103.5z" />
    <glyph glyph-name="peseta" unicode="&#x20a7;" horiz-adv-x="685" 
d="M12 433v78h58v175h254q122 0 193 -44t83 -131h45v-78h-46q-13 -86 -80 -131.5t-174 -45.5h-115v-256h-160v433h-58zM230 376h98q63 0 88 25q15 13 22 32h-208v-57zM230 511h207q-8 16 -19 27q-15 13 -37.5 20.5t-49.5 7.5h-101v-55z" />
    <glyph glyph-name="uni20B1" unicode="&#x20b1;" horiz-adv-x="699" 
d="M12 403v55h61v31h-61v55h61v142h254q111 0 179 -35.5t90 -106.5h73v-55h-64v-31h64v-55h-74q-21 -72 -85.5 -109.5t-161.5 -37.5h-115v-256h-160v403h-61zM233 376h98q63 0 88 25l2 2h-188v-27zM233 458h213l1 14q0 12 -1 17h-213v-31zM233 544h180q-30 22 -79 22h-101
v-22z" />
    <glyph glyph-name="uni20BD" unicode="&#x20bd;" horiz-adv-x="676" 
d="M15 90v113h88v58h-91v113h91v321h268q275 0 275 -215q0 -106 -68.5 -164t-188.5 -58h-128v-55h97v-113h-97v-90h-158v90h-88zM261 380h99q34 0 55 5.5t31 17.5q31 25 31 75q0 38 -27 65q-37 30 -90 30h-99v-193z" />
    <glyph glyph-name="uni20A8" unicode="&#x20a8;" horiz-adv-x="1188" 
d="M649 115l3 -102q-8 -7 -33.5 -13t-46.5 -7q-32 -1 -59 11.5t-45 35.5q-22 29 -34 54.5t-26 76.5q-15 52 -36.5 77.5t-57.5 25.5h-84v-274h-160v686h300q110 0 172 -44q78 -57 78 -164q0 -78 -33 -120.5t-105 -64.5q26 -6 44 -27q15 -16 25 -36.5t27 -65.5q12 -29 25 -39
q14 -11 23 -11zM460 480q0 47 -31 68q-25 18 -78 18h-121v-172h123q52 0 80 22q27 23 27 64zM679 168h140q0 -80 92 -82q47 -1 75 10t29 42t-18 46.5t-51 20.5l-73 12q-82 14 -129.5 49t-48.5 93q-1 79 65 120.5t164 41.5q76 0 126 -23t73.5 -59t24.5 -76h-136q-2 32 -20 47
t-57 16q-43 2 -67.5 -10.5t-25.5 -37.5q-1 -26 10.5 -37t44.5 -19l85 -18q96 -19 136 -55.5t40 -87.5q0 -85 -64 -127.5t-178 -42.5q-116 0 -176.5 49.5t-60.5 127.5z" />
    <glyph glyph-name="uni20B9" unicode="&#x20b9;" horiz-adv-x="633" 
d="M70 235v140h195q46 0 69.5 6t37.5 29l-302 2v98h293q-20 24 -44.5 30.5t-53.5 6.5h-195v139h523v-139h-103q9 -1 23 -15t16 -22h64v-98h-64q-10 -75 -66 -126t-168 -51l229 -235h-199z" />
    <glyph glyph-name="sterling" unicode="&#xa3;" horiz-adv-x="565" 
d="M459 252h-232q4 -48 -0.5 -75.5t-16.5 -43.5h324v-133h-493v132h20l17 1q27 52 13 119h-54v132h51l-1 98q-1 46 14.5 88t47.5 71q31 28 73 36.5t107 8.5q96 0 152 -52q58 -46 54 -160h-128q0 34 -9 50t-28 21t-56 5q-49 0 -70 -17.5t-21 -53.5v-95h236v-132z" />
    <glyph glyph-name="uni20A9" unicode="&#x20a9;" horiz-adv-x="1027" 
d="M165 287h-82v110h48l-76 298h162l68 -298h85l79 298h126l79 -298h86l68 298h164l-77 -298h52v-110h-82l-74 -287h-168l-71 287h-77l-67 -287h-168zM513 447l-4 -50h11zM336 287h-21l9 -52zM710 287h-23l14 -52z" />
    <glyph glyph-name="yen" unicode="&#xa5;" horiz-adv-x="702" 
d="M203 371l-173 324h174l147 -296l147 296h174l-170 -324h102v-101h-173l-1 -1v-64h174v-93h-174v-112h-155v112h-173v93h173v64l-1 1h-172v101h101z" />
    <glyph glyph-name="uni29BF" unicode="&#x29bf;" horiz-adv-x="448" 
d="M225 201q-38 0 -70.5 18.5t-51.5 50t-19 69.5t19 70t51 50t71 18q38 0 69.5 -18t49.5 -50t18 -70t-18 -69.5t-49.5 -50t-69.5 -18.5z" />
    <glyph glyph-name="uni220E" unicode="&#x220e;" horiz-adv-x="484" 
d="M100 190v284h284v-284h-284z" />
    <glyph glyph-name="uni2218" unicode="&#x2218;" horiz-adv-x="384" 
d="M193 247q-38 0 -65 27t-27 65t27 65t65 27t65 -27t27 -65t-27 -65t-65 -27z" />
    <glyph glyph-name="uni29E0" unicode="&#x29e0;" horiz-adv-x="627" 
d="M557 368h-116v129h-371v-371h116v-129h371v371zM400 455v-87h-214v-200h-73v287h287z" />
    <glyph glyph-name="uni29C8" unicode="&#x29c8;" horiz-adv-x="703" 
d="M633 393h-100v98h-463v-396h97v-99h466v397zM202 360l391 -1v-331h-388z" />
    <glyph glyph-name="plus" unicode="+" horiz-adv-x="657" 
d="M60 341h216v216h105v-216h216v-105h-216v-216h-105v216h-216v105z" />
    <glyph glyph-name="minus" unicode="&#x2212;" horiz-adv-x="657" 
d="M60 341h537v-105h-537v105z" />
    <glyph glyph-name="equal" unicode="=" horiz-adv-x="644" 
d="M66 329v99h512v-99h-512zM66 159v99h512v-99h-512z" />
    <glyph glyph-name="greater" unicode="&#x3e;" horiz-adv-x="583" 
d="M377 300l-327 129v115l483 -195v-98l-483 -193v113z" />
    <glyph glyph-name="less" unicode="&#x3c;" horiz-adv-x="583" 
d="M533 544v-115l-327 -129l327 -129v-113l-483 193v98z" />
    <glyph glyph-name="greaterequal" unicode="&#x2265;" horiz-adv-x="570" 
d="M381 338l-331 112v103l466 -170v-88l-466 -169v104zM51 38v86h469v-86h-469z" />
    <glyph glyph-name="lessequal" unicode="&#x2264;" horiz-adv-x="570" 
d="M520 561v-103l-331 -112l331 -108v-104l-466 169v88zM50 132h469v-86h-469v86z" />
    <glyph glyph-name="plusminus" unicode="&#xb1;" horiz-adv-x="663" 
d="M60 441h216v176h101v-176h216v-99h-216v-159h-101v159h-216v99zM73 48v99h530v-99h-530z" />
    <glyph glyph-name="caret" unicode="^" 
d="M226 465l63 162l64 -162h113l-138 335h-78l-138 -335h114z" />
    <glyph glyph-name="infinity" unicode="&#x221e;" horiz-adv-x="692" 
d="M173 144q-47 0 -84 22t-58 60.5t-21 87.5t20.5 88.5t57 61.5t82.5 22q49 0 81.5 -15.5t45 -29t46.5 -56.5q24 45 72 73t103 28q47 0 84.5 -22t58.5 -61t21 -87q0 -49 -21 -88.5t-58 -61.5t-84 -22q-70 0 -114 30.5t-62 60.5q-21 -26 -37.5 -42t-51 -32.5t-81.5 -16.5z
M173 260q20 0 53 11t55 43q-9 10 -20.5 22t-33 21t-57.5 9q-23 0 -38.5 -13t-15.5 -36q0 -27 15 -42t42 -15zM521 260q24 0 42.5 15.5t18.5 39.5q0 19 -15 37.5t-49 18.5q-28 0 -49.5 -11.5t-34.5 -25.5t-15 -21q3 -8 17 -21t36 -22.5t49 -9.5z" />
    <glyph glyph-name="squareroot" unicode="&#x221a;" horiz-adv-x="578" 
d="M442 753l-183 -521l-55 170h-156v-133h77l100 -269h62l271 753h-116z" />
    <glyph glyph-name="uni2219" unicode="&#x2219;" horiz-adv-x="524" 
d="M120 110v284h284v-284h-284z" />
    <glyph glyph-name="percent" unicode="%" horiz-adv-x="833" 
d="M224 463q33 0 57 24.5t24 60.5q0 34 -24 58t-57 24q-37 0 -61.5 -23.5t-24.5 -58.5q0 -37 24.5 -61t61.5 -24zM224 374q-47 0 -87 23.5t-63.5 63.5t-23.5 87q0 45 23.5 84t63.5 62.5t87 23.5q45 0 84 -23.5t62 -62.5t23 -84q0 -47 -23 -87t-62 -63.5t-84 -23.5zM614 59
q33 0 57 24t24 60q0 34 -24 58t-57 24q-37 0 -61.5 -23.5t-24.5 -58.5q0 -36 24.5 -60t61.5 -24zM614 -30q-47 0 -87 23.5t-63.5 63t-23.5 86.5q0 45 23.5 84.5t63.5 62.5t87 23q45 0 84 -23.5t62 -62.5t23 -84q0 -47 -23 -86.5t-62 -63t-84 -23.5zM590 689h106l-455 -686
h-116z" />
    <glyph glyph-name="arrowright" unicode="&#x279e;" horiz-adv-x="1090" 
d="M1030 259l-259 -262v200h-721v122h721v199z" />
    <glyph glyph-name="arrowleft" unicode="&#x279f;" horiz-adv-x="1080" 
d="M1030 351l-259 -262v200h-721v122h721v199z" />
    <glyph glyph-name="uni21D8" unicode="&#x21d8;" horiz-adv-x="751" 
d="M711 0h-464l-159 159l318 -5l-346 346l151 151l344 -356l-8 348l164 -169v-474z" />
    <glyph glyph-name="uni27A2" unicode="&#x27a2;" 
d="M33 0l204 268l-217 234l533 -226zM265 273l235 5l-404 171z" />
    <glyph glyph-name="uni27A3" unicode="&#x27a3;" 
d="M33 73l204 268l-217 234l533 -226zM265 346l235 5l-404 171z" />
    <glyph glyph-name="uni27F6" unicode="&#x27f6;" horiz-adv-x="1586" 
d="M50 274v-57l1382 -2l-84 -130l198 161l-198 156l84 -130z" />
    <glyph glyph-name="uni27FC" unicode="&#x27fc;" horiz-adv-x="1596" 
d="M50 364v-57l1382 -2l-84 -130l198 161l-198 156l84 -130z" />
    <glyph glyph-name="uni25CF" unicode="&#x25cf;" horiz-adv-x="575" 
d="M288 89q-70 0 -129 34.5t-93.5 93t-34.5 128.5t34.5 128.5t93.5 93t129 34.5q69 0 128 -34.5t93.5 -93t34.5 -128.5t-34.5 -128.5t-93.5 -93t-128 -34.5z" />
    <glyph glyph-name="circle" unicode="&#x25cb;" horiz-adv-x="567" 
d="M285 89q-68 0 -126.5 33.5t-93 91t-34.5 125.5q0 67 35 125.5t93.5 93.5t125.5 35q68 0 125.5 -35t91.5 -93t34 -126t-33.5 -125.5t-91.5 -91t-126 -33.5zM285 139q54 0 100 27t73 73t27 100t-27 100t-73 73t-100 27t-100 -27t-73 -73t-27 -100t27 -100t73 -73t100 -27z
" />
    <glyph glyph-name="uni25EF" unicode="&#x25ef;" horiz-adv-x="625" 
d="M314 41q-83 0 -153 41t-111.5 110.5t-41.5 152.5q0 82 41.5 152.5t111.5 112t153 41.5q82 0 152 -41.5t111 -112t41 -152.5q0 -83 -41 -152.5t-110.5 -110.5t-152.5 -41zM314 103q67 0 122 32t87.5 87.5t32.5 122.5q0 68 -32 124t-87.5 88t-122.5 32q-68 0 -124 -32
t-88.5 -88t-32.5 -124q0 -67 32.5 -122.5t88.5 -87.5t124 -32z" />
    <glyph glyph-name="openbullet" unicode="&#x25e6;" horiz-adv-x="304" 
d="M152 170q-38 0 -65 27t-27 65t27 65t65 27t65 -27t27 -65t-27 -65t-65 -27z" />
    <glyph glyph-name="uni2756" unicode="&#x2756;" horiz-adv-x="543" 
d="M443 350l-171 -170l-172 170l172 171z" />
    <glyph glyph-name="filledrect" unicode="&#x25ac;" horiz-adv-x="542" 
d="M100 286v120h342v-120h-342z" />
    <glyph glyph-name="triagrt" unicode="&#x25ba;" horiz-adv-x="816" 
d="M132 18l-2 463l616 -206z" />
    <glyph glyph-name="triaglf" unicode="&#x25c4;" horiz-adv-x="776" 
d="M102 88l-2 463l616 -206z" />
    <glyph glyph-name="uni25BE" unicode="&#x25be;" horiz-adv-x="494" 
d="M102 85l-2 521l324 -260z" />
    <glyph glyph-name="uni2BCE" unicode="&#x2bce;" horiz-adv-x="590" 
d="M300 72h-8q0 68 -36 128.5t-96.5 97t-129.5 36.5v8q69 0 129.5 36t96.5 96.5t36 129.5h8q0 -69 36 -129.5t96.5 -96.5t129.5 -36v-8q-69 0 -129.5 -36.5t-96.5 -97t-36 -128.5z" />
    <glyph glyph-name="uni2611" unicode="&#x2611;" 
d="M300 169l-11 -6q-15 -8 -24 -18l-11 29l-5 13q-17 45 -29 64q-13 18 -29 19q20 18 35 18q20 0 44 -54l9 -20q63 115 138 171h-252v-268h269v260q-98 -91 -134 -208zM485 425v-359h-370v370h359q16 10 18 8l6 -10z" />
    <glyph glyph-name="uni2612" unicode="&#x2612;" 
d="M300 259l-11 -6q-15 -8 -24 -18l-11 29l-5 13q-17 45 -29 64q-13 18 -29 19q20 18 35 18q20 0 44 -54l9 -20q63 115 138 171h-252v-268h269v260q-98 -91 -134 -208zM485 515v-359h-370v370h359q16 10 18 8l6 -10z" />
    <glyph glyph-name="diamond" unicode="&#x2666;" horiz-adv-x="543" 
d="M443 238l-171 -170l-172 170l172 171z" />
    <glyph glyph-name="uni2713" unicode="&#x2713;" 
d="M251 190l264 263v-119l-264 -265l-147 147v120z" />
    <glyph glyph-name="uni2714" unicode="&#x2714;" 
d="M251 219l264 263v-175l-264 -265l-147 147v176z" />
    <glyph glyph-name="uni2717" unicode="&#x2717;" horiz-adv-x="571" 
d="M227 270l264 263v-119l-264 -265l-147 147v120z" />
    <glyph glyph-name="uni2718" unicode="&#x2718;" horiz-adv-x="591" 
d="M252 318l264 263v-175l-264 -265l-147 147v176z" />
    <glyph glyph-name="uni274B" unicode="&#x274b;" horiz-adv-x="564" 
d="M154 466l94 -67l-11 116h93l-11 -116l95 67l50 -80l-107 -49l104 -48l-41 -86l-101 72l11 -115h-93l11 116l-101 -71l-37 84l100 47l-110 50z" />
    <glyph glyph-name="uni2751" unicode="&#x2751;" horiz-adv-x="667" 
d="M577 488h-116v129h-371v-371h116v-129h371v371zM420 575v-87h-214v-200h-73v287h287z" />
    <glyph glyph-name="uni2752" unicode="&#x2752;" horiz-adv-x="723" 
d="M643 503h-100v98h-463v-396h97v-99h466v397zM212 470l391 -1v-331h-388z" />
    <glyph glyph-name="at" unicode="@" horiz-adv-x="662" 
d="M641 283q-3 -81 -47 -133q-45 -53 -123 -53q-58 0 -88 32q-10 -9 -24 -15q-28 -17 -64 -17q-65 0 -100 48q-15 20 -21 50t-2 65q4 51 29 99q25 47 62 72q40 28 88 28q34 0 59 -7q38 -12 72 -40l-19 -185q-2 -22 1 -32t14 -10q22 0 38 23q19 25 23 77q6 111 -45 165
q-46 52 -150 52q-61 0 -107 -26t-76 -77q-28 -56 -31 -124q-3 -71 19 -122q23 -49 64 -73q53 -30 108 -30q36 0 75 6q71 16 83 22l-1 -72q-14 -12 -32 -19.5t-47 -13.5q-45 -9 -79 -9q-96 0 -165 39q-69 37 -105 111q-33 69 -30 163q6 94 47 163q45 77 115 114q73 41 165 41
q93 0 163 -38q70 -39 103 -112q34 -71 28 -162zM286 254q-6 -30 5 -52q6 -9 20 -9q8 0 19 8q8 8 25 38l-2 -1l15 129l-11 1q-26 0 -43 -25q-22 -29 -28 -89z" />
    <glyph glyph-name="ampersand" unicode="&#x26;" horiz-adv-x="676" 
d="M231 309l147 -159q-25 -34 -58.5 -53t-69.5 -19q-51 0 -85.5 25.5t-31.5 78.5q1 42 25 69t73 58zM351 534q0 -28 -26 -52t-71 -48q-55 58 -55 92q0 32 23 53t59 21q30 0 50 -19t20 -47zM512 167l131 219h-125l-81 -143l-113 119q92 63 114 107q14 21 14 58t-13.5 73.5
t-34.5 56.5q-45 45 -127 45q-35 0 -71.5 -13t-55.5 -32q-26 -24 -41.5 -58.5t-15.5 -68.5q0 -41 14 -71.5t53 -77.5q-59 -33 -98 -89.5t-39 -108.5q0 -55 18 -87q28 -57 83 -88.5t126 -31.5q33 0 65 9t55 25q46 30 79 69l80 -87h150z" />
    <glyph glyph-name="pilcrow" unicode="&#xb6;" horiz-adv-x="538" 
d="M508 586h-70v-706h-96v706h-45v-706h-98v401q-95 6 -145 62q-51 54 -51 137q0 89 56 148q55 58 175 58h274v-100z" />
    <glyph glyph-name="section" unicode="&#xa7;" horiz-adv-x="500" 
d="M433 523h-131q6 33 -6 62.5t-41 29.5q-44 0 -44 -47q0 -22 18.5 -41.5t79.5 -62.5l57 -39q40 -26 62.5 -43.5t36.5 -41t13 -53.5q-3 -44 -24 -69.5t-71 -49.5q29 -24 37 -50t8 -59q0 -51 -24 -87t-62.5 -54.5t-82.5 -18.5q-105 0 -157 58t-48 152h122q0 -48 19 -71.5
t51 -23.5q15 0 30.5 11.5t15.5 32.5q0 34 -24 49q-23 17 -73 50q-50 32 -59 39q-36 25 -58 44t-39 50q-22 41 -12.5 81.5t38.5 65t58 21.5q-30 34 -40.5 54.5t-10.5 55.5q0 68 61 122q25 18 58.5 28.5t65.5 10.5q75 0 123 -45q59 -53 53 -161zM219 372l-49 36
q-16 -5 -24 -18t-5.5 -28.5t14.5 -25.5l181 -124q20 25 9 60q-4 13 -14 22t-37 27q-44 28 -75 51z" />
    <glyph glyph-name="copyright" unicode="&#xa9;" horiz-adv-x="630" 
d="M316 50q-80 0 -148 39.5t-108 107t-40 147.5t40 148t108 108t148 40t147.5 -40t107 -108t39.5 -148t-39.5 -147.5t-107 -107t-147.5 -39.5zM316 120q61 0 112.5 30t81.5 81.5t30 112.5q0 62 -30 114t-81.5 82t-112.5 30q-62 0 -114 -30t-82 -82t-30 -114q0 -61 30 -112.5
t82 -81.5t114 -30zM373 290h82q-2 -26 -12.5 -46.5t-29.5 -37.5q-17 -14 -42 -22t-56 -8q-33 0 -60 11t-44 31q-20 23 -29 51t-9 66v20q0 24 4 44t13 40q17 34 51 55q15 9 35 14.5t40 5.5q30 0 55 -8.5t41 -22.5q20 -17 30.5 -37.5t12.5 -47.5h-81q-1 13 -5.5 25.5
t-9.5 18.5q-10 8 -19 11t-24 3t-25 -5.5t-19 -18.5q-8 -10 -12 -29t-4 -44v-26q0 -25 3.5 -44.5t11.5 -30.5q9 -13 19 -19t25 -6t24.5 3.5t19.5 11.5q5 6 9 17.5t5 24.5z" />
    <glyph glyph-name="registered" unicode="&#xae;" horiz-adv-x="630" 
d="M316 50q-80 0 -148 39.5t-108 107t-40 147.5t40 148t108 108t148 40t147.5 -40t107 -108t39.5 -148t-39.5 -147.5t-107 -107t-147.5 -39.5zM316 120q61 0 112.5 30t81.5 81.5t30 112.5q0 62 -30 114t-81.5 82t-112.5 30q-62 0 -114 -30t-82 -82t-30 -114q0 -61 30 -112.5
t82 -81.5t114 -30zM462 249l1 -46q-3 -3 -14.5 -6t-21.5 -3q-14 -1 -26 5t-20 16q-10 13 -15.5 24.5t-11.5 34.5q-7 23 -16.5 34.5t-26.5 11.5h-37v-123h-72v309h135q49 0 77 -20q35 -26 35 -74q0 -35 -15 -54t-47 -29q12 -3 20 -12q6 -7 10.5 -16.5t12.5 -29.5
q6 -13 11 -18q7 -5 11 -5zM377 413q0 21 -14 31q-11 8 -35 8h-54v-78h55q23 0 36 10q12 11 12 29z" />
    <glyph glyph-name="degree" unicode="&#xb0;" horiz-adv-x="249" 
d="M125 563q-47 0 -81 34t-34 81t34 80.5t81 33.5t80.5 -33.5t33.5 -80.5t-33.5 -81t-80.5 -34zM125 633q18 0 31 13t13 32t-13 32t-31 13q-19 0 -32.5 -13t-13.5 -32t13.5 -32t32.5 -13z" />
    <glyph glyph-name="vline" unicode="|" horiz-adv-x="372" 
d="M130 -143v843h112v-843h-112z" />
    <glyph glyph-name="uni2116" unicode="&#x2116;" horiz-adv-x="1019" 
d="M72 686h164l270 -453h2q-11 45 -11 88v365h132v-686h-138l-291 506h-2q6 -66 6 -97v-409h-132v686zM734 642q37 44 100 44t100 -44q40 -44 40 -132q0 -84 -38.5 -130t-101.5 -46t-101.5 46t-38.5 130q0 88 40 132zM834 620q-28 0 -41 -29q-12 -25 -12 -81t12 -81
q13 -29 41 -29t41 29q12 25 12 81t-12 81q-13 29 -41 29zM964 191h-260v81h260v-81z" />
    <glyph glyph-name="uni2B24" unicode="&#x2b24;" horiz-adv-x="628" 
d="M314 38q-84 0 -154 41t-111 111.5t-41 154.5t41 154t111 111t154 41t154 -41t111 -111t41 -154t-41 -154.5t-111 -111.5t-154 -41z" />
    <glyph glyph-name="uni2BCC" unicode="&#x2bcc;" horiz-adv-x="662" 
d="M335 -18h-8q0 68 -36 128.5t-96.5 97t-129.5 36.5v8q69 0 129.5 36t96.5 96.5t36 129.5h8q0 -69 36 -129.5t96.5 -96.5t129.5 -36v-8q-69 0 -129.5 -36.5t-96.5 -97t-36 -128.5z" />
    <glyph glyph-name="u1F86E" unicode="&#x1f86e;" horiz-adv-x="724" 
d="M668 0h-443l-113 113l361 -5l-413 396l97 107l400 -395v359l111 -122v-453z" />
    <glyph glyph-name="grave" unicode="`" horiz-adv-x="182" 
d="M177 559h-102l-75 146h123z" />
    <glyph glyph-name="tilde" unicode="~" horiz-adv-x="607" 
d="M500 388l67 -56q-16 -29 -30 -48t-46.5 -38.5t-81.5 -19.5q-29 0 -55.5 9t-61.5 25q-32 15 -55.5 23t-47.5 8q-29 0 -43.5 -13.5t-34.5 -51.5l-71 50q21 50 61 78t92 28q31 0 61 -10t71 -28q32 -14 50.5 -20.5t34.5 -6.5q29 0 47 16t43 55z" />
    </font>
</defs>
</svg>
