<?xml version="1.0" standalone="no"?>
<!DOCTYPE svg PUBLIC "-//W3C//DTD SVG 1.1//EN" "http://www.w3.org/Graphics/SVG/1.1/DTD/svg11.dtd" >
<svg xmlns="http://www.w3.org/2000/svg">
<metadata>Generated by IcoMoon</metadata>
<defs>
<font id="icon-font" horiz-adv-x="1024">
<font-face units-per-em="1024" ascent="819.8005865102639" descent="-204.19941348973606" />
<missing-glyph horiz-adv-x="1024" />
<glyph unicode="&#x20;" horiz-adv-x="0" d="" />
<glyph unicode="&#x20bd;" glyph-name="ruble" d="M365.584 1050.013h298.959q57.229 0 102.5-11.104t73.459-26.479 48.688-42.281 29.896-48.26 14.521-55.094 5.552-51.677 0.427-48.688v-28.188q0-30.75-0.427-48.688t-5.552-52.104-14.521-55.521-29.896-48.688-48.688-43.135-73.459-26.906-102.5-11.104h-152.041l-1.709-85.416h246q8.541 0 11.104-5.125t-2.563-11.959l-102.5-136.666q-5.125-6.834-15.375-11.959t-18.791-5.125h-117.875v-149.479q0-9.396-4.698-15.375t-13.24-5.979h-127.271q-8.541 0-14.948 6.406t-6.406 14.948v149.479h-228.063q-8.541 0-11.104 5.125t2.563 11.959l102.5 136.666q5.125 6.834 15.375 11.959t18.791 5.125h99.938v85.416h-228.063q-8.541 0-11.104 5.125t2.563 11.959l102.5 136.666q5.125 6.834 15.375 11.959t18.791 5.125h99.938v405.729q0 8.541 6.406 14.948t14.948 6.406zM512.5 879.179v-256.25h173.396q54.666 0 73.885 28.188t19.219 101.646q0 71.75-19.219 99.084t-73.885 27.334h-173.396z" />
<glyph unicode="&#xe005;" glyph-name="heart-fill" d="M554.354 835.617q41 58.084 93.531 88.834t103.781 32.885 101.219-17.084 87.553-54.666 60.646-85.844 23.063-105.063q0-48.688-28.615-100.365t-80.291-106.344-108.053-108.906-128.125-130.26-124.709-148.625q-52.959 72.604-124.281 148.625t-128.125 130.26-108.053 108.906-79.865 106.344-28.615 100.365q0 54.666 23.916 105.063t62.354 85.844 88.834 54.666 101.646 17.084 102.928-32.885 89.26-88.834z" />
<glyph unicode="&#xe007;" glyph-name="star-2" d="M347.646 708.346l111.896 301.521q5.979 16.229 14.948 16.229t14.948-16.229l110.188-301.521h359.604q17.938 0 20.5-7.26t-11.959-17.51l-292.125-212.688 111.041-342.521q5.979-17.084-0.427-21.781t-20.927 5.552l-292.979 210.125-292.125-210.979q-14.521-10.25-20.927-5.552t-0.427 21.781l111.041 341.667-296.396 214.396q-14.521 10.25-11.959 17.51t19.646 7.26h366.438zM407.438 622.929h-205l168.271-121.291-63.209-193.042 164.854 118.729 166.563-119.584-63.209 195.604 164 119.584h-199.875l-66.625 180.229z" />
<glyph unicode="&#xe044;" glyph-name="bookmark" d="M213.542 1050.013h683.334q17.938 0 30.323-12.385t12.385-30.323v-982.292l-384.375 379.25-384.375-380.104v983.147q0 17.938 12.385 30.323t30.323 12.385z" />
<glyph unicode="&#xe062;" glyph-name="location" d="M553.501 1023.534q99.938 0 184.5-51.25t133.678-137.521 49.115-186.209q0-98.229-59.791-220.375-58.938-93.104-134.959-192.615t-122.146-153.323l-46.125-52.959q-7.688 6.834-21.781 20.927t-54.24 57.656-77.729 87.979-84.135 109.334-81.573 126.416q-51.25 112.75-51.25 212.688 0 75.166 29.041 144.781t78.156 121.291 117.021 82.427 142.219 30.75zM557.344 856.971q-78.156 0-133.678-55.521t-55.521-134.104 55.521-133.678 133.678-55.094 133.678 55.094 55.521 133.678-55.521 134.104-133.678 55.521z" />
<glyph unicode="&#xe171;" glyph-name="paperplane" d="M1025.001 112.991l-412.563 235.75-268.209-340.813v361.313h-340.813l1021.585 679.917v-936.167zM412.563 387.179v-196.459l583.397 814.022z" />
<glyph unicode="&#xe900;" glyph-name="cross-thinner" d="M1022.037-65.28l-391.851 388.053 387.925 391.424-120.832 119.765-387.84-391.637-391.509 387.755-119.893-119.893 391.936-388.48-388.053-391.851 119.893-119.893 388.779 392.192 391.68-388.267z" />
<glyph unicode="&#xe901;" glyph-name="triangle" d="M989.265-67.153l-447.192 774.306c-6.149 10.491-17.369 17.425-30.208 17.425s-24.059-6.934-30.119-17.261l-0.089-0.164-446.922-774.306c-2.874-4.973-4.57-10.939-4.57-17.301 0-19.258 15.54-34.887 34.765-35.031h894.128c19.238 0.143 34.778 15.772 34.778 35.031 0 6.362-1.696 12.328-4.661 17.471l0.090-0.17z" />
<glyph unicode="&#xe904;" glyph-name="cash" d="M307.71 101.284c-0.004 0-0.008 0-0.012 0-4.158 0-7.77 2.34-9.589 5.776l-0.028 0.059c-19.025 35.623-30.199 77.914-30.199 122.815 0 24.739 3.392 48.686 9.737 71.4l-0.444-1.863c27.088 109.937 87.424 171.575 169.883 228.202-16.541 30.671-28.973 66.298-35.348 103.986l-0.286 2.048c-0.060 0.427-0.094 0.921-0.094 1.421 0 3.49 1.65 6.596 4.211 8.579l0.025 0.019c27.379 17.795 60.869 28.377 96.833 28.377 4.321 0 8.606-0.153 12.851-0.453l-0.571 0.032c3.365 0.207 7.3 0.325 11.261 0.325 37.079 0 71.745-10.331 101.277-28.271l-0.867 0.488c2.8-1.988 4.603-5.217 4.603-8.869 0-0.847-0.097-1.67-0.28-2.46l0.014 0.073c-7.481-39.636-20.327-74.972-37.95-107.332l0.95 1.906c63.665-40.036 113.56-96.764 144.238-164.094l0.964-2.361c0.638-1.339 1.010-2.911 1.010-4.569 0-5.989-4.855-10.844-10.844-10.844-4.425 0-8.232 2.652-9.918 6.452l-0.027 0.069c-31.326 68.932-81.723 124.607-144.451 161.603l-1.662 0.907c-3.236 1.917-5.371 5.389-5.371 9.362 0 2.371 0.762 4.565 2.053 6.35l-0.022-0.032c17.872 28.684 31.175 62.229 37.891 98.096l0.28 1.8c-24.322 12.467-53.062 19.774-83.509 19.774-3.429 0-6.838-0.093-10.222-0.276l0.471 0.020c-3.143 0.207-6.815 0.325-10.514 0.325-29.392 0-57.043-7.452-81.166-20.571l0.894 0.445c7.78-38.076 20.539-71.888 37.795-102.852l-0.925 1.808c0.758-1.441 1.202-3.15 1.202-4.962 0-3.736-1.889-7.031-4.765-8.981l-0.038-0.024c-82.414-55.348-142.556-114.101-168.907-221.045-5.446-19.204-8.578-41.259-8.578-64.046 0-41.245 10.26-80.095 28.367-114.135l-0.639 1.315c0.777-1.457 1.233-3.187 1.233-5.024 0-4.157-2.339-7.768-5.773-9.587l-0.059-0.028c-1.423-0.725-3.105-1.15-4.886-1.15-0.036 0-0.072 0-0.108 0.001h0.006zM788.601 37.24h-109.308c-5.989 0-10.844 4.855-10.844 10.844v0l-0.238 249.847c0 5.989 4.855 10.844 10.844 10.844v0h109.547c5.989 0 10.844-4.855 10.844-10.844v0-249.847c0-5.989-4.855-10.844-10.844-10.844v0zM690.115 58.928h87.642v228.159h-87.859zM527.454 502.319c-2.267-0.14-4.916-0.219-7.584-0.219-24.692 0-47.789 6.83-67.505 18.702l0.591-0.329c-2.265 1.997-3.686 4.906-3.686 8.146 0 5.989 4.855 10.844 10.844 10.844 2.82 0 5.387-1.076 7.316-2.84l-0.008 0.007c15.625-8.064 34.102-12.791 53.684-12.791 2.233 0 4.452 0.061 6.654 0.183l-0.306-0.013c1.507-0.074 3.275-0.117 5.051-0.117 19.564 0 37.926 5.143 53.81 14.15l-0.542-0.283c1.629 1.030 3.612 1.641 5.737 1.641 5.991 0 10.848-4.857 10.848-10.848 0-3.866-2.022-7.259-5.066-9.18l-0.045-0.026c-18.516-10.775-40.752-17.134-64.473-17.134-1.871 0-3.733 0.040-5.583 0.118l0.264-0.009zM788.601 99.81h-109.308v21.688h109.308zM788.601 162.163h-109.308v21.688h109.308zM788.601 224.517h-109.308v21.688h109.308zM475.121 36.805h-109.33c-5.989 0-10.844 4.855-10.844 10.844v0 62.787c0 5.989 4.855 10.844 10.844 10.844v0h109.33c5.989 0 10.844-4.855 10.844-10.844v0-62.787c0-5.989-4.855-10.844-10.844-10.844v0zM376.636 58.494h87.642v41.099h-87.642zM631.861 37.456h-109.33c-5.989 0-10.844 4.855-10.844 10.844v0 124.923c0 5.989 4.855 10.844 10.844 10.844v0h109.33c5.989 0 10.844-4.855 10.844-10.844v0-124.923c0-5.989-4.855-10.844-10.844-10.844v0zM533.375 59.144h87.642v103.236h-87.642zM535.197 252.169c-0.056 0-0.122 0-0.189 0-37.65 0-69.781 23.63-82.371 56.869l-0.201 0.606h-18.11c-5.989 0-10.844 4.855-10.844 10.844s4.855 10.844 10.844 10.844v0 0h13.013c-0.282 2.69-0.412 5.4-0.433 8.133s0.238 5.639 0.564 8.415h-13.013c-5.989 0-10.844 4.855-10.844 10.844s4.855 10.844 10.844 10.844v0 0h18.348c13 33.4 44.901 56.639 82.229 56.639 0.507 0 1.014-0.004 1.519-0.013l-0.076 0.001c19.162-0.276 36.839-6.406 51.384-16.675l-0.287 0.192c2.717-1.995 4.459-5.177 4.459-8.766 0-5.989-4.855-10.844-10.844-10.844-2.244 0-4.33 0.682-6.060 1.85l0.038-0.024c-10.896 7.692-24.401 12.37-38.987 12.578l-0.051 0.001h-1.128c-25.182-0.043-47.083-14.045-58.384-34.679l-0.174-0.347h55.999c5.989 0 10.844-4.855 10.844-10.844s-4.855-10.844-10.844-10.844v0 0l-63.178 0.13c-0.382-2.447-0.633-5.319-0.693-8.237l-0.001-0.070c0.026-2.948 0.23-5.82 0.603-8.639l-0.038 0.355 63.156-0.282c5.989 0 10.844-4.855 10.844-10.844s-4.855-10.844-10.844-10.844v0 0l-56.129 0.13c3.38-6.366 7.476-11.826 12.288-16.561l0.009-0.009c11.71-11.743 27.906-19.010 45.799-19.010 0.421 0 0.843 0.004 1.262 0.012l-0.063-0.001c16.181 0.725 30.943 6.244 43.050 15.16l-0.216-0.152c1.765 1.295 3.98 2.072 6.376 2.072 5.99 0 10.846-4.856 10.846-10.846 0-3.594-1.748-6.778-4.438-8.752l-0.030-0.021c-15.279-11.247-34.261-18.301-54.847-19.144l-0.198-0.006zM522.531 121.476h109.33v-21.688h-109.33v21.688z" />
<glyph unicode="&#xe905;" glyph-name="chevron-left" d="M743.732-39.354c16.677 16.677 16.677 43.721 0 60.398l-311.468 311.468 311.468 311.467c16.677 16.678 16.677 43.72 0 60.399l-30.199 30.199c-16.677 16.678-43.721 16.678-60.398 0l-356.767-356.768c-25.018-25.014-25.018-65.579 0-90.597l356.767-356.764c16.677-16.682 43.721-16.682 60.398 0l30.199 30.199z" />
<glyph unicode="&#xe906;" glyph-name="chevron-right" d="M307.798-39.354c-16.679 16.677-16.679 43.721 0 60.398l311.465 311.468-311.465 311.467c-16.679 16.678-16.679 43.72 0 60.399l30.199 30.199c16.679 16.678 43.72 16.678 60.399 0l356.765-356.768c25.018-25.014 25.018-65.579 0-90.597l-356.765-356.764c-16.679-16.682-43.72-16.682-60.399 0l-30.199 30.199z" />
<glyph unicode="&#xe907;" glyph-name="cup" d="M927.056 662.221h-151.472v41.57c0 9.435-7.648 17.084-17.084 17.084v0h-492.57c-9.435 0-17.084-7.648-17.084-17.084v0-41.57h-151.472c-9.435 0-17.084-7.648-17.084-17.084v0-50.111c0.322-95.792 77.889-173.358 173.65-173.681h7.434c32.019-103.341 123.317-178.499 233.215-186.162l0.827-0.046v-179.945h-116.736c-9.68 0-17.084-7.403-17.084-17.084s7.403-17.084 17.084-17.084h267.070c9.68 0 17.084 7.403 17.084 17.084s-7.403 17.084-17.084 17.084h-116.736v180.514c110.618 7.611 201.807 82.848 232.982 184.353l0.49 1.856h7.403c95.792 0.322 173.358 77.889 173.681 173.65v49.572c0.006 0.17 0.010 0.369 0.010 0.57 0 9.12-7.393 16.514-16.514 16.514-0.003 0-0.007 0-0.010 0h0.001zM114.459 595.027v33.028h134.389v-130.972c0-14.236 1.709-27.903 3.986-41.57-76.433 0.961-138.060 62.989-138.375 139.484v0.030zM511.931 268.165c-126.427 0-228.917 102.489-228.917 228.917v0 189.625h458.404v-189.625c-0.646-126.367-103.074-228.595-229.455-228.917h-0.031zM909.973 595.027c0 0 0-0.001 0-0.001 0-76.851-62.139-139.189-138.914-139.513h-0.031c2.278 13.666 3.986 27.334 3.986 41.57v130.972h134.389v-33.028zM715.222-26.238h-406.014c-9.68 0-17.084-7.403-17.084-17.084s7.403-17.084 17.084-17.084h406.584c9.68 0 17.084 7.403 17.084 17.084s-7.972 17.084-17.653 17.084z" />
<glyph unicode="&#xe908;" glyph-name="desktop-mobile" d="M936.737 410.526h-59.791l-0.57 278.459c-0.306 9.939-8.284 17.916-18.194 18.222l-0.029 0.001h-771.598c-9.435 0-17.084-7.648-17.084-17.084v0-515.917c0-9.68 8.541-18.222 18.222-18.222h368.431v-79.722h-121.861c-9.68 0-17.084-7.403-17.084-17.084s7.403-17.084 17.084-17.084h277.889c9.68 0 17.084 7.403 17.084 17.084s-7.403 17.084-17.084 17.084h-121.861v79.722h182.792v-201.584c0-9.68 7.403-17.084 17.084-17.084h246.57c9.435 0 17.084 7.648 17.084 17.084v0 438.472c0.006 0.17 0.009 0.369 0.009 0.57 0 9.435-7.648 17.084-17.084 17.084-0.003 0-0.007 0-0.010 0h0.001zM673.084 393.443v-203.292h-569.445v482.89h738.57l0.57-262.514h-153.181c-9.187-0.316-16.514-7.84-16.514-17.074 0-0.003 0-0.007 0-0.010v0.001zM920.223-27.947h-212.403v404.306h212.403v-404.306zM837.654 26.151c0-12.265-9.943-22.209-22.209-22.209s-22.209 9.943-22.209 22.209c0 12.265 9.943 22.209 22.209 22.209s22.209-9.943 22.209-22.209z" />
<glyph unicode="&#xe909;" glyph-name="euro" d="M658.643 691.263l-23.723-1.301-23.623-2.903-23.323-4.304-23.123-6.006-22.522-7.507-22.022-8.909-21.421-10.41-20.62-11.812-19.819-13.113-18.918-14.414-18.018-15.615-16.816-16.816-15.715-17.917-14.414-18.818-13.213-19.819-11.812-20.62-10.51-21.321-9.009-22.022-7.607-22.622h-93.091l-24.324-51.25h106.204l-2.402-20.42-1.201-20.52v-20.62l1.201-20.42 2.402-20.52h-81.88l-24.324-51.25h117.415l7.607-22.622 9.009-22.022 10.51-21.321 11.812-20.62 13.213-19.819 14.414-18.818 15.715-17.917 16.816-16.816 18.018-15.515 18.918-14.514 19.819-13.113 20.62-11.812 21.421-10.31 22.022-9.009 22.522-7.407 23.123-6.006 23.323-4.404 23.623-2.903 23.723-1.301 23.823 0.3 23.623 1.902 23.523 3.403 23.323 5.005 22.922 6.506 22.322 8.008 21.821 9.509-21.921 46.245-19.719-8.508-20.22-7.107-20.72-5.706-20.92-4.204-21.321-2.703-21.421-1.401-21.421 0.2-21.421 1.802-21.221 3.203-20.92 4.705-20.42 6.106-20.12 7.507-19.519 8.909-18.818 10.31-18.018 11.511-17.217 12.813-16.416 13.914-15.215 15.015-14.214 16.016-13.013 17.117-11.812 17.817-10.61 18.718-9.209 19.419-7.808 19.919h241.236l24.324 51.25h-278.872l-2.703 20.42-1.401 20.52v20.62l1.401 20.52 2.703 20.42h327.52l24.324 51.35h-338.531l7.808 19.919 9.209 19.319 10.61 18.718 11.812 17.817 13.013 17.117 14.214 16.016 15.215 15.115 16.416 13.914 17.217 12.712 18.018 11.611 18.818 10.21 19.519 8.909 20.12 7.607 20.42 6.106 20.92 4.705 21.221 3.203 21.421 1.702 21.421 0.2 21.421-1.301 21.321-2.703 20.92-4.304 20.72-5.605 20.22-7.207 19.719-8.508 21.921 46.345-21.821 9.409-22.322 8.008-22.922 6.606-23.323 5.005-23.523 3.403-23.623 1.802-23.823 0.3z" />
<glyph unicode="&#xe90a;" glyph-name="eye" d="M520.385 44.723c-181.346-3.942-346.924 110.385-410 279.904-3.942 7.885-3.942 11.827 0 19.711 63.077 173.461 228.654 287.789 410 283.846 181.346 3.942 346.924-110.385 406.059-283.846 3.942-7.885 3.942-11.827 0-19.711-63.077-169.52-224.711-283.846-406.059-279.904zM173.461 336.454c55.192-141.924 193.174-232.596 342.981-228.654 149.808-3.942 287.789 90.674 342.981 228.654-55.192 141.924-193.174 232.596-342.981 228.654-149.808 3.942-287.789-90.674-342.981-228.654zM520.385 159.051c-98.558 0-177.404 78.846-177.404 177.404s78.846 177.404 177.404 177.404 177.404-78.846 177.404-177.404v0c-3.942-98.558-82.789-177.404-177.404-177.404zM520.385 450.782c-63.077 0-114.327-51.25-114.327-114.327s51.25-114.327 114.327-114.327 114.327 51.25 114.327 114.327c0 63.077-51.25 114.327-114.327 114.327z" />
<glyph unicode="&#xe90b;" glyph-name="flag" d="M300.293-7.82v565.544c23.030 14.030 35.042 36.035 35.042 62.077 0 39.046-32.031 72.070-71.077 72.070-40.039 0-72.070-33.024-72.070-72.070 0-26.041 14.030-48.047 37.028-62.077v-565.544c0-10.026 7.015-18.034 16.016-18.034h37.028c10.026 0 18.034 8.008 18.034 18.034zM335.335 525.693v-324.317c0-19.027 10.026-27.034 22.038-18.034 23.030 17.009 43.050 30.045 61.052 39.046 37.028 17.009 63.070 25.016 87.093 26.041 30.045 0 53.044-6.022 76.074-17.009 22.038-10.026 42.057-26.041 65.056-41.032 13.005-8.008 29.020-13.005 47.054-14.030 30.045-2.018 72.070 4.997 121.11 45.036 11.019 9.001 20.020 32.031 20.020 49.040v324.317c0 19.027-8.008 26.041-20.020 17.009-25.016-19.027-48.047-32.031-68.066-38.053-41.032-11.019-73.063-9.001-100.098 7.015-23.030 15.023-43.050 31.038-65.056 41.032-23.030 11.019-46.061 17.009-76.074 17.009-11.019 0-25.016-3.011-40.039-7.015-27.034-8.008-62.077-25.016-108.106-57.048-12.012-9.001-22.038-31.038-22.038-49.040z" />
<glyph unicode="&#xe90c;" glyph-name="folder" d="M878.938 396.575h-636.782l-96.094-384.375h636.782l96.094 384.375zM832.813 460.637v64.063h-346.578l-128.381 128.125h-229.728v-448.438l57.913 232.035c3.588 14.222 16.4 24.216 31.134 24.216h615.641zM807.829-51.863h-711.735c-17.681 0-32.031 14.35-32.031 32.031v704.688c0 17.681 14.35 32.031 32.031 32.031h288.153l128.509-128.125h352.088c17.681 0 32.031-14.35 32.031-32.031v-96.094h23.063c17.681 0 32.031-14.35 32.031-32.031 0-2.563-0.384-5.253-0.897-7.688l-112.109-448.438c-3.588-14.35-16.4-24.344-31.134-24.344zM797.195-4.713h-683.932l110.188 414.741h683.932z" />
<glyph unicode="&#xe90d;" glyph-name="gear" d="M992.97 256.47c18.080 1.407 32.031 16.516 32.031 34.628v82.831c0 18.144-13.952 33.22-32.031 34.66l-109.763 8.57c-6.975 0.533-12.981 4.911-15.671 11.387l-36.097 87.117c-2.691 6.444-1.564 13.826 3.003 19.113l71.57 83.708c11.761 13.795 11.011 34.316-1.846 47.14l-58.557 58.557c-12.825 12.825-33.377 13.639-47.14 1.846l-83.708-71.57c-5.287-4.536-12.7-5.694-19.113-3.035l-87.147 36.129c-6.444 2.659-10.855 8.759-11.417 15.671l-8.54 109.733c-1.407 18.106-16.484 32.057-34.626 32.057h-82.831c-18.144 0-33.22-13.952-34.628-32.063l-8.57-109.733c-0.533-6.945-4.943-13.013-11.387-15.671l-87.147-36.129c-6.444-2.659-13.826-1.501-19.145 3.035l-83.676 71.57c-13.763 11.794-34.283 10.979-47.14-1.846l-58.557-58.557c-12.825-12.825-13.607-33.345-1.846-47.14l71.57-83.708c4.504-5.287 5.694-12.668 3.003-19.113l-36.097-87.117c-2.629-6.474-8.727-10.855-15.641-11.387l-109.793-8.566c-18.080-1.439-32.031-16.516-32.031-34.66v-82.799c0-18.144 13.952-33.25 32.031-34.66l109.795-8.54c6.913-0.563 13.013-4.973 15.641-11.417l36.097-87.117c2.691-6.444 1.501-13.858-3.003-19.145l-71.57-83.708c-11.761-13.763-10.979-34.283 1.846-47.14l58.557-58.557c12.857-12.825 33.377-13.607 47.14-1.814l83.676 71.57c5.317 4.504 12.7 5.694 19.145 3.003l87.147-36.097c6.444-2.691 10.855-8.727 11.387-15.703l8.57-109.733c1.407-18.080 16.484-32.063 34.628-32.063h82.831c18.144 0 33.22 13.982 34.628 32.063l8.54 109.733c0.563 6.975 4.973 13.013 11.417 15.703l87.147 36.097c6.412 2.691 13.858 1.501 19.113-3.003l83.708-71.57c13.763-11.794 34.316-11.011 47.14 1.814l58.557 58.557c12.857 12.857 13.607 33.377 1.846 47.14l-71.57 83.708c-4.504 5.287-5.694 12.7-3.003 19.145l36.097 87.117c2.691 6.444 8.696 10.855 15.671 11.417l109.759 8.542zM512.5 159.311c-46.263 0-89.776 18.018-122.496 50.706-32.72 32.75-50.738 76.23-50.738 122.526 0 46.263 18.018 89.776 50.738 122.464 32.72 32.75 76.23 50.738 122.496 50.738 46.295 0 89.776-17.986 122.496-50.738 32.72-32.688 50.738-76.2 50.738-122.464 0-46.295-18.018-89.776-50.738-122.526-32.72-32.688-76.2-50.706-122.496-50.706z" />
<glyph unicode="&#xe90e;" glyph-name="graph" d="M895.737-16.558h-120.722v379.82c0 9.68-7.403 17.084-17.084 17.084s-17.084-7.403-17.084-17.084v-379.82h-211.264v250.556c0 9.68-7.403 17.084-17.084 17.084s-17.084-7.403-17.084-17.084v-250.556h-212.972v133.25c0 9.68-7.403 17.084-17.084 17.084s-17.084-7.403-17.084-17.084v-133.25h-119.014c-9.68 0-17.084-7.403-17.084-17.084s7.403-17.084 17.084-17.084h766.473c9.68 0 17.084 7.403 17.084 17.084s-7.403 17.084-17.084 17.084zM228.917 306.318h2.847c113.293 20.991 213.641 65.075 300.003 127.345l-2.183-1.497c81.588 61.219 151.509 132.045 209.867 211.86l1.967 2.821v-106.486c0-9.68 7.403-17.084 17.084-17.084 9.435 0 17.084 7.648 17.084 17.084v0 158.306c0 5.569-2.666 10.517-6.791 13.635l-0.043 0.031c-2.661 2.263-6.136 3.64-9.934 3.64-1.743 0-3.418-0.29-4.981-0.825l0.108 0.032-150.903-39.861c-7.512-1.904-12.983-8.605-12.983-16.584 0-1.389 0.166-2.74 0.478-4.033l-0.024 0.117c1.854-7.58 8.589-13.118 16.617-13.118 1.584 0 3.117 0.215 4.572 0.619l-0.12-0.028 104.209 27.334c-58.542-80.574-126.609-149.545-203.638-207.195l-2.5-1.791c-79.906-58.654-175.59-100.845-279.437-119.534l-4.146-0.619c-8.263-1.294-14.509-8.362-14.509-16.888 0-1.075 0.099-2.127 0.289-3.148l-0.016 0.105c1.411-8.132 8.415-14.238 16.844-14.238 0.084 0 0.168 0.001 0.251 0.002h-0.013z" />
<glyph unicode="&#xe90f;" glyph-name="hand-heart" d="M470.647 392.873c2.847-1.709 5.695-2.847 9.111-2.847s6.834 1.139 10.25 3.416c6.264 4.555 152.041 113.32 152.041 219.806 0 60.931-41 91.111-79.722 93.959-1.759 0.124-3.812 0.195-5.882 0.195-31.383 0-58.965-16.274-74.768-40.843l-0.212-0.352c-18.222 28.472-48.403 41.57-76.306 40.43-43.278-1.709-87.125-37.014-87.125-101.361 0-114.459 146.347-208.417 152.611-212.403zM406.299 672.471h1.709c25.055 0 51.25-18.222 54.666-60.361 0.57-8.541 7.972-15.375 16.514-15.945 9.68 1.139 16.514 6.264 17.653 14.805 6.834 45.555 35.875 64.347 63.209 62.639 23.916-1.709 47.834-21.070 47.834-59.791 0-75.166-97.375-160.014-128.695-185.070-31.32 21.639-126.986 95.666-126.986 176.528 0 44.986 27.903 66.056 54.097 67.195zM947.842 287.526c-29.611 54.097-96.236 25.625-128.125 11.959l-164.57-66.625c-10.25 30.75-45.555 49.541-79.153 49.541h-159.445c-0.498-0.013-1.086-0.020-1.675-0.020-11.88 0-23.068 2.957-32.87 8.176l0.378-0.183-14.236 6.264c-22.209 9.111-55.236 22.778-96.806 22.778-79.722 0-143.5-38.722-195.32-76.875-7.403-5.695-9.111-16.514-3.416-23.916s16.514-9.111 23.916-3.416c47.157 40.141 107.632 65.931 173.979 70l0.84 0.041c35.785-1.1 69.149-10.454 98.571-26.21l-1.196 0.585c14.236-6.264 21.639-9.68 47.264-10.82h160.584c22.778 0 47.834-13.666 47.834-33.028 0-26.195-11.389-38.153-37.014-38.153h-174.25c-9.68 0-17.084-7.403-17.084-17.084s7.403-17.084 17.084-17.084h174.82c37.584 0 61.5 19.93 68.334 53.528l177.667 71.75c42.139 17.653 72.32 25.055 84.278 2.847 4.555-7.972 13.097-23.916-21.070-47.834-13.666-9.111-345.654-211.264-383.236-231.195-1.399-0.020-3.051-0.031-4.706-0.031-80.852 0-155.457 26.746-215.449 71.874l0.92-0.663-26.195 16.514c-4.555 2.278-9.68 3.416-14.236 1.709l-174.25-60.931c-6.857-2.325-11.703-8.703-11.703-16.214 0-1.941 0.323-3.807 0.92-5.545l-0.036 0.12c2.419-6.687 8.713-11.378 16.103-11.378 2.195 0 4.294 0.414 6.222 1.168l165.593 56.905 18.791-11.959c64.6-47.722 145.811-76.381 233.717-76.381 2.717 0 5.428 0.027 8.132 0.082l-0.404-0.006c13.666 0 395.195 235.181 398.611 237.459 49.541 33.597 44.986 68.903 31.889 92.25z" />
<glyph unicode="&#xe910;" glyph-name="heart" d="M920.579 681.013c-44.406 40.411-103.693 65.158-168.76 65.158-8.249 0-16.405-0.397-24.451-1.175l1.023 0.080c-43.115-2.014-83-14.121-117.888-33.991l1.294 0.679c-37.847-19.107-70.391-39.976-100.552-63.734l1.255 0.953c-27.942 23.084-59.188 44.314-92.34 62.498l-3.113 1.565c-32.534 19.285-71.36 31.417-112.857 33.294l-0.534 0.019c-6.789 0.629-14.681 0.986-22.658 0.986-68.204 0-130.291-26.188-176.756-69.055l0.179 0.163c-50.307-46.755-81.755-113.212-82-187.018v-0.045c1.763-57.088 22.762-108.953 56.694-149.66l-0.319 0.394c107.554-149.955 227.766-280.337 362.085-394.638l3.072-2.549 24.984 31.391-24.344-31.391c18.042-16.060 41.728-26.127 67.748-26.902l0.158-0.004c26.604 0.692 50.731 10.765 69.316 27.015l-0.128-0.109c145.543 127.183 273.352 268.618 383.2 423.676l5.019 7.465c18.803 31.973 29.965 70.402 30.109 111.428v0.041c0.077 2.347 0.121 5.107 0.121 7.878 0 72.974-30.504 138.825-79.457 185.495l-0.102 0.097zM903.923 420.919c-110.759-155.624-233.234-291.316-369.616-411.606l-2.588-2.238c-4.885-4.25-10.994-7.213-17.731-8.301l-0.206-0.027c-7.287 0.967-13.682 4.208-18.586 8.976l0.008-0.007c-132.22 112.070-247.974 236.976-347.485 374.413l-4.218 6.119c-23.577 27.847-38.687 63.534-40.978 102.665l-0.022 0.475c0.311 50.595 21.902 96.088 56.266 128.024l0.109 0.101c31.696 29.134 74.156 46.992 120.789 46.992 6.193 0 12.313-0.315 18.344-0.93l-0.758 0.062h6.406c28.43-2.289 54.4-11.045 77.010-24.781l-0.776 0.437c32.251-17.061 59.702-34.481 85.677-53.778l-1.755 1.246 48.688-40.359 48.688 40.359c24.994 19.541 53.093 37.817 82.729 53.582l3.115 1.511c23.176 13.773 50.691 22.773 80.104 24.948l0.615 0.036h6.406c5.203 0.56 11.239 0.879 17.349 0.879 44.429 0 84.917-16.876 115.402-44.568l-0.141 0.126c34.054-32.248 55.359-77.663 55.734-128.056v-0.069c0.093-1.905 0.146-4.138 0.146-6.382 0-25.72-6.953-49.816-19.081-70.511l0.356 0.659z" />
<glyph unicode="&#xe911;" glyph-name="house" d="M915.070 273.831l-120.694 120.438v194.494c0 14.152-11.473 25.625-25.625 25.625v0h-102.5c-14.152 0-25.625-11.473-25.625-25.625v0-40.744l-109.931 110.188c-4.632 4.605-11.017 7.451-18.066 7.451s-13.434-2.847-18.067-7.453l-384.374-384.374c-4.682-4.645-7.58-11.081-7.58-18.194 0-14.115 11.411-25.564 25.512-25.625h102.506c0.044 0 0.096 0 0.148 0 7.040 0 13.416 2.839 18.048 7.433l7.429 7.429v-271.113c0-14.152 11.473-25.625 25.625-25.625v0h461.25c14.152 0 25.625 11.473 25.625 25.625v0 271.369l7.431-7.431c4.631-4.722 11.066-7.656 18.188-7.688h102.506c0.044 0 0.097 0 0.149 0 14.152 0 25.625 11.473 25.625 25.625 0 7.113-2.899 13.549-7.578 18.193l-0.002 0.002zM691.876 563.137h51.25v-117.619l-51.25 51.25zM563.751-0.613v179.375h51.25v-179.375zM717.501-0.613h-51.25v205c0 14.152-11.473 25.625-25.625 25.625v0h-102.5c-14.152 0-25.625-11.473-25.625-25.625v0-205h-205v296.994l205 205 205-205zM804.882 281.262l-274.444 274.444c-4.632 4.605-11.017 7.451-18.066 7.451s-13.434-2.847-18.067-7.453l-274.187-274.443h-30.238l322.619 322.619 322.619-322.619zM461.25 230.012h-102.5c-14.152 0-25.625-11.473-25.625-25.625v0-102.5c0-14.152 11.473-25.625 25.625-25.625v0h102.5c14.152 0 25.625 11.473 25.625 25.625v0 102.5c0 14.152-11.473 25.625-25.625 25.625v0zM435.625 127.512h-51.25v51.25h51.25z" />
<glyph unicode="&#xe912;" glyph-name="lamp" d="M628.952 79.109l-231.764 1.139c-9.435 0-17.084 7.648-17.084 17.084v0l-1.709 75.736c-71.236 44.871-117.875 123.101-117.875 212.225 0 138.064 111.922 249.986 249.986 249.986s249.986-111.922 249.986-249.986c0-0.138 0-0.276 0-0.413v0.022c0-84.278-44.986-167.416-115.028-213.542v-74.597c0.025-0.34 0.039-0.738 0.039-1.139 0-9.12-7.393-16.514-16.514-16.514-0.014 0-0.028 0-0.041 0h0.002zM413.702 114.415l198.167-1.139v67.195c0 6.264 2.847 11.389 7.972 14.805 64.916 39.291 107.056 113.889 107.056 189.625-0.855 118.229-96.896 213.743-215.245 213.743-118.879 0-215.25-96.371-215.25-215.25 0-79.25 42.829-148.498 106.604-185.86l1.016-0.55c4.988-2.914 8.335-8.162 8.541-14.208l0.001-0.029 1.139-68.334zM607.883-2.322h-193.042c-9.68 0-17.084 7.403-17.084 17.084s7.403 17.084 17.084 17.084h193.042c9.68 0 17.084-7.403 17.084-17.084s-7.972-17.084-17.084-17.084zM511.077 689.554c-9.435 0-17.084 7.648-17.084 17.084v0 79.722c0 9.68 7.403 17.084 17.084 17.084s17.084-7.403 17.084-17.084v-79.722c0-9.435-7.648-17.084-17.084-17.084v0zM754.23 591.041c-4.702 0-8.945 1.965-11.952 5.118l-0.006 0.007c-3.16 3.014-5.125 7.256-5.125 11.959s1.965 8.945 5.118 11.952l0.007 0.006 56.375 56.375c3.014 3.16 7.256 5.125 11.959 5.125s8.945-1.965 11.952-5.118l0.006-0.007c6.834-6.834 6.834-17.653 0-23.916l-56.375-56.375c-3.048-3.108-7.269-5.056-11.946-5.125h-0.013zM590.799-78.058h-158.875c-9.68 0-17.084 7.403-17.084 17.084s7.403 17.084 17.084 17.084h158.306c9.68 0 17.084-7.403 17.084-17.084s-7.403-17.084-16.514-17.084zM265.077 591.041c-4.702 0-8.945 1.965-11.952 5.118l-0.006 0.007-56.375 56.375c-3.16 3.014-5.125 7.256-5.125 11.959s1.965 8.945 5.118 11.952l0.007 0.006c3.014 3.16 7.256 5.125 11.959 5.125s8.945-1.965 11.952-5.118l0.006-0.007 56.375-56.375c6.834-6.834 6.834-17.653 0-23.916-2.828-3.156-6.917-5.133-11.467-5.133-0.173 0-0.345 0.003-0.517 0.009l0.025-0.001zM198.452 358.137h-79.722c-9.68 0-17.084 7.403-17.084 17.084s7.403 17.084 17.084 17.084h79.722c9.68 0 17.084-7.403 17.084-17.084s-7.972-17.084-17.084-17.084zM908.549 358.137h-79.722c-9.68 0-17.084 7.403-17.084 17.084s7.403 17.084 17.084 17.084h79.722c9.68 0 17.084-7.403 17.084-17.084s-7.403-17.084-17.084-17.084z" />
<glyph unicode="&#xe913;" glyph-name="layout" d="M488.643 430.335v0c-18.225 0-33.008-14.784-33.008-33.008s14.784-33.008 33.008-33.008c18.271 0 33.055 14.784 33.055 33.008s-14.784 33.008-33.055 33.008zM506.286 482.591v0c14.18-7.299 23.153-12.274 24.176-12.855 1.023-0.628 9.857-5.905 23.246-14.505-1.209 14.994-2.859 30.638-4.928 46.166-14.552-5.951-28.917-12.32-42.492-18.805zM368.487 397.327v0c12.436-9.623 25.152-18.852 37.519-27.36-0.767 15.9-0.907 26.198-0.907 27.36s0.139 11.46 0.907 27.36c-12.39-8.508-25.081-17.783-37.519-27.36zM471.069 312.061v0c-14.18 7.253-23.153 12.274-24.176 12.855s-9.857 5.858-23.246 14.505c1.209-14.994 2.859-30.638 4.928-46.166 14.552 5.905 28.917 12.32 42.492 18.805zM555.032 358.994v0c0.791 13.925 1.162 26.918 1.162 38.332s-0.395 24.408-1.116 38.332c-11.715 7.647-22.78 14.459-32.637 20.108-9.88 5.696-21.34 11.879-33.799 18.178-12.413-6.299-23.873-12.483-33.729-18.178-9.857-5.649-20.921-12.459-32.567-20.108-0.814-13.925-1.162-26.918-1.162-38.332s0.348-24.408 1.116-38.332c11.715-7.624 22.78-14.459 32.637-20.154 9.857-5.719 21.293-11.902 33.729-18.178 12.483 6.299 23.943 12.483 33.799 18.178s20.921 12.506 32.567 20.154zM608.893 397.327v0c-12.436 9.623-25.152 18.852-37.519 27.36 0.767-15.9 0.907-26.198 0.907-27.36s-0.139-11.46-0.907-27.36c12.39 8.508 25.081 17.736 37.519 27.36zM506.309 312.061v0c13.598-6.485 27.941-12.902 42.492-18.805 2.069 15.528 3.72 31.172 4.928 46.166-13.389-8.647-22.223-13.925-23.246-14.505s-10.019-5.602-24.176-12.855zM431.040 276.914v0c10.019-62.298 28.337-118.413 57.626-118.413 29.336 0 47.654 56.115 57.672 118.413-21.316 8.88-41.284 18.225-57.626 26.245-16.388-8.020-36.357-17.341-57.672-26.245zM407.167 444.398v0c1.209 18.178 3.092 40.122 6.090 63.042-59.021 22.455-116.786 34.659-131.43 9.275s24.803-69.272 73.758-109.138c18.387 14.064 36.403 26.663 51.582 36.821zM471.069 482.591v0c-13.598 6.485-27.987 12.855-42.492 18.805-2.069-15.528-3.72-31.172-4.928-46.166 13.389 8.6 22.223 13.878 23.246 14.505 1.023 0.582 10.019 5.555 24.176 12.855zM546.339 517.738v0c-10.019 62.322-28.337 118.437-57.672 118.437-29.29 0-47.631-56.138-57.626-118.437 21.316-8.88 41.284-18.225 57.626-26.291 16.388 8.066 36.357 17.411 57.672 26.291zM413.211 287.165c-2.952 22.92-4.835 44.911-6.044 63.089-15.18 10.158-33.194 22.757-51.582 36.775-48.955-39.843-88.403-83.777-73.758-109.138 14.644-25.384 72.41-13.157 131.384 9.275v0zM564.121 507.487c2.999-22.966 4.882-44.911 6.090-63.089 15.18-10.158 33.194-22.757 51.582-36.821 48.955 39.866 88.403 83.754 73.758 109.138s-72.41 13.18-131.43-9.228v0zM488.666 666.022c41.703 0 62.647-72.41 73.177-142.054 65.553 25.756 138.729 43.795 159.558 7.695 20.828-36.054-31.359-90.402-86.427-134.336 55.046-43.934 107.255-98.259 86.427-134.382-8.95-15.412-27.453-20.99-50.838-20.201l-0.441 0.976c-3.813 8.113-9.275 14.924-15.807 20.201 19.758-1.116 34.706 2.767 41.237 13.971 14.644 25.384-24.803 69.319-73.758 109.138-18.364-14.017-36.403-26.639-51.582-36.775-1.209-18.178-3.092-40.122-6.090-63.089 12.855-4.882 25.617-9.275 37.89-12.902-2.557-0.767-5.068-1.697-7.531-2.859-4.742-2.185-9.043-4.975-12.809-8.182-6.672 2.371-13.296 4.835-19.875 7.392-10.484-69.597-31.428-142.008-73.13-142.008-41.68 0-62.6 72.364-73.13 142.008-65.553-25.71-138.729-43.748-159.558-7.695-20.828 36.1 31.359 90.425 86.473 134.382-55.115 43.934-107.302 98.282-86.473 134.336 20.828 36.1 94.005 18.085 159.558-7.695 10.53 69.644 31.475 142.054 73.13 142.054v0zM587.53 205.364v0c24.315-52.302 45.050-103.721 62.693-156.024 4.65-13.784 9.043-27.546 13.296-41.423-17.202 14.412-36.682 27.662-62.113 40.657-16.713 8.554-37.216 1.953-45.771-14.784-8.508-16.713-1.883-37.216 14.83-45.724 82.522-46.678 124.62-113.439 154.351-152.352 78.547-3.905 183.199 37.565 200.609 71.015-6.811 70.527-22.525 155.745-59.509 216.881-9.67 16.040-30.568 21.223-46.608 11.506-4.626-2.813-8.415-6.578-11.112-10.879-8.252 8.857-21.014 12.995-33.59 9.67-8.368-2.278-15.18-7.438-19.573-14.157-8.252 8.95-21.107 13.157-33.683 9.764-9.577-2.557-17.109-8.95-21.363-17.109-15.063 40.796-31.893 81.057-50.746 121.575-7.927 17.063-28.127 24.454-45.143 16.574-17.063-7.927-24.454-28.127-16.527-45.143zM484.087-44.014c10.833 0 19.666-8.857 19.666-19.666 0-10.879-8.857-19.712-19.666-19.712-10.879 0-19.712 8.857-19.712 19.712 0 10.833 8.857 19.666 19.712 19.666v0zM647.317-116.82h-473.024c-34.613 0-62.879 28.221-62.879 62.879v836.027c0 34.659 28.267 62.879 62.879 62.879h628.723c34.659 0 62.879-28.244 62.879-62.879v-616.682c-15.505 7.485-33.729 8.88-50.559 3.138v566.471c0 6.765-5.602 12.367-12.32 12.367h-628.723c-6.672 0-12.227-5.509-12.32-12.181v-732.887c0-6.718 5.602-12.32 12.32-12.32h357.169c1.116-12.274 13.878-25.035 23.687-30.22 33.683-19.131 62.554-43.492 88.356-72.317 1.301-1.394 2.557-2.859 3.813-4.3v0z" />
<glyph unicode="&#xe914;" glyph-name="megaphone" d="M733.644 707.791c-6.791 3.331-14.991 2.178-20.884-2.691-1.281-1.281-163.231-137.094-301.607-137.094l-163.872 1.281h-103.141c-105.063 0-143.116-88.791-143.116-172.456 0-104.55 56.888-172.456 145.038-172.456l82.384-0.641h14.991l107.753-255.866c3.075-7.303 10.378-11.916 18.322-11.788l7.944 1.281c9.866 4.228 14.606 15.503 10.378 25.497l-101.219 240.235 122.872-0.641c148.881 0 302.375-126.716 303.528-127.997 3.844-3.331 7.944-4.613 12.3-4.613 2.947 0 5.766 0.769 8.456 1.922 6.791 3.331 11.019 10.122 11.147 17.553v580.151c0.513 7.816-3.972 15.119-11.275 18.322zM146.063 264.35c-98.016 0-105.831 101.859-105.831 133.25 0 39.847 10.378 133.25 103.781 133.25l94.684-0.641v-266.372h-10.378c0-0.128-82.256 0.513-82.256 0.513zM706.226 149.421c-55.478 39.719-174.891 113.006-296.353 113.006l-131.328 0.641v266.372l133.25-0.641c114.928 0 237.544 79.053 294.432 121.463v-500.841zM860.36 541.228l7.175 1.281 101.859 37.797c10.378 3.844 14.991 14.991 11.788 25.497-3.844 10.378-14.991 14.991-25.497 11.788l-101.859-37.797c-10.378-3.844-14.991-14.991-11.788-25.497 3.331-8.456 10.506-13.069 18.322-13.069zM1005.398 424.25h-111.084c-10.891 0-19.603-8.841-19.603-19.603v0c0-11.147 8.456-19.603 19.603-19.603h111.084c10.891 0 19.603 8.841 19.603 19.603 0 10.891-8.841 19.603-19.603 19.603zM974.648 232.446l-109.675 45.1c-9.994 3.972-21.269-0.641-25.497-10.378-3.972-9.994 0.641-21.269 10.378-25.497l109.675-45.1c2.691-1.281 5.253-1.281 7.175-1.281 8.072 0 15.375 4.869 18.322 12.3 4.228 9.225 0.128 20.116-9.097 24.216-0.384 0.128-0.769 0.384-1.281 0.641z" />
<glyph unicode="&#xe915;" glyph-name="search" d="M422.059 61.188c-199.513 0-361.765 162.251-361.765 361.765s162.251 361.765 361.765 361.765c199.514 0 361.765-162.251 361.765-361.765s-162.251-361.765-361.765-361.765zM740.653 146.987c64.274 74.041 103.465 170.451 103.465 275.966 0 232.675-189.384 422.059-422.059 422.059s-422.059-189.384-422.059-422.059 189.384-422.059 422.059-422.059c105.515 0 201.925 39.191 275.966 103.465l275.484-275.545 42.689 42.689-275.545 275.484z" />
<glyph unicode="&#xe916;" glyph-name="sign-in" d="M512.5 733.416c-258.685-5.509-464.069-219.606-458.688-478.291-0.384-109.803 36.259-216.66 104.038-303.144 10.122 83.666 90.328 154.391 202.694 188.088 82-83.922 216.531-85.588 300.453-3.716 0.256 0.256 0.513 0.513 0.769 0.769 113.391-36.644 191.803-111.341 194.366-198.466 74.697 88.406 115.441 200.516 115.184 316.213 5.253 258.941-200.131 473.038-458.816 478.547zM512.5 132.509c-28.7 0.128-56.759 8.072-81.359 22.934-64.063 41.513-101.731 113.391-99.681 189.625-7.559 108.266 72.903 202.566 180.913 212.047 108.266-9.481 188.856-104.038 180.913-212.303 2.178-77.259-36.772-150.035-102.372-190.906-23.831-13.838-50.994-21.269-78.541-21.397v0z" />
<glyph unicode="&#xe917;" glyph-name="sign-up" d="M806.42 418.356c-112.366 0-207.050 98.784-207.050 217.3 0 6.534 0 13.069 0 19.731-29.597 6.534-59.194 6.534-88.663 6.534-248.435 0-449.463-217.3-443.569-474.319 0-92.122 23.703-177.838 70.981-256.891h47.278c41.384 72.519 106.472 125.178 183.347 138.247 76.875-85.588 207.050-85.588 289.819-6.534v0c70.981-19.731 136.069-72.519 171.56-138.247h59.194c88.663 158.106 94.684 349.141 0 507.119-29.725-6.406-53.3-12.941-82.897-12.941zM587.582 82.284c-47.278-26.394-106.472-26.394-153.75 0-59.194 39.591-100.578 111.981-94.684 191.035-5.894 105.447 70.981 204.231 177.453 210.766 106.472-6.534 183.347-105.447 177.453-210.766-5.894-72.391-41.384-144.781-106.472-191.035zM824.101 648.853v138.375h-47.278v-138.247h-135.941v-46.125h136.069v-138.375h47.15v138.247h130.175v46.125h-130.175z" />
<glyph unicode="&#xe918;" glyph-name="star" d="M261.945-84.891c-10.034 0.035-19.314 3.229-26.907 8.638l0.143-0.097c-11.433 8.459-18.764 21.897-18.764 37.047 0 5.077 0.823 9.962 2.343 14.527l-0.094-0.324 87.695 272.764-215.25 185.070c-9.683 8.479-15.764 20.865-15.764 34.673 0 5.535 0.978 10.843 2.77 15.758l-0.102-0.32c6.834 17.653 23.916 29.611 42.709 29.611h257.959l91.111 243.153c6.264 17.084 23.347 28.472 42.709 28.472s35.875-11.389 42.709-28.472l91.111-243.153h257.959c18.791 0 35.875-11.959 42.709-29.611s1.139-38.153-13.097-50.68l-214.681-184.5 96.806-272.764c5.695-18.222 1.139-35.875-13.097-48.972-15.375-14.236-39.291-12.528-54.097-4.555-1.139 0.57-1.709 1.139-2.847 1.709l-234.042 163.431-223.792-163.431c-7.403-5.125-16.514-7.972-26.195-7.972zM512.5 150.29c5.695 0 11.389-1.709 16.514-5.125l221.514-154.889-91.681 256.82c-1.035 2.83-1.634 6.098-1.634 9.505 0 8.738 3.936 16.556 10.132 21.779l0.043 0.035 206.139 177.097h-246.57c-11.959 0-22.778 7.403-26.764 18.222l-87.125 233.472-87.125-233.472c-3.986-11.389-14.805-18.222-26.764-18.222h-247.709l206.139-177.097c8.541-7.403 11.959-19.361 8.541-30.18l-82.57-257.959 211.834 154.32c5.125 3.986 11.389 5.695 17.084 5.695z" />
<glyph unicode="&#xe919;" glyph-name="thumb-up" d="M882.070 452.666c-32.459 4.555-60.931 6.834-85.416 9.111-59.222 5.125-87.695 8.541-97.945 24.486-14.805 23.347-6.834 45.555 9.68 82.57 34.736 79.722 17.653 132.681-2.278 162.861-25.625 38.153-64.347 54.097-112.75 46.695-12.055-1.775-21.558-10.893-23.886-22.596l-0.030-0.181c-16.514-85.416-47.834-160.584-92.25-222.653-64.347-91.111-123-123.57-124.709-124.139-13.666-7.403-18.791-24.486-11.959-38.153 7.403-13.666 24.486-19.361 38.153-11.959 3.416 1.139 71.181 37.584 145.209 141.222 45.555 63.778 78.014 138.945 97.375 223.222 15.945-1.139 28.472-8.541 37.584-22.778 18.222-26.764 17.084-63.209-3.986-111.611-15.375-34.736-36.445-82.57-3.986-132.681 25.625-39.861 71.75-44.416 140.653-50.68 23.916-2.278 51.25-4.555 82.57-9.111 16.514-2.278 21.639-37.014 19.93-68.903-5.125-141.222-98.514-322.875-131.541-325.154-22.778 0-62.070 7.403-111.611 16.514-70.041 13.097-166.278 30.75-289.278 42.139-13.666 1.139-40.43 1.139-61.5 0.57v335.404c0 15.945-12.528 28.472-28.472 28.472h-157.736c-15.945 0-28.472-12.528-28.472-28.472v-384.375c0-15.945 12.528-28.472 28.472-28.472h158.875c13.097 0 23.916 9.111 26.764 21.070 21.070 0.57 46.695 0.57 58.084-0.57 120.153-11.389 214.681-28.472 284.153-41.57 54.666-10.25 93.959-17.653 121.861-17.653 92.82 0 179.945 246 187.917 369 7.403 111.611-40.43 134.959-69.472 138.375zM142.361 368.387h101.931v-327.431h-101.931v327.431z" />
<glyph unicode="&#xe91a;" glyph-name="user-building" d="M899.723-27.947h-55.805v784.126c0 5.695-2.847 10.82-7.403 14.236-2.685 1.84-6.004 2.939-9.579 2.939-2.293 0-4.481-0.451-6.479-1.271l0.114 0.041-386.654-153.181c-6.39-2.569-10.82-8.714-10.82-15.894 0-0.018 0-0.036 0-0.054v0.003-95.097c0-9.68 7.403-17.084 17.084-17.084s17.084 7.403 17.084 17.084v83.709l352.486 139.514v-759.070h-128.695c-9.68 0-17.084-7.403-17.084-17.084s7.403-17.084 17.084-17.084h218.667c9.68 0 17.084 7.403 17.084 17.084s-7.403 17.084-17.084 17.084zM710.097 518.152h-153.181c-9.68 0-17.084-7.403-17.084-17.084s7.403-17.084 17.084-17.084h153.181c9.68 0 17.084 7.403 17.084 17.084s-7.403 17.084-17.084 17.084zM710.097 386.609h-130.972c-9.68 0-17.084-7.403-17.084-17.084s7.403-17.084 17.084-17.084h131.541c9.68 0 17.084 7.403 17.084 17.084s-7.972 17.084-17.653 17.084zM727.181 238.553c0 9.435-7.648 17.084-17.084 17.084v0h-116.736c-9.68 0-17.084-7.403-17.084-17.084s7.403-17.084 17.084-17.084h116.736c9.435 0 17.084 7.648 17.084 17.084v0zM447.584 87.651h-204.431c-0.34 0.003-0.742 0.005-1.144 0.005-73.278 0-132.681-59.403-132.681-132.681 0-0.402 0.002-0.804 0.005-1.205v0.061c0-9.68 7.403-17.084 17.084-17.084s17.084 7.403 17.084 17.084c0 48.403 34.736 99.653 99.653 99.653h204.431c64.916 0 99.653-51.25 99.653-99.653 0-9.68 7.403-17.084 17.084-17.084s17.084 7.403 17.084 17.084c0 66.056-50.111 133.82-133.82 133.82zM345.654 123.526c86.015 0 155.743 69.729 155.743 155.743s-69.729 155.743-155.743 155.743v0c-86.015 0-155.743-69.729-155.743-155.743s69.729-155.743 155.743-155.743v0zM345.654 400.846c66.987 0 121.291-54.304 121.291-121.291s-54.304-121.291-121.291-121.291v0c-66.987 0-121.291 54.304-121.291 121.291s54.304 121.291 121.291 121.291v0z" />
<glyph unicode="&#xe91b;" glyph-name="user-search" d="M939.015 56.332l-110.472 82.57c-2.82 2.133-6.385 3.416-10.25 3.416-5.569 0-10.517-2.666-13.635-6.791l-0.031-0.043-21.639-29.041-52.959 39.291c45.52 60.543 72.899 136.983 72.899 219.817 0 203.164-164.697 367.861-367.861 367.861-1.005 0-2.009-0.004-3.012-0.012l0.154 0.001c-0.561 0.003-1.224 0.005-1.888 0.005-204.423 0-370.139-165.717-370.139-370.139s165.717-370.139 370.139-370.139c110.613 0 209.894 48.52 277.72 125.439l0.349 0.403 54.097-40.43-22.209-29.611c-2.227-2.79-3.573-6.367-3.573-10.259 0-0.8 0.057-1.588 0.167-2.357l-0.010 0.088c0.57-4.555 2.847-8.541 6.834-11.389l110.472-82.57c10.25-7.403 22.209-11.389 34.736-11.389l8.541 0.57c15.745 2.235 29.191 10.63 38.043 22.622l0.11 0.156 15.375 20.5c7.075 9.575 11.324 21.613 11.324 34.643 0 19.044-9.076 35.968-23.139 46.683l-0.143 0.105zM432.209 28.428c-0.068 0-0.148 0-0.228 0-99.473 0-188.797 43.45-250.029 112.407l-0.299 0.343c-52.649 58.587-84.848 136.477-84.848 221.888 0 0.269 0 0.538 0.001 0.807v-0.042c0 84.278 31.32 161.153 82.57 219.806 61.681 70.922 152.041 115.521 252.82 115.597h0.013c88.264 0 168.556-34.166 228.917-89.972 65.278-61.435 105.93-148.402 105.93-244.863 0-185.157-149.779-335.33-334.786-335.97h-0.061zM923.64-4.599l-15.375-20.5c-4.524-5.661-11.429-9.255-19.173-9.255-5.423 0-10.435 1.763-14.492 4.748l0.068-0.048-96.806 72.32 43.847 58.653 96.806-72.32c5.007-3.732 8.405-9.383 9.102-15.843l0.009-0.101c1.139-6.264 0-12.528-3.986-17.653zM526.167 257.915h-184.5c-59.222 0-99.084-51.25-99.084-99.653 0-9.68 7.403-17.084 17.084-17.084s17.084 7.403 17.084 17.084c0 31.32 26.195 65.486 65.486 65.486h184.5c41 0 65.486-33.028 65.486-65.486 0-9.68 7.403-17.084 17.084-17.084s17.084 7.403 17.084 17.084c-0.951 54.85-45.324 99.025-100.162 99.652l-0.060 0.001zM433.917 300.054c78.624 0 142.361 63.737 142.361 142.361s-63.737 142.361-142.361 142.361v0c-78.624 0-142.361-63.737-142.361-142.361s63.737-142.361 142.361-142.361v0zM433.917 550.041c59.754 0 108.195-48.44 108.195-108.195s-48.44-108.195-108.195-108.195v0c-59.754 0-108.195 48.44-108.195 108.195s48.44 108.195 108.195 108.195v0z" />
<glyph unicode="&#xe91c;" glyph-name="vacancies_resumes" d="M164 97.317c-76.46 0.185-130.757 27.887-120.876 49.587 9.881 22.070 64.824 35.090 122.076 35.46 57.252-0.185 111.55-13.205 120.784-35.368 9.142-21.885-45.524-49.681-121.984-49.681zM324.029 143.302c-16.16 31.581-88.371 50.419-159.845 50.881-71.473-0.647-144.516-19.484-161.692-50.881-16.991-30.842 54.852-73.505 159.937-73.966 105.086 0.185 177.574 42.939 161.599 73.966zM259.205 97.593l63.439-24.009-39.523-31.581-48.479 41.185zM864.694 97.317c-76.552 0.092-131.126 27.887-121.984 49.681 9.234 22.163 63.532 35.182 120.784 35.368 57.252-0.369 112.196-13.39 122.076-35.46 9.881-21.7-44.416-49.495-120.876-49.587zM1026.201 143.21c-17.176 31.397-90.218 50.234-161.692 50.881-71.473-0.461-143.685-19.207-159.845-50.881-15.976-31.027 56.513-73.782 161.599-73.966 105.086 0.369 176.836 43.124 159.937 73.966zM769.489 97.593l-63.532-24.009 39.523-31.581 48.572 41.185zM515.917-95.217c-148.948 0.277-254.496 58.084-235.381 103.424 19.3 45.987 126.232 73.135 237.782 73.874 111.55-0.461 217.189-27.518 235.196-73.782 17.822-45.524-88.649-103.424-237.597-103.516zM827.573 0.541c-31.397 65.84-172.034 104.994-311.194 105.916-139.16-1.293-281.552-40.539-314.888-106.010-33.058-64.271 106.748-153.381 311.379-154.12 204.539 0.461 345.823 89.572 314.703 154.212zM409.354 314.136l10.619-338.989h89.387c3.416 114.966-0.092 338.989-0.092 338.989s-63.070 1.108-99.915 0zM517.857 314.136l10.619-338.989h89.387c3.416 114.966-0.092 338.989-0.092 338.989s-63.070 1.108-99.915 0zM579.91 736.233c0-44.786-29.365-81.169-65.563-81.169-36.29 0-65.655 36.383-65.655 81.169s29.457 81.076 65.655 81.076c36.29 0 65.563-36.29 65.563-81.076zM514.347 427.44l-0.185 0.461 0.092-0.647zM647.044 597.627c-1.847 21.331-17.268 32.966-38.968 36.198-0.555 0.092-27.887 3.602-38.599 4.432l-0.277-0.924 28.165-23.824-33.613-16.899 15.513-26.687-64.916-143.223 0.092-0.739-0.185 0.555-0.185-0.555 0.092 0.739-64.916 143.223 15.513 26.687-33.613 16.899 28.165 23.824-0.277 0.924c-10.619-0.831-34.998-3.694-36.383-4.432h-0.092c-20.592-2.955-37.214-14.868-39.061-36.198l-24.194-305.931c13.944-1.2 27.887-2.032 41.924-2.863v-0.277h4.063c15.329-0.739 30.75-1.293 46.079-1.57v1.57c42.477 0 84.955 0 127.432 0v-1.57c15.421 0.277 30.75 0.739 46.079 1.57h1.939l0.092 0.092c14.682 0.739 29.365 1.755 44.047 2.955l-24.286 305.931zM527.644 640.198l8.126-29.365-21.424-18.192-21.424 18.192 8.126 29.365zM529.491 607.046l9.419-179.513-24.563-18.099-24.655 18.099 9.419 179.513zM165.755 349.227l6.834-215.342h56.698c2.216 73.043 0 215.342 0 215.342s-40.076 0.739-63.532 0zM96.868 349.227l6.741-215.342h56.79c2.124 73.043-0.092 215.342-0.092 215.342s-40.076 0.739-63.439 0zM121.892 617.296c0-28.442 18.653-51.527 41.739-51.527 22.993 0 41.739 23.086 41.739 51.527s-18.653 51.527-41.739 51.527c-23.086 0-41.739-23.086-41.739-51.527zM163.631 421.253l-0.092-0.092v-0.092zM253.387 441.384l-12.836-22.255-6.648-11.45c-0.647 23.64-1.385 47.279-2.216 70.919l25.487-30.75-3.786-6.464zM309.163 468.071l-0.092 0.092-0.185 0.277-69.811 75.352c-5.263 5.633-12.097 8.587-18.837 8.865-0.369 0.092-14.868 1.847-21.608 2.401l-0.185-0.555 17.822-15.144-21.331-10.711 9.881-16.899-41.185-90.957 0.092-0.461-0.185 0.369-0.185-0.369 0.092 0.461-41.185 90.957 9.881 16.899-21.331 10.711 17.822 15.052-0.185 0.647c-6.741-0.555-20.961-2.216-21.239-2.216-9.326-0.739-18.284-7.479-22.163-17.914l-36.198-97.698c8.957-71.196 25.763-74.89 38.229-115.613 8.773 3.602 17.453 7.387 26.133 11.266 40.723 0 81.353 0 121.984 0l0.185 1.2c-0.092 9.789-0.461 19.484-0.647 29.18 10.342-5.726 20.869-11.358 31.489-16.621l40.723 80.153 4.432 8.587 0.739 1.385 0.461 0.924c-1.477 13.39 3.324-30.011-3.324 30.103zM155.135 558.843l-5.263-19.023 13.666-11.82 13.666 11.82-5.263 19.023zM153.935 537.42l-6.002-115.982 15.606-11.727 15.698 11.727-6.002 115.982zM863.864 343.87l6.741-215.342h56.79c2.124 73.043-0.092 215.342-0.092 215.342s-39.984 0.739-63.439 0zM794.883 343.87l6.741-215.342h56.698c2.216 73.043 0 215.342 0 215.342s-40.076 0.739-63.439 0zM819.909 611.94c0-28.442 18.653-51.527 41.647-51.527 23.086 0 41.739 23.086 41.739 51.527s-18.653 51.527-41.739 51.527c-22.993 0-41.647-23.086-41.647-51.527zM861.647 415.898l-0.092-0.092zM961.377 425.224l-19.392 99.822c-2.308 11.45-10.065 17.637-21.055 21.055-1.293 0.924-17.637 3.14-24.379 3.602l-0.185-0.555 17.822-15.144-21.331-10.711 9.881-16.899-41.185-90.957 0.092-0.461-0.185 0.369-0.185-0.369 0.092 0.461-41.185 90.957 9.881 16.899-21.331 10.711 17.822 15.052-0.185 0.647c-6.741-0.555-20.961-2.124-21.239-2.216-10.805-2.032-18.284-7.479-22.163-17.914l-36.198-97.698c8.957-71.196 25.763-74.89 38.229-115.613 8.773 3.602 17.453 7.387 26.133 11.266 30.75 0 61.5 0 92.342 0-0.185-2.216-0.369-4.432-0.461-6.556 19.484-1.663 38.968-2.678 58.453-3.047-0.369 36.383 4.155 62.239-0.277 107.21zM853.152 550.164l-5.263-18.561 13.666-11.543 13.574 11.543-5.171 18.561zM851.951 529.201l-6.002-113.305 15.606-11.543 15.698 11.543-6.002 113.305z" />
<glyph unicode="&#xe91d;" glyph-name="advantages" d="M437.413 747.161c0-54.051-35.458-97.912-79.199-97.912s-79.258 43.861-79.258 97.912c0 54.111 35.458 97.852 79.258 97.852 43.742 0 79.199-43.742 79.199-97.852zM224.546 348.9l-12.633 21.811-31.584 54.587 48.389 58.401c-1.609-44.933-3.099-89.867-4.171-134.8zM488.246 475.238c-0.298 8.82-0.715 17.639-1.073 26.459l21.096-17.52 10.131-8.462-94.873-55.541-8.939 13.289 73.717 41.775zM335.688 115.295c0 169.006 130.628 307.321 296.416 319.776 1.788 32.895 4.469 82.775 3.874 72.823l-0.179 0.060-2.383 1.788-9.475 7.032-19.011 14.005-113.882 84.324c-8.045 5.9-17.104 9.058-26.101 9.833l-1.489 0.357c-12.992 1.609-25.863 2.563-38.736 3.575l-0.298-1.132 33.968-28.664-40.583-20.381 18.771-32.18-51.727-114.24-8.283 157.326 7.449 6.376-9.893 35.518h-32.061l-9.833-35.518 7.389-6.317-8.224-157.326-51.787 114.24 18.831 32.18-40.583 20.381 33.908 28.664-0.298 1.132c-12.873-1.013-25.744-1.967-38.736-3.575l-3.636-0.954c-12.276-0.894-24.731-6.495-34.386-16.805l-133.31-143.977c-12.752-114.181-3.516-31.704-6.376-57.209l0.060-0.060 0.179-0.357 0.656-1.37 1.37-2.742 2.801-5.423 5.542-10.846 11.025-21.811 66.268-130.628c20.202 10.012 40.106 20.619 59.831 31.525-0.357-18.474-0.954-37.007-1.192-55.481l0.298-2.383c3.456 0 6.973 0 10.488 0l11.859-378.417h107.863c1.489 49.462 1.848 115.551 1.788 180.15-11.8 33.373-18.295 69.307-18.295 106.791zM370.788-30.648l4.469-140.938h107.863c0.179 5.363 0.298 11.084 0.417 16.745-47.734 30.571-86.768 73.479-112.75 124.192zM676.918 139.192c-30.75 11.084-43.324 18.951-43.324 30.393 0 10.012 7.508 20.381 30.75 20.381 25.744 0 42.55-8.224 51.548-12.514l10.726 40.404c-12.514 5.662-28.664 11.084-52.204 11.859v31.465h-35.041v-34.027c-38.318-7.151-60.487-31.823-60.487-63.705 0-34.683 26.101-52.561 64.42-65.433 26.817-8.939 38.258-17.58 38.258-31.107 0-13.945-13.945-22.169-34.743-22.169-23.242 0-44.337 7.508-59.355 15.732l-10.726-41.834c13.587-7.508 36.829-14.302 60.844-15.375v-34.027h35.399v36.829c41.119 6.794 63.348 34.027 63.348 65.85 0 32.598-16.805 52.204-59.355 67.221zM656.537-106.63c-122.285 0-221.806 99.58-221.806 221.865 0 122.344 99.52 221.865 221.806 221.865 122.344 0 221.806-99.52 221.806-221.865 0-122.285-99.52-221.865-221.806-221.865zM947.113 88.955c-7.27 0.357-12.873 6.495-12.574 13.766 0.238 4.171 0.298 8.343 0.298 12.514 0 7.27 5.84 13.17 13.111 13.17 1.907 0 3.636-0.357 5.185-1.073-0.298 7.449-0.656 14.899-1.489 22.288-1.489-1.013-3.218-1.788-5.125-2.086l-2.086-0.119c-6.317 0-11.919 4.588-12.932 11.025-0.656 4.231-1.37 8.343-2.205 12.395-1.43 7.151 3.158 14.064 10.25 15.435 1.788 0.417 3.575 0.417 5.304 0-2.324 9.594-5.185 19.011-8.402 28.127l-4.41-2.92-4.887-0.954c-5.185 0-10.131 3.158-12.217 8.224-1.55 3.933-3.158 7.748-4.887 11.561-2.98 6.555-0.060 14.421 6.555 17.401l5.125 1.132c-4.41 8.761-9.296 17.282-14.481 25.506l-3.695-3.874c-2.264-1.609-4.887-2.324-7.449-2.324-4.171 0-8.283 1.967-10.846 5.662-2.324 3.456-4.827 6.794-7.33 10.131-4.41 5.721-3.277 14.005 2.502 18.414l5.006 2.264c-6.317 7.627-13.051 14.899-20.083 21.87l-2.682-4.708c-2.563-2.861-6.198-4.291-9.713-4.291-3.158 0-6.317 1.132-8.88 3.456-3.099 2.801-6.257 5.542-9.475 8.224-5.542 4.649-6.317 12.932-1.669 18.474l4.052 3.277c-7.748 5.959-15.792 11.501-24.076 16.686l-1.669-4.946c-2.443-4.231-6.854-6.675-11.382-6.675-2.205 0-4.41 0.596-6.495 1.729-3.636 2.086-7.33 4.112-11.084 5.959-6.495 3.277-9.058 11.144-5.781 17.639l3.277 4.171c-8.88 4.052-17.938 7.627-27.234 10.846l-0.476-5.185c-1.669-5.781-6.913-9.475-12.574-9.475l-3.695 0.537c-3.993 1.132-8.045 2.324-12.157 3.277-7.032 1.788-11.323 8.88-9.594 15.912 0.476 1.907 1.37 3.575 2.563 5.065-9.713 1.967-19.487 3.516-29.499 4.529 0.656-1.788 1.073-3.636 0.954-5.601-0.476-6.973-6.198-12.336-13.111-12.336l-0.834 0.060c-4.171 0.238-8.343 0.417-12.514 0.476-7.27 0.119-12.992 6.138-12.873 13.349 0.060 1.907 0.537 3.695 1.311 5.244-9.952-0.179-19.785-0.894-29.499-2.086 0.954-1.43 1.669-3.158 1.967-4.946 1.132-7.151-3.695-13.886-10.906-15.137-4.171-0.715-8.283-1.43-12.336-2.324l-2.682-0.298c-6.138 0-11.561 4.291-12.873 10.488-0.417 1.788-0.357 3.516-0.060 5.185-9.535-2.324-18.891-5.244-28.008-8.521l2.92-4.41c2.742-6.734-0.476-14.362-7.27-17.104-3.874-1.55-7.688-3.218-11.382-4.946-1.848-0.834-3.695-1.192-5.542-1.192-4.946 0-9.713 2.742-11.919 7.568l-1.192 5.185c-8.761-4.529-17.163-9.416-25.387-14.66l3.874-3.575c4.171-5.959 2.682-14.124-3.218-18.355-3.456-2.383-6.794-4.887-10.071-7.449-2.443-1.848-5.244-2.742-8.045-2.742-3.933 0-7.807 1.729-10.429 5.065l-2.324 4.887c-7.568-6.317-14.779-13.051-21.632-20.083l4.708-2.682c5.363-4.887 5.781-13.17 0.894-18.533-2.801-3.099-5.482-6.257-8.105-9.535-2.563-3.158-6.376-4.768-10.19-4.768-2.92 0-5.9 0.954-8.343 2.98l-3.337 3.993c-5.9-7.807-11.382-15.851-16.448-24.195l4.946-1.489c6.317-3.516 8.581-11.561 5.065-17.877-2.026-3.695-3.933-7.389-5.84-11.144-2.324-4.588-6.973-7.27-11.739-7.27-2.026 0-3.993 0.476-5.9 1.37l-4.171 3.277c-4.052-8.88-7.627-18.057-10.787-27.413 1.729 0.238 3.516 0.179 5.304-0.357 6.973-1.967 10.965-9.296 8.999-16.269-1.192-3.933-2.264-8.045-3.277-12.098-1.43-6.019-6.794-10.071-12.752-10.071l-3.099 0.417c-1.848 0.476-3.516 1.37-4.946 2.502-1.907-9.713-3.396-19.606-4.35-29.677 1.729 0.656 3.575 1.132 5.601 1.192 7.211-0.476 12.752-6.675 12.336-13.886-0.238-4.112-0.357-8.343-0.417-12.514-0.119-7.211-5.959-13.051-13.17-13.051h-0.179c-1.848 0.060-3.636 0.476-5.244 1.251 0.238-9.952 1.013-19.666 2.205-29.38 1.489 0.954 3.158 1.669 5.006 1.907 7.211 1.251 13.886-3.575 15.137-10.726 0.775-4.171 1.489-8.283 2.383-12.336 1.55-7.092-2.98-14.064-10.071-15.613l-2.801-0.298-2.502 0.417c2.502-9.594 5.363-18.951 8.82-28.127l4.291 2.92c6.675 2.801 14.421-0.417 17.163-7.092 1.609-3.874 3.277-7.688 5.065-11.442 3.039-6.614 0.298-14.421-6.317-17.52l-5.244-1.132c4.529-8.761 9.475-17.282 14.838-25.506l3.636 3.993c5.959 4.171 14.183 2.742 18.355-3.099 2.383-3.396 4.887-6.734 7.449-10.012 4.469-5.721 3.456-14.005-2.264-18.474l-4.827-2.264c6.376-7.508 13.111-14.719 20.262-21.632l2.623 4.708c4.887 5.423 13.17 5.9 18.593 1.013 3.099-2.801 6.257-5.482 9.535-8.105 5.601-4.588 6.495-12.873 1.907-18.474l-4.112-3.218c7.867-5.9 15.971-11.382 24.374-16.448l1.55 4.946c3.516 6.376 11.501 8.7 17.818 5.244 3.636-2.026 7.389-3.933 11.204-5.781 6.495-3.218 9.177-11.025 5.959-17.58l-3.695-4.052c9.058-3.993 18.355-7.688 27.889-10.787-0.238 1.788-0.179 3.575 0.357 5.423 1.967 6.973 9.296 11.025 16.209 9.118 4.052-1.192 8.105-2.205 12.217-3.218 7.092-1.669 11.442-8.7 9.774-15.851-0.417-1.848-1.37-3.456-2.502-4.887 9.713-1.848 19.487-3.218 29.499-4.171-0.656 1.729-1.073 3.516-0.954 5.542 0.357 7.211 6.555 12.336 13.826 12.455 4.112-0.238 8.283-0.357 12.514-0.357 7.211 0 13.111-5.959 13.051-13.23 0-1.848-0.476-3.575-1.132-5.185 9.952 0.357 19.666 1.132 29.38 2.443-0.954 1.489-1.729 2.98-2.026 4.827-1.311 7.151 3.456 14.005 10.607 15.256 4.112 0.715 8.224 1.55 12.336 2.443 7.032 1.55 14.124-2.92 15.673-9.952 0.417-1.848 0.417-3.636 0.119-5.304 9.654 2.623 19.13 5.662 28.426 9.177l-3.456 4.112c-2.861 6.675 0.298 14.421 6.973 17.223 3.874 1.609 7.688 3.337 11.382 5.125 6.614 3.039 14.421 0.357 17.52-6.198l1.251-5.244c8.82 4.649 17.342 9.654 25.565 15.137l-4.171 3.516c-4.231 5.9-2.92 14.124 2.98 18.355 3.396 2.443 6.734 4.946 10.012 7.568 5.721 4.469 13.945 3.516 18.474-2.086l2.383-4.768c7.389 6.376 14.541 13.17 21.334 20.262l-4.588 2.563c-5.482 4.768-6.019 13.111-1.251 18.474 2.801 3.218 5.542 6.436 8.164 9.654 4.529 5.662 12.752 6.614 18.474 2.086l3.337-4.052c5.84 7.926 11.323 16.090 16.329 24.612l-5.125 1.311c-6.376 3.456-8.761 11.442-5.304 17.818 2.026 3.636 3.874 7.389 5.721 11.144 3.158 6.555 10.965 9.356 17.58 6.138l4.231-3.456c3.933 9.058 7.508 18.414 10.548 27.889l-2.086-0.357-3.516 0.476c-7.032 1.907-11.084 9.118-9.177 16.15 1.132 4.052 2.145 8.105 3.099 12.217 1.609 7.032 8.641 11.561 15.673 9.893 1.907-0.476 3.516-1.311 4.946-2.324 1.788 9.594 3.099 19.427 3.993 29.32l-4.827-0.954h-0.596z" />
<glyph unicode="&#xe91e;" glyph-name="applicant" d="M900.635 768.477h-95.666v42.366c0.002 0.116 0.002 0.254 0.002 0.391 0 9.282-3.938 17.644-10.233 23.507l-0.019 0.018c-5.881 6.315-14.243 10.252-23.525 10.252-0.138 0-0.275-0.001-0.412-0.003h-148.945c-19.134 0-34.166-15.034-34.166-34.166v-42.366h-451c-19.134 0-34.166-15.034-34.166-34.166v-909.517c0-19.134 15.034-34.166 34.166-34.166h763.967c19.134 0 34.166 15.034 34.166 34.166v909.517c0 19.134-15.034 34.166-34.166 34.166zM866.467-141.040h-695.634v841.184h451c19.134 0 34.166 21.866 34.166 41v35.534h80.634v-154.434c0-12.3-2.734-25.966-7.516-25.966-8.884 0-10.934 15.034-10.934 27.334v24.6l-68.334-0.684v-23.916c0-70.384 42.366-95.666 79.266-95.666 34.85 0 75.85 24.6 75.85 94.3v77.9h61.5v-841.184zM349.867 117.26c19.134 0 34.166 15.034 34.166 34.166 0 18.45 16.4 45.784 45.784 45.784h178.35c31.434 0 45.784-26.65 45.784-45.784s15.034-34.166 34.166-34.166 34.166 15.034 34.166 34.166c0 54.666-43.734 114.116-114.116 114.116h-179.034c-68.334 0-114.116-58.766-114.116-114.116 0.684-18.45 15.716-34.166 34.85-34.166zM518.65 281.943c69.063 0 125.050 55.987 125.050 125.050s-55.987 125.050-125.050 125.050c-69.063 0-125.050-55.987-125.050-125.050v0c0-68.334 56.034-125.050 125.050-125.050zM518.65 464.393c31.434 0 56.716-25.284 56.716-56.716s-25.284-56.716-56.716-56.716-56.716 25.284-56.716 56.716c0 31.434 25.284 56.716 56.716 56.716zM727.751 53.026h-417.517c-19.134 0-34.166-15.034-34.166-34.166s15.034-34.166 34.166-34.166h417.517c19.134 0 34.166 15.034 34.166 34.166s-15.716 34.166-34.166 34.166z" />
<glyph unicode="&#xe91f;" glyph-name="articles" d="M117.234 100.606h243.694v107.753h-243.694zM117.234 320.597h243.694v34.338h-243.694zM117.234 247.053h243.694v34.594h-243.694zM398.725 320.597h243.694v34.338h-243.694zM398.725 247.053h243.694v34.594h-243.694zM398.725 173.893h243.694v34.466h-243.694zM398.725 100.606h243.694v34.594h-243.694zM612.438 480.369c-2.178-4.997-5.381-9.097-9.481-12.428s-9.097-5.894-15.119-7.303c-5.894-1.666-12.3-2.306-19.347-2.306-9.225 0-17.297 0.897-24.472 2.691-7.047 1.794-12.172 3.331-15.503 5.125l8.072 21.525c1.281-0.769 3.075-1.666 5.253-2.306 2.178-0.897 4.741-1.794 7.303-2.306 2.819-0.769 5.381-1.281 8.456-1.922s6.15-0.769 9.353-0.769c7.431 0 13.325 1.153 17.297 3.844s6.022 6.278 6.022 11.403c0 3.972-1.281 7.175-4.228 9.481s-6.406 4.741-11.019 6.791c-4.484 2.050-9.097 4.1-14.222 6.278-5.125 2.050-9.994 4.869-14.222 7.944s-8.072 7.047-11.019 11.916c-2.947 4.741-4.228 10.506-4.228 18.066 0 6.278 1.025 11.916 3.075 16.272 2.050 4.741 5.125 8.456 8.969 11.531 3.972 3.075 8.456 5.253 13.966 6.919 5.253 1.666 11.147 2.178 17.809 2.178 7.431 0 14.478-0.769 21.269-1.922s12.172-3.203 16.4-5.766l-8.072-21.269c-2.819 1.794-6.919 3.203-12.172 4.741-5.381 1.281-11.275 2.050-17.553 2.050-6.022 0-10.378-1.153-13.581-3.716-3.075-2.306-4.741-5.381-4.741-9.353 0-3.844 1.281-6.919 4.228-9.225s6.406-4.869 11.019-6.919c4.484-2.050 9.097-4.228 14.222-6.406s9.994-4.997 14.222-8.072c4.356-3.075 8.072-7.047 11.019-11.531 2.947-4.741 4.228-10.378 4.228-17.297s-1.153-12.941-3.331-17.809l0.128-0.128zM487.772 459.869h-17.041l-23.191 71.878-3.075 19.603h-0.897l-3.075-20.116-22.934-71.75h-17.809l-35.491 130.175h27.547l17.297-72.134 2.306-22.934h0.769l2.691 23.319 22.55 71.878h16.528l22.166-72.134 2.691-22.934h0.769l2.819 23.319 15.759 71.878h25.625l-35.747-130.175-0.256 0.128zM356.316 460.765h-77.772v129.406h76.747v-22.55h-51.378v-30.109h46.766v-22.55h-46.766v-31.647h52.403v-22.55zM256.506 459.869h-18.45l-48.559 68.419-10.122 20.372h-0.897l2.947-20.372v-67.394h-23.959v130.175h18.45l48.944-68.931 9.866-19.859h0.897l-2.947 19.859v68.034h23.959v-130.303zM116.978 640.653v-219.735h529.541v219.735h-529.541zM816.413 62.553c-10.378 0-18.834 8.328-18.834 18.834v629.094c0 10.378 8.328 18.834 18.834 18.834s18.834-8.328 18.834-18.834v-629.094c-0.128-10.378-8.456-18.834-18.834-18.834zM891.623 46.921c-10.378 0-18.834 8.328-18.834 18.834v629.094c0 10.378 8.328 18.834 18.834 18.834 10.378 0 18.834-8.328 18.834-18.834v-629.094c0.128-10.506-8.456-18.834-18.834-18.834zM177.197-16.116c-50.097 8.969-92.506 60.219-92.506 112.366v590.529h608.082v-590.529c0-41.641 14.991-81.359 39.334-113.775-234.853-3.844-514.935-5.638-554.91 1.409zM977.723 710.738c-20.884 0-37.669-17.041-37.669-37.669v-620.638c0-23.191-8.328-42.794-23.447-55.478-14.094-11.916-32.8-16.272-53.428-13.325l-3.203 0.256c-49.841 9.097-91.994 60.219-92.122 112.109v620.766c0 10.891-4.741 20.372-11.916 27.419-6.791 10.891-18.45 18.194-32.031 18.194h-677.013c-21.013-0.128-37.669-17.169-37.669-37.797l0.641-3.844-0.641-3.844v-620.638c0-89.175 68.034-171.175 154.903-186.422 25.369-4.356 114.672-6.022 221.4-6.022 185.397 0 422.941 4.356 468.938 5.253 7.047-0.897 14.094-1.922 21.141-1.922 33.569 0 64.703 11.019 89.559 32.031 32.544 27.291 50.353 67.394 50.353 113.391v620.638c0 20.884-16.784 37.669-37.669 37.669l-0.128-0.128z" />
<glyph unicode="&#xe920;" glyph-name="banknote" horiz-adv-x="1028" d="M870.553 169.2v0l-647.328 2.339c-4.336 0-7.851 3.515-7.851 7.851v0l1.571 398.682c0 4.336 3.515 7.851 7.851 7.851v0 0l647.297-2.339c4.336 0 7.851-3.515 7.851-7.851v0l-1.571-398.682c0 0 0 0 0 0 0-4.325-3.497-7.834-7.818-7.851h-0.002zM231.139 187.21l631.595-2.277 1.444 382.98-631.595 2.277zM803.268 79.085v0l-646.889 2.339c-4.336 0-7.851 3.515-7.851 7.851v0l1.319 364.545c0 4.336 3.515 7.851 7.851 7.851v0 0l66.656-0.173v-15.702l-58.836 0.125-1.225-348.828 631.139-2.292 0.204 82.469h15.702l-0.22-90.32c0-4.336-3.515-7.851-7.851-7.851v0zM757.638 171.336v0c-4.336 0-7.851 3.515-7.851 7.851v0c0.471 64.232 52.65 116.118 116.948 116.118 0.001 0 0.002 0 0.003 0v0c0.010 0 0.022 0 0.033 0 4.37 0 7.926-3.494 8.022-7.843v-0.009c0-4.336-3.515-7.851-7.851-7.851v0h-0.204c-0.005 0-0.012 0-0.018 0-55.643 0-100.798-44.908-101.199-100.457v-0.038c-0.044-4.302-3.542-7.773-7.851-7.773-0.011 0-0.022 0-0.033 0h0.002zM335.747 173.047v0c-4.336 0-7.851 3.515-7.851 7.851v0c-0.089 55.683-45.143 100.814-100.788 101.029h-0.020c-4.336 0-7.851 3.515-7.851 7.851s3.515 7.851 7.851 7.851v0 0c64.319-0.258 116.369-52.418 116.449-116.755v-0.008c-0.018-4.3-3.49-7.785-7.785-7.82h-0.003zM559.851 247.57c-0.028 0-0.062 0-0.096 0-55.841 0-103.213 36.253-119.865 86.507l-0.256 0.892-33.886 0.157c-4.336 0-7.851 3.515-7.851 7.851s3.515 7.851 7.851 7.851v0 0l29.834-0.141c-1.219 6.431-1.942 13.854-1.994 21.436v0.045c0.152 7.568 0.946 14.849 2.328 21.918l-0.13-0.799-29.944 0.125c-4.336 0-7.851 3.515-7.851 7.851s3.515 7.851 7.851 7.851v0 0l33.948-0.141c17.214 50.615 64.324 86.381 119.787 86.381 0.753 0 1.504-0.007 2.254-0.020l-0.113 0.002c27.553-0.324 52.982-9.149 73.859-23.966l-0.403 0.272c1.982-1.444 3.255-3.757 3.255-6.367 0-4.338-3.517-7.856-7.856-7.856-1.729 0-3.326 0.559-4.624 1.503l0.022-0.016c-18.594 12.887-41.608 20.628-66.423 20.742h-0.029c0 0-0.001 0-0.001 0-46.753 0-86.725-29.032-102.871-70.052l-0.26-0.75 99.223-0.424c4.336 0 7.851-3.515 7.851-7.851s-3.515-7.851-7.851-7.851v0 0l-103.839 0.439c-1.436-6.292-2.333-13.568-2.479-21.027l-0.002-0.108c0.045-7.619 0.878-15.020 2.42-22.156l-0.128 0.706 103.886-0.439c4.336 0 7.851-3.515 7.851-7.851v0c-0.103-4.294-3.557-7.749-7.842-7.851h-0.010l-99.286 0.424c16.253-42.22 56.486-71.636 103.59-71.636 0.203 0 0.407 0.001 0.611 0.002h-0.031c26.653 1.029 51.025 10.005 71.026 24.609l-0.365-0.254c1.274 0.93 2.873 1.488 4.6 1.488 4.338 0 7.856-3.517 7.856-7.856 0-2.611-1.273-4.923-3.232-6.352l-0.022-0.016c-22.095-16.141-49.528-26.22-79.257-27.315l-0.259-0.008zM867.773 459.191v0c-64.342 0.232-116.418 52.413-116.48 116.772v0.006c0 4.336 3.515 7.851 7.851 7.851v0 0c4.336 0 7.851-3.515 7.851-7.851v0c0.071-55.694 45.134-100.839 100.789-101.045h0.020c4.336 0 7.851-3.515 7.851-7.851s-3.515-7.851-7.851-7.851v0zM228.202 461.499c-4.378 0.007-7.94 3.491-8.071 7.839v0.012c0 4.336 3.515 7.851 7.851 7.851v0c0.094 0 0.141 0 0.22 0 0.010 0 0.022 0 0.034 0 55.634 0 100.778 44.913 101.152 100.459v0.035c0 4.336 3.515 7.851 7.851 7.851v0 0c4.336 0 7.851-3.515 7.851-7.851v0c-0.392-64.258-52.573-116.197-116.886-116.197-0.001 0-0.001 0-0.002 0v0z" />
<glyph unicode="&#xe921;" glyph-name="bell" d="M928.195 77.401c-42.709 0-78.014 34.736-78.014 78.014v194.75c0 131.541-79.722 251.125-199.875 302.945-16.514 56.945-69.472 97.945-129.264 97.945-60.931 0-113.32-40.43-129.264-97.945-121.861-52.959-199.875-170.264-199.875-302.945v-195.32c0-42.709-34.736-78.014-78.014-78.014-15.945 0-28.472-12.528-28.472-28.472s12.528-28.472 28.472-28.472h276.181c13.097-60.361 67.195-106.486 131.541-106.486s118.445 45.555 131.541 106.486h275.042c15.945 0 28.472 12.528 28.472 28.472s-12.528 29.041-28.472 29.041zM521.611-29.085c-33.028 0-60.931 20.5-72.32 49.541h144.639c-11.959-29.041-39.861-49.541-72.32-49.541zM223.792 77.401c15.375 22.209 25.055 48.972 25.055 78.014v194.75c0 113.889 70.041 214.681 178.236 255.681 9.68 3.416 16.514 11.959 18.222 22.209 5.695 38.153 38.153 66.056 76.306 66.056 37.584 0 70.611-28.472 76.306-66.056 1.709-10.25 8.541-18.791 18.222-22.209 105.916-39.861 177.667-142.361 177.667-255.681v-195.32c0-29.041 9.111-55.805 24.486-78.014h-594.501z" />
<glyph unicode="&#xe922;" glyph-name="building" d="M888.335-23.96h-57.514l0.57 1.139v773.306c0 5.695-2.847 10.82-7.403 14.236-2.608 1.934-5.889 3.095-9.44 3.095-2.355 0-4.591-0.51-6.603-1.427l0.1 0.041-386.084-147.486c-6.39-2.569-10.82-8.714-10.82-15.894 0-0.018 0-0.036 0-0.054v0.003-166.847h-167.416c-9.435 0-17.084-7.648-17.084-17.084v0-443.029h-58.084c-9.68 0-17.084-7.403-17.084-17.084s7.403-17.084 17.084-17.084h719.779c9.68 0 17.084 7.403 17.084 17.084s-7.972 17.084-17.084 17.084zM444.736 591.041l352.486 134.389v-748.251l0.57-1.139h-353.056l0.57 1.139v613.861zM260.806 401.984h149.764v-424.806l0.57-1.139h-150.334v425.945zM547.806 484.554h147.486c9.68 0 17.084 7.403 17.084 17.084s-7.403 17.084-17.084 17.084h-147.486c-9.68 0-17.084-7.403-17.084-17.084s7.403-17.084 17.084-17.084zM547.806 355.859h147.486c9.68 0 17.084 7.403 17.084 17.084s-7.403 17.084-17.084 17.084h-147.486c-9.68 0-17.084-7.403-17.084-17.084s7.403-17.084 17.084-17.084zM547.806 227.165h147.486c9.68 0 17.084 7.403 17.084 17.084s-7.403 17.084-17.084 17.084h-147.486c-9.68 0-17.084-7.403-17.084-17.084s7.403-17.084 17.084-17.084zM235.75 532.387c2.847-1.709 5.695-2.278 9.111-2.278s6.834 1.139 9.68 2.847c4.555 3.416 114.459 82 114.459 162.291 0 47.264-33.028 71.181-63.778 73.459-21.639 1.139-44.986-7.403-60.361-27.334-12.94 16.397-32.812 26.826-55.121 26.826-1.042 0-2.079-0.023-3.109-0.068l0.147 0.005c-33.028-2.278-66.625-29.611-66.625-78.584 0-86.556 110.472-154.32 115.597-157.166zM188.486 733.971h1.709c15.375 0 33.597-10.25 37.014-39.861 1.139-8.541 8.541-15.375 17.084-15.375s15.945 6.264 17.084 14.805c3.986 29.611 23.916 41.57 41 40.43 14.805-1.139 32.459-11.959 32.459-39.291 0-46.695-59.222-102.5-91.111-126.986-25.055 17.084-89.972 67.195-89.972 121.861 0.57 29.041 17.653 43.278 34.736 44.416z" />
<glyph unicode="&#xe923;" glyph-name="calendar" d="M882.64 706.068h-182.792v44.986c0 9.68-7.403 17.084-17.084 17.084s-17.084-7.403-17.084-17.084v-44.986h-136.666v44.986c0 9.68-7.403 17.084-17.084 17.084s-17.084-7.403-17.084-17.084v-44.986h-136.666v44.986c0 9.68-7.403 17.084-17.084 17.084s-17.084-7.403-17.084-17.084v-44.986h-181.653c-9.435 0-17.084-7.648-17.084-17.084v0-734.584c0-9.68 7.403-17.084 17.084-17.084h740.279c9.435 0 17.084 7.648 17.084 17.084v0 734.584c0 9.435-7.648 17.084-17.084 17.084v0zM865.556-28.516h-706.112v700.417h164.57v-44.416c0-9.68 7.403-17.084 17.084-17.084s17.084 7.403 17.084 17.084v44.416h136.666v-44.416c0-9.68 7.403-17.084 17.084-17.084s17.084 7.403 17.084 17.084v44.416h136.666v-44.416c0-9.68 7.403-17.084 17.084-17.084s17.084 7.403 17.084 17.084v44.416h165.709v-700.417zM280.167 419.637c-9.68 0-17.084-7.403-17.084-17.084s7.403-17.084 17.084-17.084h460.681c9.68 0 17.084 7.403 17.084 17.084s-7.403 17.084-17.084 17.084h-460.681zM579.695 248.803h-299.529c-9.68 0-17.084-7.403-17.084-17.084s7.403-17.084 17.084-17.084h299.529c9.68 0 17.084 7.403 17.084 17.084s-7.403 17.084-17.084 17.084z" />
<glyph unicode="&#xe924;" glyph-name="case" d="M896.876 185.168v-140.938c0-35.234-28.828-64.063-64.063-64.063h-640.626c-35.234 0-64.063 28.828-64.063 64.063v140.938zM512.5 76.262v0c-35.234 0-64.063 28.828-64.063 64.063v96.094h128.125v-96.094c0-35.234-28.828-64.063-64.063-64.063zM448.438 140.325h-224.219c-70.469 0-128.125 57.656-128.125 128.125v256.25c0 35.234 28.828 64.063 64.063 64.063h704.688c35.234 0 64.063-28.828 64.063-64.063v-256.25c0-70.469-57.656-128.125-128.125-128.125h-224.219zM640.626 588.762h-256.25v64.063c0 35.234 28.828 64.063 64.063 64.063h128.125c35.234 0 64.063-28.828 64.063-64.063v-64.063z" />
<glyph unicode="&#xe925;" glyph-name="chevron-down" d="M968.528 580.272l-456.96-453.248-457.264 453.568c-6.352 6.304-14.672 9.44-22.992 9.44s-16.624-3.136-22.976-9.44c-12.688-12.592-12.688-32.992 0-45.584l479.68-475.76c3.2-3.2 7.904-6 12.112-7.616 12-4.512 25.552-1.712 34.656 7.296l479.696 475.76c12.688 12.592 12.688 32.992 0 45.584-12.704 12.576-33.248 12.576-45.952 0z" />
<glyph unicode="&#xe928;" glyph-name="arrow-up" d="M289.6 510.4c5.8-5.846 13.837-9.466 22.72-9.466s16.92 3.619 22.718 9.463l147.202 147.202v-753.6c0-17.673 14.327-32 32-32s32 14.327 32 32v0 752.64l146.24-146.24c5.559-4.783 12.847-7.695 20.815-7.695 17.673 0 32 14.327 32 32 0 7.968-2.912 15.255-7.73 20.857l0.035-0.042-203.52 203.84c-5.207 5.185-12.389 8.391-20.32 8.391s-15.113-3.206-20.321-8.392l-203.839-203.839c-5.751-5.784-9.305-13.757-9.305-22.56s3.555-16.776 9.307-22.562l-0.002 0.002z" />
<glyph unicode="&#xe929;" glyph-name="arrow-down" d="M737.6 128c-5.784 5.751-13.757 9.305-22.56 9.305s-16.776-3.555-22.562-9.307l0.002 0.002-148.48-145.92v753.92c0 17.673-14.327 32-32 32s-32-14.327-32-32v0-752.96l-144.96 144.96c-5.8 5.846-13.837 9.466-22.72 9.466s-16.92-3.619-22.718-9.463l-0.002-0.002c-5.751-5.784-9.305-13.757-9.305-22.56s3.555-16.776 9.307-22.562l203.838-203.838c5.207-5.185 12.389-8.391 20.32-8.391s15.113 3.206 20.321 8.392l-0.001-0.001 203.52 203.84c5.751 5.784 9.305 13.757 9.305 22.56s-3.555 16.776-9.307 22.562l0.002-0.002z" />
<glyph unicode="&#xe92a;" glyph-name="ruble-2" d="M592 232c128.13 0 232 103.87 232 232s-103.87 232-232 232v0h-240c-13.255-0.001-23.999-10.745-24-24v0-392h-104c-13.255 0-24-10.745-24-24s10.745-24 24-24v0h104v-80h-104c-13.255 0-24-10.745-24-24s10.745-24 24-24v0h104v-136c0-13.255 10.745-24 24-24s24 10.745 24 24v0 136h200c13.255 0 24 10.745 24 24s-10.745 24-24 24v0h-200v80zM376 648h216c101.62 0 184-82.38 184-184s-82.38-184-184-184v0h-216z" />
<glyph unicode="&#xe934;" glyph-name="download-folder" d="M576.563 588.762l-128.125 128.125h-448.438v-832.813h1025.001v704.688h-448.438zM512.5-19.832l-224.219 224.219h160.156v256.25h128.125v-256.25h160.156l-224.219-224.219z" />
<glyph unicode="&#xe96b;" glyph-name="bubble" d="M512 768c282.77 0 512-186.25 512-416 0-229.752-229.23-416-512-416-27.156 0-53.81 1.734-79.824 5.044-109.978-109.978-241.25-129.7-368.176-132.596v26.916c68.536 33.578 128 94.74 128 164.636 0 9.754-0.758 19.33-2.164 28.696-115.796 76.264-189.836 192.754-189.836 323.304 0 229.75 229.23 416 512 416z" />
<glyph unicode="&#xe9cb;" glyph-name="link" d="M440.236 196.234c-13.31 0-26.616 5.076-36.77 15.23-95.134 95.136-95.134 249.934 0 345.070l192 192c46.088 46.086 107.36 71.466 172.534 71.466s126.448-25.38 172.536-71.464c95.132-95.136 95.132-249.934 0-345.070l-87.766-87.766c-20.308-20.308-53.23-20.308-73.54 0-20.306 20.306-20.306 53.232 0 73.54l87.766 87.766c54.584 54.586 54.584 143.404 0 197.99-26.442 26.442-61.6 41.004-98.996 41.004s-72.552-14.562-98.996-41.006l-192-191.998c-54.586-54.586-54.586-143.406 0-197.992 20.308-20.306 20.306-53.232 0-73.54-10.15-10.152-23.462-15.23-36.768-15.23zM256-180c-65.176 0-126.45 25.38-172.534 71.464-95.134 95.136-95.134 249.934 0 345.070l87.764 87.764c20.308 20.306 53.234 20.306 73.54 0 20.308-20.306 20.308-53.232 0-73.54l-87.764-87.764c-54.586-54.586-54.586-143.406 0-197.992 26.44-26.44 61.598-41.002 98.994-41.002s72.552 14.562 98.998 41.006l192 191.998c54.584 54.586 54.584 143.406 0 197.992-20.308 20.308-20.306 53.232 0 73.54 20.306 20.306 53.232 20.306 73.54-0.002 95.132-95.134 95.132-249.932 0.002-345.068l-192.002-192c-46.090-46.088-107.364-71.466-172.538-71.466z" />
<glyph unicode="&#xe9ce;" glyph-name="eye-2" d="M512 640c-223.318 0-416.882-130.042-512-320 95.118-189.958 288.682-320 512-320 223.312 0 416.876 130.042 512 320-95.116 189.958-288.688 320-512 320zM764.45 470.296c60.162-38.374 111.142-89.774 149.434-150.296-38.292-60.522-89.274-111.922-149.436-150.296-75.594-48.218-162.89-73.704-252.448-73.704-89.56 0-176.858 25.486-252.452 73.704-60.158 38.372-111.138 89.772-149.432 150.296 38.292 60.524 89.274 111.924 149.434 150.296 3.918 2.5 7.876 4.922 11.86 7.3-9.96-27.328-15.41-56.822-15.41-87.596 0-141.382 114.616-256 256-256 141.382 0 256 114.618 256 256 0 30.774-5.452 60.268-15.408 87.598 3.978-2.378 7.938-4.802 11.858-7.302v0zM512 416c0-53.020-42.98-96-96-96s-96 42.98-96 96 42.98 96 96 96 96-42.982 96-96z" />
<glyph unicode="&#xea08;" glyph-name="notification" d="M512 736c-111.118 0-215.584-43.272-294.156-121.844s-121.844-183.038-121.844-294.156c0-111.118 43.272-215.584 121.844-294.156s183.038-121.844 294.156-121.844c111.118 0 215.584 43.272 294.156 121.844s121.844 183.038 121.844 294.156c0 111.118-43.272 215.584-121.844 294.156s-183.038 121.844-294.156 121.844zM512 832v0c282.77 0 512-229.23 512-512s-229.23-512-512-512c-282.77 0-512 229.23-512 512s229.23 512 512 512zM448 128h128v-128h-128zM448 640h128v-384h-128z" />
<glyph unicode="&#xea0f;" glyph-name="cross" d="M1014.662 9.34c-0.004 0.004-0.008 0.008-0.012 0.010l-310.644 310.65 310.644 310.65c0.004 0.004 0.008 0.006 0.012 0.010 3.344 3.346 5.762 7.254 7.312 11.416 4.246 11.376 1.824 24.682-7.324 33.83l-146.746 146.746c-9.148 9.146-22.45 11.566-33.828 7.32-4.16-1.55-8.070-3.968-11.418-7.31 0-0.004-0.004-0.006-0.008-0.010l-310.648-310.652-310.648 310.65c-0.004 0.004-0.006 0.006-0.010 0.010-3.346 3.342-7.254 5.76-11.414 7.31-11.38 4.248-24.682 1.826-33.83-7.32l-146.748-146.748c-9.148-9.148-11.568-22.452-7.322-33.828 1.552-4.16 3.97-8.072 7.312-11.416 0.004-0.002 0.006-0.006 0.010-0.010l310.65-310.648-310.65-310.652c-0.002-0.004-0.006-0.006-0.008-0.010-3.342-3.346-5.76-7.254-7.314-11.414-4.248-11.376-1.826-24.682 7.322-33.83l146.748-146.746c9.15-9.148 22.452-11.568 33.83-7.322 4.16 1.552 8.070 3.97 11.416 7.312 0.002 0.004 0.006 0.006 0.010 0.010l310.648 310.65 310.648-310.65c0.004-0.002 0.008-0.006 0.012-0.008 3.348-3.344 7.254-5.762 11.414-7.314 11.378-4.246 24.684-1.826 33.828 7.322l146.746 146.748c9.148 9.148 11.57 22.454 7.324 33.83-1.552 4.16-3.97 8.068-7.314 11.414z" />
</font>
</defs>
</svg>
