<svg id="Слой_1" data-name="Слой 1" xmlns="http://www.w3.org/2000/svg" viewBox="0 0 41.6 6.1"><defs><style>.cls-1{fill:#fff;}.cls-2{fill:#fd0;}</style></defs><g id="Слой_1-2" data-name="Слой_1"><g id="_2057368215552" data-name=" 2057368215552"><path class="cls-1" d="M5.6,5.8l.8,5.6H8.9l2.6-5.6H9.4L8,9.4,7.7,5.8Zm5.1,4.8a3.856,3.856,0,0,0,2.6.9c1.5,0,2.7-.7,2.7-2.2,0-1-.7-1.3-1.5-1.5-.5-.1-.7-.2-.7-.4s.2-.3.4-.3a3.816,3.816,0,0,1,1.3.4l.9-1.2A4.558,4.558,0,0,0,14,5.6c-1.3,0-2.6.7-2.6,2.1a1.536,1.536,0,0,0,1.5,1.5c.5.2.7.2.8.4,0,.2-.1.3-.4.3a3.139,3.139,0,0,1-1.6-.6l-1,1.3Zm10.5-1a6.093,6.093,0,0,1-1.7.3c-.5,0-.8-.3-.8-.6,2.6-.1,3.4-.8,3.4-2,0-1.1-.8-1.8-2.3-1.8A3.337,3.337,0,0,0,16.4,9a2.134,2.134,0,0,0,2.4,2.3,4.871,4.871,0,0,0,2.5-.6l-.1-1.1ZM18.8,8.2c.1-.6.5-1.1.9-1.1a.458.458,0,0,1,.5.4C20.2,7.9,19.9,8.1,18.8,8.2Zm3.7-2.4.8,5.6h2.5l2.6-5.6H26.3L24.9,9.4l-.3-3.6Zm6.3,0-.9,5.6H30l.6-3.7a1.143,1.143,0,0,1,.7-.3c.3,0,.4.1.3.7L31,11.4h2.2l.6-3.9c.2-1.2-.3-1.9-1.4-1.9a3.261,3.261,0,0,0-1.8.7l-.1-.6-1.7.1Zm10.6,0H37.7l-.9,5.6H39L39.5,8a1.516,1.516,0,0,1,.8-.4,1.486,1.486,0,0,1,.6.1l.4-1.9a1.083,1.083,0,0,0-.6-.1,1.411,1.411,0,0,0-1.2.8Zm6.9,5.6.9-5.6H45.1l-.6,3.8a1.143,1.143,0,0,1-.7.3c-.3,0-.4-.2-.4-.6L44,5.8H41.8l-.7,3.9c-.2,1.2.3,1.9,1.5,1.9a2.136,2.136,0,0,0,1.7-.8l.2.6Z" transform="translate(-5.6 -5.5)"/><path class="cls-2" d="M34,10.4a1.079,1.079,0,0,0,1.2,1.1,1.049,1.049,0,0,0,1.1-1.1,1,1,0,0,0-1.1-1.1C34.4,9.4,34,9.8,34,10.4Z" transform="translate(-5.6 -5.5)"/></g></g></svg>