<svg xmlns="http://www.w3.org/2000/svg" width="31.93" height="31.93"><path d="M15.966 0C7.162 0 0 7.162 0 15.965S7.162 31.93 15.966 31.93c8.802 0 15.964-7.162 15.964-15.965S24.768 0 15.966 0zm0 28.184c-6.74 0-12.222-5.479-12.222-12.219 0-6.738 5.482-12.22 12.222-12.22 6.737 0 12.22 5.481 12.22 12.22 0 6.737-5.483 12.219-12.22 12.219z"/><circle cx="15.966" cy="5.984" r=".995"/><circle cx="15.966" cy="25.821" r=".996"/><circle cx="25.883" cy="15.903" r=".996"/><circle cx="6.045" cy="15.903" r=".996"/><circle cx="22.977" cy="8.89" r=".994"/><circle cx="8.951" cy="22.916" r=".995"/><circle cx="22.977" cy="22.916" r=".995"/><circle cx="8.951" cy="8.89" r=".995"/><path d="M22.76 14.994h-4.256a2.694 2.694 0 00-1.297-1.461V9.885a1.243 1.243 0 10-2.485 0v3.646a2.686 2.686 0 00-1.488 2.433c0 1.509 1.223 2.748 2.733 2.748.96 0 1.805-.489 2.292-1.235h4.503a1.242 1.242 0 10-.002-2.483z"/></svg>