<svg version="1.1" id="Capa_1" xmlns="http://www.w3.org/2000/svg" x="0" y="0" viewBox="0 0 31.9 31.9" xml:space="preserve"><style>.st0{fill:#ff7754}</style><path class="st0" d="M23.5 5.9h4.8v10h-4.8z"/><path class="st0" d="M16 2.9h8v13h-8z"/><path d="M16 0C7.2 0 0 7.2 0 16s7.2 16 16 16 16-7.2 16-16c-.1-8.8-7.2-16-16-16zm0 3.7c6.7 0 12.2 5.5 12.2 12.2 0 6.7-5.5 12.2-12.2 12.2-6.8.1-12.3-5.4-12.3-12.1C3.7 9.2 9.2 3.7 16 3.7z"/><circle cx="25.9" cy="16" r="1"/><circle cx="6.1" cy="16" r="1"/><circle cx="16" cy="6" r="1"/><circle cx="16" cy="25.9" r="1"/><circle cx="23" cy="9" r="1"/><circle cx="9" cy="23" r="1"/><circle cx="9" cy="9" r="1"/><circle cx="23" cy="23" r="1"/><path d="M15.7 7.9c-.7 0-1.2.6-1.2 1.2v4.5c-.7.5-1.2 1.3-1.2 2.3 0 1.5 1.2 2.7 2.7 2.7 1.1 0 2-.6 2.4-1.5H22c.7 0 1.2-.6 1.2-1.2 0-.7-.6-1.2-1.2-1.2h-3.6c-.3-.6-.8-1.1-1.5-1.3V9.2c0-.7-.5-1.3-1.2-1.3z"/></svg>