<svg version="1.1" id="Capa_1" xmlns="http://www.w3.org/2000/svg" x="0" y="0" viewBox="0 0 31.9 31.9" xml:space="preserve"><style>.st0{fill:#ff7754}</style><path class="st0" d="M16 23.6h9.7v4.8H16zm0-20.1h9.9v5.4H16z"/><path class="st0" d="M16 8h13v16.4H16z"/><path d="M31.9 16c0-8.8-7.2-16-16-16C7.2 0 0 7.2 0 16s7.2 16 16 16c8.8-.1 15.9-7.2 15.9-16zm-3.7 0c0 6.7-5.5 12.2-12.2 12.2-6.8 0-12.3-5.5-12.3-12.2C3.7 9.2 9.2 3.7 16 3.7c6.7 0 12.2 5.5 12.2 12.3z"/><circle cx="16" cy="25.9" r="1"/><circle cx="16" cy="6.1" r="1"/><circle cx="25.9" cy="16" r="1"/><circle cx="6" cy="16" r="1"/><circle cx="23" cy="23" r="1"/><circle cx="9" cy="9" r="1"/><circle cx="23" cy="9" r="1"/><circle cx="9" cy="23" r="1"/><path d="M24 15.7c0-.7-.6-1.2-1.2-1.2h-4.5c-.5-.7-1.3-1.2-2.3-1.2-1.5 0-2.7 1.2-2.7 2.7 0 1.1.6 2 1.5 2.4V22c0 .7.6 1.2 1.2 1.2.7 0 1.2-.6 1.2-1.2v-3.6c.6-.3 1.1-.8 1.3-1.5h4.3c.6 0 1.2-.5 1.2-1.2z"/></svg>