<svg version="1.1" id="Capa_1" xmlns="http://www.w3.org/2000/svg" x="0" y="0" viewBox="0 0 31.9 31.9" xml:space="preserve"><style>.st0{fill:#ff7754}</style><path class="st0" d="M3.7 5.9h4.8v10H3.7z"/><path class="st0" d="M8 2.9h8v13H8z"/><path d="M0 16c0 8.8 7.2 16 16 16s16-7.2 16-16S24.8 0 16 0 0 7.2 0 16zm28.2 0c0 6.7-5.5 12.2-12.2 12.2-6.8 0-12.3-5.5-12.3-12.2C3.7 9.2 9.2 3.7 16 3.7c6.7 0 12.2 5.5 12.2 12.3z"/><circle cx="6" cy="16" r="1"/><circle cx="25.8" cy="16" r="1"/><circle cx="15.9" cy="6" r="1"/><circle cx="15.9" cy="25.9" r="1"/><circle cx="8.9" cy="9" r="1"/><circle cx="22.9" cy="23" r="1"/><circle cx="22.9" cy="9" r="1"/><circle cx="8.9" cy="23" r="1"/><path d="M15 9.2v4.3c-.7.2-1.2.7-1.5 1.3H9.9c-.7 0-1.2.6-1.2 1.2 0 .7.6 1.2 1.2 1.2h3.6c.5.9 1.4 1.5 2.4 1.5 1.5 0 2.7-1.2 2.7-2.7 0-1-.5-1.8-1.2-2.3V9.2c0-.7-.6-1.2-1.2-1.2-.7-.1-1.2.5-1.2 1.2z"/></svg>