<svg version="1.1" id="Capa_1" xmlns="http://www.w3.org/2000/svg" x="0" y="0" viewBox="0 0 31.9 31.9" xml:space="preserve"><style>.st0{fill:#ff7754}</style><path class="st0" d="M6.3 23.6H16v4.5H6.3zM6 3.5h9.9v5.4H6z"/><path class="st0" d="M3 8h13v16.4H3z"/><path d="M16 31.9c8.8 0 16-7.2 16-16S24.8 0 16 0 0 7.2 0 16s7.2 15.9 16 15.9zm0-28.2c6.7 0 12.2 5.5 12.2 12.2 0 6.7-5.5 12.2-12.2 12.2-6.8.1-12.3-5.4-12.3-12.1C3.7 9.2 9.2 3.7 16 3.7z"/><circle cx="16" cy="25.9" r="1"/><circle cx="16" cy="6.1" r="1"/><circle cx="6" cy="16" r="1"/><circle cx="25.9" cy="16" r="1"/><circle cx="9" cy="23" r="1"/><circle cx="23" cy="9" r="1"/><circle cx="9" cy="9" r="1"/><circle cx="23" cy="23" r="1"/><path d="M9.2 16.9h4.3c.2.7.7 1.2 1.3 1.5V22c0 .7.6 1.2 1.2 1.2.7 0 1.2-.6 1.2-1.2v-3.6c.9-.5 1.5-1.4 1.5-2.4 0-1.5-1.2-2.7-2.7-2.7-1 0-1.8.5-2.3 1.2H9.2c-.7 0-1.2.6-1.2 1.2-.1.7.5 1.2 1.2 1.2z"/></svg>