<svg version="1.1" id="Capa_1" xmlns="http://www.w3.org/2000/svg" x="0" y="0" viewBox="0 0 31.9 31.9" xml:space="preserve"><style>.st0{fill:#ff7754}</style><path class="st0" d="M22.7 7h5.7v17.4h-5.7zm-19-.5h4.1v18.8H3.7z"/><path class="st0" d="M6 3.7h19.2v24.7H6z"/><path d="M16 0C7.2 0 0 7.2 0 16s7.2 16 16 16 16-7.2 16-16S24.8 0 16 0zm0 28.2C9.2 28.2 3.7 22.7 3.7 16 3.7 9.2 9.2 3.7 16 3.7c6.7 0 12.2 5.5 12.2 12.2 0 6.8-5.5 12.3-12.2 12.3z"/><circle cx="16" cy="6" r="1"/><circle cx="16" cy="25.8" r="1"/><circle cx="25.9" cy="15.9" r="1"/><circle cx="6" cy="15.9" r="1"/><circle cx="23" cy="8.9" r="1"/><circle cx="9" cy="22.9" r="1"/><circle cx="23" cy="22.9" r="1"/><circle cx="9" cy="8.9" r="1"/><path d="M22.8 15h-4.3c-.2-.7-.7-1.2-1.3-1.5V9.9c0-.7-.6-1.2-1.2-1.2-.7 0-1.2.6-1.2 1.2v3.6c-.9.5-1.5 1.4-1.5 2.4 0 1.5 1.2 2.7 2.7 2.7 1 0 1.8-.5 2.3-1.2h4.5c.7 0 1.2-.6 1.2-1.2 0-.7-.6-1.2-1.2-1.2z"/></svg>