<svg xmlns="http://www.w3.org/2000/svg" xmlns:xlink="http://www.w3.org/1999/xlink" xml:space="preserve" width="1600" height="506" version="1.1" viewBox="0 0 40671.787 12861.808" id="svg148" clip-rule="evenodd" fill-rule="evenodd" image-rendering="optimizeQuality" shape-rendering="geometricPrecision" text-rendering="geometricPrecision"><defs id="defs33"><linearGradient id="id0" gradientUnits="userSpaceOnUse" x1="1137.66" y1="3132.62" x2="2694.18" y2="2142.78"><stop offset="0" id="stop4" stop-color="#2d197d"/><stop offset=".639" id="stop6" stop-color="#4425be"/><stop offset="1" id="stop8" stop-color="#2d197d"/></linearGradient><linearGradient id="id1" gradientUnits="userSpaceOnUse" xlink:href="#id0" x1="1412.26" y1="678.931" x2="2419.58" y2="1659.91"/><linearGradient id="id2" gradientUnits="userSpaceOnUse" x1="14207.8" y1="4183.91" x2="14473.7" y2="1997.57"><stop offset="0" id="stop12" stop-color="#e42820"/><stop offset=".478" id="stop14" stop-color="#fa3e2f"/><stop offset="1" id="stop16" stop-color="#e52921"/></linearGradient><linearGradient id="id3" gradientUnits="userSpaceOnUse" xlink:href="#id2" x1="11768" y1="4140.6" x2="12023.3" y2="2040.89"/><linearGradient id="id4" gradientUnits="userSpaceOnUse" xlink:href="#id2" x1="9408.8" y1="4033.04" x2="9638.12" y2="2147.53"/><linearGradient id="id5" gradientUnits="userSpaceOnUse" xlink:href="#id2" x1="16731" y1="4062.54" x2="16967.301" y2="2118.96"/><linearGradient id="id6" gradientUnits="userSpaceOnUse" xlink:href="#id2" x1="19380.699" y1="3961.28" x2="19592.5" y2="2220.2"/><linearGradient id="id7" gradientUnits="userSpaceOnUse" xlink:href="#id2" x1="6871.75" y1="3946.18" x2="7079.83" y2="2235.31"/><linearGradient id="id8" gradientUnits="userSpaceOnUse" xlink:href="#id2" x1="22213.5" y1="3885.58" x2="22406.801" y2="2295.9"/><linearGradient id="id9" gradientUnits="userSpaceOnUse" x1="1272.84" y1="3812.46" x2="2138.76" y2="4534.7"><stop offset="0" id="stop25" stop-color="#2d197d"/><stop offset=".38" id="stop27" stop-color="#4425be"/><stop offset="1" id="stop29" stop-color="#2d197d"/></linearGradient><linearGradient id="id10" gradientUnits="userSpaceOnUse" xlink:href="#id2" x1="4243.48" y1="3518.31" x2="4442.68" y2="1880.37"/><linearGradient xlink:href="#id0" id="linearGradient154" gradientUnits="userSpaceOnUse" x1="1137.66" y1="3132.62" x2="2694.18" y2="2142.78"/><linearGradient xlink:href="#id2" id="linearGradient156" gradientUnits="userSpaceOnUse" x1="14207.8" y1="4183.91" x2="14473.7" y2="1997.57"/><style type="text/css" id="style2">.fil13{fill:#d8251c}.fil15,.fil6{fill:#ff694e;fill-rule:nonzero}.fil6{fill:#fff}.fil2{fill:#fff;fill-opacity:.011765}.fil24{fill:#f60;fill-opacity:.2}</style></defs><g id="Слой_x0020_1" transform="translate(.004 -.33) scale(1.69304)"><path id="polygon36" fill="#ffef00" d="M0 0v7593h24023V0z"/><path id="polygon38" fill="#170364" d="M23519 7052V5186h-9952v1866z"/><g id="_241279232"><path class="fil2" d="M22264 5691c30-20 62-39 94-56 118-62 246-94 379-94 113 0 246 23 352 68 30 10 60 23 88 38 100 52 180 129 234 228 50 91 74 192 74 296 0 176-51 342-136 494-87 156-207 286-358 382-146 92-307 147-480 147-24 0-48-1-72-3-93-5-199-28-286-68-39-14-76-33-110-56-132 81-281 127-444 127-25 0-50-1-75-3-127-5-271-48-382-117-17 10-34 20-51 28-123 62-256 92-394 92-163 0-341-43-471-146-18 14-36 27-55 38-93 57-196 89-306 89-29 0-58-2-87-8-69-9-138-39-198-80-52 48-121 76-196 76h-272c-69 0-129-21-183-65l-25-20c-107 69-226 115-357 115-125 0-240-40-332-117-53 55-126 88-208 88h-272c-81 0-154-34-207-88-117 73-248 117-391 117-111 0-217-32-306-99-90 61-194 99-314 99-98 0-193-26-271-84-8 5-16 9-24 14-82 44-171 71-264 71-104 0-200-36-278-103-1 0-1 1-2 1l-58 34c-46 27-92 39-145 39h-720c-27 0-52-3-76-10-24 7-48 10-75 10h-711c-95 0-177-42-233-119s-70-168-41-258l12-38c29-90 93-155 183-185l53-18c2-6 3-11 4-16l246-860c-30-20-56-46-78-79-51-75-64-161-37-248l12-38c28-88 88-152 174-184l90-34c34-13 65-18 101-18h702c24 0 47 3 70 8 22-5 44-8 69-8h715c94 0 176 41 232 117s72 165 44 256l-12 38c-10 33-24 61-43 87l126-23c18-3 33-5 51-5h63c63 0 120 18 167 52 24-7 49-11 75-12l267-9c85-3 160 28 216 87 107-71 227-119 359-119 121 0 231 39 321 112 52-51 123-81 201-81h265c80 0 151 30 204 83 113-72 239-115 378-115 96 0 189 25 269 76 9-3 19-5 28-7l358-65c18-3 33-5 51-5h58c54 0 101 13 148 41l22 13c35-15 73-22 113-22h265c44 0 82 8 122 27l72 34c47 22 85 55 113 94 17-12 35-24 54-35 153-94 322-151 503-151 35 0 69 3 104 9 81 11 181 47 258 94 117-65 245-103 384-103 121 0 235 27 347 70 52 19 100 45 143 80z" id="path40" fill="#fff" fill-opacity=".012"/><path class="fil2" d="M22263 5715c33-23 68-44 104-63 115-60 240-92 370-92 110 0 242 23 345 67 30 10 58 23 86 37 96 50 174 125 226 220 48 88 72 186 72 287 0 172-50 335-134 485-86 153-203 281-352 375-143 90-300 144-470 144-24 0-47-1-71-3-91-5-195-28-280-67-42-15-81-36-117-61-132 83-281 131-444 131-25 0-49-1-74-3-128-5-273-49-383-120-20 12-40 23-60 34-120 61-250 90-385 90-164 0-343-44-471-151-21 17-42 33-65 47-90 55-190 87-296 87-28 0-56-2-84-7-71-10-143-41-203-86-49 51-118 82-194 82h-272c-65 0-120-20-170-61l-36-29c-107 71-227 119-358 119-127 0-243-42-334-125-50 60-124 96-206 96h-272c-81 0-154-36-204-94-118 76-250 123-394 123-112 0-217-34-305-103-89 64-194 103-314 103-98 0-193-27-270-89-11 7-22 14-34 20-79 43-165 69-255 69-104 0-200-38-276-108-4 3-9 6-14 8l-58 34c-43 25-85 36-135 36h-720c-27 0-52-4-76-10-24 7-48 10-75 10h-711c-89 0-165-39-218-111-52-72-66-157-38-241l12-38c27-84 87-144 171-172l63-21c3-9 5-18 7-25l250-874c-33-20-62-47-85-81-48-70-60-151-34-232l12-38c26-82 82-142 163-172l90-34c32-12 60-17 94-17h702c24 0 47 3 70 9 22-6 44-9 69-9h715c88 0 164 38 216 109s67 154 41 239l-12 38c-15 49-40 89-77 121l182-33c17-3 31-4 48-4h63c62 0 118 19 163 55 25-8 52-13 80-14l267-9c84-3 159 30 213 93 108-74 229-125 362-125 123 0 234 41 322 119 49-55 121-88 200-88h265c80 0 150 32 200 89 113-75 241-120 381-120 96 0 187 26 266 78 11-4 23-6 35-9l358-65c17-3 31-4 48-4h58c51 0 94 12 138 38l30 18c35-16 74-25 114-25h265c41 0 77 8 114 25l72 34c50 23 89 60 116 104 22-16 45-31 69-46 150-92 315-148 492-148 34 0 67 3 100 9 82 11 184 49 260 97 116-67 245-106 385-106 118 0 230 26 340 69 54 20 105 48 148 86z" id="path42" fill="#fff" fill-opacity=".012"/><path class="fil2" d="M22261 5739c36-26 75-49 115-70 112-59 234-90 361-90 108 0 237 23 338 66 29 10 57 22 84 36 93 49 168 120 218 212 47 86 69 180 69 277 0 169-49 329-131 476-84 151-199 276-345 368-139 88-294 141-460 141-23 0-46-1-69-3-89-5-191-27-274-66-45-16-86-39-124-66-132 85-280 135-445 135-24 0-49-1-73-3-129-5-276-51-384-124-22 14-45 28-69 40-117 60-245 87-376 87-164 0-346-45-471-158-24 21-49 40-75 56-87 53-183 84-286 84-27 0-54-2-81-7-74-10-148-45-209-93-46 55-115 89-192 89h-272c-60 0-112-18-158-57l-41-34c-2-2-4-3-5-5-107 73-228 124-359 124-130 0-247-45-336-134-46 65-120 105-204 105h-272c-81 0-154-39-200-100-118 80-251 129-398 129-108 0-210-33-295-100-3-3-7-5-10-8-89 67-194 108-315 108-99 0-193-28-269-93-14 10-29 19-44 27-76 41-159 66-246 66-104 0-200-40-274-113-8 6-16 11-25 16l-58 34c-40 23-79 34-125 34h-720c-27 0-52-4-76-11-24 8-48 11-75 11h-711c-82 0-153-36-202-103s-61-145-36-224l12-38c25-78 81-134 158-160l72-24c4-13 8-26 11-35l254-889c-36-18-67-46-92-82-44-65-55-140-32-215l12-38c24-76 76-131 151-159l90-34c29-11 56-16 87-16h702c24 0 48 3 70 9 22-6 44-9 69-9h715c82 0 152 35 201 101s62 143 38 222l-12 38c-17 55-47 97-93 130l-42 30 263-47c15-3 29-4 44-4h63c61 0 116 20 160 57 26-10 54-16 84-17l267-9c83-3 155 31 205 96 1 1 2 2 3 4 108-78 231-131 366-131 125 0 237 44 324 128 46-60 118-97 198-97h265c80 0 150 34 197 96 113-78 242-127 385-127 95 0 185 26 264 80 13-5 27-8 41-11l358-65c15-3 29-4 45-4h58c47 0 88 11 128 35l39 23c35-18 74-27 115-27h265c38 0 71 7 106 24l72 34c53 25 94 66 118 115 27-21 56-40 85-58 147-91 309-145 482-145 33 0 65 3 97 9 82 11 188 51 263 101 116-68 245-109 385-109 116 0 226 26 334 68 52 19 101 46 142 83 4 3 7 7 11 10z" id="path44" fill="#fff" fill-opacity=".012"/><path class="fil2" d="M22259 5764c40-29 81-55 125-78 110-57 228-88 352-88 106 0 233 22 331 65 28 10 56 21 82 35 90 47 162 116 210 204 45 83 67 174 67 268 0 166-48 322-129 466-83 148-196 271-339 361-136 86-287 138-449 138-23 0-45-1-68-3-86-5-188-27-268-64-47-17-91-41-130-72-131 87-280 139-446 139-24 0-48-1-72-3-129-5-279-52-385-128-25 17-51 32-78 46-115 58-239 85-368 85-165 0-350-47-471-165-27 25-55 48-85 66-84 51-177 81-276 81-26 0-52-2-78-7-77-10-155-49-215-101-42 60-111 97-189 97h-272c-55 0-103-17-146-52l-41-34c-6-5-11-9-16-14-107 76-228 129-361 129s-252-49-340-146c-40 72-115 117-201 117h-272c-82 0-154-43-195-108-119 84-254 137-403 137-104 0-201-31-283-96l-21-18c-88 70-193 114-316 114-95 0-187-28-259-91-3-2-5-5-8-7-18 13-36 24-55 34-73 40-153 64-237 64-101 0-193-39-264-111l-9-9c-11 9-23 18-36 26l-58 34c-37 21-73 31-116 31h-720c-27 0-53-4-76-12-24 8-48 12-75 12h-711c-76 0-142-33-186-95-45-62-56-134-33-207l12-38c23-72 75-124 146-148l81-27c6-17 11-34 14-45l258-905c-39-17-73-45-99-82-41-60-51-129-29-199l12-38c22-70 71-121 139-147l90-34c27-10 52-15 81-15h702c24 0 48 3 70 10 22-7 44-10 69-10h715c75 0 140 33 185 93 45 61 57 132 35 205l-12 38c-15 51-43 89-86 120l-47 34c-34 24-69 38-108 42-2 6-3 11-5 16 11-4 22-7 35-9l360-65c14-3 26-4 41-4h63c60 0 114 21 156 60 27-12 57-19 88-20l267-9c76-3 143 29 190 89 5 6 9 13 13 19 109-81 233-139 370-139 127 0 241 48 327 139 41-66 113-107 195-107h265c80 0 149 37 192 103 114-83 244-134 389-134 92 0 179 26 255 78 2 1 4 3 7 4 15-6 30-10 47-13l358-65c14-3 27-4 41-4h58c44 0 81 10 118 33l49 29c34-20 74-30 116-30h265c35 0 66 7 98 22l72 34c57 27 98 73 118 128 33-26 67-50 103-72 144-89 302-143 472-143 32 0 63 3 94 8 83 11 193 53 265 105 116-70 245-113 386-113 114 0 221 25 327 66 50 18 96 44 137 79 8 7 15 13 22 20z" id="path46" fill="#fff" fill-opacity=".012"/><path class="fil2" d="M22257 5790c43-32 88-61 136-87 107-56 222-86 343-86 103 0 228 22 324 63 28 9 54 21 80 34 86 45 156 111 202 197 44 80 65 168 65 259 0 162-47 316-126 457-81 145-192 266-332 355-133 84-281 135-439 135-22 0-44-1-66-3-84-4-184-26-262-63-50-18-96-44-137-78-131 90-280 144-447 144-24 0-47-1-71-3-129-5-280-53-383-130-1-1-2-1-3-2-28 19-57 37-87 52-112 57-233 83-359 83-166 0-354-48-471-172-30 30-61 56-95 76-81 49-170 78-266 78-25 0-50-2-75-7-81-10-163-55-222-112-37 66-106 108-184 108h-272c-51 0-95-16-134-48l-41-34c-9-8-18-16-26-25-107 79-230 135-363 135-137 0-259-54-344-162-32 81-108 133-196 133h-272c-82 0-154-47-189-116-120 89-257 146-409 146-99 0-193-30-271-92-11-9-22-19-32-29-88 73-193 121-317 121-91 0-177-26-246-86-7-6-13-12-19-18-21 16-43 30-66 43-70 38-147 62-228 62-96 0-183-37-250-105-7-7-14-15-21-23-14 14-29 26-47 37l-58 34c-34 20-67 29-106 29h-720c-27 0-53-5-76-14-25 9-48 14-75 14h-711c-70 0-130-31-171-87s-52-123-30-189l12-38c21-66 68-113 134-135l90-30c7-20 14-42 17-55l263-922c-43-14-79-42-106-81-38-55-47-118-27-182l12-38c20-64 65-111 128-135l90-34c25-9 47-13 74-13h702c25 0 48 4 70 11 22-8 44-11 68-11h715c69 0 129 30 170 86s52 121 32 187l-12 38c-14 46-40 82-79 110l-47 34c-34 24-70 37-111 39-6 16-10 32-13 42l-7 27c21-12 43-20 68-25l360-65c13-2 24-3 37-3h63c60 0 113 22 152 65 28-15 59-23 93-24l267-9c70-2 131 26 174 81 9 11 17 23 23 36 110-86 236-149 376-149 131 0 247 53 331 153 34-74 107-121 191-121h265c79 0 147 40 185 109l2 3c114-88 247-143 395-143 88 0 172 25 244 74 5 3 10 7 15 10 16-7 34-13 52-16l358-65c13-2 24-3 38-3h58c40 0 74 9 108 30l56 34c1 0 2 1 2 1 33-22 73-34 116-34h265c33 0 60 6 90 20l72 34c61 29 102 82 117 144 38-32 79-62 123-89 141-87 296-140 462-140 31 0 61 2 91 8 84 11 198 56 267 109 116-73 245-117 387-117 111 0 217 25 320 65 48 17 92 42 131 76 11 10 22 20 32 31zm-6498 317l-139 499c3 1 5 2 8 3 6-22 12-45 19-66l131-416c-7-6-13-13-19-20zm-769-277h32l56-198-9-3c-7 3-15 5-22 7-6 18-12 37-15 48l-41 146zm-215 777c9-3 17-6 26-8 6-17 11-35 14-46l49-172h-27l-63 226zm2453-295c5 2 10 3 15 5 1-7 1-13 2-20-5 5-11 10-16 14z" id="path48" fill="#fff" fill-opacity=".012"/><path class="fil2" d="M22255 5816c46-36 95-68 148-96 104-55 217-83 334-83 101 0 224 21 317 62 27 9 53 20 78 33 83 43 150 107 195 189 42 77 62 162 62 250 0 159-46 309-124 448-80 142-188 261-326 348-130 82-274 132-429 132-22 0-43-1-65-3-82-4-180-25-256-61-53-19-101-48-143-84-131 93-280 149-448 149-23 0-46-1-69-3-125-5-273-52-372-127-5-3-9-7-13-10-31 22-63 42-97 59-109 55-228 81-350 81-167 0-358-50-470-181-33 34-68 65-106 88-78 47-164 75-256 75-24 0-48-2-72-6-85-11-173-62-231-127-29 74-98 122-179 122h-272c-46 0-86-14-122-44l-41-34c-13-11-25-23-35-36-108 82-232 143-366 143-135 0-254-54-335-163-5-7-11-15-16-22l-5 17c-24 84-98 139-185 139h-272c-83 0-154-53-181-127-121 95-260 157-417 157-95 0-184-28-259-88-16-12-30-26-42-40-87 77-193 128-319 128-86 0-168-24-234-82-10-9-20-19-29-29-24 19-50 37-77 51-68 37-141 59-219 59-90 0-173-35-236-99-13-13-24-26-34-40-15 20-34 37-58 51l-58 34c-31 18-61 26-97 26h-720c-27 0-53-5-76-15l-2 1c-24 10-47 14-73 14h-711c-63 0-118-28-155-79s-47-112-27-172l12-38c19-60 62-103 122-123l98-33c9-23 17-50 21-65l269-940c-47-11-86-38-114-79-34-50-43-108-24-166l12-38c18-59 59-101 116-123l90-34c23-8 43-12 67-12h702c25 0 48 4 70 12 22-9 44-12 68-12h715c63 0 117 27 154 78s48 110 29 170l-12 38c-13 42-36 75-72 100l-47 34c-34 24-70 36-112 36h-1c-8 21-15 43-18 56l-22 78 24-18c25-18 50-29 80-34l360-65c12-2 22-3 34-3h63c60 0 111 24 148 70 28-18 61-28 97-30l267-9c63-2 119 24 158 74 13 17 24 36 30 55 111-91 241-160 384-160 130 0 244 54 325 157 4 5 8 11 12 16v-1c24-84 98-140 185-140h265c72 0 133 36 168 99l13 23c115-93 249-153 401-153 84 0 164 23 233 71 8 5 16 11 24 17 18-9 37-16 58-20l358-65c12-2 22-3 34-3h58c36 0 67 9 98 27l56 34c4 3 8 5 12 8 32-24 72-38 115-38h265c30 0 55 6 82 18l72 34c66 31 107 95 110 164 45-41 94-78 147-111 138-85 289-137 452-137 30 0 59 2 88 8 85 11 204 59 269 113 116-75 245-121 388-121 109 0 212 25 313 64 46 16 88 40 125 72 15 13 30 28 43 43zm-3264 596l-15 3 12 6zm-2002-106l-12 42c17-8 35-15 54-20-14-5-28-12-42-21zm-1238-243l-155 556c16 4 30 10 44 18 7-30 15-60 24-88l135-428c-11-9-20-18-29-30-7-9-14-19-19-28zm-786-213h72l66-231c-12-2-23-6-33-10-12 5-24 9-36 11-8 22-16 46-19 60l-48 170zm-190 779c14-6 27-10 41-12 8-21 15-44 18-58l56-197h-67l-72 258c8 2 15 5 23 8zm3991-185c18-16 39-28 61-36-18-5-36-12-54-21-3 19-5 38-7 58zm-1585-123c27 5 54 13 79 25 1-5 1-10 2-14 3-27 4-54 5-80-12 11-24 22-30 29-16 17-35 30-55 40z" id="path50" fill="#fff" fill-opacity=".012"/><path class="fil2" d="M22252 5843c49-40 102-76 159-106 101-53 211-81 325-81 98 0 219 21 311 61 26 9 52 20 76 33 80 42 143 102 187 181 41 74 60 156 60 240 0 156-46 303-121 438-78 139-184 256-319 341-127 80-267 129-419 129-21 0-42-1-63-3-80-4-176-25-250-60-56-20-106-51-149-91-131 96-280 154-449 154-23 0-46-1-68-3-121-4-265-50-362-123-8-6-16-13-24-19-34 25-69 47-107 66-107 54-222 79-342 79-166 0-360-51-466-188-1-1-2-2-3-4-36 40-75 75-117 101-75 46-158 73-246 73-23 0-46-2-69-6-86-11-176-66-230-133-4-5-8-10-11-15l-5 18c-21 75-88 126-166 126h-272c-42 0-77-13-110-39l-41-34c-18-14-32-31-42-50-109 86-234 152-371 152-129 0-242-52-320-155-13-17-25-36-35-55-1-1-2-2-2-3l-17 59c-22 75-88 125-166 125h-272c-85 0-155-61-170-142-2 2-5 4-7 6-121 99-262 165-420 165-91 0-176-27-247-84-20-16-37-34-52-53-87 81-193 136-321 136-81 0-159-23-221-77-15-13-28-27-39-42-28 23-58 44-89 61-65 35-135 57-210 57-85 0-163-33-223-94-19-19-35-40-48-63-15 29-37 53-67 70l-58 34c-28 16-55 23-87 23h-720c-27 0-53-6-76-17l-9 4c-22 9-42 13-66 13h-711c-57 0-106-25-140-71s-42-101-25-155l12-38c17-54 56-93 110-111l101-34c2-1 4-1 6-2 11-26 21-59 25-75l272-952 3-9c-51-6-93-32-122-74-31-45-38-97-22-149l12-38c17-53 53-91 105-110l90-34c20-8 39-11 60-11h702c25 0 48 5 70 14 22-10 44-14 68-14h715c57 0 105 25 139 70 34 46 43 99 26 153l-12 38c-12 38-33 67-65 90l-47 34c-31 22-63 32-101 32h-15c-10 24-19 55-24 70l-38 136c7-8 15-15 24-22l46-34c22-16 45-26 72-31l360-65c11-2 20-3 31-3h63c57 0 105 25 139 70 2 3 4 5 5 8 29-23 63-36 102-37l267-9c57-2 107 22 142 67 18 24 30 50 35 77 113-98 247-175 394-175 124 0 233 52 310 150 13 16 24 33 34 50l12-42c21-76 88-126 167-126h265c65 0 120 33 151 89l19 34c2 3 3 6 5 10 115-98 252-164 407-164 81 0 157 22 223 68 11 7 22 15 33 24 19-12 40-20 63-24l358-65c11-2 20-3 31-3h58c33 0 61 8 89 24l56 34c8 5 16 10 23 16 31-27 71-43 115-43h265c27 0 49 5 73 16l72 34c75 35 114 117 95 196 54-54 114-103 181-144 134-83 283-134 442-134 29 0 57 2 85 8 85 11 208 61 267 116l3 3c116-78 246-126 390-126 107 0 208 24 307 63 44 16 84 38 119 69 20 17 37 36 52 55zm-3233 541c-32 11-66 16-102 16-49 0-96-11-139-34h-1c-1 0-1-1-2-1-5-3-11-6-16-9-9 45-14 91-15 137 9-9 17-17 22-23 62-66 163-74 234-18zm-2040-111l-33 115c51-35 111-54 177-54 54 0 106 14 151 41 3-14 5-28 7-41 3-31 5-63 5-94 0-6 0-17-1-28-23 16-50 43-62 55-62 65-163 71-233 15l-10-8zm-1229-274l-174 626c-1 3-2 6-2 9 30 4 58 17 81 36 7-39 18-78 30-115l137-435c1-2 1-4 2-7-13-9-26-21-37-34-20-24-32-51-37-80zm-809-131h112l73-257c1-3 2-6 2-9-21-2-40-7-58-15-17 8-33 12-50 15-10 25-20 56-24 72l-55 195zm-165 780l7-3c16-7 32-11 48-13 10-25 19-54 23-70l63-221h-107l-78 283c0 1 0 1-1 2-1 2-1 5-2 7 17 3 32 8 47 15z" id="path52" fill="#fff" fill-opacity=".012"/><path class="fil2" d="M22249 5871c53-45 110-84 172-117 99-52 205-79 316-79 96 0 214 20 304 59 26 9 50 19 74 32 76 40 137 98 179 173 39 72 58 150 58 231 0 153-45 296-119 429-76 137-180 250-313 334-124 78-261 126-408 126-21 0-41-1-62-3-78-4-172-24-244-59-59-21-111-54-155-99-130 99-281 161-451 161-22 0-45-1-67-3-118-4-258-49-352-119-12-9-24-19-34-29-37 28-76 53-116 74-104 53-216 77-333 77-160 0-349-49-451-180-6-7-11-15-17-23-39 46-82 87-128 115-72 44-151 70-236 70-22 0-44-2-66-6-82-10-167-63-218-126-13-16-24-33-33-50l-17 60c-19 67-78 112-148 112h-272c-37 0-69-11-97-35l-41-34c-22-18-38-40-47-65-110 91-238 163-378 163-122 0-230-49-304-147-13-17-24-35-34-53-9-14-17-28-25-42l-29 102c-19 67-78 111-148 111h-272c-84 0-153-68-154-152-1-3-1-6-2-9-11 10-22 20-34 29-117 96-254 161-408 161-86 0-167-25-235-79-25-20-45-42-62-67-86 86-193 146-323 146-77 0-150-21-208-72-19-17-35-35-48-55-31 27-65 53-102 73-62 34-129 55-200 55-80 0-153-31-209-88-29-29-50-62-64-98l-3 12c-11 40-35 70-71 91l-58 34c-25 14-49 21-77 21h-720c-27 0-53-7-75-19l-18 7c-19 8-37 12-59 12h-711c-51 0-94-22-124-63s-38-89-22-138l12-38c16-48 50-83 98-98l101-34c5-2 9-3 14-4 13-29 25-68 30-86l272-952c2-9 6-20 9-32-6 0-11-1-15-1-48-3-89-27-116-67s-34-86-20-132l12-38c15-47 47-81 93-98l90-34c18-7 34-10 54-10h702c25 0 49 6 70 16 22-11 44-16 68-16h715c50 0 94 22 124 62s38 88 23 136l-12 38c-10 34-29 60-58 80l-47 34c-27 20-56 29-89 29-8 0-18 0-27 1-13 27-25 66-29 83l-265 952c-2 8-6 19-9 31h1c48 1 89 22 118 59 6-51 20-102 35-150l137-435c2-6 4-13 6-21-17-9-31-22-44-38-30-37-41-82-31-129l9-43c8-38 28-69 59-92l46-34c20-15 40-23 64-28l360-65c9-2 18-2 27-2h63c50 0 94 22 124 62 6 9 12 18 16 27 28-31 65-47 107-49l267-9c51-2 95 19 126 59 25 32 36 69 32 107 115-107 256-198 412-198 119 0 221 49 295 142 22 28 40 59 54 91l25-89c19-67 78-112 148-112h265c57 0 107 29 134 79l19 34c6 11 11 22 14 33h1c116-105 255-177 414-177 77 0 149 21 212 65 14 9 29 20 43 32 19-15 42-25 67-29l358-65c10-2 18-2 27-2h58c29 0 54 7 79 22l56 34c12 7 24 16 33 26 28-32 69-50 114-50h265c24 0 44 5 65 15l72 34c69 32 103 108 82 182l-20 71c65-79 143-146 232-201 131-81 276-131 432-131 28 0 55 2 82 7 81 10 201 59 257 111 5 4 9 9 14 14 116-81 247-132 392-132 104 0 203 24 300 62 41 15 80 36 113 65 24 21 45 44 62 69zm-324 602c-13 7-27 14-41 21 13 0 25 2 38 5h1c1-9 1-18 2-27zm-2877-121c-40 19-84 29-131 29-46 0-90-10-130-31h-1c-1 0-1-1-2-1-13-7-26-15-38-24-16 66-22 134-22 202v9c22-17 46-41 56-52 55-60 147-66 210-14l21 17 37-134zm-2080-111l-59 203c57-58 130-91 213-91 60 0 117 18 163 54 6-23 10-47 13-71 3-32 5-64 5-96 0-12-1-45-7-58-28 11-74 55-89 71-55 58-145 64-208 13l-32-26zm-2054-353h151l77-271c2-9 6-20 9-32-7-1-14-1-19-1-23-2-44-8-63-18l-7 3c-19 9-36 13-56 15-13 29-25 67-30 85zm-141 783l15-7c18-8 35-12 54-13 12-28 23-65 28-83l70-246h-147l-82 297c0 1 0 1-1 2-2 8-5 18-8 29 26 1 50 7 71 19zm6629-431c14-7 27-14 41-20 10-5 23-11 37-19l-50-16c-8 19-17 37-27 54z" id="path54" fill="#fff" fill-opacity=".012"/><path class="fil2" d="M22244 5900c56-50 118-94 185-129 96-50 199-77 307-77 94 0 210 20 297 58 25 8 49 19 72 31 73 38 131 93 171 165 38 69 55 144 55 222 0 149-44 290-116 419-75 134-177 245-306 327-121 76-254 123-398 123-20 0-40-1-60-3-76-4-168-23-238-57-62-22-116-58-160-107-130 103-281 167-453 167-22 0-44-1-66-3-114-4-250-47-341-115-16-12-31-25-44-39-40 31-82 59-127 82-101 51-211 75-324 75-154 0-337-46-436-173-11-14-21-28-30-43-42 52-89 100-140 131-69 42-145 67-226 67-21 0-42-2-63-6-77-9-158-60-206-119-24-30-41-62-51-97l-32 113c-17 59-68 98-129 98h-272c-32 0-60-10-85-30l-41-34c-27-22-44-52-48-85-111 98-244 178-389 178-116 0-218-46-289-140-12-16-23-33-33-51-19-28-34-58-45-88l-44 153c-17 59-68 97-129 97h-272c-74 0-135-60-135-135v-1c-4-17-5-34-2-52-20 21-42 41-65 60-114 93-246 156-396 156-82 0-158-24-223-75-30-24-53-52-70-83-86 92-193 158-327 158-72 0-141-19-196-67-23-21-42-44-56-70-3 2-6 5-9 7-33 30-69 57-108 78-59 32-124 52-191 52-75 0-143-29-195-82-54-55-81-125-81-202 0-63 18-130 37-190l137-435c3-10 7-23 11-37-20-8-38-22-52-40-26-33-36-71-27-112l9-43c7-34 24-60 52-81l46-34c17-13 35-20 56-24l360-65c8-1 15-2 24-2h63c44 0 82 19 108 54 13 17 21 35 24 55l14-18c25-32 60-49 101-51l267-9c44-1 83 17 111 52 27 35 35 77 23 120l-11 36c120-123 274-240 447-240 113 0 210 46 280 135 34 43 57 90 72 141l41-146c17-59 68-98 130-98h265c50 0 93 25 118 69l19 34c11 20 17 41 17 63 9-9 18-17 27-25 113-102 247-172 401-172 73 0 142 20 201 62 18 11 36 26 53 41 19-18 43-31 70-36l358-65c8-2 16-2 24-2h58c25 0 47 6 69 19l56 34c18 11 33 25 43 41 24-38 66-62 114-62h265c21 0 38 4 57 13l72 34c60 28 91 95 72 159l-50 174c75-115 172-209 290-282 128-79 270-128 422-128 27 0 53 2 79 7 76 10 193 56 247 106 9 8 17 16 24 25 116-84 248-138 395-138 102 0 199 23 293 60 39 14 76 34 107 62 28 25 52 53 70 84zm-296 539c-59 29-186 94-213 131-6 9-14 22-19 35 29-15 56-37 77-56 35-32 79-43 124-31 8 2 16 4 23 6 1-28 4-57 8-84zm-2869-128c-47 33-102 51-162 51-42 0-84-9-121-29h-1c-1 0-1-1-2-1-20-11-40-25-59-41-22 76-30 156-30 235 0 10 1 27 3 43 29-15 73-58 87-73 48-52 129-58 184-13l32 26c2 2 4 3 5 5l6 5 58-209zm-2120-107l-73 251c9 4 18 8 26 14 54-61 127-96 210-96 63 0 123 21 170 65l5 5c10-34 17-68 22-103 3-33 5-66 5-99 0-15-2-61-13-73-1-2-4-5-6-6h-1c-28 0-92 61-110 79-48 51-127 56-182 12l-33-26c-8-6-15-13-21-21zm3839 382v2c6-1 12-3 18-5l-18 3zm548-296c36-20 73-38 106-54 22-11 57-28 89-48-17 2-35 0-53-6l-69-22c-10 28-24 54-39 80-10 17-21 33-33 49zm-6193-1048l8-4c20-10 39-14 61-14h715c44 0 82 19 108 54s33 77 21 119l-12 38c-9 29-25 52-50 70l-47 34c-24 17-49 25-78 25-12 0-26 1-40 3-16 29-29 74-35 95l-265 952c-4 13-10 34-14 54 10 1 19 1 25 1 43 1 80 20 105 55 26 35 33 75 21 117l-11 38c-10 35-31 61-62 79l-58 34c-21 12-43 18-68 18h-720c-27 0-52-7-73-21l-27 11c-17 7-33 10-51 10h-711c-44 0-83-19-109-55s-33-78-19-121l12-38c14-42 43-72 85-86l101-34c7-2 14-4 21-5 15-31 29-78 35-98l272-952c4-15 10-35 14-54-14-2-28-3-37-3-42-3-78-23-102-58s-30-75-17-116l12-38c13-41 41-71 81-86l90-34c16-6 30-8 47-8h702c25 0 49 6 69 19zm-264 664h191l81-285c4-15 10-34 14-54-16-2-31-3-41-4-23-2-45-9-63-20l-16 8c-19 9-37 13-58 13h-3c-15 31-30 78-36 98l-69 243zm-117 785l24-11c18-8 34-11 54-11h5c15-31 29-77 34-96l77-270h-187l-86 311v2c-4 13-10 33-14 53 9 1 17 1 22 1 27 1 51 8 71 22z" id="path56" fill="#fff" fill-opacity=".012"/><path class="fil2" d="M22239 5932c59-57 126-105 199-143 93-49 193-75 298-75 91 0 205 20 290 57 24 8 48 18 70 30 69 36 125 89 163 158 36 66 53 138 53 213 0 146-43 283-114 410-73 131-173 240-300 320-118 74-248 120-388 120-20 0-39-1-59-3-74-4-164-23-232-56-59-21-111-55-153-102-4-5-8-10-12-14-130 107-282 175-455 175-22 0-43-1-65-3-110-4-243-46-331-111-20-15-38-32-53-50-43 35-89 66-138 91-99 50-205 73-315 73-148 0-326-44-421-165-16-21-31-43-43-66-45 59-97 115-152 149-66 40-138 64-216 64-20 0-40-2-60-5-72-8-149-57-194-112-37-46-58-100-58-160 0-10 1-21 2-33l-61 215c-14 50-59 84-111 84h-272c-28 0-52-9-73-26l-41-34c-35-29-50-72-39-116-114 108-256 205-411 205-110 0-207-43-274-132-12-16-23-32-32-50-30-45-50-95-62-147l-62 216c-14 50-59 83-111 83h-272c-63 0-115-52-115-115v-4c-5-19-5-40 1-61l18-64c-34 44-73 85-117 121-110 90-239 152-384 152-77 0-150-22-211-71-36-29-61-63-78-102-85 98-194 173-331 173-67 0-132-18-183-63-28-25-49-54-62-87-9 8-18 16-28 23-32 29-67 56-104 76-56 30-118 50-182 50-70 0-133-27-182-76-50-51-75-116-75-188 0-61 18-127 36-184l137-434 16-56c-24-6-44-19-60-39-23-28-31-61-23-96l9-43c6-29 21-52 44-69l46-34c15-11 30-17 48-21l360-65c7-1 13-2 20-2h63c38 0 70 16 93 47 22 30 29 66 18 102l-108 356c5-9 9-17 14-26l99-323c4-14 11-26 20-38l27-34c22-27 51-42 86-44l267-9c38-1 71 14 95 44 23 30 30 66 20 103l-33 114c121-137 294-293 488-293 107 0 198 44 264 128 48 61 74 133 85 209l62-221c14-51 59-84 111-84h265c43 0 80 22 101 59l19 34c15 28 19 57 10 88l-8 28c22-26 46-51 72-74 109-98 239-167 388-167 69 0 134 19 191 58 23 14 46 34 65 53 17-23 42-39 72-45l358-65c7-1 13-2 21-2h58c22 0 40 5 59 16l56 34c28 17 47 44 54 74l2-8c14-51 59-84 111-84h265c18 0 33 3 49 11l72 34c52 24 78 81 62 136l-101 351c15-37 33-73 53-109 77-136 183-246 316-328 125-77 263-125 412-125 26 0 51 2 76 7 72 9 186 54 237 101 13 12 24 24 34 38 116-88 249-146 399-146 100 0 194 23 286 59 37 13 72 32 101 58 33 29 60 63 77 101zm-265 474c-6 3-11 5-17 8-46 22-209 103-238 146-13 20-30 49-30 74v3c44-14 85-46 116-74 30-27 68-37 106-27 16 4 31 8 47 12 1-48 6-96 15-143zm-1780 58l-5 18c1 0 2 1 2 1 1-6 2-12 3-19zm-1078-209c-52 57-120 89-198 89-39 0-77-9-112-27h-1c-1 0-1-1-1-1-27-15-54-35-77-59-29 87-40 179-40 271 0 17 1 46 7 67 32 0 96-63 115-84 41-45 110-49 158-11l32 26c2 1 3 3 5 4l29 26 84-301zm-2162-100l-91 314c14 3 28 9 41 18l13 9c1-1 1-2 2-2 51-64 122-100 204-100 59 0 113 20 156 60 10 9 18 19 26 29 15-45 26-92 33-140 4-34 5-67 5-101 0-22-3-68-18-86-6-7-12-13-21-13-36 0-101 62-123 85-42 43-109 48-156 10l-33-26c-19-15-32-35-38-57zm3826 416v12c0 10 1 20 3 29 25-3 48-11 71-21 31-14 62-33 92-55-9 3-18 5-27 8-45 12-92 20-140 27zm326-100c2 1 5 1 7 2l23 8c13-19 29-38 47-55 4-4 8-7 12-11-9 6-18 13-27 19-20 13-41 25-62 37zm132-89c69-50 154-93 223-126 46-22 138-69 170-110 7-9 13-18 18-28-19 10-37 21-53 33-30 22-66 28-102 16l-87-27c-11 33-25 64-44 94-35 57-77 106-126 149zm-6085-1115l18-9c17-9 33-12 52-12h715c38 0 70 16 93 47 22 30 29 66 18 102l-12 38c-8 25-22 45-43 60l-47 34c-20 15-42 22-67 22-16 0-35 1-52 5-19 31-34 81-42 108l-265 952c-5 18-14 50-19 76 17 2 38 3 48 4 37 1 68 17 90 47s28 65 18 100l-11 38c-9 30-26 52-53 68l-58 34c-18 11-37 16-58 16h-720c-27 0-51-8-71-24l-37 15c-15 6-28 9-44 9h-711c-38 0-71-17-93-47-22-31-28-67-16-103l12-38c12-36 37-62 73-74l101-34c9-3 18-5 27-6 17-33 35-89 41-111l272-952c6-21 14-50 18-76-21-3-45-5-58-6-36-3-67-20-87-50-21-30-26-65-15-99l12-38c11-35 35-61 70-74l90-34c14-5 26-7 40-7h702c25 0 49 8 68 22zm-288 661h231l85-299c6-21 14-50 18-75-22-3-48-5-62-6-24-2-45-10-62-23l-26 13c-16 8-31 11-49 11h-14c-18 32-36 90-43 112l-76 268zm-94 788l35-15c15-7 29-10 46-10h17c17-32 35-88 41-110l84-295h-227l-90 325v2c-6 19-15 50-19 75 16 2 35 3 45 3 26 1 50 9 69 25z" id="path58" fill="#fff" fill-opacity=".012"/></g><path d="M14711 6042h528l115-416c16-57 23-101 23-131 0-27-8-48-24-63l-198-39 67-34h715l-12 38-47 34-92-2c-7 4-14 9-20 15-36 31-67 92-93 184l-265 952c-18 62-26 107-26 134s9 47 29 62c25 19 70 29 135 31l-11 38-58 34-683-24-21-15 77-34c68 0 118-14 150-41 32-28 62-90 89-186l123-442h-525l-123 443c-18 61-27 106-27 135 0 26 11 48 33 64 21 16 64 25 128 27l-11 38-82 34-563-25-136-13 101-34c68 0 118-14 149-41 32-28 61-90 88-186l264-952c16-55 23-98 23-129 0-30-9-53-28-68s-64-25-135-31l-79-4 90-34h702l-16 38-71 34-59-3c-6 4-12 8-18 13-33 29-64 91-91 186l-118 415zm7825 42l211-174c3 2 5 5 8 8 18 21 26 50 26 88 0 92-15 192-44 303-29 110-66 211-112 302-45 91-83 150-115 176-21 18-46 26-73 26s-50-11-70-33-30-49-30-83c0-135 31-287 94-456 23-63 46-118 68-164l38 5zm382-201l67-4s-90-42-216-48c-11-1-21-2-32-2-85 0-166 21-245 62s-148 95-209 161-111 143-150 231c-40 89-59 184-59 285 0 85 26 157 79 216 30 34 67 58 112 72 0 0 82 42 196 47s197-38 197-38 94-79 97-89-2-49-2-49c78-63 143-142 195-237 64-118 97-236 97-354 0-58-13-110-38-157-21-40-51-72-89-97zm-1629 943c-5-3-11-7-16-11-51-38-77-89-77-151 0-61 22-112 66-154 44-41 126-92 249-151 106-51 176-98 210-143 35-44 52-91 52-140 0-73-32-116-97-130l-81 36-66 73-107-34-23-32c122-107 247-161 376-161 25 0 48 2 69 5 69 5 177 47 177 47h-60l4 3c41 37 61 80 61 130 0 54-16 101-48 138-18 21-46 43-83 67l16 31s-436 295-422 299c9 3 12 90 14 156 3 4 7 8 11 11 32 29 75 44 132 44 77 0 157-37 238-112 0 0 51 13 120 34-25 53-231 167-231 167s-88 58-231 55c-142-4-252-77-253-78m-543-755c16-18 209-132 213-142 7 11 11 24 11 40 0 48-12 99-36 154s-53 100-86 136-67 62-102 78-83 29-146 39c36-123 79-225 128-306l19 1zm435-177c28-2 57-5 57-5s-93-48-151-53c-18-4-37-6-58-6-118 0-235 36-351 108-117 72-209 168-276 287-68 119-102 239-102 358 0 76 22 144 68 202 10 12 21 23 33 33 0 0 83 72 221 84 48 4 63-11 62-33 67-8 129-26 186-56 28-15 56-33 85-54l138-27 80-115-97-34c-66 55-124 93-174 115s-100 33-149 33c-52 0-93-16-124-49s-46-76-46-131c0-31 3-70 9-117 87-7 157-18 209-33 77-22 147-53 210-95s115-97 156-165c30-50 45-101 45-155 0-35-9-65-28-90zm-1466 934c2 2 50 53 108 56 58 4 120-29 120-29s218-126 223-258c-45-18-66-31-69-33-58 97-102 145-131 145-16 0-23-9-23-26 0-13 7-46 21-97l166-594 108-97-72-34h-265l-122 436h-290l109-396c13-1 25-2 28-2 7-1 49-35 49-35l-56-34h-58l-358 65-11 40 45 34 46-14c10 9 15 23 15 41 0 24-9 71-29 140l-197 708 41 34s69-23 105-34h119l136-492h291l-60 211c-23 82-34 136-34 164 0 32 11 61 32 88 4 5 8 10 13 14zm-736-959s32 19 66 59c18 21 8 34-6 41 2 10 2 21 2 32 0 53-16 98-47 137-32 38-70 57-114 57-4 0-9 0-13-1 0 6-2 13-10 21-46-24-65-60-65-60-14-17-21-38-21-63 0-37 20-74 59-110 36-34 54-58 54-72 0-22-14-33-42-33-69 0-136 61-201 184-65 122-98 267-98 433 0 78 16 133 46 166 31 33 65 50 103 50 58 0 125-40 200-121l32 26 37 34-143 75c-108 99-208 149-297 149-75 0-135-29-177-86s-63-131-63-219c0-54 8-118 25-190h-181l-130 465h-215l-47 34v-34h-4l130-465h-178c-54 162-131 285-231 369-99 84-200 126-302 126-53 0-98-15-135-46-37-30-55-72-55-126 0-52 16-98 46-136 31-38 69-57 115-57 31 0 57 10 78 29s31 44 31 75c0 36-24 76-73 123-27 25-40 45-40 58 0 22 15 34 44 34 70 0 138-63 203-190 65-126 97-270 97-429 0-72-15-126-44-161s-65-53-106-53-85 19-133 57l-68 63-47 7 15-34c151-172 286-258 405-258 72 0 130 28 174 84s66 130 66 223c0 53-8 115-25 186h178l129-461h265l19 34-63 124-85 303h182c45-145 117-264 218-355s205-137 311-137c49 0 91 13 127 39zm-2343 48l-13-14 27-34 267-9-210 725c-17 62-26 97-26 106 0 6 3 12 8 18s11 9 17 9c10 0 20-4 29-13 26-21 60-62 102-124l37 25c-99 177-208 266-327 266-44 0-79-11-104-34s-38-53-38-89c0-40 9-90 28-150l54-185c-91 138-158 231-200 279-63 72-116 120-160 144-43 24-85 36-124 36-37 0-70-14-97-42s-41-64-41-107c0-37 10-87 30-150l134-437c20-72 30-119 30-144 0-9-2-17-5-24l-126-40 46-34 360-65h63l-226 742c-11 34-16 58-16 71 0 6 3 12 7 15 5 6 12 9 20 9 32 0 75-30 128-90 76-87 156-211 240-373l86-286z" id="path61" fill="#bfbfc7" fill-rule="nonzero"/><path d="M14629 6075h543l118-416c16-57 24-101 24-131 0-29-10-51-29-67-19-15-67-25-142-31l12-38h735l-12 38c-72 0-127 16-164 47s-69 92-95 184l-272 952c-18 62-27 107-27 134s10 47 29 62c25 19 72 29 139 31l-11 38h-720l16-38c70 0 122-14 154-41 33-28 64-90 91-186l126-442h-540l-126 443c-18 61-28 106-28 135 0 26 11 48 34 64 22 16 66 25 132 27l-11 38h-711l12-38c70 0 121-14 153-41 32-28 63-90 90-186l272-952c16-55 24-98 24-129 0-30-9-53-29-68-19-15-66-25-138-31l12-38h722l-16 38c-67 0-117 15-152 44-34 29-66 91-94 186l-121 415zm1735-213l-232 742c-11 34-17 58-17 71 0 6 3 12 7 15 6 6 12 9 20 9 33 0 77-30 132-90 78-87 160-211 247-373l103-334 275-9-216 725c-18 62-27 97-27 106 0 6 3 12 8 18 6 6 11 9 17 9 10 0 20-4 30-13 26-21 62-62 105-124l38 25c-102 177-214 266-336 266-46 0-81-11-107-34s-39-53-39-89c0-40 9-90 28-150l56-185c-94 138-162 231-205 279-65 72-120 120-164 144s-87 36-127 36c-38 0-72-14-100-42s-42-64-42-107c0-37 10-87 31-150l138-437c21-72 31-119 31-144 0-11-3-21-9-29-6-9-15-15-26-20-12-5-32-7-62-7l9-43 370-65h65zm1520 492l133-461h272l-133 461h187c46-145 120-264 224-355s210-137 320-137c53 0 99 15 138 44 38 29 58 72 58 127 0 53-16 98-48 137-32 38-72 57-117 57-31 0-58-9-79-28-22-19-32-44-32-74 0-37 20-74 60-110 37-34 56-58 56-72 0-22-15-33-44-33-71 0-140 61-207 184-67 122-101 267-101 433 0 78 16 133 48 166s67 50 106 50c60 0 129-40 206-121l33 26c-155 172-293 258-414 258-78 0-138-29-182-86-43-57-65-131-65-219 0-54 9-118 25-190h-186l-134 465h-272l134-465h-183c-56 162-135 285-237 369s-206 126-311 126c-55 0-101-15-138-46-38-30-56-72-56-126 0-52 16-98 48-136s71-57 118-57c32 0 59 10 80 29s32 44 32 75c0 36-25 76-75 123-28 25-41 45-41 58 0 22 15 34 45 34 72 0 142-63 209-190 67-126 100-270 100-429 0-72-15-126-46-161-30-35-66-53-109-53-60 0-129 40-207 121l-33-26c156-172 294-258 416-258 74 0 134 28 179 84s68 130 68 223c0 53-9 115-25 186h183zm2080-461h272l-208 724c-15 51-22 83-22 97 0 18 8 26 24 26 30 0 75-48 135-145l43 27c-73 113-135 185-187 216-52 32-104 47-156 47-47 0-82-13-104-41-22-27-33-56-33-88 0-28 12-82 35-164l61-211h-300l-140 492h-272l202-708c20-69 29-115 29-140 0-21-7-36-20-44s-43-14-88-17l11-40 368-65h60l-133 468h298l125-436zm709 571c-6 47-10 87-10 117 0 55 16 98 48 131s74 49 128 49c51 0 102-11 154-33 51-22 111-60 179-115l34 28c-84 95-165 163-245 203-79 40-167 60-263 60-122 0-206-29-253-87s-70-126-70-202c0-119 35-239 104-358s164-215 284-287 240-108 361-108c61 0 107 15 139 44 31 29 47 66 47 110 0 53-15 105-46 155-43 69-96 123-160 165s-136 74-216 95c-54 15-125 25-215 33zm10-56c65-9 115-22 150-39 35-16 70-42 104-78s64-81 89-136 37-106 37-154c0-20-6-36-17-48s-26-18-43-18c-35 0-75 24-119 73-81 89-148 222-201 399zm844-354l-23-32c125-107 254-161 386-161 88 0 153 18 195 55s63 80 63 130c0 54-16 101-50 138-33 38-97 79-192 124-157 75-252 137-284 186s-49 95-49 138c0 47 16 86 49 115 32 29 78 44 135 44 79 0 161-37 245-112l32 27c-135 131-280 197-436 197-97 0-171-19-224-57s-79-89-79-151c0-61 22-112 68-154 45-41 130-92 255-151 109-51 181-98 216-143 36-44 54-91 54-140 0-90-50-135-151-135-66 0-136 27-211 81zm1353-192c58 0 112 13 163 40 51 26 89 63 115 111 26 47 39 100 39 157 0 118-33 236-99 354s-153 211-261 279-217 102-326 102c-99 0-176-29-230-88s-82-131-82-216c0-101 20-196 61-285 40-88 92-166 154-231 62-66 134-119 215-161 81-41 165-62 252-62zm-46 58c-38 0-71 11-96 34-51 46-109 153-173 321-64 169-96 320-96 456 0 34 10 61 31 83s45 33 72 33c28 0 54-9 75-26 32-26 72-85 118-176 47-91 85-192 115-302s45-211 45-303c0-38-9-67-27-88s-40-31-64-31z" id="path63" fill="#f7f7f7" fill-rule="nonzero"/><path d="M1087 5919h379v-379h572v379h379v572h-379v379h-572v-379h-379zm10439 472h184c58 0 102 4 132 13s54 27 72 54 27 71 27 132c0 41-6 70-19 86s-39 29-77 37c43 10 72 25 87 48 15 22 23 56 23 102v65c0 48-6 83-16 106-11 23-28 39-52 47s-73 13-147 13h-213v-703zm185 120v156h18c18 0 29-4 34-13s7-34 7-76c0-22-2-37-6-46s-9-14-16-17c-6-2-19-4-38-4zm0 266v197c25-1 42-5 49-12s10-25 10-54v-66c0-30-3-48-9-55-6-6-23-10-50-11zm-254 26c0 71-2 121-5 150s-14 56-31 81c-18 24-42 43-72 56s-65 20-105 20c-38 0-72-6-102-19-30-12-55-31-73-55-18-25-29-51-33-80-3-29-5-80-5-152v-120c0-71 2-121 5-150s14-56 31-81c18-24 42-43 72-56s65-20 105-20c38 0 72 6 102 19 30 12 55 31 73 55 18 25 29 51 33 80 3 29 5 80 5 152zm-185-231c0-33-2-53-5-63-4-9-11-14-22-14-9 0-17 4-22 11s-7 29-7 65v328c0 41 2 66 5 75 3 10 11 14 23 14s20-5 24-16c3-11 5-37 5-79v-323zm-686-181h186c50 0 89 4 116 12s47 19 61 34 23 33 28 54 7 53 7 97v61c0 45-5 77-14 98s-26 36-51 47-58 16-98 16h-49v284h-185v-703zm185 120v179h13c17 0 29-4 35-12s10-25 10-51v-58c0-24-4-40-11-47s-23-11-47-11zm-242 704h-127v-121h-298v121h-127v-268h38c20-58 36-133 49-227s19-197 19-308v-21h409v555h38v268zm-222-268v-417h-55v5c0 135-15 272-44 412zm-442-555l106 703h-188l-10-126h-67l-10 126h-357c-20-18-30-52-30-103v-137c0-17-5-31-16-42s-24-16-41-16l-1 298h-185v-703h185l1 297c34-1 52-20 53-57l3-137c1-51 11-85 30-102h170c-16 17-25 52-24 106l1 121c1 73-41 114-124 125 84 10 125 52 124 126l-1 112c0 50 7 87 21 110l93-699h267zm-98 452c-9-80-18-178-28-296-18 135-30 234-35 296zm-996-452l106 703h-188l-10-126h-67l-10 126h-191l94-703h267zm-98 452c-9-80-18-178-28-296-18 135-30 234-35 296zm-294 251h-185v-563h-54v398c0 52-7 90-20 113-14 23-34 37-62 43s-72 9-133 9h-29v-121c23 0 38-3 46-8 9-5 13-24 13-56v-517h423v703zm-823-703h308v140h-123v134h115v133h-115v155h135v140h-320v-703zm-57 824h-127v-121h-298v121h-127v-268h38c20-58 36-133 49-227s19-197 19-308v-21h409v555h38v268zm-222-268v-417h-55v5c0 135-15 272-44 412zm-347-555v140h-108v563h-185v-563h-109v-140h403zm-441 412c0 71-2 121-5 150s-14 56-31 81c-18 24-42 43-72 56s-65 20-105 20c-38 0-72-6-102-19-30-12-55-31-73-55-18-25-29-51-33-80-3-29-5-80-5-152v-120c0-71 2-121 5-150s14-56 31-81c18-24 42-43 72-56s65-20 105-20c38 0 72 6 102 19 30 12 55 31 73 55 18 25 29 51 33 80 3 29 5 80 5 152zm-185-231c0-33-2-53-5-63-4-9-11-14-22-14-9 0-17 4-22 11s-7 29-7 65v328c0 41 2 66 5 75 3 10 11 14 23 14s20-5 24-16c3-11 5-37 5-79v-323zm-466 522h-185v-316c-23 0-38 4-45 12s-10 24-10 51v254h-171v-210c0-36 2-63 6-81 4-19 13-34 27-46s37-22 68-30c-42-4-70-16-83-36s-19-56-19-108c0-47 6-84 17-110 12-27 29-45 51-57s48-19 77-21c29-3 74-4 136-4h131v703zm-185-427v-156h-9c-15 0-27 3-35 10s-12 21-12 44v39c0 26 3 43 10 51s22 12 46 12zm-299 427h-185v-563h-54v398c0 52-7 90-20 113-14 23-34 37-62 43s-72 9-133 9h-29v-121c23 0 38-3 46-8 9-5 13-24 13-56v-517h423v703zm-507 121h-127v-121h-298v121h-127v-268h38c20-58 36-133 49-227s19-197 19-308v-21h409v555h38v268zm-222-268v-417h-55v5c0 135-15 272-44 412zm6671-1101c0 52-7 90-21 113s-35 37-62 43c-28 6-72 9-133 9h-213v-703h185v241h29c57 0 100 3 129 10s51 21 65 44 22 58 22 107v137zm-185-21v-102c0-30-3-48-9-54s-23-10-51-11v231c23 0 39-3 48-9 8-6 13-25 13-56zm-298 306h-127v-121h-572v-703h185v563h53v-563h185v563h55v-563h185v563h38v261zm-769-412c0 71-2 121-5 150s-14 56-31 81c-18 24-42 43-72 56s-65 20-105 20c-38 0-72-6-102-19-30-12-55-31-73-55-18-25-29-51-33-80-3-29-5-80-5-152v-120c0-71 2-121 5-150s14-56 31-81c18-24 42-43 72-56s65-20 105-20c38 0 72 6 102 19 30 12 55 31 73 55 18 25 29 51 33 80 3 29 5 80 5 152zm-185-231c0-33-2-53-5-63-4-9-11-14-22-14-9 0-17 4-22 11s-7 29-7 65v328c0 41 2 66 5 75 3 10 11 14 23 14s20-5 24-16c3-11 5-37 5-79v-323zm-310-181v703h-161v-475l-64 475h-113l-68-464v464h-161v-703h238c7 43 14 93 22 150l26 178 42-328h240zm-638 412c0 71-2 121-5 150s-14 56-31 81c-18 24-42 43-72 56s-65 20-105 20c-38 0-72-6-102-19-30-12-55-31-73-55-18-25-29-51-33-80-3-29-5-80-5-152v-120c0-71 2-121 5-150s14-56 31-81c18-24 42-43 72-56s65-20 105-20c38 0 72 6 102 19 30 12 55 31 73 55 18 25 29 51 33 80 3 29 5 80 5 152zm-185-231c0-33-2-53-5-63-4-9-11-14-22-14-9 0-17 4-22 11s-7 29-7 65v328c0 41 2 66 5 75 3 10 11 14 23 14s20-5 24-16c3-11 5-37 5-79v-323zm-310 522h-185v-563h-54v563h-185v-703h423v703zm-653 0h-185v-316c-23 0-38 4-45 12s-10 24-10 51v254h-171v-210c0-36 2-63 6-81 4-19 13-34 27-46s37-22 68-30c-42-4-70-16-83-36s-19-56-19-108c0-47 6-84 17-110 12-27 29-45 51-57s48-19 77-21c29-3 74-4 136-4h131v703zm-185-427v-156h-9c-15 0-27 3-35 10s-12 21-12 44v39c0 26 3 43 10 51s22 12 46 12zm-363-276l106 703h-188l-10-126h-67l-10 126h-191l94-703h267zm-98 452c-9-80-18-178-28-296-18 135-30 234-35 296zm-670-452h186c50 0 89 4 116 12s47 19 61 34 23 33 28 54 7 53 7 97v61c0 45-5 77-14 98s-26 36-51 47-58 16-98 16h-49v284h-185v-703zm185 120v179h13c17 0 29-4 35-12s10-25 10-51v-58c0-24-4-40-11-47s-23-11-47-11zm-254 292c0 71-2 121-5 150s-14 56-31 81c-18 24-42 43-72 56s-65 20-105 20c-38 0-72-6-102-19-30-12-55-31-73-55-18-25-29-51-33-80-3-29-5-80-5-152v-120c0-71 2-121 5-150s14-56 31-81c18-24 42-43 72-56s65-20 105-20c38 0 72 6 102 19 30 12 55 31 73 55 18 25 29 51 33 80 3 29 5 80 5 152zm-185-231c0-33-2-53-5-63-4-9-11-14-22-14-9 0-17 4-22 11s-7 29-7 65v328c0 41 2 66 5 75 3 10 11 14 23 14s20-5 24-16c3-11 5-37 5-79v-323zm-717-181h185l1 297c34-1 52-20 53-57l3-137c1-51 11-85 30-102h170c-16 17-24 52-24 106l1 121c1 73-41 114-124 125 84 10 125 52 124 126l-1 112c0 53 8 91 24 114h-170c-20-18-30-52-30-103v-137c0-17-5-31-16-42s-24-16-41-16l-1 298h-185v-703zm-66 307h-185v-122c0-36-2-58-6-67s-13-13-26-13c-15 0-25 5-29 16s-6 34-6 69v326c0 34 2 56 6 67 4 10 13 16 27 16s23-5 27-16c4-10 6-35 6-74v-88h185v27c0 73-5 125-16 155-10 31-33 57-69 80s-79 34-131 34c-54 0-98-10-134-29-35-19-58-46-70-81-11-34-17-86-17-155v-205c0-51 2-89 5-114 4-25 14-50 31-73s41-42 72-55 66-20 106-20c54 0 99 10 134 31s58 47 70 78c11 31 17 79 17 145v67zm-4375-323h1423c57 0 108 23 146 61 37 37 61 89 61 146v1423c0 57-23 108-61 146-37 37-89 61-146 61H1035c-57 0-108-23-146-61-37-37-61-89-61-146V5500c0-57 23-108 61-146 37-37 89-61 146-61zm1423 48H1035c-44 0-83 18-112 47s-47 68-47 112v1423c0 44 18 83 47 112s68 47 112 47h1423c44 0 83-18 112-47s47-68 47-112V5500c0-44-18-83-47-112s-68-47-112-47z" id="path65" fill="#fff" fill-opacity=".702"/><path class="fil6" d="M14636 6075h536l118-416c16-57 24-101 24-131 0-22-5-40-17-54 14 15 22 35 22 60 0 30-8 73-24 131l-118 416h-543zm513-644h-7l12-38h735l-2 6h-728l-11 33zm189 1368c3 3 6 6 10 9 25 19 72 29 139 31l-2 6c-64-2-108-12-132-30-6-4-11-9-15-14zm-575 77h-8l16-38c70 0 122-14 154-41 33-28 64-90 91-186l125-436h7l-126 442c-28 97-58 159-91 186-33 28-85 41-154 41zm-292-76c4 4 8 8 13 11 22 16 66 25 132 27l-2 6c-62-2-104-11-125-27-7-5-13-11-18-17zm-570 76h-7l12-38c70 0 121-14 153-41 32-28 63-90 90-186l272-952c16-55 24-98 24-129 0-23-5-42-17-56 15 15 22 36 22 62 0 31-8 75-24 129l-272 952c-28 97-58 159-90 186-32 28-84 41-153 41zm384-1445h-7l12-38h722l-3 6h-715l-10 33zm2079 431l-2 6h-58l-370 65-8 37h-6l9-43 370-65zm-242 828c6 6 12 9 20 9 33 0 77-30 132-90 78-87 160-211 247-373l103-334 275-9-2 6-268 9-103 334c-86 162-169 287-247 373-55 60-99 90-132 90-8 0-15-3-20-9-2-2-4-4-5-6zm543 53c5 5 10 7 16 7 10 0 20-4 30-13 26-21 62-62 105-124l38 25-1 2-32-21c-43 62-78 103-105 124-10 9-20 13-30 13-6 0-12-3-17-9l-4-4zm-264 119c-20-21-30-48-30-80 0-40 9-90 28-150l49-162 12-18-56 185c-19 61-28 111-28 150 0 29 8 54 25 74zm-546-3c-25-28-38-62-38-103 0-37 10-87 31-150l138-437c21-72 31-119 31-144 0-11-3-21-9-29l-1-1c2 2 4 4 6 7 6 8 9 18 9 29 0 25-10 73-31 144l-138 437c-20 62-31 112-31 150s11 71 33 97zm2028-505l133-461h272l-2 6h-266l-133 461h-183l1-6h177zm279 0h180c46-145 120-264 224-355s210-137 320-137c53 0 99 15 138 44 9 7 18 15 25 24-6-6-12-12-20-18-39-29-85-44-138-44-109 0-216 46-320 137s-178 210-224 355h-187zm667-163c-17-18-25-40-25-67 0-37 20-74 60-110 37-34 56-58 56-72 0-7-2-13-4-18 6 5 10 13 10 24 0 14-19 38-56 72-40 37-60 73-60 110 0 24 7 44 20 61zm-214 499l1 2c32 33 67 50 106 50 60 0 129-40 206-121l33 26-1 1-27-21c-77 81-145 121-206 121-38 0-73-16-106-50-2-2-4-5-7-7zm-237 144c-4-5-9-10-13-16-43-57-65-131-65-219 0-53 8-114 24-184h6c-17 72-25 135-25 190 0 88 22 161 65 219 3 3 5 7 8 10zm-637 42h-7l132-460h7zm-760-33c-26-28-39-65-39-110 0-52 16-98 48-136s71-57 118-57c32 0 59 10 80 29 4 4 8 8 11 12l-6-6c-21-19-48-29-80-29-47 0-86 19-118 57s-48 84-48 136c0 42 11 76 34 104zm132 5c7 6 19 10 35 10 72 0 142-63 209-190 67-126 100-270 100-429 0-71-15-124-44-159l3 4c30 35 46 89 46 161 0 159-33 303-100 429s-137 190-209 190c-20 0-34-5-40-15zm-44-724l-6-5c156-172 294-258 416-258 72 0 131 27 175 80-44-49-101-74-170-74-122 0-260 85-415 257zm2894-231h272l-2 6h-266l-125 436h-298l2-6h292zm51 843c4 3 9 4 15 4 30 0 75-48 135-145l43 27-1 2-36-23c-60 97-105 145-135 145-10 0-17-3-20-10zm-250 115c-1-2-3-3-4-5-22-27-33-56-33-88 0-28 12-82 35-164l59-206h7l-61 211c-24 82-35 136-35 164 0 31 11 60 32 87zm-646 25h-7l202-708c20-69 29-115 29-140 0-14-3-25-9-34 9 9 14 22 14 40 0 24-10 71-29 140l-201 702zm123-908h-6l11-40 368-65h60l-2 6h-53l-368 65-9 35zm1466 741c1 1 2 3 4 4 32 33 74 49 128 49 51 0 102-11 154-33 51-22 111-60 179-115l34 28-1 1-28-23c-68 55-128 93-179 115s-103 33-154 33c-53 0-96-16-128-49-3-3-6-6-9-10zm-256 117c-2-3-5-5-7-8-47-58-70-126-70-202 0-119 35-239 104-358s164-215 284-287 240-108 361-108c61 0 107 15 139 44l15 15c-3-3-6-7-10-10-31-29-78-44-139-44-121 0-241 36-361 108s-215 168-284 287c-70 119-104 239-104 358 0 76 23 144 70 202l2 2zm239-419c61-9 109-22 143-38 35-16 70-42 104-78s64-81 89-136 37-106 37-154c0-17-4-31-12-42 12 12 17 28 17 48 0 48-12 99-37 154s-54 100-89 136c-34 36-69 62-104 78-36 16-86 29-150 39zm837-353l-23-32c125-107 254-161 386-161 88 0 153 18 195 55 9 8 17 16 25 25-6-7-12-13-20-19-42-37-107-55-195-55-133 0-261 54-386 161l19 26zm84 683c3 4 7 7 11 11 32 29 78 44 135 44 79 0 161-37 245-112l32 27-1 1-26-22c-84 75-166 112-245 112-58 0-103-15-135-44-6-5-11-11-16-17zm-270 79c-30-33-45-74-45-121 0-61 22-112 68-154 45-41 130-92 255-151 109-51 181-98 216-143 36-44 54-91 54-140 0-37-9-67-26-89 21 22 31 54 31 95 0 49-18 96-54 140s-108 92-216 143c-126 59-211 109-255 151-45 42-68 93-68 154 0 45 13 83 40 115zm1539-955c58 0 112 13 163 40 34 18 62 40 85 68-22-25-49-45-80-62-51-26-105-40-163-40-87 0-171 21-252 62s-153 95-215 161c-63 66-114 143-154 231-41 89-61 184-61 285 0 80 24 148 72 205-51-58-77-128-77-211 0-101 20-196 61-285 40-88 92-166 154-231 62-66 134-119 215-161 81-41 165-62 252-62zm-381 951l1 1c21 22 45 33 72 33 28 0 54-9 75-26 32-26 72-85 118-176 47-91 85-192 115-302s45-211 45-303c0-36-8-64-24-85l2 2c18 21 27 50 27 88 0 92-15 192-45 303-30 110-68 211-115 302s-86 150-118 176c-22 18-47 26-75 26s-52-11-72-33c-2-2-4-4-6-7z" id="path67" fill="#fff" fill-rule="nonzero"/><path d="M1067 5898h379v-379h572v379h379v572h-379v379h-572v-379h-379zm10439 472h184c58 0 102 4 132 13s54 27 72 54 27 71 27 132c0 41-6 70-19 86s-39 29-77 37c43 10 72 25 87 48 15 22 23 56 23 102v65c0 48-6 83-16 106-11 23-28 39-52 47s-73 13-147 13h-213v-703zm185 120v156h18c18 0 29-4 34-13s7-34 7-76c0-22-2-37-6-46s-9-14-16-17c-6-2-19-4-38-4zm0 266v197c25-1 42-5 49-12s10-25 10-54v-66c0-30-3-48-9-55-6-6-23-10-50-11zm-254 26c0 71-2 121-5 150s-14 56-31 81c-18 24-42 43-72 56s-65 20-105 20c-38 0-72-6-102-19-30-12-55-31-73-55-18-25-29-51-33-80-3-29-5-80-5-152v-120c0-71 2-121 5-150s14-56 31-81c18-24 42-43 72-56s65-20 105-20c38 0 72 6 102 19 30 12 55 31 73 55 18 25 29 51 33 80 3 29 5 80 5 152zm-185-231c0-33-2-53-5-63-4-9-11-14-22-14-9 0-17 4-22 11s-7 29-7 65v328c0 41 2 66 5 75 3 10 11 14 23 14s20-5 24-16c3-11 5-37 5-79v-323zm-686-181h186c50 0 89 4 116 12s47 19 61 34 23 33 28 54 7 53 7 97v61c0 45-5 77-14 98s-26 36-51 47-58 16-98 16h-49v284h-185v-703zm185 120v179h13c17 0 29-4 35-12s10-25 10-51v-58c0-24-4-40-11-47s-23-11-47-11zm-242 704h-127v-121h-298v121h-127v-268h38c20-58 36-133 49-227s19-197 19-308v-21h409v555h38v268zm-222-268v-417h-55v5c0 135-15 272-44 412zm-442-555l106 703h-188l-10-126h-67l-10 126h-357c-20-18-30-52-30-103v-137c0-17-5-31-16-42s-24-16-41-16l-1 298h-185v-703h185l1 297c34-1 52-20 53-57l3-137c1-51 11-85 30-102h170c-16 17-25 52-24 106l1 121c1 73-41 114-124 125 84 10 125 52 124 126l-1 112c0 50 7 87 21 110l93-699h267zm-98 452c-9-80-18-178-28-296-18 135-30 234-35 296zm-996-452l106 703h-188l-10-126h-67l-10 126h-191l94-703h267zm-98 452c-9-80-18-178-28-296-18 135-30 234-35 296zm-294 251h-185v-563h-54v398c0 52-7 90-20 113-14 23-34 37-62 43s-72 9-133 9h-29v-121c23 0 38-3 46-8 9-5 13-24 13-56v-517h423v703zm-823-703h308v140h-123v134h115v133h-115v155h135v140h-320v-703zm-57 824h-127v-121h-298v121h-127v-268h38c20-58 36-133 49-227s19-197 19-308v-21h409v555h38v268zm-222-268v-417h-55v5c0 135-15 272-44 412zm-347-555v140h-108v563h-185v-563h-109v-140h403zm-441 412c0 71-2 121-5 150s-14 56-31 81c-18 24-42 43-72 56s-65 20-105 20c-38 0-72-6-102-19-30-12-55-31-73-55-18-25-29-51-33-80-3-29-5-80-5-152v-120c0-71 2-121 5-150s14-56 31-81c18-24 42-43 72-56s65-20 105-20c38 0 72 6 102 19 30 12 55 31 73 55 18 25 29 51 33 80 3 29 5 80 5 152zm-185-231c0-33-2-53-5-63-4-9-11-14-22-14-9 0-17 4-22 11s-7 29-7 65v328c0 41 2 66 5 75 3 10 11 14 23 14s20-5 24-16c3-11 5-37 5-79v-323zm-466 522h-185v-316c-23 0-38 4-45 12s-10 24-10 51v254h-171v-210c0-36 2-63 6-81 4-19 13-34 27-46s37-22 68-30c-42-4-70-16-83-36s-19-56-19-108c0-47 6-84 17-110 12-27 29-45 51-57s48-19 77-21c29-3 74-4 136-4h131v703zm-185-427v-156h-9c-15 0-27 3-35 10s-12 21-12 44v39c0 26 3 43 10 51s22 12 46 12zm-299 427h-185v-563h-54v398c0 52-7 90-20 113-14 23-34 37-62 43s-72 9-133 9h-29v-121c23 0 38-3 46-8 9-5 13-24 13-56v-517h423v703zm-507 121h-127v-121h-298v121h-127v-268h38c20-58 36-133 49-227s19-197 19-308v-21h409v555h38v268zm-222-268v-417h-55v5c0 135-15 272-44 412zm6671-1101c0 52-7 90-21 113s-35 37-62 43c-28 6-72 9-133 9h-213v-703h185v241h29c57 0 100 3 129 10s51 21 65 44 22 58 22 107v137zm-185-21v-102c0-30-3-48-9-54s-23-10-51-11v231c23 0 39-3 48-9 8-6 13-25 13-56zm-298 306h-127v-121h-572v-703h185v563h53v-563h185v563h55v-563h185v563h38v261zm-769-412c0 71-2 121-5 150s-14 56-31 81c-18 24-42 43-72 56s-65 20-105 20c-38 0-72-6-102-19-30-12-55-31-73-55-18-25-29-51-33-80-3-29-5-80-5-152v-120c0-71 2-121 5-150s14-56 31-81c18-24 42-43 72-56s65-20 105-20c38 0 72 6 102 19 30 12 55 31 73 55 18 25 29 51 33 80 3 29 5 80 5 152zm-185-231c0-33-2-53-5-63-4-9-11-14-22-14-9 0-17 4-22 11s-7 29-7 65v328c0 41 2 66 5 75 3 10 11 14 23 14s20-5 24-16c3-11 5-37 5-79v-323zm-310-181v703h-161v-475l-64 475h-113l-68-464v464h-161v-703h238c7 43 14 93 22 150l26 178 42-328h240zm-638 412c0 71-2 121-5 150s-14 56-31 81c-18 24-42 43-72 56s-65 20-105 20c-38 0-72-6-102-19-30-12-55-31-73-55-18-25-29-51-33-80-3-29-5-80-5-152v-120c0-71 2-121 5-150s14-56 31-81c18-24 42-43 72-56s65-20 105-20c38 0 72 6 102 19 30 12 55 31 73 55 18 25 29 51 33 80 3 29 5 80 5 152zm-185-231c0-33-2-53-5-63-4-9-11-14-22-14-9 0-17 4-22 11s-7 29-7 65v328c0 41 2 66 5 75 3 10 11 14 23 14s20-5 24-16c3-11 5-37 5-79v-323zm-310 522h-185v-563h-54v563h-185v-703h423v703zm-653 0h-185v-316c-23 0-38 4-45 12s-10 24-10 51v254h-171v-210c0-36 2-63 6-81 4-19 13-34 27-46s37-22 68-30c-42-4-70-16-83-36s-19-56-19-108c0-47 6-84 17-110 12-27 29-45 51-57s48-19 77-21c29-3 74-4 136-4h131v703zm-185-427v-156h-9c-15 0-27 3-35 10s-12 21-12 44v39c0 26 3 43 10 51s22 12 46 12zm-363-276l106 703h-188l-10-126h-67l-10 126h-191l94-703h267zm-98 452c-9-80-18-178-28-296-18 135-30 234-35 296zm-670-452h186c50 0 89 4 116 12s47 19 61 34 23 33 28 54 7 53 7 97v61c0 45-5 77-14 98s-26 36-51 47-58 16-98 16h-49v284h-185v-703zm185 120v179h13c17 0 29-4 35-12s10-25 10-51v-58c0-24-4-40-11-47s-23-11-47-11zm-254 292c0 71-2 121-5 150s-14 56-31 81c-18 24-42 43-72 56s-65 20-105 20c-38 0-72-6-102-19-30-12-55-31-73-55-18-25-29-51-33-80-3-29-5-80-5-152v-120c0-71 2-121 5-150s14-56 31-81c18-24 42-43 72-56s65-20 105-20c38 0 72 6 102 19 30 12 55 31 73 55 18 25 29 51 33 80 3 29 5 80 5 152zm-185-231c0-33-2-53-5-63-4-9-11-14-22-14-9 0-17 4-22 11s-7 29-7 65v328c0 41 2 66 5 75 3 10 11 14 23 14s20-5 24-16c3-11 5-37 5-79v-323zm-717-181h185l1 297c34-1 52-20 53-57l3-137c1-51 11-85 30-102h170c-16 17-24 52-24 106l1 121c1 73-41 114-124 125 84 10 125 52 124 126l-1 112c0 53 8 91 24 114h-170c-20-18-30-52-30-103v-137c0-17-5-31-16-42s-24-16-41-16l-1 298h-185v-703zm-66 307h-185v-122c0-36-2-58-6-67s-13-13-26-13c-15 0-25 5-29 16s-6 34-6 69v326c0 34 2 56 6 67 4 10 13 16 27 16s23-5 27-16c4-10 6-35 6-74v-88h185v27c0 73-5 125-16 155-10 31-33 57-69 80s-79 34-131 34c-54 0-98-10-134-29-35-19-58-46-70-81-11-34-17-86-17-155v-205c0-51 2-89 5-114 4-25 14-50 31-73s41-42 72-55 66-20 106-20c54 0 99 10 134 31s58 47 70 78c11 31 17 79 17 145v67zm-4375-323h1423c57 0 108 23 146 61 37 37 61 89 61 146v1423c0 57-23 108-61 146-37 37-89 61-146 61H1015c-57 0-108-23-146-61-37-37-61-89-61-146V5479c0-57 23-108 61-146 37-37 89-61 146-61zm1423 48H1015c-44 0-83 18-112 47s-47 68-47 112v1423c0 44 18 83 47 112s68 47 112 47h1423c44 0 83-18 112-47s47-68 47-112V5479c0-44-18-83-47-112s-68-47-112-47z" id="path69" fill="#ffc300"/><path class="fil6" d="M14636 6075h536l118-416c16-57 24-101 24-131 0-22-5-40-17-54 14 15 22 35 22 60 0 30-8 73-24 131l-118 416h-543zm513-644h-7l12-38h735l-2 6h-728l-11 33zm189 1368c3 3 6 6 10 9 25 19 72 29 139 31l-2 6c-64-2-108-12-132-30-6-4-11-9-15-14zm-575 77h-8l16-38c70 0 122-14 154-41 33-28 64-90 91-186l125-436h7l-126 442c-28 97-58 159-91 186-33 28-85 41-154 41zm-292-76c4 4 8 8 13 11 22 16 66 25 132 27l-2 6c-62-2-104-11-125-27-7-5-13-11-18-17zm-570 76h-7l12-38c70 0 121-14 153-41 32-28 63-90 90-186l272-952c16-55 24-98 24-129 0-23-5-42-17-56 15 15 22 36 22 62 0 31-8 75-24 129l-272 952c-28 97-58 159-90 186-32 28-84 41-153 41zm384-1445h-7l12-38h722l-3 6h-715l-10 33zm2079 431l-2 6h-58l-370 65-8 37h-6l9-43 370-65zm-242 828c6 6 12 9 20 9 33 0 77-30 132-90 78-87 160-211 247-373l103-334 275-9-2 6-268 9-103 334c-86 162-169 287-247 373-55 60-99 90-132 90-8 0-15-3-20-9-2-2-4-4-5-6zm543 53c5 5 10 7 16 7 10 0 20-4 30-13 26-21 62-62 105-124l38 25-1 2-32-21c-43 62-78 103-105 124-10 9-20 13-30 13-6 0-12-3-17-9l-4-4zm-264 119c-20-21-30-48-30-80 0-40 9-90 28-150l49-162 12-18-56 185c-19 61-28 111-28 150 0 29 8 54 25 74zm-546-3c-25-28-38-62-38-103 0-37 10-87 31-150l138-437c21-72 31-119 31-144 0-11-3-21-9-29l-1-1c2 2 4 4 6 7 6 8 9 18 9 29 0 25-10 73-31 144l-138 437c-20 62-31 112-31 150s11 71 33 97zm2028-505l133-461h272l-2 6h-266l-133 461h-183l1-6h177zm279 0h180c46-145 120-264 224-355s210-137 320-137c53 0 99 15 138 44 9 7 18 15 25 24-6-6-12-12-20-18-39-29-85-44-138-44-109 0-216 46-320 137s-178 210-224 355h-187zm667-163c-17-18-25-40-25-67 0-37 20-74 60-110 37-34 56-58 56-72 0-7-2-13-4-18 6 5 10 13 10 24 0 14-19 38-56 72-40 37-60 73-60 110 0 24 7 44 20 61zm-214 499l1 2c32 33 67 50 106 50 60 0 129-40 206-121l33 26-1 1-27-21c-77 81-145 121-206 121-38 0-73-16-106-50-2-2-4-5-7-7zm-237 144c-4-5-9-10-13-16-43-57-65-131-65-219 0-53 8-114 24-184h6c-17 72-25 135-25 190 0 88 22 161 65 219 3 3 5 7 8 10zm-637 42h-7l132-460h7zm-760-33c-26-28-39-65-39-110 0-52 16-98 48-136s71-57 118-57c32 0 59 10 80 29 4 4 8 8 11 12l-6-6c-21-19-48-29-80-29-47 0-86 19-118 57s-48 84-48 136c0 42 11 76 34 104zm132 5c7 6 19 10 35 10 72 0 142-63 209-190 67-126 100-270 100-429 0-71-15-124-44-159l3 4c30 35 46 89 46 161 0 159-33 303-100 429s-137 190-209 190c-20 0-34-5-40-15zm-44-724l-6-5c156-172 294-258 416-258 72 0 131 27 175 80-44-49-101-74-170-74-122 0-260 85-415 257zm2894-231h272l-2 6h-266l-125 436h-298l2-6h292zm51 843c4 3 9 4 15 4 30 0 75-48 135-145l43 27-1 2-36-23c-60 97-105 145-135 145-10 0-17-3-20-10zm-250 115c-1-2-3-3-4-5-22-27-33-56-33-88 0-28 12-82 35-164l59-206h7l-61 211c-24 82-35 136-35 164 0 31 11 60 32 87zm-646 25h-7l202-708c20-69 29-115 29-140 0-14-3-25-9-34 9 9 14 22 14 40 0 24-10 71-29 140l-201 702zm123-908h-6l11-40 368-65h60l-2 6h-53l-368 65-9 35zm1466 741c1 1 2 3 4 4 32 33 74 49 128 49 51 0 102-11 154-33 51-22 111-60 179-115l34 28-1 1-28-23c-68 55-128 93-179 115s-103 33-154 33c-53 0-96-16-128-49-3-3-6-6-9-10zm-256 117c-2-3-5-5-7-8-47-58-70-126-70-202 0-119 35-239 104-358s164-215 284-287 240-108 361-108c61 0 107 15 139 44l15 15c-3-3-6-7-10-10-31-29-78-44-139-44-121 0-241 36-361 108s-215 168-284 287c-70 119-104 239-104 358 0 76 23 144 70 202l2 2zm239-419c61-9 109-22 143-38 35-16 70-42 104-78s64-81 89-136 37-106 37-154c0-17-4-31-12-42 12 12 17 28 17 48 0 48-12 99-37 154s-54 100-89 136c-34 36-69 62-104 78-36 16-86 29-150 39zm837-353l-23-32c125-107 254-161 386-161 88 0 153 18 195 55 9 8 17 16 25 25-6-7-12-13-20-19-42-37-107-55-195-55-133 0-261 54-386 161l19 26zm84 683c3 4 7 7 11 11 32 29 78 44 135 44 79 0 161-37 245-112l32 27-1 1-26-22c-84 75-166 112-245 112-58 0-103-15-135-44-6-5-11-11-16-17zm-270 79c-30-33-45-74-45-121 0-61 22-112 68-154 45-41 130-92 255-151 109-51 181-98 216-143 36-44 54-91 54-140 0-37-9-67-26-89 21 22 31 54 31 95 0 49-18 96-54 140s-108 92-216 143c-126 59-211 109-255 151-45 42-68 93-68 154 0 45 13 83 40 115zm1539-955c58 0 112 13 163 40 34 18 62 40 85 68-22-25-49-45-80-62-51-26-105-40-163-40-87 0-171 21-252 62s-153 95-215 161c-63 66-114 143-154 231-41 89-61 184-61 285 0 80 24 148 72 205-51-58-77-128-77-211 0-101 20-196 61-285 40-88 92-166 154-231 62-66 134-119 215-161 81-41 165-62 252-62zm-381 951l1 1c21 22 45 33 72 33 28 0 54-9 75-26 32-26 72-85 118-176 47-91 85-192 115-302s45-211 45-303c0-36-8-64-24-85l2 2c18 21 27 50 27 88 0 92-15 192-45 303-30 110-68 211-115 302s-86 150-118 176c-22 18-47 26-75 26s-52-11-72-33c-2-2-4-4-6-7z" id="path71" fill="#fff" fill-rule="nonzero"/><path d="M1793 1108h-123c-48 0-86 1-117 4-30 3-51 6-64 11-12 4-20 11-26 19-46 71 27 103 82 107 31 2 73 3 124 3h123v-144zm321-36v180h387c41 0 75-1 101-4 27-3 62-6 77-34 5-10 8-23 8-38 0-20-4-36-10-48-18-33-64-39-98-43-30-4-68-5-114-5h-243c-4 0-63-4-108-8zm0-131c3-1 6-2 10-3l86-400c0-6 5-12 12-12h136c57 0 57-21 101-17 80 6 190 39 261 76 33 17 68 39 103 66s66 57 93 91c59 76 91 159 107 253 9 51 13 108 13 169 0 60-4 116-13 169s-22 103-39 149-38 87-62 123-51 67-82 93c-30 26-62 48-96 65-34 18-69 32-106 41-36 10-81 17-134 22s-113 7-181 7h-537c-81 0-154-5-218-17-64-11-120-28-168-50-155-73-240-220-275-381-13-58-19-119-19-184 0-79 8-152 23-218 27-118 84-228 175-310 91-83 196-116 316-134 70-10 150-15 239-15l91-34 152 34c6 0 12 5 12 12v403zm110 1093l-138-58 142-16c2 0 6-1 8-1 63 3 129 2 193 5 89 4 170 8 253 43 81 33 163 89 220 156 30 35 55 74 75 117s35 91 45 144 15 111 15 173c0 80-7 152-21 215-24 112-74 212-162 288-72 62-176 100-260 139l-21-20c-10 2-21 3-32 5-70 10-150 15-240 15h-523c-79 0-148-4-207-12-241-32-382-182-441-416-16-63-24-132-24-207 0-74 8-143 24-206 16-64 40-122 71-175 32-53 67-97 107-132s56-60 105-78l12-21c120-22 300-33 422-33 6 0 12 5 12 12v528c0 9-8 11-16 13l-154 34h-1s-18-20-31-36h-22c-36 0-67 2-91 5-50 6-87 17-87 70 0 15 2 27 7 36s11 16 21 20c10 5 28 9 52 12 25 3 58 4 98 4h868c32 0 60-2 84-6 31-5 72-17 90-45 7-10 10-23 10-37 0-33-15-56-44-67-16-6-40-11-71-15-32-3-71-5-118-5h-218c-7 0-12-5-12-12v-435zm773 2735l-121 116-70-114H745c-6 0-12-5-12-12v-580c0-92 4-173 11-243s18-129 33-177 37-92 66-131c2-2 4-5 6-7-24-23-48-47-48-47 57-33 220-94 330-117 71-15 155-22 253-22 66 0 123 5 169 16 93 21 142 59 184 144 15 31 28 68 40 110 14-49 31-92 51-129l3-5-39-51 166-74c30-15 64-26 103-35 55-12 120-18 194-18h208c76 0 143 4 199 13 57 9 105 22 143 40s70 41 96 70 46 63 60 102 24 97 31 176c7 78 10 176 10 293v674c0 4-2 7-5 9zm-1008-605h606c-2-34-5-62-11-84-6-24-14-40-24-50s-28-17-54-22c-28-5-64-8-109-8h-210c-48 0-86 2-114 7-27 5-44 11-53 19-8 8-15 24-21 48-5 23-8 53-10 89zm-849 0h476c0-7 0-14-1-21v-25c0-26-3-48-10-64-6-15-15-26-26-32-13-7-39-12-77-16-40-4-93-6-159-6-35 0-64 2-88 5-23 3-42 7-55 13h-1c-13 6-23 12-31 20-8 7-13 15-16 23-3 9-6 24-8 43-2 17-3 37-4 61z" id="path73" fill="#241165" fill-rule="nonzero"/><path d="M544 4876v-601c0-190 15-334 45-432 29-98 90-177 180-237 91-60 236-90 437-90 136 0 230 21 284 64s95 127 123 252c32-140 84-235 157-285s186-75 337-75h215c157 0 273 18 349 54 75 36 127 93 155 171s42 239 42 482v698H544zm397-605h517c-1-25-1-45-1-59 0-58-15-95-44-111s-113-24-251-24c-73 0-124 6-153 20-29 13-48 30-55 51s-12 62-13 123zm879 0h652c-3-83-16-137-40-160s-83-34-177-34h-217c-100 0-160 10-182 31-21 21-33 75-36 163z" id="path75" fill="url(#id9)" fill-rule="nonzero"/><path d="M1684 1987v547h-220c-76 0-128 6-156 19-27 13-41 36-41 71 0 34 12 57 36 69s77 18 161 18h899c68 0 119-9 153-26s51-43 51-77c0-40-18-67-53-81s-102-21-200-21h-226v-517c152 1 266 6 342 17 76 10 154 42 234 96s140 125 181 212 61 195 61 324c0 164-28 294-84 390s-134 164-235 203c-101 40-244 60-431 60h-541c-162 0-284-16-366-49-82-32-156-102-220-209-65-106-97-236-97-388 0-151 32-281 96-388s145-179 243-214c98-36 237-53 416-53z" id="path77" fill="url(#linearGradient154)" fill-rule="nonzero"/><path d="M1948 504v752h413c86 0 142-6 167-19s37-37 37-72c0-45-17-74-49-89-33-15-97-23-192-23h-252V504h141c118 0 209 7 272 22s131 50 203 104 126 124 162 208 54 189 54 315c0 122-18 231-53 325s-84 166-145 219c-62 52-130 88-204 108s-182 30-324 30h-556c-167 0-298-23-394-68s-170-119-221-221c-51-103-77-220-77-354 0-163 31-297 93-403s143-180 245-223c101-43 245-64 430-64h252zm-309 579h-139c-99 0-162 5-191 16s-43 33-43 66c0 41 12 67 37 76 24 10 90 15 197 15h139z" id="path79" fill="url(#id1)" fill-rule="nonzero"/><path d="M1628 1095h-127c-49 0-89 1-121 4-31 3-53 6-66 11-12 4-21 11-27 20s-9 21-9 35c0 19 3 34 8 45v1c5 10 12 16 21 20 11 4 32 8 64 10s75 4 129 4h127v-149zm-127-24h139c7 0 12 5 12 12v173c0 7-5 12-12 12h-139c-54 0-97-1-131-4s-58-6-71-12c-15-6-26-16-34-32v-1c-7-14-10-33-10-55 0-19 4-35 13-48s21-23 38-29c16-6 40-10 72-13s73-4 123-4zm460-567v740h401c43 0 78-2 105-5s45-7 57-13c10-5 18-13 23-22 5-10 8-23 8-39 0-20-4-37-11-50s-17-22-31-28c-15-7-39-12-69-16-32-4-71-5-118-5h-252c-7 0-12-5-12-12V505c0-7 5-12 12-12h141c59 0 112 2 157 6 46 4 85 9 117 17h1c32 8 66 21 100 38 34 18 70 40 106 68 37 28 69 59 96 95 28 36 51 75 69 118s32 91 41 145c9 53 14 111 14 175 0 62-4 120-13 175s-23 106-41 154-39 90-64 127-53 70-85 97-65 49-100 68c-35 18-71 33-109 43s-84 18-139 23c-54 5-117 8-188 8h-556c-84 0-159-6-225-17-67-11-125-29-174-52s-93-54-131-92-70-83-96-135v-1c-26-52-45-108-58-167-13-60-19-123-19-191 0-82 8-157 23-225 16-68 39-129 71-183v-1c31-54 68-100 110-137 42-38 89-68 141-90h1c52-22 114-38 186-48 72-11 155-16 248-16h252c7 0 12 5 12 12zm-24 752V516h-240c-92 0-173 5-244 16-70 10-130 26-180 47h-1c-50 21-94 49-134 85s-75 80-105 132v1c-30 52-53 111-68 177s-23 139-23 220c0 66 6 128 19 186s31 112 56 162v1c25 50 55 93 91 129s77 65 124 87 103 39 168 50 139 17 221 17h556c71 0 133-3 186-8s98-13 135-22c36-10 71-23 104-41s65-39 95-65c30-25 57-56 80-91 24-36 44-77 62-122 18-46 31-96 39-149 9-53 13-110 13-171 0-62-4-119-13-171s-22-98-40-139-40-79-66-112c-26-34-57-64-92-90-35-27-70-49-103-66s-64-29-95-36h-1c-31-7-69-13-114-16-45-4-97-5-156-5h-129v525h240c48 0 88 2 121 6s58 10 76 18c19 8 33 21 43 39 9 17 14 37 14 62 0 20-4 36-11 50s-18 25-33 33c-14 7-35 12-65 15-28 3-64 5-107 5h-413c-7 0-12-5-12-12zm-240 731v546c0 7-5 12-12 12h-220c-38 0-69 2-95 5-25 3-43 7-56 13-11 5-20 13-26 22-6 10-9 22-9 37s2 28 8 37c5 9 12 16 22 21 11 5 29 9 54 12 26 3 60 4 101 4h899c33 0 63-2 87-6s44-10 60-19h1c15-8 26-17 33-28s11-24 11-38c0-34-15-58-45-70-17-7-41-12-73-15-33-3-74-5-123-5h-226c-7 0-12-5-12-12v-517c0-7 5-12 12-12h1c76 0 142 2 199 5s105 7 143 12c39 5 78 16 118 32s80 38 120 66c41 27 76 59 107 95s57 77 78 121 36 94 47 149c10 55 15 115 15 180 0 83-7 157-21 223s-36 124-65 173-63 91-103 126-86 62-138 83c-52 20-114 35-186 45s-155 15-249 15h-541c-81 0-153-4-215-12s-114-21-156-38c-43-17-83-43-121-79l-1-1c-37-35-72-80-105-134s-58-114-74-180-25-137-25-215c0-77 8-148 25-213 16-66 41-126 74-181s70-100 111-137c42-37 88-64 138-82s110-32 180-41 150-13 240-13c7 0 12 5 12 12zm-24 535v-523c-84 0-159 5-225 13-68 9-127 22-175 39s-91 43-130 78c-40 35-75 79-106 131-31 53-55 111-71 175s-24 133-24 208 8 145 24 209 40 121 71 173c32 52 65 95 101 129l1 1c36 34 73 58 113 74s90 28 150 36 131 12 212 12h541c93 0 174-5 245-15s131-25 181-44c49-19 93-45 131-78s71-73 98-120 48-102 62-166 21-137 21-218c0-64-5-122-15-175s-25-101-45-143c-20-43-45-81-74-116-29-34-64-65-102-91-39-27-78-48-116-64s-75-26-112-31h-1c-38-5-85-9-141-12-54-3-116-4-187-5v493h214c49 0 91 2 125 5 34 4 61 9 80 17 40 16 60 47 60 92 0 19-5 37-15 52s-24 27-42 36h-1c-18 9-40 16-67 21-26 5-57 7-91 7h-899c-42 0-76-2-104-4-28-3-49-8-62-14-14-7-25-17-32-31-7-13-10-29-10-48s4-36 12-49c8-14 20-25 36-32 15-7 36-12 63-15 26-3 59-5 98-5h208zm416-547c6 1 11 6 11 12m-267 2272h627c-2-35-6-64-11-87-6-24-14-42-25-52-10-10-29-17-56-23-29-6-66-8-113-8h-217c-49 0-89 3-118 8-28 5-46 11-55 20s-16 25-21 50c-5 24-9 55-10 92zm640 24h-652c-7 0-12-6-12-12 1-45 5-81 11-109 6-29 16-50 28-62 13-12 35-21 68-26 31-5 72-8 122-8h217c48 0 87 3 117 9 32 6 55 16 68 29 14 13 24 34 31 63 7 27 11 62 12 104v1c0 7-5 12-12 12zm-1519-24h493c0-8 0-15-1-22v-26c0-27-3-50-10-67-6-16-15-27-27-33-13-7-40-13-80-17-41-4-96-6-165-6-36 0-67 2-91 5s-43 8-57 14h-1c-13 6-24 13-32 20s-13 15-17 24c-3 10-6 25-8 44-2 17-3 38-4 63zm505 24H942c-7 0-12-6-12-12 0-31 2-56 4-77 2-22 5-38 9-50 5-12 12-23 23-33 10-9 23-18 38-25h1c16-7 37-12 64-16 26-3 58-5 94-5 69 0 125 2 167 6 43 4 73 11 89 19 17 9 30 25 38 46 8 20 12 45 12 75v25c0 9 1 20 1 33v1c0 7-5 12-12 12zm-926 593v-601c0-95 4-179 11-252s19-134 34-184 38-96 69-136c31-41 69-76 116-107s107-54 181-69 161-23 262-23c69 0 127 5 175 16 49 11 88 28 116 50l1 1c28 22 53 55 74 99 16 32 29 70 42 114 14-51 32-96 53-133 27-49 60-87 98-113s86-45 143-58 124-19 201-19h215c79 0 148 5 207 14s109 23 148 41c39 19 72 43 99 72 27 30 48 65 62 106 14 40 25 101 32 182s10 182 10 304v698c0 7-5 12-12 12H546c-7 0-12-5-12-12zm24-601v589h2300v-686c0-121-3-222-10-302-7-79-17-138-31-176-13-38-33-70-57-97-25-27-55-50-92-67s-84-31-141-39c-57-9-125-13-203-13h-215c-75 0-140 6-196 18-55 12-100 30-135 54s-65 59-90 105c-26 46-46 104-62 173-1 5-4 8-9 9-6 1-13-3-14-9-14-62-31-113-51-155-20-40-42-70-67-90l-1-1c-25-20-61-35-106-46-46-10-103-16-170-16-100 0-185 7-257 22-71 15-129 37-173 66s-81 63-110 102c-29 38-51 81-65 129-15 48-26 108-33 179s-11 154-11 249z" id="path81" fill="#582dda" fill-rule="nonzero"/><g id="_233391840"><path class="fil13" d="M3162 4864h1174c408 0 679-26 810-78 199-79 379-161 468-371 59-140 88-353 88-642v-396c0-279-41-485-123-620-82-134-237-231-467-289 205-53 343-128 413-227 70-98 104-272 104-521 0-369-49-636-148-803-99-166-228-276-388-330-160-55-396-82-707-82h-985l-240 29v4330zm1344-1549v405c0 168-17 276-53 324-19 2-39 3-60 4V2940c28 10 48 22 61 36 35 40 52 152 52 338zm0-1629c0 256-13 412-40 467-6 11-13 21-21 30l-51 2v-885c32 16 59 50 80 100 22 55 33 150 33 286z" id="path83" fill="#d8251c"/><path d="M4180 2910v1215c140-5 230-30 268-75 39-45 58-155 58-330v-405c0-186-17-298-52-338-35-39-126-61-274-67zm0-1637v963c43-2 76-3 100-3 97 0 160-27 186-81 27-55 40-211 40-467 0-136-11-231-33-286-22-54-51-89-86-103s-105-22-207-24zM3162 534h1011c320 0 562 27 726 83 165 55 297 167 399 335 101 169 152 440 152 814 0 253-35 429-107 528-72 100-213 176-424 230 236 59 395 157 479 293 84 137 126 346 126 629v401c0 293-30 509-91 650-60 140-156 237-287 289-132 52-402 78-810 78H3162z" id="path85" fill="url(#id10)" fill-rule="nonzero"/><path class="fil15" d="M4212 4124c122-8 201-32 237-73 39-45 58-155 58-330v-405c0-166-14-274-42-323 9 6 16 11 22 18 35 40 52 152 52 338v405c0 175-19 286-58 330-39 45-128 69-268 75v-35zm0-1888c28-1 50-1 68-1 97 0 160-27 186-81 27-55 40-211 40-467 0-136-11-231-33-286-9-22-19-41-31-57 25 18 46 48 63 90 22 55 33 150 33 286 0 256-13 412-40 467-26 54-89 81-186 81-24 0-57 1-100 3v-34zM3162 535h1011c320 0 562 27 726 83 113 38 211 102 294 193-76-74-163-127-262-160-165-56-407-83-726-83H3194v4297h-32zm1833 2011c158 49 277 118 356 208-91-86-225-152-400-196 15-4 30-8 44-12z" id="path87" fill="#ff694e" fill-rule="nonzero"/></g><g id="_233393088"><path class="fil13" d="M5990 3239c-76 97-114 277-114 543v292c0 358 71 590 213 697 142 106 299 158 469 159 113 1 210-20 296-70 94-54 173-103 271-157v161h949l113-86V3021c0-579-17-961-50-1147-33-185-131-342-294-469-163-128-405-192-726-192-166 0-312 22-439 64-144 27-269 76-374 146-172 114-287 245-344 394-57 150-86 361-86 636v238h914l146-58v-366c0-195 8-317 24-363 2-7 5-14 9-20 42 9 74 36 94 81 26 57 38 177 38 362 0 149-12 246-34 295-23 48-194 141-515 281-300 128-488 240-563 337zm1112-1v669c0 159-7 263-22 314-55-4-92-30-111-79-22-53-32-169-32-351 0-158 12-279 37-364 16-55 58-118 128-189z" id="path90" fill="#d8251c"/><path d="M7102 3177c-157 127-249 233-273 318-26 86-38 208-38 369 0 184 11 302 33 356 21 54 65 80 130 80 62 0 101-21 120-63s28-151 28-330zm-311-486h-914v-238c0-275 29-486 86-636 57-149 172-280 344-394s395-172 671-172c329 0 578 65 745 194s268 287 301 475c34 188 51 576 51 1162v1781h-949v-317c-59 128-137 223-231 286-94 64-206 96-337 96-170 0-327-53-469-159-142-107-213-339-213-697v-292c0-265 38-446 114-543s264-209 563-337c320-140 492-233 515-281 22-48 34-146 34-295 0-185-12-306-38-362-25-56-67-84-125-84-67 0-108 24-124 71s-25 170-25 368v371z" id="path92" fill="url(#id7)" fill-rule="nonzero"/><path class="fil15" d="M6868 4278c22 15 51 23 86 23 62 0 101-21 120-63s28-151 28-330v-671c10-9 21-17 32-26v730c0 179-9 288-28 330s-58 63-120 63c-54 0-94-18-118-56zm-960-1587h-32v-238c0-275 29-486 86-636 57-149 172-280 344-394s395-172 671-172c329 0 578 65 745 194 44 34 83 69 118 107-26-26-55-50-86-74-167-130-416-194-745-194-276 0-499 57-671 172-172 114-287 245-344 394-57 150-86 361-86 636zm1250 2173h-32v-221c11-20 22-41 32-63zm-1094-114c-126-114-188-339-188-676v-292c0-265 38-446 114-543s264-209 563-337c320-140 492-233 515-281 22-48 34-146 34-295 0-185-12-306-38-362-5-10-10-20-16-28 20 14 36 34 48 61 25 57 38 177 38 362 0 149-12 246-34 295-23 48-194 141-515 281-300 128-488 240-563 337-76 97-114 277-114 543v292c0 307 52 521 156 643z" id="path94" fill="#ff694e" fill-rule="nonzero"/></g><g id="_233394240"><path class="fil13" d="M8362 1318v3544h964l79-86V3344c155 28 233 146 233 354v749c0 169 36 307 109 416h939l43-86c-71-113-106-284-106-509v-614c0-290-162-493-487-609-71-22-131-41-180-55 46-13 90-31 131-53 150-78 248-139 295-182 30-27 57-56 80-86 104-108 157-240 157-396v-488c0-222 35-392 106-506h-914l-10 6-58 34c-72 36-109 175-109 417v601c0 121-26 212-78 272-41 21-91 31-150 31V1280h-938l-104 39z" id="path97" fill="#d8251c"/><path d="M9326 1318v1378c204 0 306-120 306-360v-601c0-242 36-381 109-417h939c-72 116-109 287-109 513v495c0 172-63 316-190 430-47 43-145 103-295 182-96 52-205 79-326 83 57 11 162 40 316 88 334 117 500 323 500 617v622c0 228 36 401 109 515h-939c-72-109-109-247-109-416v-749c0-240-104-360-311-360v1525h-964V1319h964z" id="path99" fill="url(#id4)" fill-rule="nonzero"/><path class="fil15" d="M9326 1318v33h-932v3511h-32V1318zm32 1377c183-12 274-132 274-359v-601c0-242 36-381 109-417h939c-7 11-13 22-19 33h-888c-72 36-109 175-109 417v601c0 240-102 360-306 360zm513 351c55 15 123 35 206 61 155 54 273 128 356 220-80-77-188-139-324-187-154-48-259-78-316-89 27-1 53-3 79-6zm-113 1816h-12c-72-109-109-247-109-416v-749c0-115-24-203-72-263 69 59 104 157 104 296v749c0 152 29 280 88 383z" id="path101" fill="#ff694e" fill-rule="nonzero"/></g><g id="_238833280"><path class="fil13" d="M11494 2842c-292 126-475 237-549 332-16 21-31 46-43 74-71 99-107 276-107 533v292c0 358 71 590 213 697 142 106 299 159 469 159 131 0 243-32 337-96s171-159 231-286v317h949V3083c0-587-17-974-51-1162-9-50-23-98-41-144-46-144-136-269-270-373-163-128-405-192-726-192-269 0-486 57-654 169-107 72-191 151-253 236-52 62-92 128-119 198-57 150-86 361-86 636v238h914l15-58v-366c0-160 5-270 16-330 19-37 58-56 117-56 58 0 100 28 125 84 26 57 38 177 38 362 0 65-2 121-7 166-5 30-12 54-19 71-22 48-189 140-501 277zm527 335v730c0 73-1 134-5 184-4 31-9 54-16 68-18 41-57 62-117 62-63 0-106-26-127-79-22-53-32-169-32-351 0-111 6-203 18-278l5-18c25-86 116-192 273-318z" id="path104" fill="#d8251c"/><path d="M12022 3177c-157 127-249 233-273 318-26 86-38 208-38 369 0 184 11 302 33 356 21 54 65 80 130 80 62 0 101-21 120-63s28-151 28-330zm-311-486h-914v-238c0-275 29-486 86-636 57-149 172-280 344-394s395-172 671-172c329 0 578 65 745 194s268 287 301 475c34 188 51 576 51 1162v1781h-949v-317c-59 128-137 223-231 286-94 64-206 96-337 96-170 0-327-53-469-159-142-107-213-339-213-697v-292c0-265 38-446 114-543s264-209 563-337c320-140 492-233 515-281 22-48 34-146 34-295 0-185-12-306-38-362-25-56-67-84-125-84-67 0-108 24-124 71s-25 170-25 368v371z" id="path106" fill="url(#id3)" fill-rule="nonzero"/><path class="fil15" d="M11788 4278c22 15 51 23 86 23 62 0 101-21 120-63s28-151 28-330v-671c10-9 21-17 32-26v730c0 179-9 288-28 330s-58 63-120 63c-54 0-94-18-118-56zm-960-1587h-32v-238c0-275 29-486 86-636 57-149 172-280 344-394s395-172 671-172c329 0 578 65 745 194 44 34 83 69 118 107-26-26-55-50-86-74-167-130-416-194-745-194-276 0-499 57-671 172-172 114-287 245-344 394-57 150-86 361-86 636zm1250 2173h-32v-221c11-20 22-41 32-63zm-1094-114c-126-114-188-339-188-676v-292c0-265 38-446 114-543s264-209 563-337c320-140 492-233 515-281 22-48 34-146 34-295 0-185-12-306-38-362-5-10-10-20-16-28 20 14 36 34 48 61 25 57 38 177 38 362 0 149-12 246-34 295-23 48-194 141-515 281-300 128-488 240-563 337-76 97-114 277-114 543v292c0 307 52 521 156 643z" id="path108" fill="#ff694e" fill-rule="nonzero"/></g><g id="_238834432"><path class="fil13" id="polygon111" fill="#d8251c" d="M14113 1278h-944v3500l28 86h968V3556h289v1222l62 86h969V1317l-88-39h-943v1258h-289V1317z"/><path id="polygon113" fill="url(#linearGradient156)" fill-rule="nonzero" d="M14165 3556v1308h-968V1317h968v1276h351V1317h969v3547h-969V3556z"/><path class="fil15" d="M14548 4864h-32V3589h32zm-1319 0h-32V1317h969v33h-937zm969-2272h319V1317h969v33h-937v1275h-351z" id="path115" fill="#ff694e" fill-rule="nonzero"/></g><g id="_238835680"><path class="fil13" d="M15659 2470v995c0 342 33 605 98 791 78 223 245 391 440 517 161 105 380 157 656 157 217 0 398-37 544-113 147-76 266-188 357-337s146-294 162-435c17-141 26-354 28-637l-153-67h-847v415c0 181-11 303-34 368-23 64-66 96-129 97l-8-16c-30-63-44-158-44-285V2246c0-155 10-255 30-299 17-38 48-60 92-65 6 8 11 17 15 27 21 50 31 146 31 286v405l129 57h919c0-334-30-592-90-775-59-182-180-333-360-452-204-134-535-218-777-218-250 0-462 59-636 178-175 119-289 254-342 405-54 151-80 375-80 673z" id="path118" fill="#d8251c"/><path d="M17944 2658h-919v-411c0-142-11-239-32-290s-61-77-119-77-96 22-116 67-30 144-30 299v1674c0 127 15 222 44 285s72 95 130 95c67 0 112-33 136-99s35-190 35-373v-421h870c-2 283-11 495-28 637-16 141-71 286-162 435s-210 261-357 337-328 113-544 113c-275 0-494-52-656-157-161-104-275-250-342-438-67-189-100-455-100-802V2524c0-302 27-529 82-682 54-153 171-290 351-411 179-120 396-181 653-181 254 0 472 60 653 180 180 119 301 270 360 452 60 182 90 441 90 775z" id="path120" fill="url(#id5)" fill-rule="nonzero"/><path class="fil15" d="M17057 2658h-32v-411c0-142-11-239-32-290-4-9-8-16-12-23 19 13 34 32 44 57 21 51 32 148 32 290v378zm-231 1618c22 16 48 25 77 25 67 0 112-33 136-99s35-190 35-373v-421h870v33h-838v421c0 183-12 307-35 373-24 66-69 99-136 99-45 0-81-19-109-58zm-762 391c-92-90-162-201-208-332-67-189-100-455-100-802V2525c0-302 27-529 82-682 54-153 171-290 351-411 179-120 396-181 653-181 254 0 472 60 653 180 72 47 134 100 186 157-45-44-97-86-154-124-181-120-399-180-653-180-257 0-474 60-653 181-180 120-296 257-351 411-55 153-82 380-82 682v1008c0 347 34 613 101 802 41 115 100 215 177 299z" id="path122" fill="#ff694e" fill-rule="nonzero"/></g><g id="_238783712"><path class="fil13" id="polygon125" fill="#d8251c" d="M18118 4778l160 86h889l476-1347v1261l202 86h850V1317l-224-39h-877l-466 1347V1317l-182-39h-828z"/><path id="polygon127" fill="url(#id6)" fill-rule="nonzero" d="M18278 1317h850v1901l667-1901h900v3547h-850V2947l-678 1917h-889z"/><path class="fil15" d="M19877 4864h-32V3071l32-90v1884zm-1567 0h-32V1317h850v33h-818zm850-1738l634-1809h900v33h-868l-666 1900z" id="path129" fill="#ff694e" fill-rule="nonzero"/></g><g id="_238784960"><path class="fil13" id="polygon132" fill="#d8251c" d="M20869 4778l233 86h889l404-1142v1056l273 86h850V1317l-296-39h-876l-394 1138V1317l-255-39h-828z"/><path id="polygon134" fill="url(#id8)" fill-rule="nonzero" d="M21102 1317h850v1901l666-1901h900v3547h-850V2947l-677 1917h-889z"/><path class="fil15" d="M22700 4864h-32V3071l32-90v1884zm-1567 0h-32V1317h850v33h-818zm850-1738l634-1809h900v33h-868l-666 1900z" id="path136" fill="#ff694e" fill-rule="nonzero"/></g><path id="polygon139" fill="#fff78c" d="M0 0v7593L26 24 24023 0z"/><path class="fil24" d="M1067 5898h379v-379h572v23h-539v379h-379v549h-33zm985 0h346v23h-346zm-572 951h-33v-357h33zm10026-479h184c58 0 102 4 132 13 20 6 37 16 51 29-6-3-12-5-18-7-30-9-74-13-132-13h-184v680h-33v-703zm370 341c11 6 20 12 27 19-13-6-28-11-45-15 6-1 12-3 18-5zm-152-66c9-2 15-6 18-12 5-9 7-34 7-76 0-20-2-34-5-43 7 1 13 2 16 3 6 2 12 8 16 17s6 24 6 46c0 42-2 67-7 76s-16 13-34 13h-18v-24zm0 304c7-2 12-5 15-8 7-7 10-25 10-54v-66c0-18-1-32-3-41 14 2 23 5 27 9 6 7 9 25 9 55v66c0 28-3 46-10 54-7 7-23 11-49 12v-27zm-619 113c-23-12-42-28-57-48-18-25-29-51-33-80-3-29-5-80-5-152v-120c0-71 2-121 5-150s14-56 31-81c18-24 42-43 72-56s65-20 105-20c38 0 72 6 102 19 19 8 35 18 50 30-5-3-11-5-16-8-30-12-64-19-102-19-40 0-75 7-105 20s-54 32-72 56-28 51-31 81c-3 29-5 79-5 150v120c0 72 2 123 5 152 4 29 14 56 33 80 7 9 15 18 23 25zm147-511c0-24-1-41-3-52 3-1 6-1 9-1 11 0 18 5 22 14s5 30 5 63v323c0 41-2 68-5 79s-11 16-24 16c-12 0-20-5-23-14-1-2-1-5-2-9 8-2 13-7 15-15 3-11 5-37 5-79v-323zm-686-181h186c50 0 89 4 116 12 26 8 46 18 59 32-8-4-16-7-26-10-27-8-66-12-116-12h-186v680h-33v-703zm218 297c7-2 12-5 15-10 6-8 10-25 10-51v-58c0-14-1-26-4-34 12 2 21 5 26 10 8 7 11 23 11 47v58c0 26-3 43-10 51s-18 12-35 12h-13zm-369 527h-33v-98h33zm-425 0h-33v-98h27l-25-169h36c20-58 36-133 49-227s19-197 19-308v-21h409v23h-375v21c0 111-6 214-19 308s-29 170-49 227h-38v245zm515-268h4v23h-4zm-218 0v-394h33v417h-99c2-8 3-15 5-23zm-442-555l3 23h-237l-91 680h-11c-8-22-13-53-12-91v-4l81-608zm-51 703h-32l-8-104h32zm-459 0h-17c-20-18-30-52-30-103v-137c0-13-3-25-9-34 10 2 19 7 27 15 10 11 16 24 16 42v137c0 34 4 61 13 80zm-255 0h-33v-703h185v23h-151v680zm185-416c12-9 19-25 20-47l3-137c1-51 11-85 30-102h170c-5 6-10 13-13 23h-124c-19 18-28 52-30 102l-3 137c-1 37-19 56-53 57zm138 81c12 6 22 13 30 21-17-8-36-13-59-16 11-1 20-3 30-5zm344 84c-4-39-9-82-13-129 5-42 11-90 19-144 10 118 19 216 28 296h-63c1-7 1-15 2-23zm-996-452l3 23h-237l-91 680h-34v-15l92-688zm-51 703h-32l-8-104h32zm-47-251c-4-39-9-82-13-129 5-42 11-90 19-144 10 118 19 216 28 296h-63c1-7 1-15 2-23zm-445 251h-33v-540h33zm-298 0h-21v-118h-13v-3c23 0 38-3 46-8 9-5 13-24 13-56v-517h423v23h-390v517c0 32-4 51-13 56s-24 8-46 8v98zm-374-703h308v23h-274v680h-33v-703zm218 275h81v23h-81zm0 288h102v23h-102zm-369 261h-33v-98h33zm-425 0h-33v-268h38c20-58 36-133 49-227s19-197 19-308v-21h409v23h-375v21c0 111-6 214-19 308s-29 170-49 227h-38v245zm515-268h4v23h-4zm-218 0v-394h33v417h-99c2-8 3-15 5-23zm-347-555v23h-369v118h-33v-140h403zm-260 703h-33v-540h33zm-512-11c-23-12-42-28-57-48-18-25-29-51-33-80-3-29-5-80-5-152v-120c0-71 2-121 5-150s14-56 31-81c18-24 42-43 72-56s65-20 105-20c38 0 72 6 102 19 19 8 35 18 50 30-5-3-11-5-16-8-30-12-64-19-102-19-40 0-75 7-105 20s-54 32-72 56-28 51-31 81c-3 29-5 79-5 150v120c0 72 2 123 5 152 4 29 14 56 33 80 7 9 15 18 23 25zm147-511c0-24-1-41-3-52 3-1 6-1 9-1 11 0 18 5 22 14s5 30 5 63v323c0 41-2 68-5 79s-11 16-24 16c-12 0-20-5-23-14-1-2-1-5-2-9 8-2 13-7 15-15 3-11 5-37 5-79v-323zm-617 522h-33v-289c8-3 19-4 33-4v294zm-227 0h-33v-210c0-36 2-63 6-81 4-19 13-34 27-46 10-9 24-16 43-23 15 8 34 13 59 15-31 8-54 18-68 30s-23 28-27 46c-4 19-6 46-6 81v187zm21-377c-17-6-29-15-36-26-13-20-19-56-19-108 0-47 6-84 17-110 12-27 29-45 51-57s48-19 77-21c29-3 74-4 136-4h131v23h-98c-62 0-107 1-136 4-29 2-55 9-77 21s-39 31-51 57c-12 27-17 63-17 110 0 52 6 88 19 108 1 1 2 2 3 4zm172-50v-129c7-3 15-4 25-4h9v156c-24 0-39-4-46-12-2-3-4-7-6-12 5 1 11 1 18 1zm-451 427h-33v-540h33zm-298 0h-25v-121c18-1 31-3 38-8 9-5 13-24 13-56v-517h423v23h-390v517c0 32-4 51-13 56s-24 8-46 8zm-152 121h-33v-98h33zm-425 0h-33v-268h38c20-58 36-133 49-227s19-197 19-308v-21h409v23h-375v21c0 111-6 214-19 308s-29 170-49 227h-38v245zm515-268h4v23h-4zm-218 0v-394h33v417h-99c2-8 3-15 5-23zm6275-937h-33v-703h185v23h-151v680zm185-462c54 0 96 3 124 10 22 5 40 15 54 29-6-3-13-5-20-6-29-7-72-10-129-10h-29zm27 277v-102c0-18-1-31-3-40 14 2 24 5 28 9 6 6 9 24 9 54v102c0 31-4 50-13 56-8 6-24 9-48 9v-26c6-1 11-3 14-6 8-6 13-25 13-56zm-392 306h-33v-98h33zm-572-121h-33v-703h185v23h-151v680zm185-140h20v-563h185v23h-151v563h-53v-23zm238 0h21v-563h185v23h-151v563h-55zm239 0h4v23h-4zm-1096 130c-23-12-42-28-57-48-18-25-29-51-33-80-3-29-5-80-5-152v-120c0-71 2-121 5-150s14-56 31-81c18-24 42-43 72-56s65-20 105-20c38 0 72 6 102 19 19 8 35 18 50 30-5-3-11-5-16-8-30-12-64-19-102-19-40 0-75 7-105 20s-54 32-72 56-28 51-31 81c-3 29-5 79-5 150v120c0 72 2 123 5 152 4 29 14 56 33 80 7 9 15 18 23 25zm147-511c0-24-1-41-3-52 3-1 6-1 9-1 11 0 18 5 22 14s5 30 5 63v323c0 41-2 68-5 79s-11 16-24 16c-12 0-20-5-23-14-1-2-1-5-2-9 8-2 13-7 15-15 3-11 5-37 5-79v-323zm-310-181v23h-207l-42 328-19-132 28-219zm-128 703h-33v-207l33-245zm-181 0h-30l-35-237v-205l64 441zm-226 0h-33v-703h238l4 23h-209zm-434-11c-23-12-42-28-57-48-18-25-29-51-33-80-3-29-5-80-5-152v-120c0-71 2-121 5-150s14-56 31-81c18-24 42-43 72-56s65-20 105-20c38 0 72 6 102 19 19 8 35 18 50 30-5-3-11-5-16-8-30-12-64-19-102-19-40 0-75 7-105 20s-54 32-72 56-28 51-31 81c-3 29-5 79-5 150v120c0 72 2 123 5 152 4 29 14 56 33 80 7 9 15 18 23 25zm147-511c0-24-1-41-3-52 3-1 6-1 9-1 11 0 18 5 22 14s5 30 5 63v323c0 41-2 68-5 79s-11 16-24 16c-12 0-20-5-23-14-1-2-1-5-2-9 8-2 13-7 15-15 3-11 5-37 5-79v-323zm-462 522h-33v-540h33zm-238 0h-33v-703h423v23h-390zm-415 0h-33v-289c8-3 19-4 33-4v294zm-227 0h-33v-210c0-36 2-63 6-81 4-19 13-34 27-46 10-9 24-16 43-23 15 8 34 13 59 15-31 8-54 18-68 30s-23 28-27 46c-4 19-6 46-6 81v187zm21-377c-17-6-29-15-36-26-13-20-19-56-19-108 0-47 6-84 17-110 12-27 29-45 51-57s48-19 77-21c29-3 74-4 136-4h131v23h-98c-62 0-107 1-136 4-29 2-55 9-77 21s-39 31-51 57c-12 27-17 63-17 110 0 52 6 88 19 108 1 1 2 2 3 4zm172-50v-129c7-3 15-4 25-4h9v156c-24 0-39-4-46-12-2-3-4-7-6-12 5 1 11 1 18 1zm-363-276l3 23h-237l-91 680h-36l94-703zm-51 703h-32l-8-104h32zm-47-251c-4-39-9-82-13-129 5-42 11-90 19-144 10 118 19 216 28 296h-63c1-7 1-15 2-23zm-670-452h186c50 0 89 4 116 12 26 8 46 18 59 32-8-4-16-7-26-10-27-8-66-12-116-12h-186v680h-33v-703zm218 297c7-2 12-5 15-10 6-8 10-25 10-51v-58c0-14-1-26-4-34 12 2 21 5 26 10 8 7 11 23 11 47v58c0 26-3 43-10 51s-18 12-35 12h-13zm-619 395c-23-12-42-28-57-48-18-25-29-51-33-80-3-29-5-80-5-152v-120c0-71 2-121 5-150s14-56 31-81c18-24 42-43 72-56s65-20 105-20c38 0 72 6 102 19 19 8 35 18 50 30-5-3-11-5-16-7-30-12-64-19-102-19-40 0-75 7-105 20s-54 32-72 56-28 51-31 81c-3 29-5 79-5 150v120c0 72 2 123 5 152 4 29 15 56 33 80 7 9 15 18 23 25zm147-511c0-24-1-41-3-52 3-1 6-1 9-1 11 0 18 5 22 14s5 30 5 63v323c0 41-2 68-5 79s-11 16-24 16c-12 0-20-5-23-14-1-2-1-5-2-9 8-2 13-7 15-15 3-11 5-37 5-79v-323zm-717-181h185v23h-151v680h-33v-703zm219 287c12-9 19-25 20-47l3-137c1-51 11-85 30-102h170c-5 6-10 13-13 23h-124c-19 18-28 52-30 102l-3 137c-1 37-19 56-53 57zm138 81c12 6 22 13 30 21-17-8-36-13-59-16 11-1 20-3 30-5zm-69 335h-17c-20-18-30-52-30-103v-137c0-13-3-25-9-34 10 2 19 7 27 15 10 11 16 24 16 42v137c0 34 4 61 13 80zm-506-396h-33v-122c0-26-1-45-3-57h5c13 0 22 4 26 13s6 31 6 67v99zm-62 292c11-1 19-6 23-16s6-35 6-74v-88h185v23h-151v88c0 39-2 63-6 74s-13 16-27 16-23-5-27-16c-1-2-1-4-2-7zm-132 92l-4-2c-35-19-58-46-70-81-11-34-17-86-17-155v-205c0-51 2-89 5-114 4-25 14-50 31-73s41-42 72-55 66-20 106-20c54 0 99 10 134 31 10 6 20 13 28 19-35-19-77-28-129-28-40 0-75 7-106 20s-55 32-72 55-28 48-31 73-5 63-5 114v205c0 69 6 120 17 155 8 23 21 43 40 60zm-4030-707h1423c50 0 96 18 132 48-29-16-63-25-98-25H1050c-57 0-108 23-146 61-37 37-61 89-61 146v1423c0 57 23 108 61 146 5 5 9 9 14 13-18-10-34-22-48-36-37-37-61-89-61-146V5480c0-57 23-108 61-146 37-37 89-61 146-61zm-71 1771c21 11 46 17 71 17h1423c44 0 83-18 112-47s47-68 47-112V5479c0-44-18-83-47-112l-7-7c15 8 29 18 41 30 29 29 47 68 47 112v1423c0 44-18 83-47 112s-68 47-112 47H1050c-40 0-77-15-105-40z" id="path141" fill="#f60" fill-opacity=".2"/><path class="fil24" d="M1067 5898h379v-379h572v15h-551v379h-379v557h-21zm972 0h358v15h-358zm-572 951h-21v-364h21zm10038-479h184c58 0 102 4 132 13 18 5 34 14 48 27-8-5-18-9-27-12-30-9-74-13-132-13h-184v688h-21zm355 334c16 6 29 14 39 24-15-8-33-15-55-20 5-1 11-3 16-4zm-150-58c16 0 26-5 31-13 5-9 7-34 7-76 0-22-2-37-6-46-1-1-1-2-2-3 3 0 5 1 7 2 6 2 12 8 16 17s6 24 6 46c0 42-2 67-7 76s-16 13-34 13h-18zm0 305c14-2 23-5 28-10 7-7 10-25 10-54v-66c0-22-2-38-5-47 8 2 14 4 17 7 6 7 9 25 9 55v66c0 28-3 46-10 54-7 7-23 11-49 12zm-617 105c-18-11-34-25-46-42-18-25-29-51-33-80-3-29-5-80-5-152v-120c0-71 2-121 5-150s14-56 31-81c18-24 42-43 72-56s65-20 105-20c38 0 72 6 102 19 18 7 34 17 48 28-8-5-17-9-26-13-30-12-64-19-102-19-40 0-75 7-105 20s-54 32-72 56-28 51-31 81c-3 29-5 79-5 150v120c0 72 2 123 5 152 4 29 14 56 33 80 7 10 16 19 25 27zm157-505c0-31-2-51-5-61 10 0 17 5 21 14s5 30 5 63v323c0 41-2 68-5 79s-11 16-24 16c-12 0-20-5-23-14v-1h2c12 0 20-5 24-16 3-11 5-37 5-79v-323zm-686-181h186c50 0 89 4 116 12 24 7 43 17 57 29-10-6-22-10-35-14-27-8-66-12-116-12h-186v688h-21v-703zm206 299c13-1 22-5 28-12 6-8 10-25 10-51v-58c0-18-2-31-6-40 7 2 12 4 16 8 8 7 11 23 11 47v58c0 26-3 43-10 51s-18 12-35 12h-13v-15zm-369 525h-21v-106h21zm-425 0h-21v-106h14l-14-96v-65h38c20-58 36-133 49-227s19-197 19-308v-21h409v15h-388v21c0 111-6 214-19 308s-29 170-49 227h-38zm515-268h17v15h-17zm-206 0v-402h21v417h-99l3-15h74zm-442-555l2 15h-248l-92 688h-7c-5-10-8-22-11-37l89-666zm-63 703h-20l-9-111h20zm-455 0h-9c-20-18-30-52-30-103v-137c0-16-4-29-13-39 7 3 13 7 18 12 10 11 16 24 16 42v137c0 39 6 68 17 87zm-259 0h-21v-703h185v15h-164zm186-410c20-7 31-25 32-54l3-137c1-51 11-85 30-102h170c-4 4-7 9-10 15h-139c-19 18-28 52-30 102l-3 137c-1 37-19 56-53 57v-19zm135 68c17 6 31 14 43 25-18-10-41-17-69-20 9-1 18-3 26-4zm360 91c-6-55-12-118-19-191 4-28 8-58 12-90 10 118 19 216 28 296h-63l1-15h40zm-996-452l2 15h-248l-92 688h-23l94-703zm-63 703h-20l-9-111h20zm-35-251c-6-55-12-118-19-191 4-28 8-58 12-90 10 118 19 216 28 296h-63l1-15h40zm-457 251h-21v-547h21zm-298 0h-20v-121c22 0 37-3 46-8s13-24 13-56v-517h423v15h-402v517c0 32-4 51-13 56s-24 8-46 8v106zm-361-703h308v15h-286v688h-21v-703zm206 275h94v15h-94zm0 288h114v15h-114zm-369 261h-21v-106h21zm-425 0h-21v-268h38c20-58 36-133 49-227s19-197 19-308v-21h409v15h-388v21c0 111-6 214-19 308s-29 170-49 227h-38v252zm515-268h17v15h-17zm-206 0v-402h21v417h-99l3-15h74zm-347-555v15h-382v125h-21v-140zm-272 703h-21v-547h21zm-510-17c-18-11-34-25-46-42-18-25-29-51-33-80-3-29-5-80-5-152v-120c0-71 2-121 5-150s14-56 31-81c18-24 42-43 72-56s65-20 105-20c38 0 72 6 102 19 18 7 34 17 48 28-8-5-17-9-26-13-30-12-64-19-102-19-40 0-75 7-105 20s-54 32-72 56-28 51-31 81c-3 29-5 79-5 150v120c0 72 2 123 5 152 4 29 14 56 33 80 7 10 16 19 25 27zm157-505c0-31-2-51-5-61 10 0 17 5 21 14s5 30 5 63v323c0 41-2 68-5 79s-11 16-24 16c-12 0-20-5-23-14v-1h2c12 0 20-5 24-16 3-11 5-37 5-79v-323zm-629 522h-21v-300c6-1 13-1 21-1zm-227 0h-21v-210c0-36 2-63 6-81 4-19 13-34 27-46 11-9 26-17 46-24 12 4 27 7 44 8-31 8-54 18-68 30s-23 28-27 46c-4 19-6 46-6 81v194zm24-381c-12-6-21-13-27-22-13-20-19-56-19-108 0-47 6-84 17-110 12-27 29-45 51-57s48-19 77-21c29-3 74-4 136-4h131v15h-110c-62 0-107 1-136 4-29 2-55 9-77 21s-39 31-51 57c-12 27-17 63-17 110 0 52 6 88 19 108 2 3 3 5 6 7zm181-46v-140c4-1 8-1 12-1h9v156c-24 0-39-4-46-12-1-2-2-4-4-6 7 2 17 3 28 3zm-463 427h-21v-547h21zm-298 0h-21v-121c23 0 38-3 46-8 9-5 13-24 13-56v-517h423v15h-402v517c0 32-4 51-13 56s-24 8-46 8zm-152 121h-21v-106h21zm-425 0h-21v-268h38c20-58 36-133 49-227s19-197 19-308v-21h409v15h-388v21c0 111-6 214-19 308s-29 170-49 227h-38v252zm515-268h17v15h-17zm-206 0v-402h21v417h-99l3-15h74zm6263-937h-21v-703h185v15h-164zm185-462h8c57 0 100 3 129 10 20 5 37 13 50 26-9-5-19-8-29-11-29-7-72-10-129-10h-29zm39 277v-102c0-22-2-37-5-46 8 2 14 4 17 7 6 6 9 24 9 54v102c0 31-4 50-13 56-8 6-24 9-48 9v-16c12-1 21-4 26-8 8-6 13-25 13-56zm-405 306h-21v-106h21zm-572-121h-21v-703h185v15h-164zm185-140h32v-563h185v15h-164v563h-53zm238 0h34v-563h185v15h-164v563h-55zm239 0h17v15h-17zm-1094 124c-18-11-34-25-46-42-18-25-29-51-33-80-3-29-5-80-5-152v-120c0-71 2-121 5-150s14-56 31-81c18-24 42-43 72-56s65-20 105-20c38 0 72 6 102 19 18 7 34 17 48 28-8-5-17-9-26-13-30-12-64-19-102-19-40 0-75 7-105 20s-54 32-72 56-28 51-31 81c-3 29-5 79-5 150v120c0 72 2 123 5 152 4 29 14 56 33 80 7 10 16 19 25 27zm157-505c0-31-2-51-5-61 10 0 17 5 21 14s5 30 5 63v323c0 41-2 68-5 79s-11 16-24 16c-12 0-20-5-23-14v-1h2c12 0 20-5 24-16 3-11 5-37 5-79v-323zm-310-181v15h-219l-42 328-12-84 33-260h240zm-140 703h-21v-305l21-155v459zm-180 0h-19l-47-321v-128l65 449zm-227 0h-21v-703h238l2 15h-220v688zm-432-17c-18-11-34-25-46-42-18-25-29-51-33-80-3-29-5-80-5-152v-120c0-71 2-121 5-150s14-56 31-81c18-24 42-43 72-56s65-20 105-20c38 0 72 6 102 19 18 7 34 17 48 28-8-5-17-9-26-13-30-12-64-19-102-19-40 0-75 7-105 20s-54 32-72 56-28 51-31 81c-3 29-5 79-5 150v120c0 72 2 123 5 152 4 29 14 56 33 80 7 10 16 19 25 27zm157-505c0-31-2-51-5-61 10 0 17 5 21 14s5 30 5 63v323c0 41-2 68-5 79s-11 16-24 16c-12 0-20-5-23-14v-1h2c12 0 20-5 24-16 3-11 5-37 5-79v-323zm-474 522h-21v-547h21zm-238 0h-21v-703h423v15h-402zm-415 0h-21v-300c6-1 13-1 21-1zm-227 0h-21v-210c0-36 2-63 6-81 4-19 13-34 27-46 11-9 26-17 46-24 12 4 27 7 44 8-31 8-54 18-68 30s-23 28-27 46c-4 19-6 46-6 81v194zm24-381c-12-6-21-13-27-22-13-20-19-56-19-108 0-47 6-84 17-110 12-27 29-45 51-57s48-19 77-21c29-3 74-4 136-4h131v15h-110c-62 0-107 1-136 4-29 2-55 9-77 21s-39 31-51 57c-12 27-17 63-17 110 0 52 6 88 19 108 2 3 3 5 6 7zm181-46v-140c4-1 8-1 12-1h9v156c-24 0-39-4-46-12-1-2-2-4-4-6 7 2 17 3 28 3zm-363-276l2 15h-248l-92 688h-23l94-703zm-63 703h-20l-9-111h20zm-35-251c-6-55-12-118-19-191 4-28 8-58 12-90 10 118 19 216 28 296h-63l1-15h40zm-670-452h186c50 0 89 4 116 12 24 7 43 17 57 29-10-6-22-10-35-14-27-8-66-12-116-12h-186v688h-21v-703zm206 299c13-1 22-5 28-12 6-8 10-25 10-51v-58c0-18-2-31-6-40 7 2 12 4 16 8 8 7 11 23 11 47v58c0 26-3 43-10 51s-18 12-35 12h-13v-15zm-617 387c-18-11-34-25-46-42-18-25-29-51-33-80-3-29-5-80-5-152v-120c0-71 2-121 5-150s14-56 31-81c18-24 42-43 72-56s65-20 105-20c38 0 72 6 102 19 18 7 34 17 48 28-8-5-17-9-26-13-30-12-64-19-102-19-40 0-75 7-105 20s-54 32-72 56-28 51-31 81c-3 29-5 79-5 150v120c0 72 2 123 5 152 4 29 15 56 33 80 7 10 16 19 25 27zm157-505c0-31-2-51-5-61 10 0 17 5 21 14s5 30 5 63v323c0 41-2 68-5 79s-11 16-24 16c-12 0-20-5-23-14v-1h2c12 0 20-5 24-16 3-11 5-37 5-79v-323zm-717-181h185v15h-164v688h-21zm207 293c20-7 31-25 32-54l3-137c1-51 11-85 30-102h170c-4 4-7 9-10 15h-139c-19 18-28 52-30 102l-3 137c-1 37-19 56-53 57v-19zm135 68c17 6 31 14 43 25-18-10-41-17-69-20 9-1 18-3 26-4zm-61 341h-9c-20-18-30-52-30-103v-137c0-16-4-29-13-39 7 3 13 7 18 12 10 11 16 24 16 42v137c0 39 6 68 17 87zm-510-396h-21v-122c0-33-2-54-5-64 10 1 17 5 20 13 4 9 6 31 6 67v107zm-60 292h6c14 0 23-5 27-16 4-10 6-35 6-74v-88h185v15h-164v88c0 39-2 63-6 74s-13 16-27 16-23-5-27-15zm-132 87c-31-19-52-45-63-77-11-34-17-86-17-155v-205c0-51 2-89 5-114 4-25 14-50 31-73s41-42 72-55 66-20 106-20c54 0 99 10 134 31 10 6 19 12 26 18-2-1-4-2-5-3-35-21-80-31-134-31-40 0-75 7-106 20s-55 32-72 55-28 48-31 73-5 63-5 114v205c0 69 6 120 17 155 8 24 22 45 42 62zm-4020-701h1423c49 0 95 17 130 46-32-20-69-31-109-31H1038c-57 0-108 23-146 61-37 37-61 89-61 146v1423c0 57 23 108 61 146 5 5 10 10 16 14-13-8-26-18-37-29-37-37-61-89-61-146V5480c0-57 23-108 61-146 37-37 89-61 146-61zm-81 1765c24 14 52 23 81 23h1423c44 0 83-18 112-47s47-68 47-112V5479c0-44-18-83-47-112-3-3-6-6-10-9 11 7 22 15 31 24 29 29 47 68 47 112v1423c0 44-18 83-47 112s-68 47-112 47H1038c-39 0-75-14-102-38z" id="path143" fill="#f60" fill-opacity=".2"/><path class="fil24" d="M1067 5898h379v-379h572v6h-564v379h-379v566h-8zm960 0h371v6h-371zm-572 951h-8v-373h8zm10051-479h184c58 0 102 4 132 13 17 5 32 13 45 24-11-8-23-14-37-18-30-9-74-13-132-13h-184v697h-8zm336 327c24 7 42 16 56 28-16-11-37-19-64-26 3-1 6-1 9-2zm-143-51h10c18 0 29-4 34-13s7-34 7-76c0-22-2-37-6-46-2-4-4-7-6-10 6 3 11 8 15 16 4 9 6 24 6 46 0 42-2 67-7 76s-16 13-34 13h-18v-7zm0 306c21-1 34-5 40-12 7-7 10-25 10-54v-66c0-27-3-45-8-53 3 1 5 3 7 4 6 7 9 25 9 55v66c0 28-3 46-10 54-7 7-23 11-49 12v-7zm-615 97c-14-10-26-21-36-35-18-25-29-51-33-80-3-29-5-80-5-152v-120c0-71 2-121 5-150s14-56 31-81c18-24 42-43 72-56s65-20 105-20c38 0 72 6 102 19 17 7 32 16 46 27-11-8-24-15-37-20-30-12-64-19-102-19-40 0-75 7-105 20s-54 32-72 56-28 51-31 81c-3 29-5 79-5 150v120c0 72 2 123 5 152 4 29 14 56 33 80 8 11 17 20 27 29zm167-498c0-33-2-53-5-63-1-2-2-4-3-5 5 2 9 6 11 12 4 9 5 30 5 63v323c0 41-2 68-5 79s-11 16-24 16c-9 0-16-3-20-8 3 1 7 2 11 2 12 0 20-5 24-16 3-11 5-37 5-79v-323zm-686-181h186c50 0 89 4 116 12 22 7 40 15 53 27-12-8-27-15-45-20-27-8-66-12-116-12h-186v697h-8v-703zm193 299h5c17 0 29-4 35-12s10-25 10-51v-58c0-22-3-37-10-45 3 1 5 3 7 5 8 7 11 23 11 47v58c0 26-3 43-10 51s-18 12-35 12h-13v-6zm-369 524h-8v-114h8zm-425 0h-8v-114h2l-2-12v-141h38c20-58 36-133 49-227s19-197 19-308v-21h409v6h-400v21c0 111-6 214-19 308s-29 170-49 227h-38v261zm515-268h29v6h-29zm-193 0v-410h8v417h-99l1-6h89zm-442-555l1 6h-259l-93 697h-2l-6-12 92-691zm-75 703h-8l-10-120h8zm-450 0h-2c-20-18-30-52-30-103v-137c0-17-5-31-16-42l-1-1c4 2 7 5 10 8 10 11 16 24 16 42v137c0 45 8 77 23 96zm-266 0h-8v-703h185v6h-176v697zm186-407c29-4 44-23 45-57l3-137c1-51 11-85 30-102h170c-2 2-4 4-5 6h-157c-19 18-28 52-30 102l-3 137c-1 37-19 56-53 57v-7zm125 59c26 6 47 15 63 29-20-14-46-22-78-26 5-1 11-1 16-2zm382 97c-8-70-16-154-24-254l5-36c10 118 19 216 28 296h-63l1-6h54zm-996-452l1 6h-259l-93 697h-9l94-703h267zm-75 703h-8l-10-120h8zm-23-251c-8-70-16-154-24-254l5-36c10 118 19 216 28 296h-63l1-6h54zm-470 251h-8v-556h8zm-298 0h-8v-121c23 0 38-3 46-8 9-5 13-24 13-56v-517h423v6h-415v517c0 32-4 51-13 56s-24 8-46 8v114zm-349-703h308v6h-299v697h-8v-703zm193 275h106v6h-106zm0 288h127v6h-127zm-369 261h-8v-114h8zm-425 0h-8v-268h38c20-58 36-133 49-227s19-197 19-308v-21h409v6h-400v21c0 111-6 214-19 308s-29 170-49 227h-38v261zm515-268h29v6h-29zm-193 0v-410h8v417h-99l1-6h89zm-347-555v6h-394v134h-8v-140h403zm-285 703h-8v-556h8zm-508-24c-14-10-26-21-36-35-18-25-29-51-33-80-3-29-5-80-5-152v-120c0-71 2-121 5-150s14-56 31-81c18-24 42-43 72-56s65-20 105-20c38 0 72 6 102 19 17 7 32 16 46 27-11-8-24-15-37-20-30-12-64-19-102-19-40 0-75 7-105 20s-54 32-72 56-28 51-31 81c-3 29-5 79-5 150v120c0 72 2 123 5 152 4 29 14 56 33 80 8 11 17 20 27 29zm167-498c0-33-2-53-5-63-1-2-2-4-3-5 5 2 9 6 11 12 4 9 5 30 5 63v323c0 41-2 68-5 79s-11 16-24 16c-9 0-16-3-20-8 3 1 7 2 11 2 12 0 20-5 24-16 3-11 5-37 5-79v-323zm-642 522h-8v-310h8zm-227 0h-8v-210c0-36 2-63 6-81 4-19 13-34 27-46 12-10 31-19 55-27l21 3c-31 8-54 18-68 30s-23 28-27 46c-4 19-6 46-6 81v203zm28-386c-8-5-13-11-18-17-13-20-19-56-19-108 0-47 6-84 17-110 12-27 29-45 51-57s48-19 77-21c29-3 74-4 136-4h131v6h-122c-62 0-107 1-136 4-29 2-55 9-77 21s-39 31-51 57c-12 27-17 63-17 110 0 52 6 88 19 108 3 4 6 8 9 11zm190-41v-149h8v156c-24 0-39-4-46-12 8 4 21 6 38 6zm-476 427h-8v-556h8zm-298 0h-8v-121c23 0 38-3 46-8 9-5 13-24 13-56v-517h423v6h-415v517c0 32-4 51-13 56s-24 8-46 8v114zm-152 121h-8v-114h8zm-425 0h-8v-268h38c20-58 36-133 49-227s19-197 19-308v-21h409v6h-400v21c0 111-6 214-19 308s-29 170-49 227h-38v261zm515-268h29v6h-29zm-193 0v-410h8v417h-99l1-6h89zm6250-937h-8v-703h185v6h-176v697zm185-462h20c57 0 100 3 129 10 19 4 34 12 47 23-11-7-24-13-39-16-29-7-72-10-129-10h-29v-6zm52 277v-102c0-27-2-44-7-52 3 1 5 3 7 4 6 6 9 24 9 54v102c0 31-4 50-13 56-8 6-24 9-48 9v-7c19-1 32-4 39-9 8-6 13-25 13-56zm-417 306h-8v-114h8zm-572-121h-8v-703h185v6h-176v697zm185-140h44v-563h185v6h-176v563h-53zm238 0h46v-563h185v6h-176v563h-55zm239 0h29v6h-29zm-1092 117c-14-10-26-21-36-35-18-25-29-51-33-80-3-29-5-80-5-152v-120c0-71 2-121 5-150s14-56 31-81c18-24 42-43 72-56s65-20 105-20c38 0 72 6 102 19 17 7 32 16 46 27-11-8-24-15-37-20-30-12-64-19-102-19-40 0-75 7-105 20s-54 32-72 56-28 51-31 81c-3 29-5 79-5 150v120c0 72 2 123 5 152 4 29 14 56 33 80 8 11 17 20 27 29zm167-498c0-33-2-53-5-63-1-2-2-4-3-5 5 2 9 6 11 12 4 9 5 30 5 63v323c0 41-2 68-5 79s-11 16-24 16c-9 0-16-3-20-8 3 1 7 2 11 2 12 0 20-5 24-16 3-11 5-37 5-79v-323zm-310-181v6h-232l-42 328-5-34 38-301h240zm-153 703h-8v-406l8-62zm-178 0h-7l-59-407v-51l67 457zm-229 0h-8v-703h238l1 6h-231zm-430-24c-14-10-26-21-36-35-18-25-29-51-33-80-3-29-5-80-5-152v-120c0-71 2-121 5-150s14-56 31-81c18-24 42-43 72-56s65-20 105-20c38 0 72 6 102 19 17 7 32 16 46 27-11-8-24-15-37-20-30-12-64-19-102-19-40 0-75 7-105 20s-54 32-72 56-28 51-31 81c-3 29-5 79-5 150v120c0 72 2 123 5 152 4 29 14 56 33 80 8 11 17 20 27 29zm167-498c0-33-2-53-5-63-1-2-2-4-3-5 5 2 9 6 11 12 4 9 5 30 5 63v323c0 41-2 68-5 79s-11 16-24 16c-9 0-16-3-20-8 3 1 7 2 11 2 12 0 20-5 24-16 3-11 5-37 5-79v-323zm-487 522h-8v-556h8zm-238 0h-8v-703h423v6h-415zm-415 0h-8v-310h8zm-227 0h-8v-210c0-36 2-63 6-81 4-19 13-34 27-46 12-10 31-19 55-27l21 3c-31 8-54 18-68 30s-23 28-27 46c-4 19-6 46-6 81v203zm28-386c-8-5-13-11-18-17-13-20-19-56-19-108 0-47 6-84 17-110 12-27 29-45 51-57s48-19 77-21c29-3 74-4 136-4h131v6h-122c-62 0-107 1-136 4-29 2-55 9-77 21s-39 31-51 57c-12 27-17 63-17 110 0 52 6 88 19 108 3 4 6 8 9 11zm190-41v-149h8v156c-24 0-39-4-46-12 8 4 21 6 38 6zm-363-276l1 6h-259l-93 697h-9l94-703h267zm-75 703h-8l-10-120h8zm-23-251c-8-70-16-154-24-254l5-36c10 118 19 216 28 296h-63l1-6h54zm-670-452h186c50 0 89 4 116 12 22 7 40 15 53 27-12-8-27-15-45-20-27-8-66-12-116-12h-186v697h-8v-703zm193 299h5c17 0 29-4 35-12s10-25 10-51v-58c0-22-3-37-10-45 3 1 5 3 7 5 8 7 11 23 11 47v58c0 26-3 43-10 51s-18 12-35 12h-13v-6zm-615 380c-14-10-26-21-36-35-18-25-29-51-33-80-3-29-5-80-5-152v-120c0-71 2-121 5-150s14-56 31-81c18-24 42-43 72-56s65-20 105-20c38 0 72 6 102 19 17 7 32 16 45 27-11-8-24-15-37-20-30-12-64-19-102-19-40 0-75 7-105 20s-54 32-72 56-28 51-31 81c-3 29-5 79-5 150v120c0 72 2 123 5 152 4 29 15 56 33 80 8 11 17 20 27 29zm167-498c0-33-2-53-5-63-1-2-2-4-3-5 5 2 9 6 11 12 4 9 5 30 5 63v323c0 41-2 68-5 79s-11 16-24 16c-9 0-16-3-20-8 3 1 7 2 11 2 12 0 20-5 24-16 3-11 5-37 5-79v-323zm-717-181h185v6h-176v697h-8v-703zm194 296c29-4 44-23 45-57l3-137c1-51 11-85 30-102h170c-2 2-4 4-5 6h-157c-19 18-28 52-30 102l-3 137c-1 37-19 56-53 57v-7zm125 59c26 6 47 15 63 29-20-14-46-22-78-26 5-1 11-1 16-2zm-45 348h-2c-20-18-30-52-30-103v-137c0-17-5-31-16-42l-1-1c4 2 7 5 10 8 10 11 16 24 16 42v137c0 45 8 77 23 96zm-516-396h-8v-122c0-36-2-58-6-67-1-1-1-3-2-4 5 2 9 6 11 11 4 9 6 31 6 67v116zm-57 290c4 2 9 3 15 3 14 0 23-5 27-16 4-10 6-35 6-74v-88h185v6h-176v88c0 39-2 63-6 74s-13 16-27 16c-11 0-19-3-24-9zm-134 82c-25-18-43-41-52-70-11-34-17-86-17-155v-205c0-51 2-89 5-114 4-25 14-50 31-73s41-42 72-55 66-20 106-20c54 0 99 10 134 31 9 5 18 11 25 17-5-4-11-7-17-11-35-21-80-31-134-31-40 0-75 7-106 20s-55 32-72 55-28 48-31 73-5 63-5 114v205c0 69 6 120 17 155 8 25 23 46 44 63zm-4009-694h1423c49 0 94 17 129 46-34-25-76-39-121-39H1019c-57 0-108 23-146 61-37 37-61 89-61 146v1423c0 57 23 108 61 146 5 5 11 10 17 15-9-6-17-14-25-21-37-37-61-89-61-146V5481c0-57 23-108 61-146 37-37 89-61 146-61zm-92 1759c26 18 58 29 92 29h1423c44 0 83-18 112-47s47-68 47-112V5479c0-44-18-83-47-112-4-4-8-7-12-11 7 5 14 11 20 17 29 29 47 68 47 112v1423c0 44-18 83-47 112s-68 47-112 47H1019c-38 0-73-13-100-36z" id="path145" fill="#f60" fill-opacity=".2"/></g></svg>