<?xml version="1.0" encoding="utf-8"?>
<!-- Generator: Adobe Illustrator 25.4.1, SVG Export Plug-In . SVG Version: 6.00 Build 0)  -->
<svg version="1.1" id="Capa_1" xmlns="http://www.w3.org/2000/svg" xmlns:xlink="http://www.w3.org/1999/xlink" x="0px" y="0px"
	 viewBox="0 0 31.9 31.9" style="enable-background:new 0 0 31.9 31.9;" xml:space="preserve">
<style type="text/css">
	.st0{fill:#FF7754;}
</style>
<rect x="6.3" y="23.6" class="st0" width="9.7" height="4.5"/>
<rect x="6" y="3.5" class="st0" width="9.9" height="5.4"/>
<rect x="3" y="8" class="st0" width="13" height="16.4"/>
<g>
	<g>
		<path d="M16,31.9c8.8,0,16-7.2,16-16S24.8,0,16,0C7.2,0,0,7.2,0,16C0,24.8,7.2,31.9,16,31.9z M16,3.7c6.7,0,12.2,5.5,12.2,12.2
			c0,6.7-5.5,12.2-12.2,12.2C9.2,28.2,3.7,22.7,3.7,16C3.7,9.2,9.2,3.7,16,3.7z"/>
		<circle cx="16" cy="25.9" r="1"/>
		<circle cx="16" cy="6.1" r="1"/>
		<circle cx="6" cy="16" r="1"/>
		<circle cx="25.9" cy="16" r="1"/>
		<circle cx="9" cy="23" r="1"/>
		<circle cx="23" cy="9" r="1"/>
		<circle cx="9" cy="9" r="1"/>
		<circle cx="23" cy="23" r="1"/>
		<path d="M9.2,16.9h4.3c0.2,0.7,0.7,1.2,1.3,1.5V22c0,0.7,0.6,1.2,1.2,1.2c0.7,0,1.2-0.6,1.2-1.2v-3.6c0.9-0.5,1.5-1.4,1.5-2.4
			c0-1.5-1.2-2.7-2.7-2.7c-1,0-1.8,0.5-2.3,1.2H9.2c-0.7,0-1.2,0.6-1.2,1.2C7.9,16.4,8.5,16.9,9.2,16.9z"/>
	</g>
</g>
</svg>
