<?xml version="1.0" encoding="utf-8"?>
<!-- Generator: Adobe Illustrator 25.4.1, SVG Export Plug-In . SVG Version: 6.00 Build 0)  -->
<svg version="1.1" id="Capa_1" xmlns="http://www.w3.org/2000/svg" xmlns:xlink="http://www.w3.org/1999/xlink" x="0px" y="0px"
	 viewBox="0 0 31.9 31.9" style="enable-background:new 0 0 31.9 31.9;" xml:space="preserve">
<style type="text/css">
	.st0{fill:#FF7754;}
</style>
<rect x="3.7" y="5.9" class="st0" width="4.8" height="10"/>
<rect x="8" y="2.9" class="st0" width="8" height="13"/>
<g>
	<g>
		<path d="M0,16c0,8.8,7.2,16,16,16s16-7.2,16-16c0-8.8-7.2-16-16-16C7.2,0,0,7.2,0,16z M28.2,16c0,6.7-5.5,12.2-12.2,12.2
			C9.2,28.2,3.7,22.7,3.7,16C3.7,9.2,9.2,3.7,16,3.7C22.7,3.7,28.2,9.2,28.2,16z"/>
		<circle cx="6" cy="16" r="1"/>
		<circle cx="25.8" cy="16" r="1"/>
		<circle cx="15.9" cy="6" r="1"/>
		<circle cx="15.9" cy="25.9" r="1"/>
		<circle cx="8.9" cy="9" r="1"/>
		<circle cx="22.9" cy="23" r="1"/>
		<circle cx="22.9" cy="9" r="1"/>
		<circle cx="8.9" cy="23" r="1"/>
		<path d="M15,9.2v4.3c-0.7,0.2-1.2,0.7-1.5,1.3H9.9c-0.7,0-1.2,0.6-1.2,1.2c0,0.7,0.6,1.2,1.2,1.2h3.6c0.5,0.9,1.4,1.5,2.4,1.5
			c1.5,0,2.7-1.2,2.7-2.7c0-1-0.5-1.8-1.2-2.3V9.2c0-0.7-0.6-1.2-1.2-1.2C15.5,7.9,15,8.5,15,9.2z"/>
	</g>
</g>
</svg>
