<?xml version="1.0" encoding="utf-8"?>
<!-- Generator: Adobe Illustrator 25.4.1, SVG Export Plug-In . SVG Version: 6.00 Build 0)  -->
<svg version="1.1" id="Capa_1" xmlns="http://www.w3.org/2000/svg" xmlns:xlink="http://www.w3.org/1999/xlink" x="0px" y="0px"
	 viewBox="0 0 31.9 31.9" style="enable-background:new 0 0 31.9 31.9;" xml:space="preserve">
<style type="text/css">
	.st0{fill:#FF7754;}
</style>
<rect x="23.5" y="5.9" class="st0" width="4.8" height="10"/>
<rect x="16" y="2.9" class="st0" width="8" height="13"/>
<g>
	<g>
		<path d="M16,0C7.2,0,0,7.2,0,16c0,8.8,7.2,16,16,16s16-7.2,16-16C31.9,7.2,24.8,0,16,0z M16,3.7c6.7,0,12.2,5.5,12.2,12.2
			c0,6.7-5.5,12.2-12.2,12.2C9.2,28.2,3.7,22.7,3.7,16C3.7,9.2,9.2,3.7,16,3.7z"/>
		<circle cx="25.9" cy="16" r="1"/>
		<circle cx="6.1" cy="16" r="1"/>
		<circle cx="16" cy="6" r="1"/>
		<circle cx="16" cy="25.9" r="1"/>
		<circle cx="23" cy="9" r="1"/>
		<circle cx="9" cy="23" r="1"/>
		<circle cx="9" cy="9" r="1"/>
		<circle cx="23" cy="23" r="1"/>
		<path d="M15.7,7.9c-0.7,0-1.2,0.6-1.2,1.2v4.5c-0.7,0.5-1.2,1.3-1.2,2.3c0,1.5,1.2,2.7,2.7,2.7c1.1,0,2-0.6,2.4-1.5H22
			c0.7,0,1.2-0.6,1.2-1.2c0-0.7-0.6-1.2-1.2-1.2h-3.6c-0.3-0.6-0.8-1.1-1.5-1.3V9.2C16.9,8.5,16.4,7.9,15.7,7.9z"/>
	</g>
</g>
</svg>
