<?xml version="1.0" encoding="utf-8"?>
<!-- Generator: Adobe Illustrator 25.4.1, SVG Export Plug-In . SVG Version: 6.00 Build 0)  -->
<svg version="1.1" id="Capa_1" xmlns="http://www.w3.org/2000/svg" xmlns:xlink="http://www.w3.org/1999/xlink" x="0px" y="0px"
	 viewBox="0 0 31.9 31.9" style="enable-background:new 0 0 31.9 31.9;" xml:space="preserve">
<style type="text/css">
	.st0{fill:#FF7754;}
</style>
<rect x="16" y="23.6" class="st0" width="9.7" height="4.8"/>
<rect x="16" y="3.5" class="st0" width="9.9" height="5.4"/>
<rect x="16" y="8" class="st0" width="13" height="16.4"/>
<g>
	<g>
		<path d="M31.9,16c0-8.8-7.2-16-16-16C7.2,0,0,7.2,0,16c0,8.8,7.2,16,16,16C24.8,31.9,31.9,24.8,31.9,16z M28.2,16
			c0,6.7-5.5,12.2-12.2,12.2C9.2,28.2,3.7,22.7,3.7,16C3.7,9.2,9.2,3.7,16,3.7C22.7,3.7,28.2,9.2,28.2,16z"/>
		<circle cx="16" cy="25.9" r="1"/>
		<circle cx="16" cy="6.1" r="1"/>
		<circle cx="25.9" cy="16" r="1"/>
		<circle cx="6" cy="16" r="1"/>
		<circle cx="23" cy="23" r="1"/>
		<circle cx="9" cy="9" r="1"/>
		<circle cx="23" cy="9" r="1"/>
		<circle cx="9" cy="23" r="1"/>
		<path d="M24,15.7c0-0.7-0.6-1.2-1.2-1.2h-4.5c-0.5-0.7-1.3-1.2-2.3-1.2c-1.5,0-2.7,1.2-2.7,2.7c0,1.1,0.6,2,1.5,2.4V22
			c0,0.7,0.6,1.2,1.2,1.2c0.7,0,1.2-0.6,1.2-1.2v-3.6c0.6-0.3,1.1-0.8,1.3-1.5h4.3C23.4,16.9,24,16.4,24,15.7z"/>
	</g>
</g>
</svg>
