<?xml version="1.0" encoding="utf-8"?>
<!-- Generator: Adobe Illustrator 25.4.1, SVG Export Plug-In . SVG Version: 6.00 Build 0)  -->
<svg version="1.1" id="Слой_1" xmlns="http://www.w3.org/2000/svg" xmlns:xlink="http://www.w3.org/1999/xlink" x="0px" y="0px"
	 viewBox="0 0 800 800" style="enable-background:new 0 0 800 800;" xml:space="preserve">
<style type="text/css">
	.st0{fill:#FF0000;}
	.st1{fill:#FFFFFF;}
</style>
<rect x="616.5" y="195" class="st0" width="87" height="413"/>
<rect x="166" y="94" class="st0" width="466" height="606"/>
<rect x="86" y="184" class="st0" width="87" height="413"/>
<g id="XMLID_00000060742997355046960690000015468601492544358549_">
	<g>
		<path class="st0" d="M768,244.8c21.3,49.1,32,100.8,32,155.2s-10.7,106.1-32,155.2s-49.6,91.7-84.8,128
			c-35.2,36.3-77.9,64.8-128,85.6S453.3,800,400,800s-105.1-10.4-155.2-31.2s-92.8-49.3-128-85.6c-35.2-36.3-63.5-78.9-84.8-128
			S0,454.4,0,400c1.1-53.3,11.7-105.1,32-155.2s48.5-92.8,84.8-128s78.9-63.5,128-84.8S345.6,0,400,0c54.4,1.1,106.4,11.7,156,32
			s92,48.5,127.2,84.8S746.7,195.7,768,244.8z M700,400c0-55.5-13.3-105.6-40-150.4s-63.2-81.1-109.6-108.8
			C504,113.1,453.9,99.5,400,100s-104,14.1-150.4,40.8S166.7,203.7,140,249.6s-40,96-40,150.4s13.3,104.8,40,151.2
			c26.7,46.4,63.2,82.7,109.6,108.8s96.5,39.5,150.4,40s104-12.8,150.4-40c46.4-27.2,82.9-63.5,109.6-108.8S700,455.5,700,400z"/>
		<path class="st1" d="M556,506.4c0.5,13.3-4.3,25.1-14.4,35.2s-22.1,15.2-36,15.2c-13.9,0-25.6-5.1-35.2-15.2L400,471.2l-70.4,70.4
			c-9.1,10.7-20.8,15.7-35.2,15.2c-14.4-0.5-26.4-5.6-36-15.2c-9.6-9.6-14.4-21.3-14.4-35.2c0-13.9,4.8-25.6,14.4-35.2l71.2-71.2
			l-71.2-70.4c-9.1-10.1-13.9-21.9-14.4-35.2c-0.5-13.3,4.3-25.1,14.4-35.2c10.1-10.1,22.1-15.2,36-15.2s25.6,5.1,35.2,15.2
			l70.4,70.4l70.4-70.4c9.1-10.7,20.8-15.7,35.2-15.2s26.4,5.6,36,15.2c9.6,9.6,14.4,21.3,14.4,35.2s-4.8,25.6-14.4,35.2L470.4,400
			l71.2,71.2C550.7,481.3,555.5,493.1,556,506.4z"/>
	</g>
	<g>
	</g>
</g>
</svg>
