<svg xmlns="http://www.w3.org/2000/svg" width="19mm" height="19mm" viewBox="0 0 1905.5 1905.5" shape-rendering="geometricPrecision" text-rendering="geometricPrecision" image-rendering="optimizeQuality" fill-rule="evenodd" clip-rule="evenodd"><path fill="#f7d22e" stroke="#000" stroke-width="100.29" stroke-miterlimit="22.926" d="M50.14 50.14h1805.21v1805.21H50.14z"/><path d="M551.11 431.92h425.18c115.4 0 202.21 21.26 260.42 63.78 58.21 42.51 87.31 110.34 87.31 203.47 0 59.73-13.92 109.84-41.76 150.33-27.84 40.49-66.56 68.84-116.17 85.04 58.72 13.16 104.77 42.26 138.18 87.31 33.41 45.05 50.11 99.46 50.11 163.23 0 91.11-31.38 161.98-94.15 212.59-62.76 50.62-148.3 75.92-256.62 75.92H551.1V431.92zm198.92 888.31h218.66c120.47 0 180.7-51.63 180.7-154.89 0-97.18-60.75-145.77-182.22-145.77H750.02v300.66zm198.92-450.99c60.74 0 105.27-11.64 133.63-34.92 28.34-23.29 42.51-61.75 42.51-115.4-1.01-48.59-15.18-82.76-42.51-102.5-27.34-19.75-71.88-29.62-133.63-29.62H750.03v282.43h198.92z" fill="#2b2a29" fill-rule="nonzero"/></svg>