<?xml version="1.0" encoding="UTF-8"?>
<!DOCTYPE svg PUBLIC "-//W3C//DTD SVG 1.1//EN" "http://www.w3.org/Graphics/SVG/1.1/DTD/svg11.dtd">
<!-- Creator: CorelDRAW 2021 (64-Bit) -->
<svg xmlns="http://www.w3.org/2000/svg" xml:space="preserve" width="19mm" height="19mm" version="1.1" style="shape-rendering:geometricPrecision; text-rendering:geometricPrecision; image-rendering:optimizeQuality; fill-rule:evenodd; clip-rule:evenodd"
viewBox="0 0 1905.5 1905.5"
 xmlns:xlink="http://www.w3.org/1999/xlink"
 xmlns:xodm="http://www.corel.com/coreldraw/odm/2003">
 <defs>
  <style type="text/css">
   <![CDATA[
    .str0 {stroke:black;stroke-width:100.29;stroke-miterlimit:22.9256}
    .fil0 {fill:#F7D22E}
    .fil1 {fill:#2B2A29;fill-rule:nonzero}
   ]]>
  </style>
 </defs>
 <g id="Слой_x0020_1">
  <metadata id="CorelCorpID_0Corel-Layer"/>
  <polygon class="fil0 str0" points="50.14,50.14 1855.35,50.14 1855.35,1855.35 50.14,1855.35 "/>
  <path class="fil1" d="M551.11 431.92l425.18 0c115.4,0 202.21,21.26 260.42,63.78 58.21,42.51 87.31,110.34 87.31,203.47 0,59.73 -13.92,109.84 -41.76,150.33 -27.84,40.49 -66.56,68.84 -116.17,85.04 58.72,13.16 104.77,42.26 138.18,87.31 33.41,45.05 50.11,99.46 50.11,163.23 0,91.11 -31.38,161.98 -94.15,212.59 -62.76,50.62 -148.3,75.92 -256.62,75.92l-452.51 0 0 -1041.67zm198.92 888.31l218.66 0c120.47,0 180.7,-51.63 180.7,-154.89 0,-97.18 -60.75,-145.77 -182.22,-145.77l-217.15 0 0 300.66zm198.92 -450.99c60.74,0 105.27,-11.64 133.63,-34.92 28.34,-23.29 42.51,-61.75 42.51,-115.4 -1.01,-48.59 -15.18,-82.76 -42.51,-102.5 -27.34,-19.75 -71.88,-29.62 -133.63,-29.62l-198.92 0 0 282.43 198.92 0z"/>
 </g>
</svg>
