<?xml version="1.0" standalone="no"?>
<!DOCTYPE svg PUBLIC "-//W3C//DTD SVG 1.1//EN" "http://www.w3.org/Graphics/SVG/1.1/DTD/svg11.dtd" >
<svg xmlns="http://www.w3.org/2000/svg" xmlns:xlink="http://www.w3.org/1999/xlink" version="1.1">
<metadata>
Created by FontForge 20201107 at Sun Jun 12 12:21:12 2022
 By Unknown
Copyright (c) 2020 by Zaharov A.E. All rights reserved.
</metadata>
<defs>
<font id="ZaharovAEPro-Medium" horiz-adv-x="600" >
  <font-face 
    font-family="ZaharovAE Pro Medium"
    font-weight="500"
    font-stretch="normal"
    units-per-em="1000"
    panose-1="2 0 3 3 0 0 0 0 0 0"
    ascent="800"
    descent="-200"
    x-height="510"
    cap-height="686"
    bbox="-55 -203.084 1546 876"
    underline-thickness="50"
    underline-position="-100"
    unicode-range="U+0020-1F86E"
  />
<missing-glyph horiz-adv-x="233" 
 />
    <glyph glyph-name=".notdef" horiz-adv-x="233" 
 />
    <glyph glyph-name=".null" horiz-adv-x="0" 
 />
    <glyph glyph-name="nonmarkingreturn" horiz-adv-x="333" 
 />
    <glyph glyph-name="space" unicode=" " horiz-adv-x="230" 
 />
    <glyph glyph-name="A" unicode="A" horiz-adv-x="616" 
d="M15 0l223 686h140l223 -686h-136l-54 177h-209l-51 -177h-136zM306 552l-77 -278h155z" />
    <glyph glyph-name="B" unicode="B" horiz-adv-x="646" 
d="M77 0v686h280q114 0 171.5 -42t57.5 -134q0 -59 -27.5 -99t-76.5 -56q58 -13 91 -57.5t33 -107.5q0 -90 -62 -140t-169 -50h-298zM208 299v-198h144q119 0 119 102q0 96 -120 96h-143zM208 398h131q60 0 88 23.5t28 75.5q-1 48 -27.5 67.5t-88.5 19.5h-131v-186z" />
    <glyph glyph-name="C" unicode="C" horiz-adv-x="641" 
d="M469 225h138q-9 -107 -84 -172q-34 -30 -84 -46t-110 -16q-66 0 -119.5 22.5t-88.5 65.5q-40 46 -58.5 104.5t-18.5 135.5v51q0 95 35 172q36 73 102 113q30 19 69.5 29.5t82.5 10.5q59 0 108 -16t82 -46q38 -34 58.5 -76.5t25.5 -98.5h-137q-4 34 -14.5 61.5t-25.5 41.5
q-19 18 -41.5 25.5t-55.5 7.5q-36 0 -62.5 -13.5t-46.5 -42.5q-40 -52 -40 -165v-58q0 -111 37 -165q20 -30 46 -43.5t62 -13.5q34 0 57.5 7.5t42.5 24.5q15 14 25.5 40.5t14.5 59.5z" />
    <glyph glyph-name="D" unicode="D" horiz-adv-x="662" 
d="M76 0v686h239q148 0 235 -94q42 -46 62.5 -109.5t20.5 -137.5q0 -140 -60 -221q-41 -63 -107 -93.5t-144 -30.5h-246zM207 582v-478h98q110 0 159 74q22 33 30 74.5t8 95.5q0 57 -11 100.5t-38 75.5q-50 58 -144 58h-102z" />
    <glyph glyph-name="E" unicode="E" horiz-adv-x="587" 
d="M547 0h-470v686h466v-105h-335v-190h252v-97h-252v-189h339v-105z" />
    <glyph glyph-name="F" unicode="F" horiz-adv-x="567" 
d="M208 0h-131v686h466v-105h-335v-190h252v-97h-252v-294z" />
    <glyph glyph-name="G" unicode="G" horiz-adv-x="669" 
d="M619 0h-100l-1 80q-28 -43 -76 -66t-115 -23q-58 0 -107.5 18.5t-92.5 65.5q-40 45 -62.5 113.5t-22.5 139.5q0 69 7 107q21 103 72 161q87 100 231 100q128 0 187 -64.5t76 -146.5h-137q-4 22 -10 36.5t-18 29.5q-16 20 -43.5 31t-65.5 11q-39 0 -75.5 -22t-55.5 -58
q-27 -52 -28 -132q0 -78 4 -105q8 -72 31 -110q41 -70 130 -73q36 -1 64 12t47 33q38 38 38 94v28h-140v99h263v-359z" />
    <glyph glyph-name="H" unicode="H" horiz-adv-x="684" 
d="M477 395v291h130v-686h-130v291h-269v-291h-131v686h131v-291h269z" />
    <glyph glyph-name="I" unicode="I" horiz-adv-x="284" 
d="M207 0h-130v686h130v-686z" />
    <glyph glyph-name="J" unicode="J" horiz-adv-x="401" 
d="M281 59q-29 -38 -70.5 -54.5t-106.5 -16.5q-25 0 -51.5 4.5t-45.5 14.5v111q43 -10 83 -10q25 0 45 7t32 20q28 30 28 111v440h130v-448q0 -65 -9 -105.5t-35 -73.5z" />
    <glyph glyph-name="K" unicode="K" horiz-adv-x="652" 
d="M77 0v686h131v-294h48q42 0 71.5 8t40.5 23q19 21 31 81q11 60 27 98q16 41 47.5 62.5t73.5 21.5q34 0 56 -5v-85h-17q-13 -1 -21 -3.5t-15 -9.5q-8 -9 -13.5 -25.5t-13.5 -47.5q1 3 -8 -30q-4 -20 -14 -50q-15 -38 -35 -54.5t-55 -20.5v-3q32 -2 60 -19t42 -45
q6 -10 12.5 -31.5t12.5 -42.5q14 -47 22 -70q17 -48 46 -48h16v-88q-8 -6 -25 -10t-34 -4q-31 0 -56.5 13.5t-41.5 38.5q-14 21 -24.5 48t-23.5 80q-17 66 -37 90q-16 21 -37.5 27.5t-71.5 6.5h-62l-1 -298h-131z" />
    <glyph glyph-name="L" unicode="L" horiz-adv-x="527" 
d="M208 686v-581h304v-105h-435v686h131z" />
    <glyph glyph-name="M" unicode="M" horiz-adv-x="878" 
d="M77 0v686h199l163 -478l163 478h199v-686h-127v552h-2l-190 -552h-85l-191 552h-2v-552h-127z" />
    <glyph glyph-name="N" unicode="N" horiz-adv-x="696" 
d="M619 0h-130l-259 438q-9 15 -27 55q5 -37 5 -82v-411h-131v686h131l260 -439q22 -41 25 -54q-4 62 -4 77v416h130v-686z" />
    <glyph glyph-name="O" unicode="O" horiz-adv-x="685" 
d="M641 365v-44q0 -49 -9 -90.5t-27 -83.5q-33 -75 -101 -117q-68 -41 -160 -41t-159 41q-70 43 -104 116q-37 78 -37 170v48q0 49 9 90.5t27 83.5q33 72 104 118q65 41 159 41t159 -41q69 -44 103 -117q36 -82 36 -174zM502 317v48q0 112 -42 169q-23 31 -51 45.5t-66 14.5
q-73 0 -117 -60q-42 -60 -43 -164v-49q0 -105 42 -167q23 -32 52 -47.5t67 -15.5t66 15t50 46q40 57 42 165z" />
    <glyph glyph-name="P" unicode="P" horiz-adv-x="621" 
d="M77 0v686h251q125 0 193.5 -53.5t68.5 -156.5q0 -104 -66 -159.5t-184 -55.5h-132v-261h-131zM208 584v-222h122q65 0 97 29q32 28 32 83q0 48 -31 78q-16 15 -41 23.5t-55 8.5h-124z" />
    <glyph glyph-name="Q" unicode="Q" horiz-adv-x="686" 
d="M502 317v48q0 112 -42 169q-23 31 -51 45.5t-66 14.5t-66 -14.5t-51 -45.5q-21 -30 -32 -72t-11 -92v-49q0 -106 42 -167q23 -32 51.5 -47.5t67.5 -15.5q38 0 65.5 14.5t50.5 46.5q42 61 42 165zM44 316v48q0 98 36 174q34 72 104 118q67 41 159 41t159 -41
q70 -44 104 -117q36 -82 36 -174v-44q0 -93 -36 -174q-35 -76 -102 -117q-52 -30 -106 -37q4 -17 11 -24q17 -16 50 -16q32 0 105 18v-113q-46 -21 -104 -21q-81 -1 -132 43.5t-56 115.5q-46 9 -87 34q-69 42 -104 116q-37 77 -37 170z" />
    <glyph glyph-name="R" unicode="R" horiz-adv-x="673" 
d="M629 97l1 -87q-8 -6 -27.5 -11t-37.5 -5q-62 -2 -98 50q-16 24 -24.5 46t-24.5 68l-9 27q-16 46 -44 72t-62 26h-95v-283h-131v686h273q63 0 105.5 -11t74.5 -37q71 -57 71 -156q0 -75 -39 -122t-107 -63q39 -10 59 -45q11 -14 18.5 -32t22.5 -60q14 -37 25 -49
q13 -15 27 -15zM468 484q0 56 -37 80q-27 20 -89 20h-134v-199h137q62 0 92 24q31 28 31 75z" />
    <glyph glyph-name="S" unicode="S" horiz-adv-x="622" 
d="M570 487h-133q-3 60 -27.5 84.5t-89.5 25.5q-66 2 -96.5 -19.5t-30.5 -71.5q0 -70 99 -94q105 -26 147.5 -39.5t73.5 -33.5q76 -52 76 -139q1 -63 -32.5 -111t-93.5 -74.5t-138 -27.5q-128 -3 -209.5 52.5t-81.5 181.5h133q1 -56 21 -85.5t53 -39t84 -9.5q127 0 127 100
q0 38 -22 61.5t-68 35.5l-106 27q-201 51 -201 190q0 60 34 105t94 69t137 23q81 -1 138.5 -29.5t86 -76t25.5 -105.5z" />
    <glyph glyph-name="T" unicode="T" horiz-adv-x="536" 
d="M204 581h-192v105h512v-105h-192v-581h-128v581z" />
    <glyph glyph-name="U" unicode="U" horiz-adv-x="650" 
d="M193 686v-436q0 -60 23.5 -108.5t108.5 -48.5q84 0 108 48.5t24 108.5v436h131v-438q0 -94 -50 -176t-217 -82q-103 0 -161 43.5t-78 100t-20 107.5v445h131z" />
    <glyph glyph-name="V" unicode="V" horiz-adv-x="626" 
d="M257 0l-242 686h131l166 -504l168 504h131l-242 -686h-112z" />
    <glyph glyph-name="W" unicode="W" horiz-adv-x="906" 
d="M15 686h133l120 -491l128 491h113l133 -491l118 491h131l-177 -686h-133l-127 478l-124 -478h-133z" />
    <glyph glyph-name="X" unicode="X" horiz-adv-x="603" 
d="M164 686l137 -246l140 246h142l-200 -334l210 -352h-144l-150 255l-146 -255h-143l214 352l-203 334h143z" />
    <glyph glyph-name="Y" unicode="Y" horiz-adv-x="636" 
d="M318 375l162 311h141l-240 -437v-249h-126v249l-240 437h141z" />
    <glyph glyph-name="Z" unicode="Z" horiz-adv-x="593" 
d="M50 686h498v-92l-361 -489h376v-105h-533v95l362 485h-342v106z" />
    <glyph glyph-name="a" unicode="a" horiz-adv-x="551" 
d="M516 0h-117q-6 13 -9.5 32t-3.5 35q-31 -38 -76.5 -57.5t-100.5 -18.5q-44 1 -82 20q-39 19 -61 53.5t-22 77.5q0 87 75 131q76 48 267 33v44q0 75 -91 78q-62 1 -90 -16t-31 -52h-115q0 43 30 82q30 40 78 58.5t129 17.5q106 -2 158 -57q43 -41 43 -122v-210
q0 -74 19 -129zM382 185v46q-63 4 -107 -2q-56 -8 -82 -26t-26 -50q-1 -17 4.5 -31.5t15.5 -23.5q20 -18 66 -16.5t76 19.5q26 16 39.5 36t13.5 48z" />
    <glyph glyph-name="b" unicode="b" horiz-adv-x="586" 
d="M197 686v-229q23 30 60.5 46.5t77.5 16.5q67 0 114.5 -35t72 -95t24.5 -133q0 -74 -24.5 -134.5t-72.5 -96.5t-115 -36q-49 -1 -88.5 23t-58.5 58v-71h-110v686h120zM197 314v-109q0 -58 31 -94t79 -36q60 0 86 52.5t26 133.5q0 80 -29 127t-88 47q-46 0 -75.5 -35.5
t-29.5 -85.5z" />
    <glyph glyph-name="c" unicode="c" horiz-adv-x="531" 
d="M278 80q40 0 70 24q26 22 29 66h109q-2 -51 -29 -91q-28 -42 -75 -65t-102 -23q-115 0 -178 70q-62 68 -62 190v19q0 101 49 166q24 33 75.5 57t103.5 24q41 0 61 -3.5t47 -17.5q106 -50 110 -163h-109q-3 48 -29 76q-28 27 -71 27q-54 0 -83 -40q-14 -20 -22 -53t-8 -73
v-24q0 -40 8 -73t22 -53q28 -40 84 -40z" />
    <glyph glyph-name="d" unicode="d" horiz-adv-x="586" 
d="M389 457v229h120v-686h-110v71q-19 -35 -58.5 -58.5t-88.5 -22.5q-67 0 -115 36t-72.5 96.5t-24.5 134.5q0 73 24.5 133t72.5 95t114 35q40 0 77.5 -16.5t60.5 -46.5zM389 205v109q0 50 -29.5 85.5t-75.5 35.5q-59 0 -88 -46.5t-29 -127.5q0 -82 26.5 -134t85.5 -52
q49 0 79.5 36.5t30.5 93.5z" />
    <glyph glyph-name="e" unicode="e" horiz-adv-x="510" 
d="M266 -9q-51 0 -94 17.5t-74 51.5q-63 68 -63 183v13q0 78 27 139q27 59 78 93t113 34q103 1 162.5 -64.5t59.5 -181.5v-48h-325q1 -67 38 -104q36 -39 90 -39q44 0 74 16.5t53 51.5l57 -64q-27 -48 -78.5 -73.5t-117.5 -24.5zM258 434q-44 0 -75 -35.5t-33 -86.5h217
q-1 55 -29 88.5t-80 33.5z" />
    <glyph glyph-name="f" unicode="f" horiz-adv-x="399" 
d="M321 606q-39 0 -59 -17q-20 -18 -20 -60v-23h119v-88h-119v-418h-119v418h-83v88h83v15q0 44 8.5 79.5t35.5 60.5q38 35 119 35q53 0 99 -10v-87q-34 7 -64 7z" />
    <glyph glyph-name="g" unicode="g" horiz-adv-x="572" 
d="M40 259q1 74 27 133.5t72.5 93.5t105.5 34q49 0 87.5 -20t61.5 -59v69h113v-470q-1 -62 -26 -117t-77 -90t-128 -36q-138 -3 -221 101l67 66q37 -44 74.5 -61t78.5 -15q59 4 86.5 39.5t27.5 96.5v40q-22 -33 -58.5 -53t-84.5 -19q-65 1 -112 36t-71 95t-23 136zM388 257
q0 86 -26.5 131t-85.5 45q-50 0 -79 -51t-30 -126q-1 -77 26 -126.5t85 -50.5q63 -1 86.5 47.5t23.5 130.5z" />
    <glyph glyph-name="h" unicode="h" horiz-adv-x="576" 
d="M70 686h120v-246q24 40 64 60t93 20q36 0 67 -11t51 -32q41 -43 41 -140v-337h-120v321q0 62 -18 86q-19 27 -60 27q-52 -1 -89 -56q-13 -18 -21 -50t-8 -66v-262h-120v686z" />
    <glyph glyph-name="i" unicode="i" horiz-adv-x="274" 
d="M138 559q-28 0 -48 19.5t-20 47.5q0 27 20 47t48 20q27 0 46.5 -20t19.5 -47q0 -28 -19.5 -47.5t-46.5 -19.5zM76 0v510h120v-510h-120z" />
    <glyph glyph-name="j" unicode="j" horiz-adv-x="265" 
d="M133 -167q-17 -12 -52.5 -19t-64.5 -5q-23 2 -37.5 4.5t-33.5 8.5v112q37 -7 47 -8q21 -4 43.5 -1t31.5 16q8 12 9.5 34t1.5 62v473h120v-520q0 -59 -13.5 -96t-51.5 -61zM136 559q-28 0 -47.5 19.5t-19.5 47.5t19.5 47.5t47.5 19.5q27 0 47 -19.5t20 -47.5t-20 -47.5
t-47 -19.5z" />
    <glyph glyph-name="k" unicode="k" horiz-adv-x="531" 
d="M70 686h120v-388h32q30 0 47.5 14t29.5 42q5 11 17 47l16 42q14 36 40 52.5t66 16.5l45 -2v-84h-11q-25 0 -37 -27l-12 -31q-12 -36 -25 -60q-25 -45 -60 -53v-5q31 -7 45 -23q13 -13 20.5 -26.5t23.5 -52.5q-1 2 17 -41q10 -20 41 -19l16 1v-84q-21 -7 -52 -8
q-40 -1 -69 12q-29 15 -44 50l-18 54q-10 45 -18 57q-13 22 -27 32t-39 10h-44v-212h-120v686z" />
    <glyph glyph-name="l" unicode="l" horiz-adv-x="260" 
d="M70 0v686h120v-686h-120z" />
    <glyph glyph-name="m" unicode="m" horiz-adv-x="860" 
d="M190 276v-276h-120v510h112v-78h1q22 41 60.5 64.5t89.5 23.5q66 0 105 -41q25 -25 34 -56q11 22 24 36.5t34 27.5q48 33 106 33q74 0 114 -44t40 -124v-352h-120v322q0 31 -3 51t-12 33q-18 28 -58 28q-22 0 -43 -13.5t-32 -30.5q-16 -24 -24 -54t-8 -59v-277h-120v322
q0 58 -18 84q-20 28 -60 28q-22 -1 -42 -16t-32 -37q-28 -50 -28 -105z" />
    <glyph glyph-name="n" unicode="n" horiz-adv-x="576" 
d="M190 283v-283h-120v510h112v-84h2q24 44 66.5 69t94.5 25q35 0 66 -11t51 -31q44 -43 44 -131v-347h-120v321q0 64 -19 88q-21 25 -62 25q-21 0 -40 -9t-34 -24q-22 -23 -31.5 -54.5t-9.5 -63.5z" />
    <glyph glyph-name="o" unicode="o" horiz-adv-x="563" 
d="M40 256v12q0 70 30.5 128.5t84.5 90.5q54 33 126 33q104 0 170 -66q67 -67 72 -187v-12q0 -106 -52 -173q-65 -92 -189 -92q-109 0 -175 71q-67 71 -67 195zM161 250q0 -45 8 -76.5t24 -54.5q31 -44 89 -44q57 0 87 44q18 23 25.5 53.5t7.5 80.5q0 94 -33 137
q-31 45 -88 45t-88 -45q-32 -46 -32 -140z" />
    <glyph glyph-name="ostroke" unicode="&#xf8;" horiz-adv-x="611" 
d="M76 256v12q0 70 30.5 128.5t84.5 90.5q54 33 126 33q104 0 170 -66q68 -68 72 -187v-12q0 -106 -52 -173q-66 -92 -189 -92q-109 0 -175 71q-67 71 -67 195zM197 250q0 -45 8 -76t24 -55q32 -44 89 -44t87 44q18 23 25.5 53.5t7.5 80.5q0 94 -33 137q-31 45 -88 45
q-56 0 -88 -45q-32 -47 -32 -140zM20 -5l483 524h88l-483 -524h-88z" />
    <glyph glyph-name="p" unicode="p" horiz-adv-x="577" 
d="M537 247q-2 -122 -57 -187q-28 -35 -66.5 -53t-84.5 -18q-39 0 -76 15.5t-60 42.5h-2v-216h-120v679h116v-55h2q22 30 61 47t80 17q48 0 87.5 -17t66.5 -51q27 -35 40.5 -87.5t12.5 -116.5zM413 252q1 83 -29 129.5t-90 46.5q-29 0 -51 -13.5t-40 -41.5
q-14 -22 -19.5 -63.5t-2.5 -83.5t12 -64q31 -81 101 -81q58 0 88 44.5t31 126.5z" />
    <glyph glyph-name="q" unicode="q" horiz-adv-x="576" 
d="M40 247q-1 64 12.5 116.5t40.5 87.5q27 34 66.5 51t87.5 17q41 0 80 -17t61 -47h2v55h116v-679h-120v216h-2q-23 -27 -60 -42.5t-76 -15.5q-46 0 -84.5 18t-66.5 53q-55 65 -57 187zM164 252q1 -82 31 -126.5t88 -44.5q70 0 101 81q9 22 12 64t-2.5 83.5t-19.5 63.5
q-18 28 -40 41.5t-51 13.5q-60 0 -90 -46.5t-29 -129.5z" />
    <glyph glyph-name="r" unicode="r" horiz-adv-x="384" 
d="M70 0v510h115v-98h2q11 42 42 70q36 36 91 36q10 0 28 -2v-110h-21q-26 0 -50 -9.5t-40 -25.5q-27 -23 -37 -54t-10 -77v-240h-120z" />
    <glyph glyph-name="s" unicode="s" horiz-adv-x="514" 
d="M30 161h116q0 -39 25 -64.5t75 -25.5q110 -2 111 67q1 33 -20 48.5t-58 22.5l-65 14q-79 16 -122 52t-44 90q-1 76 61 116t153 40q100 -1 152 -43.5t54 -106.5h-114q-3 36 -23.5 52t-61.5 18q-48 1 -74 -16.5t-26 -45.5q0 -26 15.5 -40t53.5 -24l71 -18q91 -22 131 -57
t40 -89q0 -81 -63 -121t-170 -39q-112 0 -165 47t-52 123z" />
    <glyph glyph-name="t" unicode="t" horiz-adv-x="389" 
d="M233 510h110v-94h-110v-243q0 -22 3.5 -37.5t14.5 -26.5q16 -15 54 -15q16 0 54 6v-101q-50 -10 -93 -7q-80 2 -118 40q-22 22 -28 51.5t-6 74.5v258h-84v94h84v160h119v-160z" />
    <glyph glyph-name="u" unicode="u" horiz-adv-x="572" 
d="M382 510h120v-510h-111v88h-2q-22 -46 -62.5 -72t-94.5 -26q-68 0 -112 42q-29 27 -41 65.5t-12 87.5v325h120v-311q0 -63 21 -88q20 -27 64 -27q50 0 80 50.5t30 117.5v258z" />
    <glyph glyph-name="v" unicode="v" horiz-adv-x="520" 
d="M264 136l117 374h122l-181 -510h-120l-185 510h122l123 -374h2z" />
    <glyph glyph-name="w" unicode="w" horiz-adv-x="734" 
d="M719 510l-156 -510h-104l-92 335l-1 1l-91 -336h-104l-156 510h122l92 -342h2l90 342h94l91 -342h2l89 342h122z" />
    <glyph glyph-name="x" unicode="x" horiz-adv-x="487" 
d="M146 510l97 -165l99 165h135l-163 -251l168 -259h-135l-103 171l-103 -171h-136l169 259l-163 251h135z" />
    <glyph glyph-name="y" unicode="y" horiz-adv-x="539" 
d="M276 162l115 348h120l-197 -549q-52 -146 -169 -146q-35 0 -63 10v95l20 -1q42 -1 63 14q33 22 51 85l-182 492h123z" />
    <glyph glyph-name="z" unicode="z" horiz-adv-x="461" 
d="M31 412v98h399v-80l-271 -333h280v-97h-417v87l265 325h-256z" />
    <glyph glyph-name="uni0410" unicode="&#x410;" horiz-adv-x="615" 
d="M15 0l223 686h140l223 -686h-136l-54 177h-209l-51 -177h-136zM306 552l-77 -278h155z" />
    <glyph glyph-name="uni0411" unicode="&#x411;" horiz-adv-x="655" 
d="M555 584h-347v-168h158q100 0 161 -46q74 -56 74 -158q3 -99 -60 -155q-64 -57 -153 -57h-311v686h478v-102zM208 317v-215h145q55 0 83 28q30 30 30 81t-30 79q-34 27 -84 27h-144z" />
    <glyph glyph-name="uni0412" unicode="&#x412;" horiz-adv-x="646" 
d="M77 0v686h280q114 0 171.5 -42t57.5 -134q0 -59 -27.5 -99t-76.5 -56q58 -13 91 -57.5t33 -107.5q0 -90 -62 -140t-169 -50h-298zM208 299v-198h144q119 0 119 102q0 96 -120 96h-143zM208 398h131q60 0 88 23.5t28 75.5q-1 48 -27.5 67.5t-88.5 19.5h-131v-186z" />
    <glyph glyph-name="uni0413" unicode="&#x413;" horiz-adv-x="516" 
d="M208 0h-131v686h439v-105h-308v-581z" />
    <glyph glyph-name="uni0414" unicode="&#x414;" horiz-adv-x="693" 
d="M180 686h419v-581h80v-265h-119v160h-427v-160h-119v265h61q42 75 66.5 184t31.5 238l6 128zM469 582h-175l-2 -47q-5 -79 -13 -133q-23 -189 -71 -297h261v477z" />
    <glyph glyph-name="uni0415" unicode="&#x415;" horiz-adv-x="587" 
d="M547 0h-470v686h466v-105h-335v-190h252v-97h-252v-189h339v-105z" />
    <glyph glyph-name="uni0401" unicode="&#x401;" horiz-adv-x="578" 
d="M197 751q-25 0 -43.5 18.5t-18.5 43.5q0 26 18.5 44t43.5 18q26 0 44 -18t18 -44q0 -25 -18 -43.5t-44 -18.5zM421 751q-25 0 -43.5 18.5t-18.5 43.5q0 26 18.5 44t43.5 18q26 0 44 -18t18 -44q0 -25 -18 -43.5t-44 -18.5zM547 0h-470v686h466v-105h-335v-190h252v-97
h-252v-189h339v-105z" />
    <glyph glyph-name="uni0416" unicode="&#x416;" horiz-adv-x="938" 
d="M404 389v297h129v-297h28q29 0 47 6t33 20q10 9 17.5 26.5t15.5 50.5q10 52 28 99q17 44 49.5 67.5t77.5 23.5q26 0 57 -6v-86h-19q-12 0 -20 -3t-15 -9q-7 -7 -11.5 -18t-12.5 -35l-7 -24q-15 -53 -21 -67q-14 -38 -35.5 -58t-57.5 -26v-3q36 -4 64.5 -21.5t44.5 -46.5
q12 -21 22.5 -49.5t18.5 -53.5q14 -48 26 -68q11 -18 24 -18h26v-81q-10 -5 -29.5 -9t-35.5 -4q-31 0 -56.5 12.5t-41.5 35.5q-18 25 -29.5 55t-24.5 85q-18 69 -45 92q-15 12 -30 16.5t-41 4.5h-44l-3 -297h-129v297h-38q-49 0 -75 -18q-15 -11 -28 -36.5t-21 -58.5
q-13 -55 -24.5 -85t-29.5 -55q-16 -23 -41.5 -35.5t-56.5 -12.5q-23 0 -40.5 4t-23.5 10v82h24q14 0 23 10t15 27t11 35q22 76 47 123q16 28 41.5 43t58.5 17v3q-36 9 -56 26t-32 50q-11 27 -20 69q-16 69 -33 85q-8 7 -14.5 9.5t-16.5 2.5h-21v85q25 5 56 5
q45 0 77.5 -23.5t49.5 -67.5q16 -43 29 -107q5 -26 12.5 -42t20.5 -29q15 -15 30 -19.5t48 -4.5h28z" />
    <glyph glyph-name="uni0417" unicode="&#x417;" horiz-adv-x="612" 
d="M424 500q0 41 -34 69q-37 26 -94 26q-55 0 -91 -27q-34 -26 -34 -64h-121q0 54 30 99q30 43 88 69q55 24 128 24q125 0 189 -51q65 -50 65 -144q0 -49 -32 -93t-83 -61v-3q64 -15 95.5 -52.5t31.5 -99.5q0 -91 -71 -147q-72 -54 -195 -54q-79 0 -136 25q-59 26 -89 70
q-31 44 -31 105h121q0 -39 37 -70q38 -29 98 -29q63 0 101 29t38 72q0 104 -130 104h-95v94h97q59 1 88 27.5t29 81.5z" />
    <glyph glyph-name="uni0418" unicode="&#x418;" horiz-adv-x="696" 
d="M77 0v686h131v-420q0 -28 -5 -76q10 28 26 53l260 443h130v-686h-130v414q0 24 4 82q-3 -9 -26 -55l-259 -441h-131z" />
    <glyph glyph-name="uni0419" unicode="&#x419;" horiz-adv-x="696" 
d="M424 876h104q-5 -58 -49 -94q-46 -37 -129 -37q-81 0 -129 37q-43 36 -48 94h104q1 -28 20.5 -43.5t52.5 -16.5q34 0 53.5 15.5t20.5 44.5zM77 0v686h131v-420q0 -28 -5 -76q10 28 26 53l260 443h130v-686h-130v414q0 24 4 82q-3 -9 -26 -55l-259 -441h-131z" />
    <glyph glyph-name="uni041A" unicode="&#x41a;" horiz-adv-x="644" 
d="M77 0v686h131v-294h48q42 0 71.5 8t40.5 23q19 21 31 81q11 60 27 98q16 41 47.5 62.5t73.5 21.5q34 0 56 -5v-85h-17q-13 -1 -21 -3.5t-15 -9.5q-8 -9 -13.5 -25.5t-13.5 -47.5q1 3 -8 -30q-4 -20 -14 -50q-15 -38 -35 -54.5t-55 -20.5v-3q32 -2 60 -19t42 -45
q6 -10 12.5 -31.5t12.5 -42.5q14 -47 22 -70q17 -48 46 -48h16v-88q-8 -6 -25 -10t-34 -4q-31 0 -56.5 13.5t-41.5 38.5q-14 21 -24.5 48t-23.5 80q-17 66 -37 90q-16 21 -37.5 27.5t-71.5 6.5h-62l-1 -298h-131z" />
    <glyph glyph-name="uni041B" unicode="&#x41b;" horiz-adv-x="686" 
d="M162 645l1 41h446v-686h-131v581h-193v-42q-4 -419 -100 -501q-24 -20 -58 -32t-68 -12q-23 0 -43 6v102l17 -1q57 0 86 72q25 55 35 202q7 92 8 270z" />
    <glyph glyph-name="uni041C" unicode="&#x41c;" horiz-adv-x="878" 
d="M77 0v686h199l163 -478l163 478h199v-686h-127v552h-2l-190 -552h-85l-191 552h-2v-552h-127z" />
    <glyph glyph-name="uni041D" unicode="&#x41d;" horiz-adv-x="684" 
d="M477 395v291h130v-686h-130v291h-269v-291h-131v686h131v-291h269z" />
    <glyph glyph-name="uni041E" unicode="&#x41e;" horiz-adv-x="685" 
d="M641 365v-44q0 -49 -9 -90.5t-27 -83.5q-33 -75 -101 -117q-68 -41 -160 -41t-159 41q-70 43 -104 116q-37 78 -37 170v48q0 49 9 90.5t27 83.5q33 72 104 118q65 41 159 41t159 -41q69 -44 103 -117q36 -82 36 -174zM502 317v48q0 112 -42 169q-23 31 -51 45.5t-66 14.5
q-73 0 -117 -60q-42 -60 -43 -164v-49q0 -105 42 -167q23 -32 52 -47.5t67 -15.5t66 15t50 46q40 57 42 165z" />
    <glyph glyph-name="uni041F" unicode="&#x41f;" horiz-adv-x="682" 
d="M208 0h-131v686h528v-686h-131v581h-266v-581z" />
    <glyph glyph-name="uni0420" unicode="&#x420;" horiz-adv-x="621" 
d="M77 0v686h251q125 0 193.5 -53.5t68.5 -156.5q0 -104 -66 -159.5t-184 -55.5h-132v-261h-131zM208 584v-222h122q65 0 97 29q32 28 32 83q0 48 -31 78q-16 15 -41 23.5t-55 8.5h-124z" />
    <glyph glyph-name="uni0421" unicode="&#x421;" horiz-adv-x="641" 
d="M469 225h138q-9 -107 -84 -172q-34 -30 -84 -46t-110 -16q-66 0 -119.5 22.5t-88.5 65.5q-40 46 -58.5 104.5t-18.5 135.5v51q0 95 35 172q36 73 102 113q30 19 69.5 29.5t82.5 10.5q59 0 108 -16t82 -46q38 -34 58.5 -76.5t25.5 -98.5h-137q-4 34 -14.5 61.5t-25.5 41.5
q-19 18 -41.5 25.5t-55.5 7.5q-36 0 -62.5 -13.5t-46.5 -42.5q-40 -52 -40 -165v-58q0 -111 37 -165q20 -30 46 -43.5t62 -13.5q34 0 57.5 7.5t42.5 24.5q15 14 25.5 40.5t14.5 59.5z" />
    <glyph glyph-name="uni0422" unicode="&#x422;" horiz-adv-x="536" 
d="M204 581h-192v105h512v-105h-192v-581h-128v581z" />
    <glyph glyph-name="uni0423" unicode="&#x423;" horiz-adv-x="596" 
d="M315 331l138 355h137l-222 -529q-34 -72 -44 -85q-55 -80 -146 -78q-50 0 -73 7l1 102l32 -2q53 0 74 20q11 9 20 23.5t22 44.5l-238 497h132z" />
    <glyph glyph-name="uni0424" unicode="&#x424;" horiz-adv-x="818" 
d="M474 625h18q85 0 153 -35q69 -40 102 -100q18 -34 27 -68t9 -74q0 -54 -15 -95t-48 -80q-35 -47 -93 -71q-54 -28 -135 -28h-18v-87h-129v87h-18q-91 0 -153 35q-69 37 -102 96q-20 34 -28.5 67t-8.5 75t8.5 75.5t28.5 66.5q32 60 101 99q64 37 151 37h21v87h129v-87z
M345 526h-12q-42 0 -69 -11t-50 -36q-42 -45 -42 -132q0 -84 41 -130q25 -24 53 -34.5t68 -10.5h11v354zM474 526v-354h12q41 0 68.5 11t50.5 35q42 47 42 130q0 84 -41 130q-22 24 -51.5 36t-70.5 12h-10z" />
    <glyph glyph-name="uni0425" unicode="&#x425;" horiz-adv-x="599" 
d="M162 686l137 -246l140 246h142l-200 -334l210 -352h-144l-150 255l-146 -255h-143l214 352l-203 334h143z" />
    <glyph glyph-name="uni0427" unicode="&#x427;" horiz-adv-x="630" 
d="M48 469v217h127v-205q0 -34 7.5 -54t26.5 -31q12 -11 32.5 -14.5t56.5 -3.5q74 0 125 10v298h130v-686h-130v285q-79 -10 -143 -10q-59 0 -100 8.5t-70 28.5q-62 44 -62 157z" />
    <glyph glyph-name="uni0426" unicode="&#x426;" horiz-adv-x="695" 
d="M556 0h-479v686h131v-581h264v581h131v-581h72v-265h-119v160z" />
    <glyph glyph-name="uni0428" unicode="&#x428;" horiz-adv-x="933" 
d="M856 0h-779v686h127v-581h198v581h128v-581h198v581h128v-686z" />
    <glyph glyph-name="uni0429" unicode="&#x429;" horiz-adv-x="947" 
d="M810 0h-733v686h128v-581h198v581h128v-581h199v581h127v-581h72v-265h-119v160z" />
    <glyph glyph-name="uni042C" unicode="&#x42c;" horiz-adv-x="629" 
d="M77 0v686h131v-274h140q129 0 190 -58q29 -29 42.5 -63t13.5 -81q2 -95 -57 -154q-56 -56 -165 -56h-295zM337 311h-129v-209h130q37 0 59 6t39 20q27 24 27 78q0 52 -34 81q-15 13 -36.5 18.5t-55.5 5.5z" />
    <glyph glyph-name="uni042A" unicode="&#x42a;" horiz-adv-x="722" 
d="M8 581v105h293v-277h140q131 0 190 -59q56 -54 56 -142q1 -94 -57 -152q-56 -56 -165 -56h-295v581h-162zM301 102h129q37 0 59.5 6.5t39.5 19.5q27 23 27 76q-1 52 -34 79q-15 13 -36.5 18.5t-55.5 5.5h-129v-205z" />
    <glyph glyph-name="uni042B" unicode="&#x42b;" horiz-adv-x="869" 
d="M77 0v686h131v-274h140q129 0 190 -58q29 -29 42.5 -63t13.5 -81q2 -95 -57 -154q-56 -56 -165 -56h-295zM337 311h-129v-209h129q37 0 59.5 6.5t39.5 19.5q27 24 27 78q-1 54 -34 81q-15 13 -36.5 18.5t-55.5 5.5zM792 0h-130v686h130v-686z" />
    <glyph glyph-name="uni042D" unicode="&#x42d;" horiz-adv-x="646" 
d="M176 458h-137q5 56 25.5 98.5t58.5 76.5q34 30 82.5 46t107.5 16q85 0 152 -40t102 -113q35 -77 35 -172v-51q0 -74 -20.5 -135.5t-58.5 -104.5q-77 -88 -206 -88q-60 0 -109.5 16t-83.5 46q-38 32 -59 74t-26 98h138q10 -71 40 -100q19 -17 42.5 -24.5t57.5 -7.5
q36 0 62 13.5t46 43.5q34 49 37 142h-233v99h233q-3 97 -39 147q-21 29 -47.5 42.5t-62.5 13.5q-33 0 -55.5 -7.5t-41.5 -25.5q-29 -27 -40 -103z" />
    <glyph glyph-name="uni042E" unicode="&#x42e;" horiz-adv-x="955" 
d="M905 361v-37q0 -101 -34 -176q-37 -77 -101 -116q-64 -41 -166 -41q-88 0 -147 36q-61 33 -99 102q-42 74 -46 164h-105v-293h-130v686h130v-294h105q1 44 10 79t29 74q37 73 99 111q64 40 153 40q102 0 166 -42q63 -37 101 -116q35 -76 35 -177zM767 321v40
q0 111 -44 172q-43 60 -114 60t-115 -59q-43 -61 -43 -169v-41q0 -107 43 -169t116 -62q34 0 63 15t50 44q42 61 44 169z" />
    <glyph glyph-name="uni042F" unicode="&#x42f;" horiz-adv-x="657" 
d="M27 10l1 87l22 -1q14 0 27 15q13 14 25 49q11 29 22.5 55.5t18.5 36.5q20 34 59 45q-26 6 -52.5 19.5t-41.5 28.5q-52 49 -52 137q0 99 71 156q32 26 74.5 37t105.5 11h273v-686h-131v283h-95q-23 0 -43.5 -12t-35.5 -34q-20 -21 -33 -70q-12 -48 -22.5 -71.5
t-29.5 -51.5q-36 -52 -98 -50q-19 0 -38 4.5t-27 11.5zM189 484q0 -47 31 -75q31 -24 92 -24h137v199h-134q-62 0 -89 -20q-37 -24 -37 -80z" />
    <glyph glyph-name="uni0430" unicode="&#x430;" horiz-adv-x="560" 
d="M516 0h-117q-6 13 -9.5 32t-3.5 35q-31 -38 -76.5 -57.5t-100.5 -18.5q-44 1 -82 20q-39 19 -61 53.5t-22 77.5q0 87 75 131q76 48 267 33v44q0 75 -91 78q-62 1 -90 -16t-31 -52h-115q0 43 30 82q30 40 78 58.5t129 17.5q106 -2 158 -57q43 -41 43 -122v-210
q0 -74 19 -129zM382 185v46q-63 4 -107 -2q-56 -8 -82 -26t-26 -50q-1 -17 4.5 -31.5t15.5 -23.5q20 -18 66 -16.5t76 19.5q26 16 39.5 36t13.5 48z" />
    <glyph glyph-name="uni0431" unicode="&#x431;" horiz-adv-x="567" 
d="M527 245q0 -118 -60 -182q-66 -71 -186 -71q-110 0 -172.5 75.5t-64.5 209.5q-1 96 10 155t39 105q27 50 82.5 82.5t121.5 37.5q65 6 81 13q10 5 14.5 10.5t5.5 15.5h103q0 -77 -45 -106q-19 -12 -48.5 -18t-89.5 -10q-75 -5 -120 -44t-56 -111h7q26 39 69 61.5t91 22.5
q52 0 94.5 -18t71.5 -53q27 -32 39.5 -75t12.5 -100zM410 247q0 68 -29 107q-16 22 -38 32.5t-54 10.5q-30 0 -54 -10.5t-39 -31.5q-29 -41 -29 -114q0 -68 29 -109q15 -22 39.5 -33.5t54.5 -11.5q32 0 53.5 11t37.5 34q29 39 29 115z" />
    <glyph glyph-name="uni0432" unicode="&#x432;" horiz-adv-x="564" 
d="M68 0v510h255q79 0 116 -24q26 -17 39 -43.5t12 -58.5q-1 -43 -27.5 -73t-68.5 -39v-2q54 -4 89.5 -39t35.5 -87q0 -69 -57 -112q-43 -32 -121 -32h-273zM286 434h-98v-133h96q51 0 70 18.5t19 53.5q0 60 -87 61zM301 225h-113v-149h113q49 0 71 21t22 54q0 32 -22.5 53
t-70.5 21z" />
    <glyph glyph-name="uni0433" unicode="&#x433;" horiz-adv-x="468" 
d="M190 0h-120v510h358v-88h-238v-422z" />
    <glyph glyph-name="uni0434" unicode="&#x434;" horiz-adv-x="593" 
d="M16 88h43q31 49 46.5 96.5t21.5 110.5q5 51 11 215h367v-422h57v-234h-112v146h-322v-146h-112v234zM184 88h202v334h-141l-6 -130q-6 -124 -55 -204z" />
    <glyph glyph-name="uni0435" unicode="&#x435;" horiz-adv-x="515" 
d="M266 -9q-51 0 -94 17.5t-74 51.5q-63 68 -63 183v13q0 78 27 139q27 59 78 93t113 34q103 1 162.5 -64.5t59.5 -181.5v-48h-325q1 -67 38 -104q36 -39 90 -39q44 0 74 16.5t53 51.5l57 -64q-27 -48 -78.5 -73.5t-117.5 -24.5zM258 434q-44 0 -75 -35.5t-33 -86.5h217
q-1 55 -29 88.5t-80 33.5z" />
    <glyph glyph-name="uni0451" unicode="&#x451;" horiz-adv-x="515" 
d="M144 563q-25 0 -42.5 18t-17.5 43q0 24 17.5 41.5t42.5 17.5t42.5 -17.5t17.5 -41.5q0 -25 -17.5 -43t-42.5 -18zM372 563q-25 0 -43 18t-18 43q0 24 18 41.5t43 17.5q24 0 42 -17.5t18 -41.5q0 -25 -18 -43t-42 -18zM266 -9q-51 0 -94 17.5t-74 51.5q-63 68 -63 183v13
q0 78 27 139q27 59 78 93t113 34q103 1 162.5 -64.5t59.5 -181.5v-48h-325q1 -67 38 -104q36 -39 90 -39q44 0 74 16.5t53 51.5l57 -64q-27 -48 -78.5 -73.5t-117.5 -24.5zM258 434q-44 0 -75 -35.5t-33 -86.5h217q-1 55 -29 88.5t-80 33.5z" />
    <glyph glyph-name="uni0436" unicode="&#x436;" horiz-adv-x="766" 
d="M325 298v212h117v-212h19q21 0 35 8.5t30 27.5q7 9 13 21t8 20l15 47q5 17 15.5 34t21.5 28q11 13 32.5 20.5t45.5 7.5l46 -1v-85h-12q-25 0 -37 -27l-13 -33q-18 -53 -35.5 -79t-44.5 -32v-5q26 -6 39 -22q13 -12 23 -30t23 -50l17 -41q6 -11 15.5 -15t26.5 -4l16 1v-84
q-22 -6 -53 -8q-20 -1 -40 3t-29 9q-30 16 -43 50q-9 22 -19 54q-12 47 -18 57q-12 22 -26.5 32t-39.5 10h-31v-212h-117v212h-32q-25 0 -39 -9.5t-28 -32.5q-9 -23 -17 -57q-3 -9 -8.5 -26t-10.5 -28q-15 -35 -43 -50q-25 -13 -70 -12q-31 2 -52 8v84l16 -1q33 0 41 19
q3 6 8.5 18.5t9.5 22.5q13 33 23 50t24 30q17 17 39 22v5q-20 7 -32.5 18.5t-25.5 34.5q-12 21 -36 91q-12 27 -38 27h-11v85l45 1q25 0 46 -7t34 -21q22 -20 36 -62q3 -13 7.5 -27t6.5 -20q10 -28 22 -41q18 -20 30.5 -28t34.5 -8h20z" />
    <glyph glyph-name="uni0437" unicode="&#x437;" horiz-adv-x="529" 
d="M357 367q0 33 -23 50q-20 17 -69 17q-25 0 -40.5 -4t-29.5 -14q-11 -8 -18 -24t-7 -31h-115q0 34 14.5 64.5t41.5 51.5q58 43 156 43q97 0 151 -39q51 -36 51 -109q0 -34 -21 -62t-58 -43v-3q48 -16 71.5 -45.5t22.5 -74.5q-1 -36 -16 -63t-45 -49q-56 -41 -156 -41
q-104 0 -162 43q-28 22 -43 53.5t-15 68.5h115q0 -17 7 -33t20 -26q17 -12 33 -16.5t43 -4.5q22 0 42 5.5t33 15.5q26 19 26 53t-24 52q-21 17 -75 17h-80v80h86q39 1 61.5 18.5t22.5 49.5z" />
    <glyph glyph-name="uni0438" unicode="&#x438;" horiz-adv-x="580" 
d="M71 0v510h120v-281q0 -25 -3 -61l36 59l165 283h120v-510h-120v286q0 36 4 61l-35 -57l-167 -290h-120z" />
    <glyph glyph-name="uni0439" unicode="&#x439;" horiz-adv-x="580" 
d="M350 690h96q-1 -76 -78 -109t-153.5 -3.5t-77.5 112.5h97q1 -26 16 -42.5t42 -16.5t41.5 16t16.5 43zM71 0v510h120v-277q0 -25 -3 -61l36 59l165 279h120v-510h-120v282q0 33 4 61l-35 -57l-167 -286h-120z" />
    <glyph glyph-name="uni043A" unicode="&#x43a;" horiz-adv-x="524" 
d="M71 510h118v-212h32q30 0 47.5 14t29.5 42q7 16 17 47l16 42q14 36 40 52.5t66 16.5l45 -2v-84h-11q-25 0 -37 -27l-12 -31q-14 -41 -25 -60q-26 -46 -60 -53v-5q31 -8 45 -23q13 -13 20.5 -26.5t23.5 -52.5l17 -41q10 -21 41 -19l16 1v-84q-20 -6 -52 -8q-19 -1 -38 2.5
t-31 9.5q-29 15 -44 50l-18 54q-11 45 -18 57q-13 22 -27 32t-39 10h-44v-212h-118v510z" />
    <glyph glyph-name="uni043B" unicode="&#x43b;" horiz-adv-x="559" 
d="M501 510v-510h-120v422h-141q-4 -137 -13 -224q-12 -95 -40 -137q-42 -62 -127 -64q-26 0 -45 3v91h15q43 0 67 42q20 40 26 178l6 199h372z" />
    <glyph glyph-name="uni043C" unicode="&#x43c;" horiz-adv-x="730" 
d="M183 0h-112v510h176l118 -341l119 341h175v-510h-112v342l4 69l-30 -72l-120 -339h-70l-127 350l-24 61l3 -66v-345z" />
    <glyph glyph-name="uni043D" unicode="&#x43d;" horiz-adv-x="579" 
d="M191 0h-120v510h120v-211h197v211h120v-510h-120v211h-197v-211z" />
    <glyph glyph-name="uni043E" unicode="&#x43e;" horiz-adv-x="553" 
d="M35 256v12q0 70 30.5 128.5t84.5 90.5q54 33 126 33q104 0 170 -66q67 -67 72 -187v-12q0 -106 -52 -173q-65 -92 -189 -92q-109 0 -175 71q-67 71 -67 195zM156 250q0 -45 8 -76.5t24 -54.5q31 -44 89 -44q57 0 87 44q18 23 25.5 53.5t7.5 80.5q0 94 -33 137
q-31 45 -88 45t-88 -45q-32 -46 -32 -140z" />
    <glyph glyph-name="uni043F" unicode="&#x43f;" horiz-adv-x="583" 
d="M191 0h-120v510h441v-510h-120v422h-201v-422z" />
    <glyph glyph-name="uni0440" unicode="&#x440;" horiz-adv-x="587" 
d="M537 247q-2 -122 -57 -187q-28 -35 -66.5 -53t-84.5 -18q-39 0 -76 15.5t-60 42.5h-2v-216h-120v679h116v-55h2q22 30 61 47t80 17q48 0 87.5 -17t66.5 -51q27 -35 40.5 -87.5t12.5 -116.5zM413 252q1 83 -29 129.5t-90 46.5q-29 0 -51 -13.5t-40 -41.5
q-14 -22 -19.5 -63.5t-2.5 -83.5t12 -64q31 -81 101 -81q58 0 88 44.5t31 126.5z" />
    <glyph glyph-name="uni0441" unicode="&#x441;" horiz-adv-x="516" 
d="M273 80q40 0 70 24q26 22 29 66h109q-2 -51 -29 -91q-28 -42 -75 -65t-102 -23q-115 0 -178 70q-62 68 -62 190v19q0 101 49 166q24 33 75.5 57t103.5 24q41 0 61 -3.5t47 -17.5q106 -50 110 -163h-109q-3 48 -29 76q-28 27 -71 27q-54 0 -83 -40q-14 -20 -22 -53t-8 -73
v-24q0 -40 8 -73t22 -53q28 -40 84 -40z" />
    <glyph glyph-name="uni0442" unicode="&#x442;" horiz-adv-x="457" 
d="M171 422h-161v88h437v-88h-160v-422h-116v422z" />
    <glyph glyph-name="uni0443" unicode="&#x443;" horiz-adv-x="526" 
d="M274 162l115 348h120l-197 -549q-52 -146 -169 -146q-35 0 -63 10v95l20 -1q42 -1 63 14q33 22 51 85l-182 492h123z" />
    <glyph glyph-name="uni0444" unicode="&#x444;" horiz-adv-x="716" 
d="M681 254q0 -59 -17 -107.5t-50 -80.5q-69 -67 -196 -66v-173h-120v173q-127 -1 -196 66q-33 32 -50 81t-17 107q0 60 18 109.5t53 81.5q69 63 192 63v168h120v-168q124 0 192 -63q35 -32 53 -81.5t18 -109.5zM415 422v-336q30 0 52 9t42 29q47 45 47 130t-47 130
q-18 20 -40 29t-54 9zM300 86v336q-29 0 -54 -10.5t-39 -27.5q-23 -21 -35 -54.5t-12 -75.5q0 -85 47 -130q19 -20 40.5 -29t52.5 -9z" />
    <glyph glyph-name="uni0445" unicode="&#x445;" horiz-adv-x="487" 
d="M146 510l97 -165l99 165h135l-163 -251l168 -259h-135l-103 171l-103 -171h-136l169 259l-163 251h135z" />
    <glyph glyph-name="uni0447" unicode="&#x447;" horiz-adv-x="532" 
d="M42 373v137h120v-141q0 -38 6.5 -57t24.5 -27t54 -8t94 7v226h119v-510h-119v199q-99 -9 -122 -9q-74 0 -111 17t-51.5 54.5t-14.5 111.5z" />
    <glyph glyph-name="uni0446" unicode="&#x446;" horiz-adv-x="607" 
d="M470 0h-400v510h120v-422h205v422h120v-422h64v-234h-109v146z" />
    <glyph glyph-name="uni0448" unicode="&#x448;" horiz-adv-x="805" 
d="M734 0h-663v510h120v-422h152v422h119v-422h152v422h120v-510z" />
    <glyph glyph-name="uni0449" unicode="&#x449;" horiz-adv-x="824" 
d="M689 0h-618v510h120v-422h152v422h119v-422h152v422h120v-422h64v-234h-109v146z" />
    <glyph glyph-name="uni044C" unicode="&#x44c;" horiz-adv-x="538" 
d="M71 510h119v-177h129q84 0 129 -42q50 -44 50 -123q0 -39 -14 -72t-41 -55q-48 -41 -122 -41h-250v510zM191 251v-169h95q43 0 66 20q25 22 25 67q0 41 -25 62q-21 18 -63 20h-98z" />
    <glyph glyph-name="uni044A" unicode="&#x44a;" horiz-adv-x="610" 
d="M4 510h259v-177h130q82 0 128 -42q49 -43 49 -123q0 -82 -55 -127q-47 -41 -120 -41h-252v421h-139v89zM263 81h97q42 0 65 20q12 11 18.5 28.5t6.5 37.5q0 42 -26 63q-21 19 -63 20h-98v-169z" />
    <glyph glyph-name="uni044B" unicode="&#x44b;" horiz-adv-x="751" 
d="M72 510h119v-177h129q84 0 129 -42q50 -44 50 -123q0 -39 -14 -72t-41 -55q-48 -41 -122 -41h-250v510zM192 251v-169h95q43 0 66 20q25 22 25 67q0 41 -25 62q-21 18 -63 20h-98zM681 0h-120v510h120v-510z" />
    <glyph glyph-name="uni044D" unicode="&#x44d;" horiz-adv-x="516" 
d="M35 170h109q3 -43 30 -66q29 -24 69 -24q59 0 87 40q21 32 26 89h-162v87h163q-5 62 -29 94q-29 40 -84 40q-43 0 -70 -27q-15 -16 -22 -33.5t-8 -42.5h-109q10 117 116 167q31 15 68.5 20.5t74.5 0.5q89 -11 138 -80q24 -32 36.5 -77t12.5 -96v-11q0 -117 -63 -190
q-31 -36 -74 -53t-102 -17q-55 0 -102.5 23t-75.5 65q-27 43 -29 91z" />
    <glyph glyph-name="uni044E" unicode="&#x44e;" horiz-adv-x="774" 
d="M70 0v510h120v-210h73q5 54 28 99t62 75q60 46 146 46q104 0 170 -66q36 -37 53 -80.5t17 -100.5v-24q0 -131 -83 -202q-59 -56 -156 -56q-103 0 -167 64q-32 32 -48.5 68t-21.5 87h-73v-210h-120zM384 250q0 -83 31 -123q16 -23 36.5 -33.5t48.5 -10.5q55 0 84 43
q31 41 31 134q0 82 -31 123q-30 45 -85 45q-28 0 -48 -11t-36 -34q-31 -40 -31 -133z" />
    <glyph glyph-name="uni044F" unicode="&#x44f;" horiz-adv-x="555" 
d="M31 2v83l20 -1q16 -1 27.5 8t20.5 32q12 29 30.5 50t39.5 29q-50 13 -84 47q-38 38 -38 105q0 59 33 99q23 30 59 43t92 13h253v-510h-120v192h-58q-19 0 -36.5 -9.5t-28.5 -24.5q-11 -17 -35 -76l-12 -29q-18 -34 -45 -47q-23 -13 -71 -11q-15 0 -47 7zM175 346
q0 -32 19 -51q23 -21 81 -21h89v151h-91q-29 0 -46.5 -5t-30.5 -17q-21 -18 -21 -57z" />
    <glyph glyph-name="pi" unicode="&#x3c0;" horiz-adv-x="624" 
d="M585 419v91h-544v-91h79v-419h112v419h167v-272q0 -147 130 -147q41 0 80 11v91q-29 -9 -52 -8q-25 1 -35 13.5t-10 36.5v275h73z" />
    <glyph glyph-name="zero" unicode="0" horiz-adv-x="608" 
d="M303 -13q-121 0 -186 84q-75 87 -75 272q0 126 40 203q32 76 86 112.5t135 36.5q80 0 137.5 -39t86.5 -110q39 -92 39 -203q0 -87 -19 -157t-57 -115q-64 -84 -187 -84zM303 82q43 0 72 23t45 70q10 29 17 80.5t7 87.5q0 32 -5 72t-13 64q-17 63 -45 92t-78 29
q-94 0 -122 -121q-7 -22 -11.5 -61.5t-4.5 -74.5q0 -39 6.5 -89.5t16.5 -78.5q33 -93 115 -93z" />
    <glyph glyph-name="one" unicode="1" horiz-adv-x="530" 
d="M296 686h89v-686h-120v533q-77 -62 -171 -104v110q131 52 202 147z" />
    <glyph glyph-name="two" unicode="2" horiz-adv-x="606" 
d="M173 443h-118q-1 50 18 102q28 73 90.5 111.5t149.5 38.5q72 0 129.5 -32t84.5 -92q17 -35 17 -83q0 -86 -61 -147q-20 -22 -40.5 -37.5t-59.5 -40.5l-58 -39q-101 -66 -131 -124h350v-100h-494v97q10 23 31.5 50t44.5 49q43 42 147 113q67 42 105 72q58 49 45 119
q-9 50 -48 75q-29 20 -66 20q-35 0 -59 -12q-74 -38 -77 -140z" />
    <glyph glyph-name="three" unicode="3" horiz-adv-x="606" 
d="M218 311v86h84q54 4 85.5 30t31.5 69q-1 46 -34 74t-83 28q-54 0 -87 -30t-35 -79h-116q2 61 33 108q30 47 83 73t121 26q63 1 117 -21q55 -23 87 -65.5t32 -95.5q2 -55 -29.5 -98t-83.5 -54v-3q62 -9 100 -50.5t39 -103.5q0 -65 -34 -113q-35 -49 -95 -75.5t-133 -26.5
q-116 0 -184 58q-72 60 -70 157h114q4 -57 43 -88t97 -31q60 0 98 31.5t38 84.5q0 50 -34.5 79.5t-95.5 29.5h-89z" />
    <glyph glyph-name="four" unicode="4" horiz-adv-x="606" 
d="M42 246l292 440h146v-431h87v-98h-87v-157h-121v157h-317v89zM359 561l-190 -306h190v306z" />
    <glyph glyph-name="five" unicode="5" horiz-adv-x="603" 
d="M522 580h-333l-15 -173h3q24 27 62 42q17 7 42 11t49 3q100 -2 159 -65q29 -29 44.5 -71.5t15.5 -90.5q0 -90 -58 -154q-32 -41 -84 -63.5t-111 -21.5q-100 0 -169 50q-70 53 -75 145h115q6 -42 34 -67q36 -33 96 -33q58 0 97 41q38 41 38 102q0 63 -38 98
q-19 19 -46.5 29t-57.5 10q-43 0 -76 -22q-17 -10 -27 -20.5t-20 -28.5h-102l35 385h422v-106z" />
    <glyph glyph-name="six" unicode="6" horiz-adv-x="609" 
d="M555 523h-118q-10 34 -41.5 56t-72.5 22q-56 0 -94 -42q-62 -62 -64 -193h3q21 39 69 64q42 23 106 23q53 0 99 -21q46 -20 80 -60q23 -28 35 -64.5t12 -75.5q0 -49 -18 -98q-21 -46 -52 -76q-31 -31 -80 -50q-45 -18 -102 -18q-147 0 -215 107q-57 85 -57 233
q0 78 17.5 144.5t51.5 114.5q39 55 91 81t121 26q63 0 113 -24q49 -24 79.5 -63t36.5 -86zM178 225q0 -44 24 -77q44 -62 113 -62q28 0 53 10t43 27q36 34 36 100q0 41 -19 76q-17 30 -47 47t-66 17q-38 0 -65 -13q-35 -18 -53.5 -50.5t-18.5 -74.5z" />
    <glyph glyph-name="seven" unicode="7" horiz-adv-x="530" 
d="M43 686h467v-88q-127 -149 -191 -302q-25 -57 -44.5 -138.5t-25.5 -157.5h-130q22 220 140 414q51 82 124 167h-340v105z" />
    <glyph glyph-name="eight" unicode="8" horiz-adv-x="607" 
d="M76 510q0 55 32 97t84.5 65t113.5 23t114 -23q53 -24 84 -66.5t31 -94.5q0 -48 -27 -87.5t-72 -57.5q57 -19 90 -64t33 -104q0 -62 -34 -109q-34 -48 -92 -74t-127 -26q-71 0 -129 26q-59 25 -92 73t-33 109q0 59 33 104t91 65q-47 19 -73.5 56.5t-26.5 87.5zM167 201
q0 -53 40 -88t100 -35q59 0 98 34.5t39 87.5q0 51 -39.5 85t-97.5 34q-59 0 -99.5 -32.5t-40.5 -85.5zM185 502q0 -43 35 -71t86 -28t86 28t35 71q0 45 -35 74.5t-86 29.5q-50 0 -85.5 -30t-35.5 -74z" />
    <glyph glyph-name="nine" unicode="9" horiz-adv-x="617" 
d="M57 163h118q10 -34 41.5 -56t72.5 -22q57 0 94 42q63 63 64 193h-3q-21 -38 -69 -64q-43 -23 -106 -23q-53 0 -99 21q-45 19 -80 60q-23 27 -35 63.5t-12 76.5q0 49 18 98q21 46 52 76q31 31 80 50q45 18 102 18q147 0 215 -107q57 -85 57 -233q0 -78 -17.5 -144.5
t-51.5 -114.5q-39 -55 -91 -81t-121 -26q-63 0 -113 24t-80 63.5t-36 85.5zM434 461q0 44 -24 77q-44 62 -113 62q-28 0 -53 -10t-43 -27q-36 -34 -36 -100q0 -42 19 -76q17 -30 47 -47t66 -17q39 0 65 13q35 18 53.5 50.5t18.5 74.5z" />
    <glyph glyph-name="uni00B2" unicode="&#xb2;" horiz-adv-x="278" 
d="M108 592h-68q-2 31 8 55q11 31 37.5 47.5t63.5 16.5q31 0 55.5 -14t35.5 -39q8 -16 8 -37q0 -37 -26 -63q-14 -15 -41 -32q-10 -7 -28 -19.5t-25 -19.5h120v-61h-210v51q9 22 32.5 42.5t57.5 44.5q29 18 37 26q16 13 13 34q-1 12 -10.5 18.5t-20.5 6.5q-41 0 -39 -57z
" />
    <glyph glyph-name="uni00B3" unicode="&#xb3;" horiz-adv-x="291" 
d="M44 520h65q0 -19 8 -26.5t27 -7.5q23 0 34 6.5t11 21.5q0 27 -43 27h-30v54h28q18 0 28 8t8 23q-2 14 -10.5 18t-25.5 4q-20 0 -27 -7t-7 -27h-60q-3 40 15 61q12 16 34 25t47 9q40 0 67.5 -22t28.5 -56q2 -39 -24 -60q33 -15 33 -57q0 -39 -29.5 -63.5t-75.5 -24.5
q-45 0 -72 21q-33 24 -30 73z" />
    <glyph glyph-name="onehalf" unicode="&#xbd;" horiz-adv-x="664" 
d="M116 701h57v-316h-73v216q-26 -20 -75 -45v70q28 12 49.5 29.5t41.5 45.5zM484 163h-75q-1 34 9 62q12 34 41.5 52t70.5 18q35 0 61.5 -15.5t38.5 -42.5q9 -20 9 -41q0 -39 -29 -70q-13 -15 -45 -35q-6 -5 -20 -13q-27 -18 -39 -30h133v-67h-232v56q11 24 36.5 47
t62.5 49q33 20 41 28q18 16 14 38q-1 14 -11.5 21t-22.5 7q-45 0 -43 -64zM530 686h89l-494 -706h-89z" />
    <glyph glyph-name="onequarter" unicode="&#xbc;" horiz-adv-x="670" 
d="M116 701h57v-316h-73v216q-26 -20 -75 -45v70q28 12 49.5 29.5t41.5 45.5zM542 686h89l-494 -706h-89zM387 99l144 201h74v-190h40v-57h-40v-73h-63v73h-155v46zM542 212l-74 -102h74v102z" />
    <glyph glyph-name="threequarters" unicode="&#xbe;" horiz-adv-x="646" 
d="M25 488h67q1 -20 10.5 -29t31.5 -9q53 0 53 34q0 33 -51 33h-36v55h34q22 0 34 10.5t9 26.5q-2 18 -12.5 23t-30.5 5q-23 0 -31.5 -8t-9.5 -30h-61q-3 43 16 63q13 17 37 27t51 10q43 0 72.5 -24t31.5 -60q3 -41 -27 -67q19 -7 28.5 -24t9.5 -40q0 -42 -33 -68.5
t-82 -26.5q-48 0 -78 22q-36 25 -33 77zM532 686h89l-494 -706h-89zM358 99l144 201h74v-190h40v-57h-40v-73h-63v73h-155v46zM513 212l-74 -102h74v102z" />
    <glyph glyph-name="period" unicode="." horiz-adv-x="271" 
d="M136 1q-28 0 -48 20t-20 48q0 29 20 48.5t48 19.5t48 -20t20 -48t-20 -48t-48 -20z" />
    <glyph glyph-name="comma" unicode="," horiz-adv-x="271" 
d="M55 68q0 29 21.5 48.5t52.5 19.5q36 0 58.5 -26t22.5 -68q0 -59 -22 -100q-22 -38 -55 -60.5t-69 -26.5v52q32 8 55.5 36t24.5 62q-6 -4 -21 -4q-30 0 -49 18.5t-19 48.5z" />
    <glyph glyph-name="colon" unicode=":" horiz-adv-x="271" 
d="M136 0q-28 0 -48 20t-20 48t20 48t48 20t48 -20t20 -48t-20 -48t-48 -20zM136 374q-29 0 -49 20t-20 48t20.5 48t48.5 20t47.5 -20t19.5 -48t-19.5 -48t-47.5 -20z" />
    <glyph glyph-name="semicolon" unicode=";" horiz-adv-x="271" 
d="M55 68q0 29 21.5 48.5t52.5 19.5q36 0 58.5 -26t22.5 -68q0 -59 -22 -100q-22 -38 -55 -60.5t-69 -26.5v52q32 8 55.5 36t24.5 62q-6 -4 -21 -4q-30 0 -49 18.5t-19 48.5zM136 373q-28 0 -48 20t-20 48t20 48t48 20t48 -20t20 -48t-20 -48t-48 -20z" />
    <glyph glyph-name="ellipsis" unicode="&#x2026;" horiz-adv-x="598" 
d="M299 1q-28 0 -48 20t-20 48q0 29 20 48.5t48 19.5t48 -20t20 -48t-20 -48t-48 -20zM299 1q-28 0 -48 20t-20 48q0 29 20 48.5t48 19.5t48 -20t20 -48t-20 -48t-48 -20zM299 1q-28 0 -48 20t-20 48q0 29 20 48.5t48 19.5t48 -20t20 -48t-20 -48t-48 -20zM500 1
q-28 0 -48 20t-20 48q0 29 20 48.5t48 19.5t48 -20t20 -48t-20 -48t-48 -20zM98 0q-28 0 -48 20t-20 48q0 29 20 48.5t48 19.5t48 -20t20 -48t-20 -48t-48 -20z" />
    <glyph glyph-name="exclam" unicode="!" horiz-adv-x="301" 
d="M151 0q-28 0 -48 20t-20 48t20 48t48 20t48 -20t20 -48t-20 -48t-48 -20zM108 193l-34 493h150l-36 -493h-80z" />
    <glyph glyph-name="question" unicode="?" horiz-adv-x="580" 
d="M225 188h109q-1 39 6.5 64.5t25.5 43.5l52 52q80 80 80 172q0 91 -53 141q-54 51 -148 51q-90 0 -149 -49q-60 -54 -58 -144h109q-3 47 26 72q27 24 72 24t69 -26q24 -25 24 -72t-37 -90l-63 -65q-38 -38 -51 -77q-14 -36 -14 -97zM281 0q-28 0 -48 20t-20 48t20 48
t48 20t48 -20t20 -48t-20 -48t-48 -20z" />
    <glyph glyph-name="bullet" unicode="&#x2022;" horiz-adv-x="455" 
d="M238 132q-35 0 -64.5 17t-46.5 46t-17 64t17 64.5t46.5 46.5t64.5 17t64 -17t46 -46.5t17 -64.5q0 -34 -17 -63.5t-46.5 -46.5t-63.5 -17z" />
    <glyph glyph-name="asterisk" unicode="*" horiz-adv-x="523" 
d="M139 780l100 -70l-12 122h80l-12 -122l100 70l42 -68l-112 -51l110 -50l-36 -73l-104 74l12 -120h-80l12 120l-104 -73l-32 72l107 49l-116 52z" />
    <glyph glyph-name="uni2043" unicode="&#x2043;" horiz-adv-x="510" 
d="M100 250v62h310v-62h-310z" />
    <glyph glyph-name="numbersign" unicode="#" 
d="M315 -7l36 187h-120l-37 -187h-101l35 187h-105v100h123l25 122h-113v101h132l38 189h100l-36 -189h120l37 189h104l-38 -189h90v-101h-108l-25 -122h98v-100h-117l-33 -187h-105zM273 402l-24 -122h121l24 122h-121z" />
    <glyph glyph-name="slash" unicode="/" horiz-adv-x="529" 
d="M5 0l409 686h93l-409 -686h-93z" />
    <glyph glyph-name="backslash" unicode="\" horiz-adv-x="546" 
d="M434 0l-412 686h93l412 -686h-93z" />
    <glyph glyph-name="uni2023" unicode="&#x2023;" horiz-adv-x="504" 
d="M102 9l-2 502l329 -255z" />
    <glyph glyph-name="parenleft" unicode="(" horiz-adv-x="289" 
d="M186 675h68q-126 -193 -126 -423q0 -235 127 -431h-68q-73 91 -110.5 199.5t-37.5 227.5q0 114 37 224.5t110 202.5z" />
    <glyph glyph-name="parenright" unicode=")" horiz-adv-x="289" 
d="M35 675h68q73 -92 110 -202.5t37 -224.5q0 -119 -37.5 -227.5t-110.5 -199.5h-68q127 196 127 431q0 230 -126 423z" />
    <glyph glyph-name="braceleft" unicode="{" horiz-adv-x="453" 
d="M404 -87v72h-39q-29 0 -42 5q-14 2 -28 15q-11 11 -17 32q-7 20 -7 52v73q0 34 -8 60q-6 21 -24 46q-6 8 -16.5 15.5t-20.5 15.5q-10 6 -23 12t-25 10v12q39 18 48 24q11 7 21 14.5t16 15.5q18 25 24 46q8 26 8 60v73q0 31 7 52q6 21 17 32q14 13 28 15q18 5 42 5h39v72
h-54q-77 0 -122 -43q-45 -44 -45 -126v-62q0 -28 -5 -58q-6 -27 -20 -47q-14 -18 -38 -29q-25 -10 -58 -10h-13v-79h13q33 0 58 -10q22 -10 38 -29q14 -21 20 -48q5 -28 5 -57v-62q0 -82 45 -126q45 -43 122 -43h54z" />
    <glyph glyph-name="braceright" unicode="}" horiz-adv-x="453" 
d="M49 -87h54q77 0 122 43q45 44 45 126v62q0 29 5 57q6 27 20 48q16 19 38 29q25 10 58 10h13v79h-13q-33 0 -58 10q-24 11 -38 29q-14 20 -20 47q-5 30 -5 58v62q0 82 -45 126q-45 43 -122 43h-54v-72h39q24 0 42 -5q14 -2 28 -15q11 -11 17 -32q7 -21 7 -52v-73
q0 -34 8 -60q6 -21 24 -46q6 -8 16 -15.5t21 -14.5q9 -6 48 -24v-12q-12 -4 -25 -10t-23 -12q-10 -8 -20.5 -15.5t-16.5 -15.5q-18 -25 -24 -46q-8 -26 -8 -60v-73q0 -32 -7 -52q-6 -21 -17 -32q-14 -13 -28 -15q-13 -5 -42 -5h-39v-72z" />
    <glyph glyph-name="bracketleft" unicode="[" horiz-adv-x="299" 
d="M60 -99h210v69h-128v707h128v69h-210v-845z" />
    <glyph glyph-name="bracketright" unicode="]" horiz-adv-x="299" 
d="M29 -30v-69h210v845h-210v-69h128v-707h-128z" />
    <glyph glyph-name="angleleft" unicode="&#x2329;" horiz-adv-x="308" 
d="M193 765h69q-127 -193 -127 -423q0 -237 128 -432h-69q-73 91 -110.5 200t-37.5 228q0 114 37 224.5t110 202.5z" />
    <glyph glyph-name="angleright" unicode="&#x232a;" horiz-adv-x="307" 
d="M47 765h68q73 -92 110 -202.5t37 -224.5q0 -119 -38 -228t-110 -200h-68q127 196 127 432q0 230 -126 423z" />
    <glyph glyph-name="hyphen" unicode="-" horiz-adv-x="430" 
d="M45 234v97h340v-97h-340z" />
    <glyph glyph-name="endash" unicode="&#x2013;" horiz-adv-x="640" 
d="M45 234v97h550v-97h-550z" />
    <glyph glyph-name="emdash" unicode="&#x2014;" horiz-adv-x="790" 
d="M45 234v97h700v-97h-700z" />
    <glyph glyph-name="underscore" unicode="_" horiz-adv-x="650" 
d="M46 -116v97h560v-97h-560z" />
    <glyph glyph-name="quotedblleft" unicode="&#x201c;" horiz-adv-x="436" 
d="M193 502q0 -26 -20 -44t-49 -18q-34 0 -55 24t-21 64q0 54 21 92q20 36 50.5 56.5t64.5 24.5v-48q-30 -8 -52 -34t-23 -58q8 4 20 4q28 0 46 -17t18 -46zM381 502q0 -26 -20 -44t-49 -18q-33 0 -54.5 24t-21.5 64q0 54 21 92q20 36 51 56.5t64 24.5v-48q-30 -8 -52 -34
t-23 -58q8 4 21 4q28 0 45.5 -17t17.5 -46z" />
    <glyph glyph-name="quotedblright" unicode="&#x201d;" horiz-adv-x="437" 
d="M239 623q0 26 20 44.5t49 18.5q34 0 55 -24t21 -64q0 -55 -21 -92q-20 -36 -50.5 -56.5t-64.5 -24.5v48q30 7 52 33t23 58q-6 -4 -20 -4q-28 0 -46 17.5t-18 45.5zM51 623q0 26 20 44.5t49 18.5q34 0 55 -24t21 -64q0 -55 -21 -92q-20 -36 -50.5 -56.5t-64.5 -24.5v48
q30 7 52 33t23 58q-6 -4 -20 -4q-28 0 -46 17.5t-18 45.5z" />
    <glyph glyph-name="guillemotleft" unicode="&#xab;" horiz-adv-x="489" 
d="M151 458h89l-86 -201l86 -207h-89l-110 206zM345 458h89l-86 -201l86 -207h-89l-110 206z" />
    <glyph glyph-name="guillemotright" unicode="&#xbb;" horiz-adv-x="489" 
d="M143 257l-86 201h89l110 -202l-110 -206h-89zM337 257l-86 201h89l110 -202l-110 -206h-89z" />
    <glyph glyph-name="guilsinglleft" unicode="&#x2039;" horiz-adv-x="299" 
d="M165 458h89l-86 -201l86 -207h-89l-110 206z" />
    <glyph glyph-name="guilsinglright" unicode="&#x203a;" horiz-adv-x="299" 
d="M133 258l-86 201h89l110 -202l-110 -206h-89z" />
    <glyph glyph-name="quotedbl" unicode="&#x22;" horiz-adv-x="372" 
d="M154 520h-84l-10 166h105zM301 520h-84l-10 166h105z" />
    <glyph glyph-name="quotesingle" unicode="'" horiz-adv-x="285" 
d="M184 520h-84l-10 166h105z" />
    <glyph glyph-name="dollar" unicode="$" horiz-adv-x="583" 
d="M45 211h102q1 -93 64 -117v228q-73 27 -110 71.5t-37 110.5q1 68 40.5 115.5t106.5 66.5v99h68v-87q5 -1 19 -1q3 0 6.5 0.5t6.5 -0.5v88h71v-102q69 -22 104 -72t34 -114h-102q-2 34 -9.5 54.5t-26.5 32.5v-209q55 -17 91 -44q64 -48 65 -134q1 -74 -41 -125.5
t-115 -72.5v-92h-71v80q-2 1 -3.5 0.5t-3.5 -0.5q-7 -1 -14 -0.5t-11 0.5v-80h-68v88q-161 33 -166 216zM172 510q0 -47 39 -75v153q-20 -11 -29.5 -30t-9.5 -48zM279 604v-198l32 -7v205q-3 -1 -12 -1q-15 0 -20 1zM279 299v-218h24q6 0 8 -1v213zM382 266v-170
q51 28 51 87q0 57 -51 83z" />
    <glyph glyph-name="Euro" unicode="&#x20ac;" horiz-adv-x="691" 
d="M34 252l35 62h78v53h-113l35 61h80q6 61 28 115q34 75 92 113q55 40 137 40q67 0 121.5 -26t87.5 -73.5t36 -111.5h-109q-5 38 -13.5 54t-28.5 35q-19 16 -41.5 23.5t-52.5 7.5q-34 0 -59.5 -14.5t-48.5 -46.5q-31 -45 -37 -116h217l-36 -61h-184v-53h220l-36 -62h-180
q6 -65 33 -112q19 -29 48 -45t61 -15q55 0 84.5 28.5t38.5 88.5h122q-5 -62 -39 -109.5t-88.5 -73.5t-121.5 -26q-116 0 -184 89q-54 69 -65 175h-117z" />
    <glyph glyph-name="franc" unicode="&#x20a3;" horiz-adv-x="578" 
d="M107 102h-97v84h97v500h451v-91h-341v-210h251v-84h-251v-115h96v-84h-96v-102h-110v102z" />
    <glyph glyph-name="uniFF04" unicode="&#xff04;" horiz-adv-x="597" 
d="M40 221h124q1 -66 26 -95t72 -36v217l-15 4q-187 52 -187 190q0 81 55.5 133t146.5 62v124h73v-124q66 -6 113.5 -35t70.5 -74.5t20 -99.5h-124q-2 52 -19.5 77t-60.5 31v-198q63 -17 95 -29t56 -29q71 -51 71 -139q1 -90 -60 -147t-162 -65v-146h-73v146
q-100 8 -161 64.5t-61 168.5zM188 506q0 -62 74 -89v178q-38 -6 -56 -27.5t-18 -61.5zM335 287v-199q94 10 94 99q0 38 -20.5 61.5t-63.5 35.5z" />
    <glyph glyph-name="lira" unicode="&#x20a4;" horiz-adv-x="586" 
d="M412 212h-192v-12q0 -39 -6 -62t-22 -44h348v-94h-492v94h19q23 1 40 43q1 8 3 15.5t3.5 18t0.5 23.5l-1 18h-63v66h61l-2 57h-59v67h57l-3 80q-1 38 6 66.5t24 54.5q25 38 77.5 58t116.5 20q86 0 141 -41.5t57 -133.5h-102q-2 38 -28 61.5t-69 23.5q-51 0 -83.5 -28
t-30.5 -81l3 -80h196v-67h-193l1 -57h192v-66z" />
    <glyph glyph-name="uni20BA" unicode="&#x20ba;" horiz-adv-x="561" 
d="M540 352l1 -33q2 -85 -26.5 -167.5t-78.5 -112.5q-35 -21 -79.5 -30t-117.5 -9h-102v266l-117 -55v106l117 54v49l-117 -55v105l117 54v162h109v-109l116 54v-105l-116 -55v-47l116 54v-105l-116 -55v-223q67 1 101.5 15t52.5 43q41 68 38 176l-2 25z" />
    <glyph glyph-name="peseta" unicode="&#x20a7;" horiz-adv-x="654" 
d="M7 427v97h69v165h252q103 0 168 -42t79 -123h54v-97h-54q-16 -79 -78.5 -120.5t-163.5 -41.5h-147v-265h-110v427h-69zM186 355h139q71 0 102 30q17 15 30 42h-271v-72zM186 524h271q-14 23 -29 38q-18 17 -45.5 27t-57.5 10h-139v-75z" />
    <glyph glyph-name="uni20B1" unicode="&#x20b1;" horiz-adv-x="686" 
d="M7 387v67h87v43h-87v67h87v125h253q88 0 149.5 -32t85.5 -93h78v-67h-62v-19q0 -16 -1 -24h63v-67h-78q-25 -60 -84 -91t-146 -31h-148v-265h-110v387h-87zM204 355h152q71 0 102 30q2 2 6 2h-260v-32zM204 564h256q0 -1 -0.5 -1.5l-0.5 -0.5q-18 17 -45 27t-58 10h-152
v-35zM204 497v-43h289l1 23l-1 20h-289z" />
    <glyph glyph-name="uni20BD" unicode="&#x20bd;" horiz-adv-x="633" 
d="M7 103v84h97v80h-99v84h99v338h253q116 0 183.5 -54.5t67.5 -156.5q0 -103 -64.5 -158t-181.5 -55h-148v-78h94v-84h-94v-103h-110v103h-97zM214 355h139q71 0 102 30q36 32 36 92q0 53 -35 85q-18 17 -45 27t-58 10h-139v-244z" />
    <glyph glyph-name="uni20A8" unicode="&#x20a8;" horiz-adv-x="1142" 
d="M611 97l1 -87q-8 -6 -27.5 -11t-37.5 -5q-62 -2 -98 50q-16 24 -24.5 46t-24.5 68l-9 27q-16 46 -44 72t-62 26h-95v-283h-120v686h262q63 0 105.5 -11t74.5 -37q71 -57 71 -156q0 -75 -39 -122t-107 -63q39 -10 59 -45q11 -14 18.5 -32t22.5 -60q14 -37 25 -49
q13 -15 27 -15zM450 484q0 56 -37 80q-27 20 -89 20h-134v-199h137q62 0 92 24q31 28 31 75zM632 161h116q0 -39 25 -64.5t75 -25.5q110 -2 111 67q1 33 -20 48.5t-58 22.5l-65 14q-79 16 -122 52t-44 90q-1 76 61 116t153 40q100 -1 152 -43.5t54 -106.5h-114
q-3 36 -23.5 52t-61.5 18q-48 1 -74 -16.5t-26 -45.5q0 -26 15.5 -40t53.5 -24l71 -18q91 -22 131 -57t40 -89q0 -81 -63 -121t-170 -39q-112 0 -165 47t-52 123z" />
    <glyph glyph-name="uni20B9" unicode="&#x20b9;" horiz-adv-x="570" 
d="M50 257v96h173q51 0 87 19.5t47 51.5h-307v95h301q-16 38 -50 54.5t-78 16.5h-173v96h480v-96h-108q33 -34 40 -71h68v-95h-67q-12 -87 -75.5 -127t-174.5 -40h-11l250 -257h-139z" />
    <glyph glyph-name="sterling" unicode="&#xa3;" horiz-adv-x="526" 
d="M197 269l4 -73q0 -30 -7 -58.5t-19 -43.5h337v-94h-479v94h29q16 0 27 22q8 19 11.5 34.5t2.5 46.5l-6 72h-67v92h66l-3 119q2 92 62 147q56 57 157 57q90 0 143 -50q27 -24 39.5 -61.5t11.5 -82.5h-93q1 22 -5.5 42.5t-18.5 33.5q-11 12 -36.5 18t-51.5 6q-30 0 -49 -7
t-32 -22q-25 -30 -28 -81l2 -119h204v-92h-201z" />
    <glyph glyph-name="uni20A9" unicode="&#x20a9;" horiz-adv-x="966" 
d="M157 296h-98v93h74l-79 297h115l73 -297h108l82 297h103l83 -297h108l72 297h114l-78 -297h76v-93h-98l-77 -296h-112l-79 296h-119l-77 -296h-112zM485 525l-35 -136h70zM325 296h-61l28 -118zM704 296h-62l33 -118z" />
    <glyph glyph-name="yen" unicode="&#xa5;" horiz-adv-x="645" 
d="M216 354l-186 335h123l169 -319l170 319h123l-185 -335h113v-90h-165l-1 -1v-57h166v-90h-166v-116h-109v116h-164v90h164v57l-1 1h-163v90h112z" />
    <glyph glyph-name="uni29BF" unicode="&#x29bf;" horiz-adv-x="455" 
d="M228 214q-35 0 -64.5 17t-46.5 46t-17 64t17 64.5t46.5 46.5t64.5 17t64 -17t46 -46.5t17 -64.5q0 -34 -17 -63.5t-46.5 -46.5t-63.5 -17z" />
    <glyph glyph-name="uni220E" unicode="&#x220e;" horiz-adv-x="429" 
d="M90 206v249h249v-249h-249z" />
    <glyph glyph-name="uni2218" unicode="&#x2218;" horiz-adv-x="344" 
d="M172 259q-34 0 -58 23.5t-24 57.5q0 35 24 58.5t58 23.5t58 -24t24 -58t-24 -57.5t-58 -23.5z" />
    <glyph glyph-name="uni29E0" unicode="&#x29e0;" horiz-adv-x="618" 
d="M553 372h-116v129h-372v-372h116v-129h372v372zM405 469v-97h-224v-210h-83v307h307z" />
    <glyph glyph-name="uni29C8" unicode="&#x29c8;" horiz-adv-x="709" 
d="M644 397h-102v98h-477v-396h100v-99h479v397zM201 366l405 -1v-336h-403z" />
    <glyph glyph-name="plus" unicode="+" horiz-adv-x="641" 
d="M60 333h216v216h89v-216h216v-89h-216v-216h-89v216h-216v89z" />
    <glyph glyph-name="minus" unicode="&#x2212;" horiz-adv-x="641" 
d="M60 333h521v-89h-521v89z" />
    <glyph glyph-name="equal" unicode="=" horiz-adv-x="599" 
d="M49 340v77h502v-77h-502zM49 170v77h502v-77h-502z" />
    <glyph glyph-name="greater" unicode="&#x3e;" horiz-adv-x="574" 
d="M406 290l-356 136v100l481 -194v-84l-481 -192v98z" />
    <glyph glyph-name="less" unicode="&#x3c;" horiz-adv-x="571" 
d="M526 526v-100l-345 -136l345 -136v-98l-481 192v84z" />
    <glyph glyph-name="greaterequal" unicode="&#x2265;" horiz-adv-x="522" 
d="M386 334l-352 114v87l445 -164v-74l-445 -161v87zM34 63v72h448v-72h-448z" />
    <glyph glyph-name="lessequal" unicode="&#x2264;" horiz-adv-x="520" 
d="M488 540v-87l-352 -114l352 -111v-87l-445 161v74zM40 140h448v-72h-448v72z" />
    <glyph glyph-name="plusminus" unicode="&#xb1;" horiz-adv-x="677" 
d="M82 441h216v176h77v-176h216v-76h-216v-171h-77v171h-216v76zM86 86v80h508v-80h-508z" />
    <glyph glyph-name="caret" unicode="^" 
d="M220 481l69 176l70 -176h95l-131 319h-68l-131 -319h96z" />
    <glyph glyph-name="infinity" unicode="&#x221e;" horiz-adv-x="649" 
d="M152 162q-65 0 -105.5 42.5t-40.5 109.5q0 68 40 111t103 43q38 0 67 -13t49.5 -31.5t56.5 -57.5h8q35 47 73.5 74.5t93.5 27.5q64 0 105 -42.5t41 -109.5q0 -68 -40.5 -111t-104.5 -43q-49 0 -86.5 24.5t-81.5 70.5h-8q-44 -46 -81 -70.5t-89 -24.5zM152 242
q25 0 61 20.5t56 45.5v6q-31 33 -59.5 53t-60.5 20q-29 0 -47.5 -20.5t-18.5 -52.5q0 -34 18.5 -53t50.5 -19zM500 242q29 0 47.5 20t18.5 51q0 35 -18.5 55.5t-50.5 20.5q-21 0 -41.5 -11t-40 -29t-35.5 -33v-8q29 -28 58 -47t62 -19z" />
    <glyph glyph-name="squareroot" unicode="&#x221a;" horiz-adv-x="545" 
d="M473 750l-211 -583l-75 212h-141v-92h84l110 -287h37l280 750h-84z" />
    <glyph glyph-name="uni2219" unicode="&#x2219;" horiz-adv-x="431" 
d="M91 146v249h249v-249h-249z" />
    <glyph glyph-name="percent" unicode="%" horiz-adv-x="691" 
d="M184 488q30 0 51.5 22t21.5 54q0 31 -21.5 52.5t-51.5 21.5q-33 0 -55 -21.5t-22 -52.5q0 -32 22 -54t55 -22zM184 420q-39 0 -72 19.5t-52.5 52.5t-19.5 72q0 37 19.5 69.5t52.5 52t72 19.5q37 0 69.5 -19.5t52 -52t19.5 -69.5q0 -39 -19.5 -72t-52 -52.5t-69.5 -19.5z
M510 42q30 0 51.5 21.5t21.5 53.5q0 31 -21.5 52.5t-51.5 21.5q-33 0 -55 -21.5t-22 -52.5q0 -32 22 -53.5t55 -21.5zM510 -27q-39 0 -72 19.5t-52.5 52.5t-19.5 72q0 38 19.5 70.5t52.5 51.5t72 19q37 0 69.5 -19t52 -51.5t19.5 -70.5q0 -39 -19.5 -72t-52 -52.5
t-69.5 -19.5zM522 687h84l-455 -686h-87z" />
    <glyph glyph-name="arrowright" unicode="&#x279e;" horiz-adv-x="1037" 
d="M997 259l-233 -235v184h-721v100h721v184z" />
    <glyph glyph-name="arrowleft" unicode="&#x279f;" horiz-adv-x="1037" 
d="M997 351l-233 -235v184h-721v100h721v184z" />
    <glyph glyph-name="uni21D8" unicode="&#x21d8;" horiz-adv-x="718" 
d="M688 0h-474l-129 132l348 -3l-383 383l134 134l372 -387l-4 364l136 -138v-485z" />
    <glyph glyph-name="uni27A2" unicode="&#x27a2;" 
d="M33 -2l204 268l-217 234l533 -226zM258 270l249 7l-422 176z" />
    <glyph glyph-name="uni27A3" unicode="&#x27a3;" 
d="M33 66l204 268l-217 234l533 -226zM258 338l249 7l-422 176z" />
    <glyph glyph-name="uni27F6" unicode="&#x27f6;" horiz-adv-x="1586" 
d="M50 272v-53l1382 -2l-84 -130l198 159l-198 154l84 -130z" />
    <glyph glyph-name="uni27FC" unicode="&#x27fc;" horiz-adv-x="1596" 
d="M50 362v-53l1382 -2l-84 -130l198 159l-198 154l84 -130z" />
    <glyph glyph-name="uni25CF" unicode="&#x25cf;" horiz-adv-x="484" 
d="M242 139q-56 0 -103 27.5t-74.5 74.5t-27.5 103t27.5 102.5t74.5 74t103 27.5t103 -27.5t74.5 -74t27.5 -102.5t-27.5 -103t-74.5 -74.5t-103 -27.5z" />
    <glyph glyph-name="circle" unicode="&#x25cb;" horiz-adv-x="479" 
d="M240 139q-54 0 -101 27t-74.5 73.5t-27.5 100.5q0 55 27.5 101.5t74.5 74.5t101 28q55 0 101.5 -27.5t73.5 -74.5t27 -102t-27 -101t-73.5 -73t-101.5 -27zM240 180q43 0 80 22t58.5 58.5t21.5 79.5t-21.5 80t-58.5 58.5t-80 21.5t-80 -21.5t-58.5 -58.5t-21.5 -80
t21.5 -79.5t58.5 -58.5t80 -22z" />
    <glyph glyph-name="uni25EF" unicode="&#x25ef;" horiz-adv-x="546" 
d="M274 94q-68 0 -125.5 33.5t-91.5 91t-34 125.5q0 67 34 125t91.5 92t125.5 34t125.5 -34t91 -92t33.5 -125q0 -68 -33.5 -125.5t-91 -91t-125.5 -33.5zM274 142q55 0 101.5 27t73.5 73t27 102t-27 102.5t-73.5 73.5t-101.5 27q-56 0 -103 -27t-74 -73.5t-27 -102.5
t27 -102t74 -73t103 -27z" />
    <glyph glyph-name="openbullet" unicode="&#x25e6;" horiz-adv-x="344" 
d="M172 186q-34 0 -58 23.5t-24 57.5q0 35 24 58.5t58 23.5t58 -24t24 -58t-24 -57.5t-58 -23.5z" />
    <glyph glyph-name="uni2756" unicode="&#x2756;" horiz-adv-x="440" 
d="M390 344l-169 -168l-171 168l171 170z" />
    <glyph glyph-name="filledrect" unicode="&#x25ac;" horiz-adv-x="520" 
d="M90 291v97h340v-97h-340z" />
    <glyph glyph-name="triagrt" unicode="&#x25ba;" horiz-adv-x="697" 
d="M102 33l-2 437l537 -194z" />
    <glyph glyph-name="triaglf" unicode="&#x25c4;" horiz-adv-x="677" 
d="M102 102l-2 437l537 -194z" />
    <glyph glyph-name="uni25BE" unicode="&#x25be;" horiz-adv-x="479" 
d="M77 94l-2 502l329 -255z" />
    <glyph glyph-name="uni2BCE" unicode="&#x2bce;" 
d="M307 79h-9q0 67 -36 126.5t-95.5 95.5t-126.5 36v9q67 0 126.5 36t95.5 95.5t36 126.5h9q0 -68 35.5 -127.5t95 -95t127.5 -35.5v-9q-68 0 -127.5 -35.5t-95 -95.5t-35.5 -127z" />
    <glyph glyph-name="uni2611" unicode="&#x2611;" horiz-adv-x="545" 
d="M276 173l-10 -6q-14 -9 -23 -17q-2 9 -10 28l-5 12q-18 43 -29 61q-12 18 -27 19q19 17 34 17q20 1 42 -52l8 -19q61 110 136 166h-252v-268h269v260q-95 -85 -133 -201zM450 412v-339h-350v350h339q16 10 18 8l6 -10z" />
    <glyph glyph-name="uni2612" unicode="&#x2612;" horiz-adv-x="546" 
d="M269 262l-10 -6q-14 -9 -23 -17q-2 9 -10 28l-5 12q-18 43 -29 61q-12 18 -27 19q19 17 34 17q20 1 42 -52l8 -19q61 110 136 166h-252v-268h269v260q-95 -85 -133 -201zM443 501v-339h-350v350h339q16 10 18 8l6 -10z" />
    <glyph glyph-name="diamond" unicode="&#x2666;" horiz-adv-x="520" 
d="M430 255l-169 -168l-171 168l171 170z" />
    <glyph glyph-name="uni2713" unicode="&#x2713;" 
d="M259 177l276 276v-109l-276 -277l-154 154v109z" />
    <glyph glyph-name="uni2714" unicode="&#x2714;" 
d="M259 194l276 276v-154l-276 -277l-154 154v154z" />
    <glyph glyph-name="uni2717" unicode="&#x2717;" horiz-adv-x="585" 
d="M244 270l276 276v-109l-276 -277l-154 154v109z" />
    <glyph glyph-name="uni2718" unicode="&#x2718;" 
d="M259 304l276 276v-154l-276 -277l-154 154v154z" />
    <glyph glyph-name="uni274B" unicode="&#x274b;" horiz-adv-x="443" 
d="M95 461l100 -70l-12 122h80l-12 -122l100 70l42 -68l-112 -51l110 -50l-36 -73l-104 74l12 -120h-80l12 120l-104 -73l-32 72l107 49l-116 52z" />
    <glyph glyph-name="uni2751" unicode="&#x2751;" horiz-adv-x="648" 
d="M568 492h-116v129h-372v-372h116v-129h372v372zM420 589v-97h-224v-210h-83v307h307z" />
    <glyph glyph-name="uni2752" unicode="&#x2752;" horiz-adv-x="729" 
d="M654 507h-102v98h-477v-396h100v-99h479v397zM211 476l405 -1v-336h-403z" />
    <glyph glyph-name="at" unicode="@" horiz-adv-x="637" 
d="M599 283q-3 -81 -43 -128q-41 -50 -111 -50q-57 0 -83 37q-11 -13 -28 -21q-26 -16 -57 -16q-59 0 -88 44q-29 39 -21 110q5 52 27 97q20 41 56 69q38 26 80 26q31 0 53 -7q35 -11 63 -35l-18 -181q-2 -26 3 -38.5t20 -12.5q25 0 43 27q18 25 23 81q6 113 -45 170
q-46 55 -149 55q-62 0 -107 -27q-48 -30 -75 -81q-27 -59 -30 -127q-3 -71 18 -125q24 -52 65 -77q47 -29 107 -29q33 0 67 6q63 15 76 22l-1 -62q-23 -19 -70 -29q-41 -9 -73 -9q-88 0 -153 38q-64 36 -98 107q-30 68 -27 160q4 91 44 159q42 76 107 111q68 40 153 40
q86 0 151 -37q66 -39 95 -108q32 -71 26 -159zM260 255q-4 -33 6 -57q8 -13 26 -13q11 0 24 10q10 10 25 40v1l14 137q-9 3 -19 3q-28 0 -48 -29q-22 -31 -28 -92z" />
    <glyph glyph-name="ampersand" unicode="&#x26;" horiz-adv-x="646" 
d="M227 319l156 -168q-27 -41 -64 -61t-74 -20q-53 0 -90.5 28t-34.5 84q1 33 14.5 56.5t34 40t58.5 40.5zM354 534q0 -32 -29.5 -57.5t-77.5 -52.5q-61 65 -61 102q0 35 25 58.5t65 23.5q33 0 55.5 -21t22.5 -53zM497 166l127 212h-106l-85 -148l-127 134q37 24 72 54
t48 55q11 18 12.5 52t-10 69t-35.5 57q-42 43 -121 43q-33 0 -68 -12t-54 -31q-25 -23 -39.5 -55.5t-14.5 -65.5q0 -41 14 -69.5t57 -82.5q-61 -30 -101 -87t-40 -108q0 -55 17 -83q27 -55 80 -85.5t122 -30.5q32 0 62.5 9t52.5 24q48 31 83 74l84 -91h128z" />
    <glyph glyph-name="pilcrow" unicode="&#xb6;" horiz-adv-x="527" 
d="M497 609h-70v-729h-74v729h-67v-729h-76v401q-95 6 -145 62q-51 54 -51 137q0 89 56 148q55 58 175 58h252v-77z" />
    <glyph glyph-name="section" unicode="&#xa7;" horiz-adv-x="493" 
d="M416 540h-92q2 36 -18 64t-51 28q-33 0 -50.5 -15t-17.5 -49q0 -19 8.5 -31.5t27.5 -29.5l26 -19q16 -14 50 -38l29 -21q47 -34 70.5 -54t37.5 -43.5t14 -53.5q-1 -42 -23.5 -70t-64.5 -47q26 -16 37.5 -41t11.5 -61q0 -69 -46.5 -104.5t-111.5 -38.5q-91 -4 -135 44
t-46 132h88q-1 -48 21.5 -71.5t69.5 -23.5q22 0 43.5 15.5t21.5 45.5q0 38 -38 63l-51 35l-60 42q-8 6 -24 16q-35 24 -55 42t-33 42q-12 23 -14 54.5t9 51.5q7 22 32 44.5t47 27.5q-20 18 -29 40t-9 52q0 62 53 108q23 17 53 26.5t60 9.5q68 0 112 -41q47 -42 47 -131z
M233 399l-56 32q-34 -11 -45.5 -41t3.5 -58q3 -7 23.5 -21.5t63.5 -44.5l90 -62q22 12 30.5 18.5t14 18t5.5 31.5q0 29 -31 59t-98 68z" />
    <glyph glyph-name="copyright" unicode="&#xa9;" horiz-adv-x="598" 
d="M300 61q-77 0 -142.5 38t-104 103t-38.5 142t38.5 142.5t104 104t142.5 38.5t142 -38.5t103 -104t38 -142.5t-38 -142t-103 -103t-142 -38zM300 120q61 0 112.5 30t81.5 81.5t30 112.5q0 62 -30 114t-81.5 82t-112.5 30q-62 0 -114 -30t-82 -82t-30 -114q0 -61 30 -112.5
t82 -81.5t114 -30zM362 291h60q-5 -47 -37 -75q-14 -13 -36.5 -20t-47.5 -7q-29 0 -52.5 10t-38.5 28q-34 40 -34 105v22q0 42 15 76q16 31 45 49q26 17 66 17q55 0 83 -27q33 -28 37 -76h-60q-1 14 -6 26.5t-11 18.5q-15 14 -43 14q-16 0 -27 -5.5t-20 -18.5
q-18 -24 -18 -72v-26q0 -46 16 -72q17 -24 48 -24q28 0 43 14q13 12 18 43z" />
    <glyph glyph-name="registered" unicode="&#xae;" horiz-adv-x="598" 
d="M300 61q-77 0 -142.5 38t-104 103t-38.5 142t38.5 142.5t104 104t142.5 38.5t142 -38.5t103 -104t38 -142.5t-38 -142t-103 -103t-142 -38zM300 120q61 0 112.5 30t81.5 81.5t30 112.5q0 62 -30 114t-81.5 82t-112.5 30q-62 0 -114 -30t-82 -82t-30 -114q0 -61 30 -112.5
t82 -81.5t114 -30zM431 243v-37q-4 -3 -12 -5.5t-16 -2.5q-26 0 -42 22q-8 12 -13.5 27.5t-11.5 33.5q-7 19 -19 30.5t-26 11.5h-42v-122h-56v296h117q27 0 45.5 -5t31.5 -16q31 -25 31 -67q0 -33 -16.5 -53t-45.5 -27q15 -4 25 -22l16 -38q6 -16 12 -22q4 -5 12 -5z
M361 409q0 25 -15 36q-12 8 -40 8h-57v-86h59q28 0 40 11q13 10 13 31z" />
    <glyph glyph-name="degree" unicode="&#xb0;" horiz-adv-x="197" 
d="M99 580q-40 0 -69 29t-29 69t29 68.5t69 28.5t68.5 -28.5t28.5 -68.5t-28.5 -69t-68.5 -29zM99 633q18 0 31 13t13 32t-13 32t-31 13q-19 0 -32.5 -13t-13.5 -32t13.5 -32t32.5 -13z" />
    <glyph glyph-name="vline" unicode="|" horiz-adv-x="346" 
d="M121 -143v843h85v-843h-85z" />
    <glyph glyph-name="uni2116" unicode="&#x2116;" horiz-adv-x="1018" 
d="M75 686h142l288 -495h2q-4 21 -4 74v421h108v-686h-116l-315 543h-2q5 -51 5 -80v-463h-108v686zM717 639q38 47 102 47t102 -47q38 -46 38 -129t-38.5 -129t-101.5 -46q-64 0 -102 46.5t-38 128.5q0 85 38 129zM819 626q-32 0 -49 -33q-14 -25 -14 -83q0 -55 13 -81
q16 -34 50 -34q31 0 46 29q17 28 17 86q0 53 -14 83q-15 33 -49 33zM949 202h-260v70h260v-70z" />
    <glyph glyph-name="uni2B24" unicode="&#x2b24;" horiz-adv-x="548" 
d="M274 92q-68 0 -126 33.5t-91.5 91.5t-33.5 127q0 68 33.5 126t91.5 91.5t126 33.5t126 -33.5t91.5 -91.5t33.5 -126q0 -69 -33.5 -127t-91.5 -91.5t-126 -33.5z" />
    <glyph glyph-name="uni2BCC" unicode="&#x2bcc;" horiz-adv-x="645" 
d="M327 -11h-9q0 67 -36 126.5t-95.5 95.5t-126.5 36v9q67 0 126.5 36t95.5 95.5t36 126.5h9q0 -68 35.5 -127.5t95 -95t127.5 -35.5v-9q-68 0 -127.5 -35.5t-95 -95.5t-35.5 -127z" />
    <glyph glyph-name="u1F86E" unicode="&#x1f86e;" horiz-adv-x="718" 
d="M697 0h-471l-103 106l380 -3l-427 414l98 108l423 -421l-5 390l105 -111v-483z" />
    <glyph glyph-name="grave" unicode="`" horiz-adv-x="170" 
d="M150 559h-75l-75 146h96z" />
    <glyph glyph-name="tilde" unicode="~" horiz-adv-x="576" 
d="M487 372l49 -42q-24 -40 -55.5 -66.5t-86.5 -26.5q-27 0 -52 8t-62 25q-36 16 -58.5 24t-47.5 8q-29 0 -45 -12.5t-36 -47.5l-53 37q20 44 56 68t82 24q28 0 55.5 -9t73.5 -28q30 -14 51 -21t37 -7q29 0 49 15t43 51z" />
    </font>
</defs>
</svg>
